<?xml version="1.0" encoding="UTF-8" standalone="no"?>
<!DOCTYPE svg PUBLIC "-//W3C//DTD SVG 1.1//EN"
 "http://www.w3.org/Graphics/SVG/1.1/DTD/svg11.dtd">
<!-- Generated by graphviz version 2.26.3 (20100126.1600)
 -->
<!-- Title: dependencies Pages: 1 -->
<svg width="816pt" height="1116pt"
 viewBox="0.00 0.00 816.00 1116.00" xmlns="http://www.w3.org/2000/svg" xmlns:xlink="http://www.w3.org/1999/xlink">
<g id="graph1" class="graph" transform="scale(1 1) rotate(0) translate(4 1112)">
<title>dependencies</title>
<polygon fill="white" stroke="white" points="-4,5 -4,-1112 813,-1112 813,5 -4,5"/>
<text text-anchor="middle" x="229" y="-1087.8" font-family="Serif" font-size="18.00">Dependency Graph for Plover :: Modeling :: Disp</text>
<!-- com.bee32.plover:plover&#45;disp:0.0.1&#45;SNAPSHOT -->
<g id="node1" class="node"><title>com.bee32.plover:plover&#45;disp:0.0.1&#45;SNAPSHOT</title>
<polygon fill="#dddddd" stroke="black" points="368,-1078 230,-1078 230,-1016 368,-1016 368,-1078"/>
<text text-anchor="middle" x="299" y="-1061.4" font-family="SanSerif" font-size="14.00">com.bee32.plover</text>
<text text-anchor="middle" x="299" y="-1043.4" font-family="SanSerif" font-size="14.00">plover&#45;disp</text>
<text text-anchor="middle" x="299" y="-1025.4" font-family="SanSerif" font-size="14.00">0.0.1&#45;SNAPSHOT</text>
</g>
<!-- com.bee32.plover:plover&#45;commons:0.0.1&#45;SNAPSHOT -->
<g id="node2" class="node"><title>com.bee32.plover:plover&#45;commons:0.0.1&#45;SNAPSHOT</title>
<polygon fill="white" stroke="black" points="515,-934 423,-934 423,-896 515,-896 515,-934"/>
<text text-anchor="middle" x="469" y="-922.8" font-family="SanSerif" font-size="8.00">com.bee32.plover</text>
<text text-anchor="middle" x="469" y="-912.8" font-family="SanSerif" font-size="8.00">plover&#45;commons</text>
<text text-anchor="middle" x="469" y="-902.8" font-family="SanSerif" font-size="8.00">0.0.1&#45;SNAPSHOT</text>
</g>
<!-- com.bee32.plover:plover&#45;disp:0.0.1&#45;SNAPSHOT&#45;&gt;com.bee32.plover:plover&#45;commons:0.0.1&#45;SNAPSHOT -->
<g id="edge64" class="edge"><title>com.bee32.plover:plover&#45;disp:0.0.1&#45;SNAPSHOT&#45;&gt;com.bee32.plover:plover&#45;commons:0.0.1&#45;SNAPSHOT</title>
<path fill="none" stroke="black" d="M339.288,-1015.72C368.829,-992.78 408.444,-962.02 436.092,-940.552"/>
<polygon fill="black" stroke="black" points="438.512,-943.105 444.263,-934.207 434.218,-937.576 438.512,-943.105"/>
</g>
<!-- com.bee32.plover:plover&#45;model:0.0.1&#45;SNAPSHOT -->
<g id="node25" class="node"><title>com.bee32.plover:plover&#45;model:0.0.1&#45;SNAPSHOT</title>
<polygon fill="white" stroke="black" points="515,-710 423,-710 423,-672 515,-672 515,-710"/>
<text text-anchor="middle" x="469" y="-698.8" font-family="SanSerif" font-size="8.00">com.bee32.plover</text>
<text text-anchor="middle" x="469" y="-688.8" font-family="SanSerif" font-size="8.00">plover&#45;model</text>
<text text-anchor="middle" x="469" y="-678.8" font-family="SanSerif" font-size="8.00">0.0.1&#45;SNAPSHOT</text>
</g>
<!-- com.bee32.plover:plover&#45;disp:0.0.1&#45;SNAPSHOT&#45;&gt;com.bee32.plover:plover&#45;model:0.0.1&#45;SNAPSHOT -->
<g id="edge88" class="edge"><title>com.bee32.plover:plover&#45;disp:0.0.1&#45;SNAPSHOT&#45;&gt;com.bee32.plover:plover&#45;model:0.0.1&#45;SNAPSHOT</title>
<path fill="none" stroke="black" d="M280.39,-1015.76C251.855,-963.363 205.344,-856.404 253,-784 288.249,-730.446 361.527,-707.6 412.917,-697.94"/>
<polygon fill="black" stroke="black" points="413.647,-701.365 422.886,-696.178 412.429,-694.472 413.647,-701.365"/>
</g>
<!-- com.bee32.plover:plover&#45;servlet:0.0.1&#45;SNAPSHOT -->
<g id="node30" class="node"><title>com.bee32.plover:plover&#45;servlet:0.0.1&#45;SNAPSHOT</title>
<polygon fill="white" stroke="black" points="345,-934 253,-934 253,-896 345,-896 345,-934"/>
<text text-anchor="middle" x="299" y="-922.8" font-family="SanSerif" font-size="8.00">com.bee32.plover</text>
<text text-anchor="middle" x="299" y="-912.8" font-family="SanSerif" font-size="8.00">plover&#45;servlet</text>
<text text-anchor="middle" x="299" y="-902.8" font-family="SanSerif" font-size="8.00">0.0.1&#45;SNAPSHOT</text>
</g>
<!-- com.bee32.plover:plover&#45;disp:0.0.1&#45;SNAPSHOT&#45;&gt;com.bee32.plover:plover&#45;servlet:0.0.1&#45;SNAPSHOT -->
<g id="edge94" class="edge"><title>com.bee32.plover:plover&#45;disp:0.0.1&#45;SNAPSHOT&#45;&gt;com.bee32.plover:plover&#45;servlet:0.0.1&#45;SNAPSHOT</title>
<path fill="none" stroke="black" d="M299,-1015.72C299,-994.065 299,-965.442 299,-944.246"/>
<polygon fill="black" stroke="black" points="302.5,-944.207 299,-934.207 295.5,-944.207 302.5,-944.207"/>
</g>
<!-- junit:junit:4.8.2 -->
<g id="node32" class="node"><title>junit:junit:4.8.2</title>
<polygon fill="white" stroke="cornflowerblue" points="573,-934 519,-934 519,-896 573,-896 573,-934"/>
<text text-anchor="middle" x="546" y="-922.8" font-family="SanSerif" font-size="8.00" fill="cornflowerblue">junit</text>
<text text-anchor="middle" x="546" y="-912.8" font-family="SanSerif" font-size="8.00" fill="cornflowerblue">junit</text>
<text text-anchor="middle" x="546" y="-902.8" font-family="SanSerif" font-size="8.00" fill="cornflowerblue">4.8.2</text>
</g>
<!-- com.bee32.plover:plover&#45;disp:0.0.1&#45;SNAPSHOT&#45;&gt;junit:junit:4.8.2 -->
<g id="edge96" class="edge"><title>com.bee32.plover:plover&#45;disp:0.0.1&#45;SNAPSHOT&#45;&gt;junit:junit:4.8.2</title>
<path fill="none" stroke="cornflowerblue" d="M361.048,-1015.95C402.253,-995.008 457.621,-966.248 509.965,-936.808"/>
<polygon fill="cornflowerblue" stroke="cornflowerblue" points="511.691,-939.853 518.675,-931.886 508.247,-933.758 511.691,-939.853"/>
<text text-anchor="middle" x="453.5" y="-972.8" font-family="SanSerif" font-size="8.00" fill="cornflowerblue">test</text>
</g>
<!-- com.bee32.plover:plover&#45;arch:0.0.4&#45;SNAPSHOT -->
<g id="node3" class="node"><title>com.bee32.plover:plover&#45;arch:0.0.4&#45;SNAPSHOT</title>
<polygon fill="white" stroke="black" points="515,-486 423,-486 423,-448 515,-448 515,-486"/>
<text text-anchor="middle" x="469" y="-474.8" font-family="SanSerif" font-size="8.00">com.bee32.plover</text>
<text text-anchor="middle" x="469" y="-464.8" font-family="SanSerif" font-size="8.00">plover&#45;arch</text>
<text text-anchor="middle" x="469" y="-454.8" font-family="SanSerif" font-size="8.00">0.0.4&#45;SNAPSHOT</text>
</g>
<!-- com.bee32.plover:plover&#45;commons:0.0.1&#45;SNAPSHOT&#45;&gt;com.bee32.plover:plover&#45;arch:0.0.4&#45;SNAPSHOT -->
<g id="edge36" class="edge"><title>com.bee32.plover:plover&#45;commons:0.0.1&#45;SNAPSHOT&#45;&gt;com.bee32.plover:plover&#45;arch:0.0.4&#45;SNAPSHOT</title>
<path fill="none" stroke="black" d="M492.319,-895.742C514.336,-875.262 544,-840.676 544,-803 544,-803 544,-803 544,-579 544,-545.444 520.47,-514.341 499.769,-493.47"/>
<polygon fill="black" stroke="black" points="501.939,-490.699 492.319,-486.258 497.07,-495.728 501.939,-490.699"/>
</g>
<!-- com.bee32.plover:plover&#45;conf:0.0.1&#45;SNAPSHOT -->
<g id="node19" class="node"><title>com.bee32.plover:plover&#45;conf:0.0.1&#45;SNAPSHOT</title>
<polygon fill="white" stroke="black" points="515,-822 423,-822 423,-784 515,-784 515,-822"/>
<text text-anchor="middle" x="469" y="-810.8" font-family="SanSerif" font-size="8.00">com.bee32.plover</text>
<text text-anchor="middle" x="469" y="-800.8" font-family="SanSerif" font-size="8.00">plover&#45;conf</text>
<text text-anchor="middle" x="469" y="-790.8" font-family="SanSerif" font-size="8.00">0.0.1&#45;SNAPSHOT</text>
</g>
<!-- com.bee32.plover:plover&#45;commons:0.0.1&#45;SNAPSHOT&#45;&gt;com.bee32.plover:plover&#45;conf:0.0.1&#45;SNAPSHOT -->
<g id="edge58" class="edge"><title>com.bee32.plover:plover&#45;commons:0.0.1&#45;SNAPSHOT&#45;&gt;com.bee32.plover:plover&#45;conf:0.0.1&#45;SNAPSHOT</title>
<path fill="none" stroke="black" d="M469,-895.747C469,-878.251 469,-852.189 469,-832.143"/>
<polygon fill="black" stroke="black" points="472.5,-832.002 469,-822.002 465.5,-832.002 472.5,-832.002"/>
</g>
<!-- com.bee32.plover:plover&#45;commons:0.0.1&#45;SNAPSHOT&#45;&gt;com.bee32.plover:plover&#45;model:0.0.1&#45;SNAPSHOT -->
<g id="edge62" class="edge"><title>com.bee32.plover:plover&#45;commons:0.0.1&#45;SNAPSHOT&#45;&gt;com.bee32.plover:plover&#45;model:0.0.1&#45;SNAPSHOT</title>
<path fill="none" stroke="black" d="M481.862,-895.69C493.121,-877.545 508.644,-849.187 515,-822 523.541,-785.467 504.692,-744.932 488.601,-718.766"/>
<polygon fill="black" stroke="black" points="491.416,-716.672 483.074,-710.141 485.522,-720.449 491.416,-716.672"/>
</g>
<!-- com.bee32.plover:plover&#45;collections:0.0.4&#45;SNAPSHOT -->
<g id="node26" class="node"><title>com.bee32.plover:plover&#45;collections:0.0.4&#45;SNAPSHOT</title>
<polygon fill="white" stroke="black" points="419,-822 327,-822 327,-784 419,-784 419,-822"/>
<text text-anchor="middle" x="373" y="-810.8" font-family="SanSerif" font-size="8.00">com.bee32.plover</text>
<text text-anchor="middle" x="373" y="-800.8" font-family="SanSerif" font-size="8.00">plover&#45;collections</text>
<text text-anchor="middle" x="373" y="-790.8" font-family="SanSerif" font-size="8.00">0.0.4&#45;SNAPSHOT</text>
</g>
<!-- com.bee32.plover:plover&#45;commons:0.0.1&#45;SNAPSHOT&#45;&gt;com.bee32.plover:plover&#45;collections:0.0.4&#45;SNAPSHOT -->
<g id="edge60" class="edge"><title>com.bee32.plover:plover&#45;commons:0.0.1&#45;SNAPSHOT&#45;&gt;com.bee32.plover:plover&#45;collections:0.0.4&#45;SNAPSHOT</title>
<path fill="none" stroke="black" d="M452.497,-895.747C436.879,-877.526 413.296,-850.012 395.869,-829.681"/>
<polygon fill="black" stroke="black" points="398.453,-827.317 389.288,-822.002 393.138,-831.873 398.453,-827.317"/>
</g>
<!-- javax.free:freejava&#45;closure:3.0.0 -->
<g id="node4" class="node"><title>javax.free:freejava&#45;closure:3.0.0</title>
<polygon fill="white" stroke="black" points="296,-262 210,-262 210,-224 296,-224 296,-262"/>
<text text-anchor="middle" x="253" y="-250.8" font-family="SanSerif" font-size="8.00">javax.free</text>
<text text-anchor="middle" x="253" y="-240.8" font-family="SanSerif" font-size="8.00">freejava&#45;closure</text>
<text text-anchor="middle" x="253" y="-230.8" font-family="SanSerif" font-size="8.00">3.0.0</text>
</g>
<!-- com.bee32.plover:plover&#45;arch:0.0.4&#45;SNAPSHOT&#45;&gt;javax.free:freejava&#45;closure:3.0.0 -->
<g id="edge4" class="edge"><title>com.bee32.plover:plover&#45;arch:0.0.4&#45;SNAPSHOT&#45;&gt;javax.free:freejava&#45;closure:3.0.0</title>
<path fill="none" stroke="black" d="M460.685,-447.865C452.614,-429.133 440.133,-399.74 430,-374 423.407,-357.252 427.631,-349.735 416,-336 399.851,-316.93 344.529,-287.322 302.779,-266.652"/>
<polygon fill="black" stroke="black" points="304.08,-263.392 293.562,-262.124 300.994,-269.675 304.08,-263.392"/>
</g>
<!-- javax.free:freejava&#45;traits:3.0.0 -->
<g id="node6" class="node"><title>javax.free:freejava&#45;traits:3.0.0</title>
<polygon fill="white" stroke="black" points="588,-374 512,-374 512,-336 588,-336 588,-374"/>
<text text-anchor="middle" x="550" y="-362.8" font-family="SanSerif" font-size="8.00">javax.free</text>
<text text-anchor="middle" x="550" y="-352.8" font-family="SanSerif" font-size="8.00">freejava&#45;traits</text>
<text text-anchor="middle" x="550" y="-342.8" font-family="SanSerif" font-size="8.00">3.0.0</text>
</g>
<!-- com.bee32.plover:plover&#45;arch:0.0.4&#45;SNAPSHOT&#45;&gt;javax.free:freejava&#45;traits:3.0.0 -->
<g id="edge6" class="edge"><title>com.bee32.plover:plover&#45;arch:0.0.4&#45;SNAPSHOT&#45;&gt;javax.free:freejava&#45;traits:3.0.0</title>
<path fill="none" stroke="black" d="M482.924,-447.747C495.985,-429.687 515.648,-402.499 530.312,-382.222"/>
<polygon fill="black" stroke="black" points="533.233,-384.156 536.257,-374.002 527.561,-380.054 533.233,-384.156"/>
</g>
<!-- javax.free:freejava&#45;string:3.0.0 -->
<g id="node7" class="node"><title>javax.free:freejava&#45;string:3.0.0</title>
<polygon fill="white" stroke="black" points="508,-374 430,-374 430,-336 508,-336 508,-374"/>
<text text-anchor="middle" x="469" y="-362.8" font-family="SanSerif" font-size="8.00">javax.free</text>
<text text-anchor="middle" x="469" y="-352.8" font-family="SanSerif" font-size="8.00">freejava&#45;string</text>
<text text-anchor="middle" x="469" y="-342.8" font-family="SanSerif" font-size="8.00">3.0.0</text>
</g>
<!-- com.bee32.plover:plover&#45;arch:0.0.4&#45;SNAPSHOT&#45;&gt;javax.free:freejava&#45;string:3.0.0 -->
<g id="edge18" class="edge"><title>com.bee32.plover:plover&#45;arch:0.0.4&#45;SNAPSHOT&#45;&gt;javax.free:freejava&#45;string:3.0.0</title>
<path fill="none" stroke="black" d="M469,-447.747C469,-430.251 469,-404.189 469,-384.143"/>
<polygon fill="black" stroke="black" points="472.5,-384.002 469,-374.002 465.5,-384.002 472.5,-384.002"/>
</g>
<!-- javax.free:freejava&#45;collection:3.0.0 -->
<g id="node13" class="node"><title>javax.free:freejava&#45;collection:3.0.0</title>
<polygon fill="white" stroke="black" points="416,-374 322,-374 322,-336 416,-336 416,-374"/>
<text text-anchor="middle" x="369" y="-362.8" font-family="SanSerif" font-size="8.00">javax.free</text>
<text text-anchor="middle" x="369" y="-352.8" font-family="SanSerif" font-size="8.00">freejava&#45;collection</text>
<text text-anchor="middle" x="369" y="-342.8" font-family="SanSerif" font-size="8.00">3.0.0</text>
</g>
<!-- com.bee32.plover:plover&#45;arch:0.0.4&#45;SNAPSHOT&#45;&gt;javax.free:freejava&#45;collection:3.0.0 -->
<g id="edge28" class="edge"><title>com.bee32.plover:plover&#45;arch:0.0.4&#45;SNAPSHOT&#45;&gt;javax.free:freejava&#45;collection:3.0.0</title>
<path fill="none" stroke="black" d="M451.562,-447.985C441.917,-437.427 429.744,-424.032 419,-412 410.232,-402.182 400.685,-391.336 392.305,-381.765"/>
<polygon fill="black" stroke="black" points="394.799,-379.3 385.583,-374.074 389.529,-383.907 394.799,-379.3"/>
</g>
<!-- org.slf4j:slf4j&#45;log4j12:1.4.2 -->
<g id="node16" class="node"><title>org.slf4j:slf4j&#45;log4j12:1.4.2</title>
<polygon fill="white" stroke="black" points="660,-374 592,-374 592,-336 660,-336 660,-374"/>
<text text-anchor="middle" x="626" y="-362.8" font-family="SanSerif" font-size="8.00">org.slf4j</text>
<text text-anchor="middle" x="626" y="-352.8" font-family="SanSerif" font-size="8.00">slf4j&#45;log4j12</text>
<text text-anchor="middle" x="626" y="-342.8" font-family="SanSerif" font-size="8.00">1.4.2</text>
</g>
<!-- com.bee32.plover:plover&#45;arch:0.0.4&#45;SNAPSHOT&#45;&gt;org.slf4j:slf4j&#45;log4j12:1.4.2 -->
<g id="edge34" class="edge"><title>com.bee32.plover:plover&#45;arch:0.0.4&#45;SNAPSHOT&#45;&gt;org.slf4j:slf4j&#45;log4j12:1.4.2</title>
<path fill="none" stroke="black" d="M495.989,-447.747C522.322,-428.961 562.5,-400.299 591.218,-379.813"/>
<polygon fill="black" stroke="black" points="593.255,-382.659 599.363,-374.002 589.189,-376.96 593.255,-382.659"/>
</g>
<!-- javax.free:freejava&#45;meta:3.0.0 -->
<g id="node5" class="node"><title>javax.free:freejava&#45;meta:3.0.0</title>
<polygon fill="white" stroke="black" points="641,-150 565,-150 565,-112 641,-112 641,-150"/>
<text text-anchor="middle" x="603" y="-138.8" font-family="SanSerif" font-size="8.00">javax.free</text>
<text text-anchor="middle" x="603" y="-128.8" font-family="SanSerif" font-size="8.00">freejava&#45;meta</text>
<text text-anchor="middle" x="603" y="-118.8" font-family="SanSerif" font-size="8.00">3.0.0</text>
</g>
<!-- javax.free:freejava&#45;closure:3.0.0&#45;&gt;javax.free:freejava&#45;meta:3.0.0 -->
<g id="edge2" class="edge"><title>javax.free:freejava&#45;closure:3.0.0&#45;&gt;javax.free:freejava&#45;meta:3.0.0</title>
<path fill="none" stroke="black" d="M296.227,-225.362C297.496,-224.896 298.756,-224.441 300,-224 388.975,-192.427 494.789,-161.401 554.904,-144.371"/>
<polygon fill="black" stroke="black" points="556.193,-147.644 564.866,-141.559 554.291,-140.907 556.193,-147.644"/>
</g>
<!-- javax.free:freejava&#45;c1:3.0.0 -->
<g id="node12" class="node"><title>javax.free:freejava&#45;c1:3.0.0</title>
<polygon fill="white" stroke="black" points="561,-38 497,-38 497,-7.10543e-15 561,-3.55271e-15 561,-38"/>
<text text-anchor="middle" x="529" y="-26.8" font-family="SanSerif" font-size="8.00">javax.free</text>
<text text-anchor="middle" x="529" y="-16.8" font-family="SanSerif" font-size="8.00">freejava&#45;c1</text>
<text text-anchor="middle" x="529" y="-6.8" font-family="SanSerif" font-size="8.00">3.0.0</text>
</g>
<!-- javax.free:freejava&#45;meta:3.0.0&#45;&gt;javax.free:freejava&#45;c1:3.0.0 -->
<g id="edge70" class="edge"><title>javax.free:freejava&#45;meta:3.0.0&#45;&gt;javax.free:freejava&#45;c1:3.0.0</title>
<path fill="none" stroke="black" d="M590.279,-111.747C578.4,-93.7676 560.543,-66.7413 547.166,-46.4942"/>
<polygon fill="black" stroke="black" points="549.988,-44.4162 541.555,-38.0022 544.147,-48.275 549.988,-44.4162"/>
</g>
<!-- javax.free:freejava&#45;annotation:3.0.0 -->
<g id="node27" class="node"><title>javax.free:freejava&#45;annotation:3.0.0</title>
<polygon fill="white" stroke="black" points="663,-38 565,-38 565,-7.10543e-15 663,-3.55271e-15 663,-38"/>
<text text-anchor="middle" x="614" y="-26.8" font-family="SanSerif" font-size="8.00">javax.free</text>
<text text-anchor="middle" x="614" y="-16.8" font-family="SanSerif" font-size="8.00">freejava&#45;annotation</text>
<text text-anchor="middle" x="614" y="-6.8" font-family="SanSerif" font-size="8.00">3.0.0</text>
</g>
<!-- javax.free:freejava&#45;meta:3.0.0&#45;&gt;javax.free:freejava&#45;annotation:3.0.0 -->
<g id="edge68" class="edge"><title>javax.free:freejava&#45;meta:3.0.0&#45;&gt;javax.free:freejava&#45;annotation:3.0.0</title>
<path fill="none" stroke="black" d="M604.891,-111.747C606.609,-94.2513 609.169,-68.1891 611.138,-48.1429"/>
<polygon fill="black" stroke="black" points="614.639,-48.2965 612.134,-38.0022 607.673,-47.6122 614.639,-48.2965"/>
</g>
<!-- javax.free:freejava&#45;traits:3.0.0&#45;&gt;javax.free:freejava&#45;meta:3.0.0 -->
<g id="edge72" class="edge"><title>javax.free:freejava&#45;traits:3.0.0&#45;&gt;javax.free:freejava&#45;meta:3.0.0</title>
<path fill="none" stroke="black" d="M571.553,-335.728C580.859,-326.023 590.792,-313.468 596,-300 613.87,-253.784 611.224,-195.07 607.344,-160.412"/>
<polygon fill="black" stroke="black" points="610.763,-159.547 606.065,-150.051 603.816,-160.405 610.763,-159.547"/>
</g>
<!-- javax.free:freejava&#45;lang:3.0.0 -->
<g id="node15" class="node"><title>javax.free:freejava&#45;lang:3.0.0</title>
<polygon fill="white" stroke="black" points="682,-262 610,-262 610,-224 682,-224 682,-262"/>
<text text-anchor="middle" x="646" y="-250.8" font-family="SanSerif" font-size="8.00">javax.free</text>
<text text-anchor="middle" x="646" y="-240.8" font-family="SanSerif" font-size="8.00">freejava&#45;lang</text>
<text text-anchor="middle" x="646" y="-230.8" font-family="SanSerif" font-size="8.00">3.0.0</text>
</g>
<!-- javax.free:freejava&#45;traits:3.0.0&#45;&gt;javax.free:freejava&#45;lang:3.0.0 -->
<g id="edge76" class="edge"><title>javax.free:freejava&#45;traits:3.0.0&#45;&gt;javax.free:freejava&#45;lang:3.0.0</title>
<path fill="none" stroke="black" d="M571.875,-335.849C582.938,-325.691 596.26,-312.709 607,-300 614.703,-290.885 622.312,-280.241 628.735,-270.636"/>
<polygon fill="black" stroke="black" points="631.722,-272.464 634.269,-262.18 625.864,-268.631 631.722,-272.464"/>
</g>
<!-- javax.free:freejava&#45;jdk6compat:3.0.0 -->
<g id="node28" class="node"><title>javax.free:freejava&#45;jdk6compat:3.0.0</title>
<polygon fill="white" stroke="black" points="747,-150 645,-150 645,-112 747,-112 747,-150"/>
<text text-anchor="middle" x="696" y="-138.8" font-family="SanSerif" font-size="8.00">javax.free</text>
<text text-anchor="middle" x="696" y="-128.8" font-family="SanSerif" font-size="8.00">freejava&#45;jdk6compat</text>
<text text-anchor="middle" x="696" y="-118.8" font-family="SanSerif" font-size="8.00">3.0.0</text>
</g>
<!-- javax.free:freejava&#45;traits:3.0.0&#45;&gt;javax.free:freejava&#45;jdk6compat:3.0.0 -->
<g id="edge78" class="edge"><title>javax.free:freejava&#45;traits:3.0.0&#45;&gt;javax.free:freejava&#45;jdk6compat:3.0.0</title>
<path fill="none" stroke="black" d="M583.416,-335.846C618.516,-315.005 670.238,-281.994 682,-262 700.305,-230.884 701.36,-188.34 699.478,-160.288"/>
<polygon fill="black" stroke="black" points="702.964,-159.973 698.642,-150.3 695.988,-160.557 702.964,-159.973"/>
</g>
<!-- commons&#45;lang:commons&#45;lang:2.6 -->
<g id="node8" class="node"><title>commons&#45;lang:commons&#45;lang:2.6</title>
<polygon fill="white" stroke="black" points="586,-262 506,-262 506,-224 586,-224 586,-262"/>
<text text-anchor="middle" x="546" y="-250.8" font-family="SanSerif" font-size="8.00">commons&#45;lang</text>
<text text-anchor="middle" x="546" y="-240.8" font-family="SanSerif" font-size="8.00">commons&#45;lang</text>
<text text-anchor="middle" x="546" y="-230.8" font-family="SanSerif" font-size="8.00">2.6</text>
</g>
<!-- javax.free:freejava&#45;string:3.0.0&#45;&gt;commons&#45;lang:commons&#45;lang:2.6 -->
<g id="edge8" class="edge"><title>javax.free:freejava&#45;string:3.0.0&#45;&gt;commons&#45;lang:commons&#45;lang:2.6</title>
<path fill="none" stroke="black" d="M482.237,-335.747C494.597,-317.768 513.178,-290.741 527.098,-270.494"/>
<polygon fill="black" stroke="black" points="530.155,-272.226 532.936,-262.002 524.386,-268.26 530.155,-272.226"/>
</g>
<!-- javax.free:freejava&#45;sio:3.0.0 -->
<g id="node9" class="node"><title>javax.free:freejava&#45;sio:3.0.0</title>
<polygon fill="white" stroke="black" points="502,-262 436,-262 436,-224 502,-224 502,-262"/>
<text text-anchor="middle" x="469" y="-250.8" font-family="SanSerif" font-size="8.00">javax.free</text>
<text text-anchor="middle" x="469" y="-240.8" font-family="SanSerif" font-size="8.00">freejava&#45;sio</text>
<text text-anchor="middle" x="469" y="-230.8" font-family="SanSerif" font-size="8.00">3.0.0</text>
</g>
<!-- javax.free:freejava&#45;string:3.0.0&#45;&gt;javax.free:freejava&#45;sio:3.0.0 -->
<g id="edge14" class="edge"><title>javax.free:freejava&#45;string:3.0.0&#45;&gt;javax.free:freejava&#45;sio:3.0.0</title>
<path fill="none" stroke="black" d="M469,-335.747C469,-318.251 469,-292.189 469,-272.143"/>
<polygon fill="black" stroke="black" points="472.5,-272.002 469,-262.002 465.5,-272.002 472.5,-272.002"/>
</g>
<!-- javax.free:freejava&#45;string:3.0.0&#45;&gt;javax.free:freejava&#45;c1:3.0.0 -->
<g id="edge16" class="edge"><title>javax.free:freejava&#45;string:3.0.0&#45;&gt;javax.free:freejava&#45;c1:3.0.0</title>
<path fill="none" stroke="black" d="M508.126,-336.005C535.498,-320.345 569.93,-295.301 586,-262 593.34,-246.789 588.328,-240.728 586,-224 581.288,-190.139 574.196,-182.927 565,-150 555.198,-114.904 544.116,-74.4586 536.868,-47.9018"/>
<polygon fill="black" stroke="black" points="540.204,-46.8322 534.197,-38.1054 533.451,-48.6739 540.204,-46.8322"/>
</g>
<!-- javax.free:freejava&#45;bits:3.0.0 -->
<g id="node10" class="node"><title>javax.free:freejava&#45;bits:3.0.0</title>
<polygon fill="white" stroke="black" points="504,-150 434,-150 434,-112 504,-112 504,-150"/>
<text text-anchor="middle" x="469" y="-138.8" font-family="SanSerif" font-size="8.00">javax.free</text>
<text text-anchor="middle" x="469" y="-128.8" font-family="SanSerif" font-size="8.00">freejava&#45;bits</text>
<text text-anchor="middle" x="469" y="-118.8" font-family="SanSerif" font-size="8.00">3.0.0</text>
</g>
<!-- javax.free:freejava&#45;sio:3.0.0&#45;&gt;javax.free:freejava&#45;bits:3.0.0 -->
<g id="edge10" class="edge"><title>javax.free:freejava&#45;sio:3.0.0&#45;&gt;javax.free:freejava&#45;bits:3.0.0</title>
<path fill="none" stroke="black" d="M469,-223.747C469,-206.251 469,-180.189 469,-160.143"/>
<polygon fill="black" stroke="black" points="472.5,-160.002 469,-150.002 465.5,-160.002 472.5,-160.002"/>
</g>
<!-- javax.free:freejava&#45;proxy&#45;api:3.0.0 -->
<g id="node11" class="node"><title>javax.free:freejava&#45;proxy&#45;api:3.0.0</title>
<polygon fill="white" stroke="black" points="388,-150 296,-150 296,-112 388,-112 388,-150"/>
<text text-anchor="middle" x="342" y="-138.8" font-family="SanSerif" font-size="8.00">javax.free</text>
<text text-anchor="middle" x="342" y="-128.8" font-family="SanSerif" font-size="8.00">freejava&#45;proxy&#45;api</text>
<text text-anchor="middle" x="342" y="-118.8" font-family="SanSerif" font-size="8.00">3.0.0</text>
</g>
<!-- javax.free:freejava&#45;sio:3.0.0&#45;&gt;javax.free:freejava&#45;proxy&#45;api:3.0.0 -->
<g id="edge12" class="edge"><title>javax.free:freejava&#45;sio:3.0.0&#45;&gt;javax.free:freejava&#45;proxy&#45;api:3.0.0</title>
<path fill="none" stroke="black" d="M447.168,-223.747C426.233,-205.284 394.479,-177.28 371.34,-156.875"/>
<polygon fill="black" stroke="black" points="373.362,-153.991 363.547,-150.002 368.732,-159.242 373.362,-153.991"/>
</g>
<!-- javax.free:freejava&#45;collection:3.0.0&#45;&gt;javax.free:freejava&#45;closure:3.0.0 -->
<g id="edge26" class="edge"><title>javax.free:freejava&#45;collection:3.0.0&#45;&gt;javax.free:freejava&#45;closure:3.0.0</title>
<path fill="none" stroke="black" d="M349.059,-335.747C330.02,-317.364 301.186,-289.525 280.076,-269.143"/>
<polygon fill="black" stroke="black" points="282.306,-266.43 272.681,-262.002 277.444,-271.466 282.306,-266.43"/>
</g>
<!-- javax.free:freejava&#45;collection:3.0.0&#45;&gt;javax.free:freejava&#45;c1:3.0.0 -->
<g id="edge22" class="edge"><title>javax.free:freejava&#45;collection:3.0.0&#45;&gt;javax.free:freejava&#45;c1:3.0.0</title>
<path fill="none" stroke="black" d="M321.693,-341.638C284.017,-328.222 233.788,-303.471 210,-262 201.597,-247.35 204.659,-240.022 210,-224 229.676,-164.971 244.544,-149.758 294,-112 353.219,-66.7886 437.268,-40.6381 487.154,-28.1536"/>
<polygon fill="black" stroke="black" points="488.071,-31.5327 496.959,-25.7661 486.415,-24.7314 488.071,-31.5327"/>
</g>
<!-- net.sourceforge.collections:collections&#45;generic:4.01 -->
<g id="node14" class="node"><title>net.sourceforge.collections:collections&#45;generic:4.01</title>
<polygon fill="white" stroke="black" points="432,-262 300,-262 300,-224 432,-224 432,-262"/>
<text text-anchor="middle" x="366" y="-250.8" font-family="SanSerif" font-size="8.00">net.sourceforge.collections</text>
<text text-anchor="middle" x="366" y="-240.8" font-family="SanSerif" font-size="8.00">collections&#45;generic</text>
<text text-anchor="middle" x="366" y="-230.8" font-family="SanSerif" font-size="8.00">4.01</text>
</g>
<!-- javax.free:freejava&#45;collection:3.0.0&#45;&gt;net.sourceforge.collections:collections&#45;generic:4.01 -->
<g id="edge20" class="edge"><title>javax.free:freejava&#45;collection:3.0.0&#45;&gt;net.sourceforge.collections:collections&#45;generic:4.01</title>
<path fill="none" stroke="black" d="M368.484,-335.747C368.016,-318.251 367.318,-292.189 366.781,-272.143"/>
<polygon fill="black" stroke="black" points="370.276,-271.905 366.509,-262.002 363.278,-272.092 370.276,-271.905"/>
</g>
<!-- javax.free:freejava&#45;collection:3.0.0&#45;&gt;javax.free:freejava&#45;lang:3.0.0 -->
<g id="edge24" class="edge"><title>javax.free:freejava&#45;collection:3.0.0&#45;&gt;javax.free:freejava&#45;lang:3.0.0</title>
<path fill="none" stroke="black" d="M416.303,-335.874C467.837,-315.037 549.694,-281.94 600.504,-261.395"/>
<polygon fill="black" stroke="black" points="601.966,-264.58 609.925,-257.586 599.342,-258.09 601.966,-264.58"/>
</g>
<!-- javax.free:freejava&#45;lang:3.0.0&#45;&gt;javax.free:freejava&#45;jdk6compat:3.0.0 -->
<g id="edge74" class="edge"><title>javax.free:freejava&#45;lang:3.0.0&#45;&gt;javax.free:freejava&#45;jdk6compat:3.0.0</title>
<path fill="none" stroke="black" d="M654.595,-223.747C662.514,-206.009 674.363,-179.467 683.359,-159.315"/>
<polygon fill="black" stroke="black" points="686.636,-160.56 687.517,-150.002 680.244,-157.707 686.636,-160.56"/>
</g>
<!-- org.slf4j:slf4j&#45;api:1.4.2 -->
<g id="node17" class="node"><title>org.slf4j:slf4j&#45;api:1.4.2</title>
<polygon fill="white" stroke="black" points="808,-262 754,-262 754,-224 808,-224 808,-262"/>
<text text-anchor="middle" x="781" y="-250.8" font-family="SanSerif" font-size="8.00">org.slf4j</text>
<text text-anchor="middle" x="781" y="-240.8" font-family="SanSerif" font-size="8.00">slf4j&#45;api</text>
<text text-anchor="middle" x="781" y="-230.8" font-family="SanSerif" font-size="8.00">1.4.2</text>
</g>
<!-- org.slf4j:slf4j&#45;log4j12:1.4.2&#45;&gt;org.slf4j:slf4j&#45;api:1.4.2 -->
<g id="edge30" class="edge"><title>org.slf4j:slf4j&#45;log4j12:1.4.2&#45;&gt;org.slf4j:slf4j&#45;api:1.4.2</title>
<path fill="none" stroke="black" d="M652.645,-335.747C678.531,-317.042 717.969,-288.545 746.295,-268.077"/>
<polygon fill="black" stroke="black" points="748.647,-270.696 754.702,-262.002 744.547,-265.022 748.647,-270.696"/>
</g>
<!-- log4j:log4j:1.2.13 -->
<g id="node18" class="node"><title>log4j:log4j:1.2.13</title>
<polygon fill="white" stroke="black" points="750,-262 696,-262 696,-224 750,-224 750,-262"/>
<text text-anchor="middle" x="723" y="-250.8" font-family="SanSerif" font-size="8.00">log4j</text>
<text text-anchor="middle" x="723" y="-240.8" font-family="SanSerif" font-size="8.00">log4j</text>
<text text-anchor="middle" x="723" y="-230.8" font-family="SanSerif" font-size="8.00">1.2.13</text>
</g>
<!-- org.slf4j:slf4j&#45;log4j12:1.4.2&#45;&gt;log4j:log4j:1.2.13 -->
<g id="edge32" class="edge"><title>org.slf4j:slf4j&#45;log4j12:1.4.2&#45;&gt;log4j:log4j:1.2.13</title>
<path fill="none" stroke="black" d="M654.3,-335.784C667.179,-326.092 681.969,-313.531 693,-300 699.995,-291.419 706.067,-280.951 710.883,-271.338"/>
<polygon fill="black" stroke="black" points="714.136,-272.646 715.268,-262.112 707.814,-269.641 714.136,-272.646"/>
</g>
<!-- com.bee32.plover:plover&#45;conf:0.0.1&#45;SNAPSHOT&#45;&gt;com.bee32.plover:plover&#45;arch:0.0.4&#45;SNAPSHOT -->
<g id="edge54" class="edge"><title>com.bee32.plover:plover&#45;conf:0.0.1&#45;SNAPSHOT&#45;&gt;com.bee32.plover:plover&#45;arch:0.0.4&#45;SNAPSHOT</title>
<path fill="none" stroke="black" d="M482.204,-783.753C501.801,-752.921 535.328,-690.205 526,-634 517.637,-583.605 495.985,-528.007 481.904,-495.365"/>
<polygon fill="black" stroke="black" points="485.02,-493.757 477.8,-486.003 478.609,-496.567 485.02,-493.757"/>
</g>
<!-- javax.free:freejava&#45;context:3.0.0 -->
<g id="node20" class="node"><title>javax.free:freejava&#45;context:3.0.0</title>
<polygon fill="white" stroke="black" points="289,-486 205,-486 205,-448 289,-448 289,-486"/>
<text text-anchor="middle" x="247" y="-474.8" font-family="SanSerif" font-size="8.00">javax.free</text>
<text text-anchor="middle" x="247" y="-464.8" font-family="SanSerif" font-size="8.00">freejava&#45;context</text>
<text text-anchor="middle" x="247" y="-454.8" font-family="SanSerif" font-size="8.00">3.0.0</text>
</g>
<!-- com.bee32.plover:plover&#45;conf:0.0.1&#45;SNAPSHOT&#45;&gt;javax.free:freejava&#45;context:3.0.0 -->
<g id="edge52" class="edge"><title>com.bee32.plover:plover&#45;conf:0.0.1&#45;SNAPSHOT&#45;&gt;javax.free:freejava&#45;context:3.0.0</title>
<path fill="none" stroke="black" d="M456.428,-783.972C419.197,-727.622 309.37,-561.398 265.454,-494.93"/>
<polygon fill="black" stroke="black" points="268.142,-492.649 259.709,-486.235 262.301,-496.508 268.142,-492.649"/>
</g>
<!-- com.bee32.plover:plover&#45;conf:0.0.1&#45;SNAPSHOT&#45;&gt;com.bee32.plover:plover&#45;model:0.0.1&#45;SNAPSHOT -->
<g id="edge56" class="edge"><title>com.bee32.plover:plover&#45;conf:0.0.1&#45;SNAPSHOT&#45;&gt;com.bee32.plover:plover&#45;model:0.0.1&#45;SNAPSHOT</title>
<path fill="none" stroke="black" d="M469,-783.747C469,-766.251 469,-740.189 469,-720.143"/>
<polygon fill="black" stroke="black" points="472.5,-720.002 469,-710.002 465.5,-720.002 472.5,-720.002"/>
</g>
<!-- javax.free:freejava&#45;context:3.0.0&#45;&gt;javax.free:freejava&#45;closure:3.0.0 -->
<g id="edge46" class="edge"><title>javax.free:freejava&#45;context:3.0.0&#45;&gt;javax.free:freejava&#45;closure:3.0.0</title>
<path fill="none" stroke="black" d="M247.512,-447.902C248.563,-408.64 250.974,-318.652 252.221,-272.094"/>
<polygon fill="black" stroke="black" points="255.721,-272.14 252.49,-262.05 248.723,-271.952 255.721,-272.14"/>
</g>
<!-- javax.free:freejava&#45;context:3.0.0&#45;&gt;javax.free:freejava&#45;collection:3.0.0 -->
<g id="edge48" class="edge"><title>javax.free:freejava&#45;context:3.0.0&#45;&gt;javax.free:freejava&#45;collection:3.0.0</title>
<path fill="none" stroke="black" d="M267.973,-447.747C288.084,-429.284 318.587,-401.28 340.815,-380.875"/>
<polygon fill="black" stroke="black" points="343.302,-383.343 348.301,-374.002 338.568,-378.187 343.302,-383.343"/>
</g>
<!-- javax.free:freejava&#45;jvmhack:3.0.0 -->
<g id="node21" class="node"><title>javax.free:freejava&#45;jvmhack:3.0.0</title>
<polygon fill="white" stroke="black" points="158,-374 70,-374 70,-336 158,-336 158,-374"/>
<text text-anchor="middle" x="114" y="-362.8" font-family="SanSerif" font-size="8.00">javax.free</text>
<text text-anchor="middle" x="114" y="-352.8" font-family="SanSerif" font-size="8.00">freejava&#45;jvmhack</text>
<text text-anchor="middle" x="114" y="-342.8" font-family="SanSerif" font-size="8.00">3.0.0</text>
</g>
<!-- javax.free:freejava&#45;context:3.0.0&#45;&gt;javax.free:freejava&#45;jvmhack:3.0.0 -->
<g id="edge44" class="edge"><title>javax.free:freejava&#45;context:3.0.0&#45;&gt;javax.free:freejava&#45;jvmhack:3.0.0</title>
<path fill="none" stroke="black" d="M224.136,-447.747C202.116,-429.203 168.667,-401.036 144.41,-380.608"/>
<polygon fill="black" stroke="black" points="146.469,-377.766 136.565,-374.002 141.96,-383.121 146.469,-377.766"/>
</g>
<!-- javax.free:freejava&#45;sysinfo:3.0.0 -->
<g id="node24" class="node"><title>javax.free:freejava&#45;sysinfo:3.0.0</title>
<polygon fill="white" stroke="black" points="246,-374 162,-374 162,-336 246,-336 246,-374"/>
<text text-anchor="middle" x="204" y="-362.8" font-family="SanSerif" font-size="8.00">javax.free</text>
<text text-anchor="middle" x="204" y="-352.8" font-family="SanSerif" font-size="8.00">freejava&#45;sysinfo</text>
<text text-anchor="middle" x="204" y="-342.8" font-family="SanSerif" font-size="8.00">3.0.0</text>
</g>
<!-- javax.free:freejava&#45;context:3.0.0&#45;&gt;javax.free:freejava&#45;sysinfo:3.0.0 -->
<g id="edge50" class="edge"><title>javax.free:freejava&#45;context:3.0.0&#45;&gt;javax.free:freejava&#45;sysinfo:3.0.0</title>
<path fill="none" stroke="black" d="M239.608,-447.747C232.829,-430.09 222.7,-403.708 214.977,-383.59"/>
<polygon fill="black" stroke="black" points="218.147,-382.083 211.296,-374.002 211.612,-384.592 218.147,-382.083"/>
</g>
<!-- asm:asm:3.1 -->
<g id="node22" class="node"><title>asm:asm:3.1</title>
<polygon fill="white" stroke="black" points="54,-262 1.42109e-14,-262 3.55271e-15,-224 54,-224 54,-262"/>
<text text-anchor="middle" x="27" y="-250.8" font-family="SanSerif" font-size="8.00">asm</text>
<text text-anchor="middle" x="27" y="-240.8" font-family="SanSerif" font-size="8.00">asm</text>
<text text-anchor="middle" x="27" y="-230.8" font-family="SanSerif" font-size="8.00">3.1</text>
</g>
<!-- javax.free:freejava&#45;jvmhack:3.0.0&#45;&gt;asm:asm:3.1 -->
<g id="edge38" class="edge"><title>javax.free:freejava&#45;jvmhack:3.0.0&#45;&gt;asm:asm:3.1</title>
<path fill="none" stroke="black" d="M99.0442,-335.747C84.9531,-317.606 63.7076,-290.256 47.9352,-269.951"/>
<polygon fill="black" stroke="black" points="50.6593,-267.752 41.7607,-262.002 45.1312,-272.047 50.6593,-267.752"/>
</g>
<!-- javax.free:freejava&#45;proxy&#45;java&#45;security:3.0.0 -->
<g id="node23" class="node"><title>javax.free:freejava&#45;proxy&#45;java&#45;security:3.0.0</title>
<polygon fill="white" stroke="black" points="192,-262 58,-262 58,-224 192,-224 192,-262"/>
<text text-anchor="middle" x="125" y="-250.8" font-family="SanSerif" font-size="8.00">javax.free</text>
<text text-anchor="middle" x="125" y="-240.8" font-family="SanSerif" font-size="8.00">freejava&#45;proxy&#45;java&#45;security</text>
<text text-anchor="middle" x="125" y="-230.8" font-family="SanSerif" font-size="8.00">3.0.0</text>
</g>
<!-- javax.free:freejava&#45;jvmhack:3.0.0&#45;&gt;javax.free:freejava&#45;proxy&#45;java&#45;security:3.0.0 -->
<g id="edge42" class="edge"><title>javax.free:freejava&#45;jvmhack:3.0.0&#45;&gt;javax.free:freejava&#45;proxy&#45;java&#45;security:3.0.0</title>
<path fill="none" stroke="black" d="M115.891,-335.747C117.609,-318.251 120.169,-292.189 122.138,-272.143"/>
<polygon fill="black" stroke="black" points="125.639,-272.296 123.134,-262.002 118.673,-271.612 125.639,-272.296"/>
</g>
<!-- javax.free:freejava&#45;proxy&#45;java&#45;security:3.0.0&#45;&gt;javax.free:freejava&#45;proxy&#45;api:3.0.0 -->
<g id="edge40" class="edge"><title>javax.free:freejava&#45;proxy&#45;java&#45;security:3.0.0&#45;&gt;javax.free:freejava&#45;proxy&#45;api:3.0.0</title>
<path fill="none" stroke="black" d="M162.304,-223.747C199.403,-204.599 256.385,-175.188 296.207,-154.635"/>
<polygon fill="black" stroke="black" points="297.902,-157.699 305.183,-150.002 294.692,-151.479 297.902,-157.699"/>
</g>
<!-- com.bee32.plover:plover&#45;model:0.0.1&#45;SNAPSHOT&#45;&gt;com.bee32.plover:plover&#45;arch:0.0.4&#45;SNAPSHOT -->
<g id="edge66" class="edge"><title>com.bee32.plover:plover&#45;model:0.0.1&#45;SNAPSHOT&#45;&gt;com.bee32.plover:plover&#45;arch:0.0.4&#45;SNAPSHOT</title>
<path fill="none" stroke="black" d="M469,-671.902C469,-632.64 469,-542.652 469,-496.094"/>
<polygon fill="black" stroke="black" points="472.5,-496.05 469,-486.05 465.5,-496.05 472.5,-496.05"/>
</g>
<!-- com.bee32.plover:plover&#45;model:0.0.1&#45;SNAPSHOT&#45;&gt;javax.free:freejava&#45;traits:3.0.0 -->
<g id="edge80" class="edge"><title>com.bee32.plover:plover&#45;model:0.0.1&#45;SNAPSHOT&#45;&gt;javax.free:freejava&#45;traits:3.0.0</title>
<path fill="none" stroke="black" d="M473.587,-671.972C487.088,-615.968 526.753,-451.433 542.969,-384.165"/>
<polygon fill="black" stroke="black" points="546.422,-384.777 545.363,-374.235 539.617,-383.137 546.422,-384.777"/>
</g>
<!-- com.bee32.plover:plover&#45;inject:0.0.1&#45;SNAPSHOT -->
<g id="node29" class="node"><title>com.bee32.plover:plover&#45;inject:0.0.1&#45;SNAPSHOT</title>
<polygon fill="white" stroke="black" points="462,-598 370,-598 370,-560 462,-560 462,-598"/>
<text text-anchor="middle" x="416" y="-586.8" font-family="SanSerif" font-size="8.00">com.bee32.plover</text>
<text text-anchor="middle" x="416" y="-576.8" font-family="SanSerif" font-size="8.00">plover&#45;inject</text>
<text text-anchor="middle" x="416" y="-566.8" font-family="SanSerif" font-size="8.00">0.0.1&#45;SNAPSHOT</text>
</g>
<!-- com.bee32.plover:plover&#45;model:0.0.1&#45;SNAPSHOT&#45;&gt;com.bee32.plover:plover&#45;inject:0.0.1&#45;SNAPSHOT -->
<g id="edge86" class="edge"><title>com.bee32.plover:plover&#45;model:0.0.1&#45;SNAPSHOT&#45;&gt;com.bee32.plover:plover&#45;inject:0.0.1&#45;SNAPSHOT</title>
<path fill="none" stroke="black" d="M459.889,-671.747C451.496,-654.009 438.935,-627.467 429.399,-607.315"/>
<polygon fill="black" stroke="black" points="432.433,-605.544 424.992,-598.002 426.106,-608.538 432.433,-605.544"/>
</g>
<!-- com.bee32.plover:plover&#45;inject:0.0.1&#45;SNAPSHOT&#45;&gt;com.bee32.plover:plover&#45;arch:0.0.4&#45;SNAPSHOT -->
<g id="edge84" class="edge"><title>com.bee32.plover:plover&#45;inject:0.0.1&#45;SNAPSHOT&#45;&gt;com.bee32.plover:plover&#45;arch:0.0.4&#45;SNAPSHOT</title>
<path fill="none" stroke="black" d="M425.111,-559.747C433.504,-542.009 446.065,-515.467 455.601,-495.315"/>
<polygon fill="black" stroke="black" points="458.894,-496.538 460.008,-486.002 452.567,-493.544 458.894,-496.538"/>
</g>
<!-- com.bee32.plover:plover&#45;inject:0.0.1&#45;SNAPSHOT&#45;&gt;javax.free:freejava&#45;collection:3.0.0 -->
<g id="edge82" class="edge"><title>com.bee32.plover:plover&#45;inject:0.0.1&#45;SNAPSHOT&#45;&gt;javax.free:freejava&#45;collection:3.0.0</title>
<path fill="none" stroke="black" d="M411.993,-559.902C403.755,-520.64 384.873,-430.652 375.105,-384.094"/>
<polygon fill="black" stroke="black" points="378.476,-383.118 372.997,-374.05 371.625,-384.555 378.476,-383.118"/>
</g>
<!-- com.bee32.plover:plover&#45;servlet:0.0.1&#45;SNAPSHOT&#45;&gt;com.bee32.plover:plover&#45;inject:0.0.1&#45;SNAPSHOT -->
<g id="edge92" class="edge"><title>com.bee32.plover:plover&#45;servlet:0.0.1&#45;SNAPSHOT&#45;&gt;com.bee32.plover:plover&#45;inject:0.0.1&#45;SNAPSHOT</title>
<path fill="none" stroke="black" d="M283.393,-895.962C264.514,-870.515 236.91,-823.978 251,-784 277.624,-708.46 345.163,-640.243 385.093,-604.745"/>
<polygon fill="black" stroke="black" points="387.475,-607.311 392.691,-598.089 382.862,-602.046 387.475,-607.311"/>
</g>
<!-- javax.servlet:servlet&#45;api:2.5 -->
<g id="node31" class="node"><title>javax.servlet:servlet&#45;api:2.5</title>
<polygon fill="white" stroke="black" points="323,-822 253,-822 253,-784 323,-784 323,-822"/>
<text text-anchor="middle" x="288" y="-810.8" font-family="SanSerif" font-size="8.00">javax.servlet</text>
<text text-anchor="middle" x="288" y="-800.8" font-family="SanSerif" font-size="8.00">servlet&#45;api</text>
<text text-anchor="middle" x="288" y="-790.8" font-family="SanSerif" font-size="8.00">2.5</text>
</g>
<!-- com.bee32.plover:plover&#45;servlet:0.0.1&#45;SNAPSHOT&#45;&gt;javax.servlet:servlet&#45;api:2.5 -->
<g id="edge90" class="edge"><title>com.bee32.plover:plover&#45;servlet:0.0.1&#45;SNAPSHOT&#45;&gt;javax.servlet:servlet&#45;api:2.5</title>
<path fill="none" stroke="black" d="M297.109,-895.747C295.391,-878.251 292.831,-852.189 290.862,-832.143"/>
<polygon fill="black" stroke="black" points="294.327,-831.612 289.866,-822.002 287.361,-832.296 294.327,-831.612"/>
</g>
</g>
</svg>
