<?xml version="1.0" encoding="UTF-8" standalone="no"?>
<!DOCTYPE svg PUBLIC "-//W3C//DTD SVG 1.1//EN"
 "http://www.w3.org/Graphics/SVG/1.1/DTD/svg11.dtd">
<!-- Generated by graphviz version 2.26.3 (20100126.1600)
 -->
<!-- Title: dependencies Pages: 1 -->
<svg width="768pt" height="1076pt"
 viewBox="0.00 0.00 767.53 1076.00" xmlns="http://www.w3.org/2000/svg" xmlns:xlink="http://www.w3.org/1999/xlink">
<g id="graph1" class="graph" transform="scale(1 1) rotate(0) translate(4 1072)">
<title>dependencies</title>
<polygon fill="white" stroke="white" points="-4,5 -4,-1072 764.532,-1072 764.532,5 -4,5"/>
<text text-anchor="middle" x="221" y="-1047.8" font-family="Serif" font-size="18.00">Dependency Graph for Plover :: Repr :: X2html</text>
<!-- com.bee32.plover:plover&#45;x2html:0.0.1&#45;SNAPSHOT -->
<g id="node1" class="node"><title>com.bee32.plover:plover&#45;x2html:0.0.1&#45;SNAPSHOT</title>
<polygon fill="#dddddd" stroke="black" points="465.672,-1038 327.672,-1038 327.672,-976 465.672,-976 465.672,-1038"/>
<text text-anchor="middle" x="396.672" y="-1021.4" font-family="SanSerif" font-size="14.00">com.bee32.plover</text>
<text text-anchor="middle" x="396.672" y="-1003.4" font-family="SanSerif" font-size="14.00">plover&#45;x2html</text>
<text text-anchor="middle" x="396.672" y="-985.4" font-family="SanSerif" font-size="14.00">0.0.1&#45;SNAPSHOT</text>
</g>
<!-- com.bee32.plover:plover&#45;repr:0.0.1&#45;SNAPSHOT -->
<g id="node2" class="node"><title>com.bee32.plover:plover&#45;repr:0.0.1&#45;SNAPSHOT</title>
<polygon fill="white" stroke="black" points="442.672,-894 350.672,-894 350.672,-856 442.672,-856 442.672,-894"/>
<text text-anchor="middle" x="396.672" y="-882.8" font-family="SanSerif" font-size="8.00">com.bee32.plover</text>
<text text-anchor="middle" x="396.672" y="-872.8" font-family="SanSerif" font-size="8.00">plover&#45;repr</text>
<text text-anchor="middle" x="396.672" y="-862.8" font-family="SanSerif" font-size="8.00">0.0.1&#45;SNAPSHOT</text>
</g>
<!-- com.bee32.plover:plover&#45;x2html:0.0.1&#45;SNAPSHOT&#45;&gt;com.bee32.plover:plover&#45;repr:0.0.1&#45;SNAPSHOT -->
<g id="edge80" class="edge"><title>com.bee32.plover:plover&#45;x2html:0.0.1&#45;SNAPSHOT&#45;&gt;com.bee32.plover:plover&#45;repr:0.0.1&#45;SNAPSHOT</title>
<path fill="none" stroke="black" d="M396.672,-975.718C396.672,-954.065 396.672,-925.442 396.672,-904.246"/>
<polygon fill="black" stroke="black" points="400.172,-904.207 396.672,-894.207 393.172,-904.207 400.172,-904.207"/>
</g>
<!-- com.bee32.plover:plover&#45;javascript:0.0.1&#45;SNAPSHOT -->
<g id="node27" class="node"><title>com.bee32.plover:plover&#45;javascript:0.0.1&#45;SNAPSHOT</title>
<polygon fill="white" stroke="black" points="602.672,-820 510.672,-820 510.672,-782 602.672,-782 602.672,-820"/>
<text text-anchor="middle" x="556.672" y="-808.8" font-family="SanSerif" font-size="8.00">com.bee32.plover</text>
<text text-anchor="middle" x="556.672" y="-798.8" font-family="SanSerif" font-size="8.00">plover&#45;javascript</text>
<text text-anchor="middle" x="556.672" y="-788.8" font-family="SanSerif" font-size="8.00">0.0.1&#45;SNAPSHOT</text>
</g>
<!-- com.bee32.plover:plover&#45;x2html:0.0.1&#45;SNAPSHOT&#45;&gt;com.bee32.plover:plover&#45;javascript:0.0.1&#45;SNAPSHOT -->
<g id="edge88" class="edge"><title>com.bee32.plover:plover&#45;x2html:0.0.1&#45;SNAPSHOT&#45;&gt;com.bee32.plover:plover&#45;javascript:0.0.1&#45;SNAPSHOT</title>
<path fill="none" stroke="black" d="M409.645,-975.936C419.019,-953.298 431.878,-921.847 442.672,-894 449.177,-877.218 444.933,-869.644 456.672,-856 464.129,-847.332 485.189,-835.3 506.071,-824.699"/>
<polygon fill="black" stroke="black" points="507.899,-827.699 515.284,-820.103 504.774,-821.435 507.899,-827.699"/>
</g>
<!-- junit:junit:4.8.2 -->
<g id="node28" class="node"><title>junit:junit:4.8.2</title>
<polygon fill="white" stroke="cornflowerblue" points="510.672,-894 456.672,-894 456.672,-856 510.672,-856 510.672,-894"/>
<text text-anchor="middle" x="483.672" y="-882.8" font-family="SanSerif" font-size="8.00" fill="cornflowerblue">junit</text>
<text text-anchor="middle" x="483.672" y="-872.8" font-family="SanSerif" font-size="8.00" fill="cornflowerblue">junit</text>
<text text-anchor="middle" x="483.672" y="-862.8" font-family="SanSerif" font-size="8.00" fill="cornflowerblue">4.8.2</text>
</g>
<!-- com.bee32.plover:plover&#45;x2html:0.0.1&#45;SNAPSHOT&#45;&gt;junit:junit:4.8.2 -->
<g id="edge90" class="edge"><title>com.bee32.plover:plover&#45;x2html:0.0.1&#45;SNAPSHOT&#45;&gt;junit:junit:4.8.2</title>
<path fill="none" stroke="cornflowerblue" d="M426.384,-975.676C435.787,-964.864 445.776,-952.354 453.672,-940 460.94,-928.627 467.44,-915.207 472.516,-903.523"/>
<polygon fill="cornflowerblue" stroke="cornflowerblue" points="475.786,-904.774 476.43,-894.199 469.332,-902.064 475.786,-904.774"/>
<text text-anchor="middle" x="468.172" y="-932.8" font-family="SanSerif" font-size="8.00" fill="cornflowerblue">test</text>
</g>
<!-- javax.free:freejava&#45;collection:3.0.0 -->
<g id="node3" class="node"><title>javax.free:freejava&#45;collection:3.0.0</title>
<polygon fill="white" stroke="black" points="559.672,-410 465.672,-410 465.672,-372 559.672,-372 559.672,-410"/>
<text text-anchor="middle" x="512.672" y="-398.8" font-family="SanSerif" font-size="8.00">javax.free</text>
<text text-anchor="middle" x="512.672" y="-388.8" font-family="SanSerif" font-size="8.00">freejava&#45;collection</text>
<text text-anchor="middle" x="512.672" y="-378.8" font-family="SanSerif" font-size="8.00">3.0.0</text>
</g>
<!-- com.bee32.plover:plover&#45;repr:0.0.1&#45;SNAPSHOT&#45;&gt;javax.free:freejava&#45;collection:3.0.0 -->
<g id="edge14" class="edge"><title>com.bee32.plover:plover&#45;repr:0.0.1&#45;SNAPSHOT&#45;&gt;javax.free:freejava&#45;collection:3.0.0</title>
<path fill="none" stroke="black" d="M422.602,-855.88C453.983,-830.322 502.672,-781.834 502.672,-727 502.672,-727 502.672,-727 502.672,-503 502.672,-474.856 505.843,-442.891 508.614,-420.334"/>
<polygon fill="black" stroke="black" points="512.09,-420.74 509.886,-410.377 505.147,-419.853 512.09,-420.74"/>
</g>
<!-- javax.free:freejava&#45;io:3.0.0 -->
<g id="node10" class="node"><title>javax.free:freejava&#45;io:3.0.0</title>
<polygon fill="white" stroke="black" points="357.672,-522 295.672,-522 295.672,-484 357.672,-484 357.672,-522"/>
<text text-anchor="middle" x="326.672" y="-510.8" font-family="SanSerif" font-size="8.00">javax.free</text>
<text text-anchor="middle" x="326.672" y="-500.8" font-family="SanSerif" font-size="8.00">freejava&#45;io</text>
<text text-anchor="middle" x="326.672" y="-490.8" font-family="SanSerif" font-size="8.00">3.0.0</text>
</g>
<!-- com.bee32.plover:plover&#45;repr:0.0.1&#45;SNAPSHOT&#45;&gt;javax.free:freejava&#45;io:3.0.0 -->
<g id="edge56" class="edge"><title>com.bee32.plover:plover&#45;repr:0.0.1&#45;SNAPSHOT&#45;&gt;javax.free:freejava&#45;io:3.0.0</title>
<path fill="none" stroke="black" d="M387.693,-855.826C376.527,-831.053 357.824,-786.314 348.672,-746 331.48,-670.279 327.628,-578.408 326.827,-532.338"/>
<polygon fill="black" stroke="black" points="330.325,-532.124 326.688,-522.173 323.325,-532.22 330.325,-532.124"/>
</g>
<!-- com.bee32.plover:plover&#45;model:0.0.1&#45;SNAPSHOT -->
<g id="node21" class="node"><title>com.bee32.plover:plover&#45;model:0.0.1&#45;SNAPSHOT</title>
<polygon fill="white" stroke="black" points="442.672,-746 350.672,-746 350.672,-708 442.672,-708 442.672,-746"/>
<text text-anchor="middle" x="396.672" y="-734.8" font-family="SanSerif" font-size="8.00">com.bee32.plover</text>
<text text-anchor="middle" x="396.672" y="-724.8" font-family="SanSerif" font-size="8.00">plover&#45;model</text>
<text text-anchor="middle" x="396.672" y="-714.8" font-family="SanSerif" font-size="8.00">0.0.1&#45;SNAPSHOT</text>
</g>
<!-- com.bee32.plover:plover&#45;repr:0.0.1&#45;SNAPSHOT&#45;&gt;com.bee32.plover:plover&#45;model:0.0.1&#45;SNAPSHOT -->
<g id="edge78" class="edge"><title>com.bee32.plover:plover&#45;repr:0.0.1&#45;SNAPSHOT&#45;&gt;com.bee32.plover:plover&#45;model:0.0.1&#45;SNAPSHOT</title>
<path fill="none" stroke="black" d="M396.672,-855.955C396.672,-830.784 396.672,-786.18 396.672,-756.598"/>
<polygon fill="black" stroke="black" points="400.172,-756.442 396.672,-746.442 393.172,-756.442 400.172,-756.442"/>
</g>
<!-- net.sourceforge.collections:collections&#45;generic:4.01 -->
<g id="node4" class="node"><title>net.sourceforge.collections:collections&#45;generic:4.01</title>
<polygon fill="white" stroke="black" points="749.672,-262 617.672,-262 617.672,-224 749.672,-224 749.672,-262"/>
<text text-anchor="middle" x="683.672" y="-250.8" font-family="SanSerif" font-size="8.00">net.sourceforge.collections</text>
<text text-anchor="middle" x="683.672" y="-240.8" font-family="SanSerif" font-size="8.00">collections&#45;generic</text>
<text text-anchor="middle" x="683.672" y="-230.8" font-family="SanSerif" font-size="8.00">4.01</text>
</g>
<!-- javax.free:freejava&#45;collection:3.0.0&#45;&gt;net.sourceforge.collections:collections&#45;generic:4.01 -->
<g id="edge2" class="edge"><title>javax.free:freejava&#45;collection:3.0.0&#45;&gt;net.sourceforge.collections:collections&#45;generic:4.01</title>
<path fill="none" stroke="black" d="M534.677,-371.955C564.991,-345.718 619.7,-298.368 653.72,-268.923"/>
<polygon fill="black" stroke="black" points="656.209,-271.397 661.48,-262.207 651.628,-266.105 656.209,-271.397"/>
</g>
<!-- javax.free:freejava&#45;c1:3.0.0 -->
<g id="node5" class="node"><title>javax.free:freejava&#45;c1:3.0.0</title>
<polygon fill="white" stroke="black" points="379.672,-38 315.672,-38 315.672,-7.10543e-15 379.672,-3.55271e-15 379.672,-38"/>
<text text-anchor="middle" x="347.672" y="-26.8" font-family="SanSerif" font-size="8.00">javax.free</text>
<text text-anchor="middle" x="347.672" y="-16.8" font-family="SanSerif" font-size="8.00">freejava&#45;c1</text>
<text text-anchor="middle" x="347.672" y="-6.8" font-family="SanSerif" font-size="8.00">3.0.0</text>
</g>
<!-- javax.free:freejava&#45;collection:3.0.0&#45;&gt;javax.free:freejava&#45;c1:3.0.0 -->
<g id="edge4" class="edge"><title>javax.free:freejava&#45;collection:3.0.0&#45;&gt;javax.free:freejava&#45;c1:3.0.0</title>
<path fill="none" stroke="black" d="M559.814,-380.192C642.424,-358.868 800.022,-306.195 749.672,-224 669.254,-92.7206 475.42,-42.1921 389.678,-25.7978"/>
<polygon fill="black" stroke="black" points="390.242,-22.3429 379.772,-23.9645 388.968,-29.226 390.242,-22.3429"/>
</g>
<!-- javax.free:freejava&#45;lang:3.0.0 -->
<g id="node6" class="node"><title>javax.free:freejava&#45;lang:3.0.0</title>
<polygon fill="white" stroke="black" points="523.672,-262 451.672,-262 451.672,-224 523.672,-224 523.672,-262"/>
<text text-anchor="middle" x="487.672" y="-250.8" font-family="SanSerif" font-size="8.00">javax.free</text>
<text text-anchor="middle" x="487.672" y="-240.8" font-family="SanSerif" font-size="8.00">freejava&#45;lang</text>
<text text-anchor="middle" x="487.672" y="-230.8" font-family="SanSerif" font-size="8.00">3.0.0</text>
</g>
<!-- javax.free:freejava&#45;collection:3.0.0&#45;&gt;javax.free:freejava&#45;lang:3.0.0 -->
<g id="edge8" class="edge"><title>javax.free:freejava&#45;collection:3.0.0&#45;&gt;javax.free:freejava&#45;lang:3.0.0</title>
<path fill="none" stroke="black" d="M509.454,-371.955C505.203,-346.784 497.668,-302.18 492.671,-272.598"/>
<polygon fill="black" stroke="black" points="496.073,-271.72 490.956,-262.442 489.17,-272.886 496.073,-271.72"/>
</g>
<!-- javax.free:freejava&#45;closure:3.0.0 -->
<g id="node8" class="node"><title>javax.free:freejava&#45;closure:3.0.0</title>
<polygon fill="white" stroke="black" points="613.672,-262 527.672,-262 527.672,-224 613.672,-224 613.672,-262"/>
<text text-anchor="middle" x="570.672" y="-250.8" font-family="SanSerif" font-size="8.00">javax.free</text>
<text text-anchor="middle" x="570.672" y="-240.8" font-family="SanSerif" font-size="8.00">freejava&#45;closure</text>
<text text-anchor="middle" x="570.672" y="-230.8" font-family="SanSerif" font-size="8.00">3.0.0</text>
</g>
<!-- javax.free:freejava&#45;collection:3.0.0&#45;&gt;javax.free:freejava&#45;closure:3.0.0 -->
<g id="edge12" class="edge"><title>javax.free:freejava&#45;collection:3.0.0&#45;&gt;javax.free:freejava&#45;closure:3.0.0</title>
<path fill="none" stroke="black" d="M520.135,-371.955C530.086,-346.563 547.787,-301.396 559.376,-271.823"/>
<polygon fill="black" stroke="black" points="562.662,-273.03 563.052,-262.442 556.145,-270.476 562.662,-273.03"/>
</g>
<!-- javax.free:freejava&#45;jdk6compat:3.0.0 -->
<g id="node7" class="node"><title>javax.free:freejava&#45;jdk6compat:3.0.0</title>
<polygon fill="white" stroke="black" points="463.672,-150 361.672,-150 361.672,-112 463.672,-112 463.672,-150"/>
<text text-anchor="middle" x="412.672" y="-138.8" font-family="SanSerif" font-size="8.00">javax.free</text>
<text text-anchor="middle" x="412.672" y="-128.8" font-family="SanSerif" font-size="8.00">freejava&#45;jdk6compat</text>
<text text-anchor="middle" x="412.672" y="-118.8" font-family="SanSerif" font-size="8.00">3.0.0</text>
</g>
<!-- javax.free:freejava&#45;lang:3.0.0&#45;&gt;javax.free:freejava&#45;jdk6compat:3.0.0 -->
<g id="edge6" class="edge"><title>javax.free:freejava&#45;lang:3.0.0&#45;&gt;javax.free:freejava&#45;jdk6compat:3.0.0</title>
<path fill="none" stroke="black" d="M474.779,-223.747C462.739,-205.768 444.641,-178.741 431.083,-158.494"/>
<polygon fill="black" stroke="black" points="433.869,-156.364 425.396,-150.002 428.052,-160.259 433.869,-156.364"/>
</g>
<!-- javax.free:freejava&#45;meta:3.0.0 -->
<g id="node9" class="node"><title>javax.free:freejava&#45;meta:3.0.0</title>
<polygon fill="white" stroke="black" points="305.672,-150 229.672,-150 229.672,-112 305.672,-112 305.672,-150"/>
<text text-anchor="middle" x="267.672" y="-138.8" font-family="SanSerif" font-size="8.00">javax.free</text>
<text text-anchor="middle" x="267.672" y="-128.8" font-family="SanSerif" font-size="8.00">freejava&#45;meta</text>
<text text-anchor="middle" x="267.672" y="-118.8" font-family="SanSerif" font-size="8.00">3.0.0</text>
</g>
<!-- javax.free:freejava&#45;closure:3.0.0&#45;&gt;javax.free:freejava&#45;meta:3.0.0 -->
<g id="edge10" class="edge"><title>javax.free:freejava&#45;closure:3.0.0&#45;&gt;javax.free:freejava&#45;meta:3.0.0</title>
<path fill="none" stroke="black" d="M527.666,-225.543C526.32,-225.02 524.986,-224.504 523.672,-224 451.503,-196.314 367.121,-166.067 315.548,-147.817"/>
<polygon fill="black" stroke="black" points="316.592,-144.474 305.997,-144.442 314.259,-151.074 316.592,-144.474"/>
</g>
<!-- javax.free:freejava&#45;meta:3.0.0&#45;&gt;javax.free:freejava&#45;c1:3.0.0 -->
<g id="edge24" class="edge"><title>javax.free:freejava&#45;meta:3.0.0&#45;&gt;javax.free:freejava&#45;c1:3.0.0</title>
<path fill="none" stroke="black" d="M281.424,-111.747C294.324,-93.687 313.744,-66.4987 328.227,-46.2222"/>
<polygon fill="black" stroke="black" points="331.134,-48.1739 334.099,-38.0022 325.438,-44.1053 331.134,-48.1739"/>
</g>
<!-- javax.free:freejava&#45;annotation:3.0.0 -->
<g id="node13" class="node"><title>javax.free:freejava&#45;annotation:3.0.0</title>
<polygon fill="white" stroke="black" points="311.672,-38 213.672,-38 213.672,-7.10543e-15 311.672,-3.55271e-15 311.672,-38"/>
<text text-anchor="middle" x="262.672" y="-26.8" font-family="SanSerif" font-size="8.00">javax.free</text>
<text text-anchor="middle" x="262.672" y="-16.8" font-family="SanSerif" font-size="8.00">freejava&#45;annotation</text>
<text text-anchor="middle" x="262.672" y="-6.8" font-family="SanSerif" font-size="8.00">3.0.0</text>
</g>
<!-- javax.free:freejava&#45;meta:3.0.0&#45;&gt;javax.free:freejava&#45;annotation:3.0.0 -->
<g id="edge22" class="edge"><title>javax.free:freejava&#45;meta:3.0.0&#45;&gt;javax.free:freejava&#45;annotation:3.0.0</title>
<path fill="none" stroke="black" d="M266.812,-111.747C266.031,-94.2513 264.868,-68.1891 263.973,-48.1429"/>
<polygon fill="black" stroke="black" points="267.462,-47.8362 263.52,-38.0022 260.469,-48.1484 267.462,-47.8362"/>
</g>
<!-- javax.free:freejava&#45;io:3.0.0&#45;&gt;javax.free:freejava&#45;collection:3.0.0 -->
<g id="edge54" class="edge"><title>javax.free:freejava&#45;io:3.0.0&#45;&gt;javax.free:freejava&#45;collection:3.0.0</title>
<path fill="none" stroke="black" d="M357.804,-484.254C389.132,-465.389 437.602,-436.203 471.963,-415.513"/>
<polygon fill="black" stroke="black" points="474.053,-418.34 480.814,-410.183 470.442,-412.343 474.053,-418.34"/>
</g>
<!-- javax.free:freejava&#45;io:3.0.0&#45;&gt;javax.free:freejava&#45;meta:3.0.0 -->
<g id="edge26" class="edge"><title>javax.free:freejava&#45;io:3.0.0&#45;&gt;javax.free:freejava&#45;meta:3.0.0</title>
<path fill="none" stroke="black" d="M295.536,-485.662C270.36,-469.687 236.715,-443.419 221.672,-410 204.706,-372.309 212.262,-264.248 221.672,-224 227.084,-200.849 239.144,-176.848 249.557,-159.028"/>
<polygon fill="black" stroke="black" points="252.647,-160.682 254.809,-150.31 246.651,-157.07 252.647,-160.682"/>
</g>
<!-- javax.free:freejava&#45;primitive:3.0.0 -->
<g id="node11" class="node"><title>javax.free:freejava&#45;primitive:3.0.0</title>
<polygon fill="white" stroke="black" points="206.672,-336 116.672,-336 116.672,-298 206.672,-298 206.672,-336"/>
<text text-anchor="middle" x="161.672" y="-324.8" font-family="SanSerif" font-size="8.00">javax.free</text>
<text text-anchor="middle" x="161.672" y="-314.8" font-family="SanSerif" font-size="8.00">freejava&#45;primitive</text>
<text text-anchor="middle" x="161.672" y="-304.8" font-family="SanSerif" font-size="8.00">3.0.0</text>
</g>
<!-- javax.free:freejava&#45;io:3.0.0&#45;&gt;javax.free:freejava&#45;primitive:3.0.0 -->
<g id="edge18" class="edge"><title>javax.free:freejava&#45;io:3.0.0&#45;&gt;javax.free:freejava&#45;primitive:3.0.0</title>
<path fill="none" stroke="black" d="M295.626,-495.341C269.706,-487.467 233.439,-472.785 210.672,-448 184.338,-419.332 171.77,-375.197 166.054,-346.209"/>
<polygon fill="black" stroke="black" points="169.479,-345.483 164.245,-336.271 162.593,-346.736 169.479,-345.483"/>
</g>
<!-- javax.free:freejava&#45;bits:3.0.0 -->
<g id="node12" class="node"><title>javax.free:freejava&#45;bits:3.0.0</title>
<polygon fill="white" stroke="black" points="77.6716,-150 7.67158,-150 7.67158,-112 77.6716,-112 77.6716,-150"/>
<text text-anchor="middle" x="42.6716" y="-138.8" font-family="SanSerif" font-size="8.00">javax.free</text>
<text text-anchor="middle" x="42.6716" y="-128.8" font-family="SanSerif" font-size="8.00">freejava&#45;bits</text>
<text text-anchor="middle" x="42.6716" y="-118.8" font-family="SanSerif" font-size="8.00">3.0.0</text>
</g>
<!-- javax.free:freejava&#45;io:3.0.0&#45;&gt;javax.free:freejava&#45;bits:3.0.0 -->
<g id="edge20" class="edge"><title>javax.free:freejava&#45;io:3.0.0&#45;&gt;javax.free:freejava&#45;bits:3.0.0</title>
<path fill="none" stroke="black" d="M295.552,-498.486C224.675,-487.459 55.0793,-456.602 25.6716,-410 -24.0824,-331.156 10.4148,-213.52 30.7297,-159.72"/>
<polygon fill="black" stroke="black" points="34.0924,-160.73 34.4544,-150.141 27.5682,-158.193 34.0924,-160.73"/>
</g>
<!-- javax.free:freejava&#45;sio:3.0.0 -->
<g id="node14" class="node"><title>javax.free:freejava&#45;sio:3.0.0</title>
<polygon fill="white" stroke="black" points="185.672,-262 119.672,-262 119.672,-224 185.672,-224 185.672,-262"/>
<text text-anchor="middle" x="152.672" y="-250.8" font-family="SanSerif" font-size="8.00">javax.free</text>
<text text-anchor="middle" x="152.672" y="-240.8" font-family="SanSerif" font-size="8.00">freejava&#45;sio</text>
<text text-anchor="middle" x="152.672" y="-230.8" font-family="SanSerif" font-size="8.00">3.0.0</text>
</g>
<!-- javax.free:freejava&#45;io:3.0.0&#45;&gt;javax.free:freejava&#45;sio:3.0.0 -->
<g id="edge32" class="edge"><title>javax.free:freejava&#45;io:3.0.0&#45;&gt;javax.free:freejava&#45;sio:3.0.0</title>
<path fill="none" stroke="black" d="M295.445,-492.04C270.649,-482.516 235.762,-467.236 208.672,-448 155.917,-410.541 136.264,-397.337 115.672,-336 110.296,-319.989 110.744,-314.154 115.672,-298 118.637,-288.278 123.961,-278.718 129.662,-270.365"/>
<polygon fill="black" stroke="black" points="132.594,-272.284 135.657,-262.141 126.938,-268.16 132.594,-272.284"/>
</g>
<!-- javax.free:freejava&#45;string:3.0.0 -->
<g id="node16" class="node"><title>javax.free:freejava&#45;string:3.0.0</title>
<polygon fill="white" stroke="black" points="299.672,-410 221.672,-410 221.672,-372 299.672,-372 299.672,-410"/>
<text text-anchor="middle" x="260.672" y="-398.8" font-family="SanSerif" font-size="8.00">javax.free</text>
<text text-anchor="middle" x="260.672" y="-388.8" font-family="SanSerif" font-size="8.00">freejava&#45;string</text>
<text text-anchor="middle" x="260.672" y="-378.8" font-family="SanSerif" font-size="8.00">3.0.0</text>
</g>
<!-- javax.free:freejava&#45;io:3.0.0&#45;&gt;javax.free:freejava&#45;string:3.0.0 -->
<g id="edge40" class="edge"><title>javax.free:freejava&#45;io:3.0.0&#45;&gt;javax.free:freejava&#45;string:3.0.0</title>
<path fill="none" stroke="black" d="M315.326,-483.747C304.779,-465.848 288.948,-438.983 277.034,-418.767"/>
<polygon fill="black" stroke="black" points="279.962,-416.841 271.869,-410.002 273.931,-420.395 279.962,-416.841"/>
</g>
<!-- javax.free:freejava&#45;traits:3.0.0 -->
<g id="node18" class="node"><title>javax.free:freejava&#45;traits:3.0.0</title>
<polygon fill="white" stroke="black" points="379.672,-410 303.672,-410 303.672,-372 379.672,-372 379.672,-410"/>
<text text-anchor="middle" x="341.672" y="-398.8" font-family="SanSerif" font-size="8.00">javax.free</text>
<text text-anchor="middle" x="341.672" y="-388.8" font-family="SanSerif" font-size="8.00">freejava&#45;traits</text>
<text text-anchor="middle" x="341.672" y="-378.8" font-family="SanSerif" font-size="8.00">3.0.0</text>
</g>
<!-- javax.free:freejava&#45;io:3.0.0&#45;&gt;javax.free:freejava&#45;traits:3.0.0 -->
<g id="edge48" class="edge"><title>javax.free:freejava&#45;io:3.0.0&#45;&gt;javax.free:freejava&#45;traits:3.0.0</title>
<path fill="none" stroke="black" d="M329.25,-483.747C331.593,-466.251 335.084,-440.189 337.769,-420.143"/>
<polygon fill="black" stroke="black" points="341.268,-420.378 339.127,-410.002 334.33,-419.449 341.268,-420.378"/>
</g>
<!-- commons&#45;vfs:commons&#45;vfs:1.0 -->
<g id="node19" class="node"><title>commons&#45;vfs:commons&#45;vfs:1.0</title>
<polygon fill="white" stroke="black" points="101.672,-410 27.6716,-410 27.6716,-372 101.672,-372 101.672,-410"/>
<text text-anchor="middle" x="64.6716" y="-398.8" font-family="SanSerif" font-size="8.00">commons&#45;vfs</text>
<text text-anchor="middle" x="64.6716" y="-388.8" font-family="SanSerif" font-size="8.00">commons&#45;vfs</text>
<text text-anchor="middle" x="64.6716" y="-378.8" font-family="SanSerif" font-size="8.00">1.0</text>
</g>
<!-- javax.free:freejava&#45;io:3.0.0&#45;&gt;commons&#45;vfs:commons&#45;vfs:1.0 -->
<g id="edge52" class="edge"><title>javax.free:freejava&#45;io:3.0.0&#45;&gt;commons&#45;vfs:commons&#45;vfs:1.0</title>
<path fill="none" stroke="black" d="M295.372,-498.029C241.875,-489.083 135.622,-469.214 104.672,-448 94.0282,-440.705 85.3067,-429.584 78.7546,-419.097"/>
<polygon fill="black" stroke="black" points="81.6103,-417.045 73.5614,-410.155 75.5572,-420.56 81.6103,-417.045"/>
</g>
<!-- javax.free:freejava&#45;primitive:3.0.0&#45;&gt;javax.free:freejava&#45;meta:3.0.0 -->
<g id="edge16" class="edge"><title>javax.free:freejava&#45;primitive:3.0.0&#45;&gt;javax.free:freejava&#45;meta:3.0.0</title>
<path fill="none" stroke="black" d="M171.525,-297.959C176.716,-287.507 182.963,-274.221 187.672,-262 200.359,-229.069 192.269,-216.113 210.672,-186 217.17,-175.366 226.211,-165.369 235.179,-156.89"/>
<polygon fill="black" stroke="black" points="237.57,-159.447 242.639,-150.144 232.874,-154.255 237.57,-159.447"/>
</g>
<!-- javax.free:freejava&#45;sio:3.0.0&#45;&gt;javax.free:freejava&#45;bits:3.0.0 -->
<g id="edge28" class="edge"><title>javax.free:freejava&#45;sio:3.0.0&#45;&gt;javax.free:freejava&#45;bits:3.0.0</title>
<path fill="none" stroke="black" d="M133.762,-223.747C115.708,-205.364 88.3656,-177.525 68.3474,-157.143"/>
<polygon fill="black" stroke="black" points="70.8387,-154.684 61.3345,-150.002 65.8445,-159.589 70.8387,-154.684"/>
</g>
<!-- javax.free:freejava&#45;proxy&#45;api:3.0.0 -->
<g id="node15" class="node"><title>javax.free:freejava&#45;proxy&#45;api:3.0.0</title>
<polygon fill="white" stroke="black" points="198.672,-150 106.672,-150 106.672,-112 198.672,-112 198.672,-150"/>
<text text-anchor="middle" x="152.672" y="-138.8" font-family="SanSerif" font-size="8.00">javax.free</text>
<text text-anchor="middle" x="152.672" y="-128.8" font-family="SanSerif" font-size="8.00">freejava&#45;proxy&#45;api</text>
<text text-anchor="middle" x="152.672" y="-118.8" font-family="SanSerif" font-size="8.00">3.0.0</text>
</g>
<!-- javax.free:freejava&#45;sio:3.0.0&#45;&gt;javax.free:freejava&#45;proxy&#45;api:3.0.0 -->
<g id="edge30" class="edge"><title>javax.free:freejava&#45;sio:3.0.0&#45;&gt;javax.free:freejava&#45;proxy&#45;api:3.0.0</title>
<path fill="none" stroke="black" d="M152.672,-223.747C152.672,-206.251 152.672,-180.189 152.672,-160.143"/>
<polygon fill="black" stroke="black" points="156.172,-160.002 152.672,-150.002 149.172,-160.002 156.172,-160.002"/>
</g>
<!-- javax.free:freejava&#45;string:3.0.0&#45;&gt;javax.free:freejava&#45;c1:3.0.0 -->
<g id="edge38" class="edge"><title>javax.free:freejava&#45;string:3.0.0&#45;&gt;javax.free:freejava&#45;c1:3.0.0</title>
<path fill="none" stroke="black" d="M250.701,-371.938C235.476,-340.087 210.332,-274.563 231.672,-224 250.003,-180.565 283.129,-190.252 307.672,-150 327.211,-117.954 337.862,-75.6269 343.157,-47.8776"/>
<polygon fill="black" stroke="black" points="346.606,-48.4697 344.931,-38.0081 339.717,-47.2309 346.606,-48.4697"/>
</g>
<!-- javax.free:freejava&#45;string:3.0.0&#45;&gt;javax.free:freejava&#45;sio:3.0.0 -->
<g id="edge36" class="edge"><title>javax.free:freejava&#45;string:3.0.0&#45;&gt;javax.free:freejava&#45;sio:3.0.0</title>
<path fill="none" stroke="black" d="M250.668,-371.616C238.481,-348.279 218.326,-310.644 208.672,-298 200.919,-287.846 191.334,-277.753 182.299,-269.038"/>
<polygon fill="black" stroke="black" points="184.573,-266.372 174.891,-262.071 179.777,-271.471 184.573,-266.372"/>
</g>
<!-- commons&#45;lang:commons&#45;lang:2.6 -->
<g id="node17" class="node"><title>commons&#45;lang:commons&#45;lang:2.6</title>
<polygon fill="white" stroke="black" points="311.672,-262 231.672,-262 231.672,-224 311.672,-224 311.672,-262"/>
<text text-anchor="middle" x="271.672" y="-250.8" font-family="SanSerif" font-size="8.00">commons&#45;lang</text>
<text text-anchor="middle" x="271.672" y="-240.8" font-family="SanSerif" font-size="8.00">commons&#45;lang</text>
<text text-anchor="middle" x="271.672" y="-230.8" font-family="SanSerif" font-size="8.00">2.6</text>
</g>
<!-- javax.free:freejava&#45;string:3.0.0&#45;&gt;commons&#45;lang:commons&#45;lang:2.6 -->
<g id="edge34" class="edge"><title>javax.free:freejava&#45;string:3.0.0&#45;&gt;commons&#45;lang:commons&#45;lang:2.6</title>
<path fill="none" stroke="black" d="M262.087,-371.955C263.958,-346.784 267.273,-302.18 269.472,-272.598"/>
<polygon fill="black" stroke="black" points="272.976,-272.674 270.227,-262.442 265.995,-272.155 272.976,-272.674"/>
</g>
<!-- javax.free:freejava&#45;traits:3.0.0&#45;&gt;javax.free:freejava&#45;lang:3.0.0 -->
<g id="edge44" class="edge"><title>javax.free:freejava&#45;traits:3.0.0&#45;&gt;javax.free:freejava&#45;lang:3.0.0</title>
<path fill="none" stroke="black" d="M360.46,-371.955C386.052,-346.011 432.011,-299.423 461.119,-269.916"/>
<polygon fill="black" stroke="black" points="463.961,-272.019 468.492,-262.442 458.978,-267.103 463.961,-272.019"/>
</g>
<!-- javax.free:freejava&#45;traits:3.0.0&#45;&gt;javax.free:freejava&#45;jdk6compat:3.0.0 -->
<g id="edge46" class="edge"><title>javax.free:freejava&#45;traits:3.0.0&#45;&gt;javax.free:freejava&#45;jdk6compat:3.0.0</title>
<path fill="none" stroke="black" d="M336.469,-371.757C328.837,-339.922 317.382,-274.768 335.672,-224 344.975,-198.176 364.907,-174.438 382.16,-157.409"/>
<polygon fill="black" stroke="black" points="385.031,-159.508 389.851,-150.073 380.199,-154.442 385.031,-159.508"/>
</g>
<!-- javax.free:freejava&#45;traits:3.0.0&#45;&gt;javax.free:freejava&#45;meta:3.0.0 -->
<g id="edge42" class="edge"><title>javax.free:freejava&#45;traits:3.0.0&#45;&gt;javax.free:freejava&#45;meta:3.0.0</title>
<path fill="none" stroke="black" d="M335.287,-371.843C331.998,-361.358 328.166,-348.076 325.672,-336 315.522,-286.872 325.686,-272.168 311.672,-224 305.043,-201.217 293.445,-177.036 283.821,-159.043"/>
<polygon fill="black" stroke="black" points="286.874,-157.332 279.005,-150.238 280.733,-160.691 286.874,-157.332"/>
</g>
<!-- commons&#45;logging:commons&#45;logging:1.0.4 -->
<g id="node20" class="node"><title>commons&#45;logging:commons&#45;logging:1.0.4</title>
<polygon fill="white" stroke="black" points="115.672,-262 23.6716,-262 23.6716,-224 115.672,-224 115.672,-262"/>
<text text-anchor="middle" x="69.6716" y="-250.8" font-family="SanSerif" font-size="8.00">commons&#45;logging</text>
<text text-anchor="middle" x="69.6716" y="-240.8" font-family="SanSerif" font-size="8.00">commons&#45;logging</text>
<text text-anchor="middle" x="69.6716" y="-230.8" font-family="SanSerif" font-size="8.00">1.0.4</text>
</g>
<!-- commons&#45;vfs:commons&#45;vfs:1.0&#45;&gt;commons&#45;logging:commons&#45;logging:1.0.4 -->
<g id="edge50" class="edge"><title>commons&#45;vfs:commons&#45;vfs:1.0&#45;&gt;commons&#45;logging:commons&#45;logging:1.0.4</title>
<path fill="none" stroke="black" d="M65.315,-371.955C66.1654,-346.784 67.6723,-302.18 68.6717,-272.598"/>
<polygon fill="black" stroke="black" points="72.175,-272.555 69.0147,-262.442 65.179,-272.318 72.175,-272.555"/>
</g>
<!-- com.bee32.plover:plover&#45;model:0.0.1&#45;SNAPSHOT&#45;&gt;javax.free:freejava&#45;traits:3.0.0 -->
<g id="edge74" class="edge"><title>com.bee32.plover:plover&#45;model:0.0.1&#45;SNAPSHOT&#45;&gt;javax.free:freejava&#45;traits:3.0.0</title>
<path fill="none" stroke="black" d="M393.661,-707.772C387.209,-666.676 371.512,-567.244 357.672,-484 354.123,-462.655 349.977,-438.58 346.795,-420.273"/>
<polygon fill="black" stroke="black" points="350.209,-419.477 345.044,-410.226 343.312,-420.678 350.209,-419.477"/>
</g>
<!-- com.bee32.plover:plover&#45;arch:0.0.4&#45;SNAPSHOT -->
<g id="node22" class="node"><title>com.bee32.plover:plover&#45;arch:0.0.4&#45;SNAPSHOT</title>
<polygon fill="white" stroke="black" points="463.672,-522 371.672,-522 371.672,-484 463.672,-484 463.672,-522"/>
<text text-anchor="middle" x="417.672" y="-510.8" font-family="SanSerif" font-size="8.00">com.bee32.plover</text>
<text text-anchor="middle" x="417.672" y="-500.8" font-family="SanSerif" font-size="8.00">plover&#45;arch</text>
<text text-anchor="middle" x="417.672" y="-490.8" font-family="SanSerif" font-size="8.00">0.0.4&#45;SNAPSHOT</text>
</g>
<!-- com.bee32.plover:plover&#45;model:0.0.1&#45;SNAPSHOT&#45;&gt;com.bee32.plover:plover&#45;arch:0.0.4&#45;SNAPSHOT -->
<g id="edge72" class="edge"><title>com.bee32.plover:plover&#45;model:0.0.1&#45;SNAPSHOT&#45;&gt;com.bee32.plover:plover&#45;arch:0.0.4&#45;SNAPSHOT</title>
<path fill="none" stroke="black" d="M397.119,-707.864C397.847,-682.309 399.637,-635.652 403.672,-596 405.855,-574.545 409.512,-550.474 412.541,-532.197"/>
<polygon fill="black" stroke="black" points="416.02,-532.612 414.236,-522.168 409.118,-531.445 416.02,-532.612"/>
</g>
<!-- com.bee32.plover:plover&#45;inject:0.0.1&#45;SNAPSHOT -->
<g id="node26" class="node"><title>com.bee32.plover:plover&#45;inject:0.0.1&#45;SNAPSHOT</title>
<polygon fill="white" stroke="black" points="495.672,-634 403.672,-634 403.672,-596 495.672,-596 495.672,-634"/>
<text text-anchor="middle" x="449.672" y="-622.8" font-family="SanSerif" font-size="8.00">com.bee32.plover</text>
<text text-anchor="middle" x="449.672" y="-612.8" font-family="SanSerif" font-size="8.00">plover&#45;inject</text>
<text text-anchor="middle" x="449.672" y="-602.8" font-family="SanSerif" font-size="8.00">0.0.1&#45;SNAPSHOT</text>
</g>
<!-- com.bee32.plover:plover&#45;model:0.0.1&#45;SNAPSHOT&#45;&gt;com.bee32.plover:plover&#45;inject:0.0.1&#45;SNAPSHOT -->
<g id="edge76" class="edge"><title>com.bee32.plover:plover&#45;model:0.0.1&#45;SNAPSHOT&#45;&gt;com.bee32.plover:plover&#45;inject:0.0.1&#45;SNAPSHOT</title>
<path fill="none" stroke="black" d="M405.783,-707.747C414.176,-690.009 426.736,-663.467 436.273,-643.315"/>
<polygon fill="black" stroke="black" points="439.566,-644.538 440.679,-634.002 433.238,-641.544 439.566,-644.538"/>
</g>
<!-- com.bee32.plover:plover&#45;arch:0.0.4&#45;SNAPSHOT&#45;&gt;javax.free:freejava&#45;collection:3.0.0 -->
<g id="edge64" class="edge"><title>com.bee32.plover:plover&#45;arch:0.0.4&#45;SNAPSHOT&#45;&gt;javax.free:freejava&#45;collection:3.0.0</title>
<path fill="none" stroke="black" d="M439.133,-483.792C449.995,-473.619 463.084,-460.641 473.672,-448 481.335,-438.851 488.934,-428.2 495.361,-418.598"/>
<polygon fill="black" stroke="black" points="498.346,-420.429 500.902,-410.148 492.492,-416.591 498.346,-420.429"/>
</g>
<!-- com.bee32.plover:plover&#45;arch:0.0.4&#45;SNAPSHOT&#45;&gt;javax.free:freejava&#45;closure:3.0.0 -->
<g id="edge58" class="edge"><title>com.bee32.plover:plover&#45;arch:0.0.4&#45;SNAPSHOT&#45;&gt;javax.free:freejava&#45;closure:3.0.0</title>
<path fill="none" stroke="black" d="M424.69,-483.783C437.93,-447.54 465.309,-372.638 465.672,-372 487.703,-333.271 521.322,-294.364 544.556,-269.564"/>
<polygon fill="black" stroke="black" points="547.364,-271.689 551.707,-262.025 542.285,-266.872 547.364,-271.689"/>
</g>
<!-- com.bee32.plover:plover&#45;arch:0.0.4&#45;SNAPSHOT&#45;&gt;javax.free:freejava&#45;string:3.0.0 -->
<g id="edge62" class="edge"><title>com.bee32.plover:plover&#45;arch:0.0.4&#45;SNAPSHOT&#45;&gt;javax.free:freejava&#45;string:3.0.0</title>
<path fill="none" stroke="black" d="M390.682,-483.747C364.35,-464.961 324.171,-436.299 295.454,-415.813"/>
<polygon fill="black" stroke="black" points="297.482,-412.96 287.309,-410.002 293.417,-418.659 297.482,-412.96"/>
</g>
<!-- com.bee32.plover:plover&#45;arch:0.0.4&#45;SNAPSHOT&#45;&gt;javax.free:freejava&#45;traits:3.0.0 -->
<g id="edge60" class="edge"><title>com.bee32.plover:plover&#45;arch:0.0.4&#45;SNAPSHOT&#45;&gt;javax.free:freejava&#45;traits:3.0.0</title>
<path fill="none" stroke="black" d="M404.607,-483.747C392.407,-465.768 374.067,-438.741 360.328,-418.494"/>
<polygon fill="black" stroke="black" points="363.077,-416.312 354.566,-410.002 357.285,-420.242 363.077,-416.312"/>
</g>
<!-- org.slf4j:slf4j&#45;log4j12:1.4.2 -->
<g id="node23" class="node"><title>org.slf4j:slf4j&#45;log4j12:1.4.2</title>
<polygon fill="white" stroke="black" points="451.672,-410 383.672,-410 383.672,-372 451.672,-372 451.672,-410"/>
<text text-anchor="middle" x="417.672" y="-398.8" font-family="SanSerif" font-size="8.00">org.slf4j</text>
<text text-anchor="middle" x="417.672" y="-388.8" font-family="SanSerif" font-size="8.00">slf4j&#45;log4j12</text>
<text text-anchor="middle" x="417.672" y="-378.8" font-family="SanSerif" font-size="8.00">1.4.2</text>
</g>
<!-- com.bee32.plover:plover&#45;arch:0.0.4&#45;SNAPSHOT&#45;&gt;org.slf4j:slf4j&#45;log4j12:1.4.2 -->
<g id="edge70" class="edge"><title>com.bee32.plover:plover&#45;arch:0.0.4&#45;SNAPSHOT&#45;&gt;org.slf4j:slf4j&#45;log4j12:1.4.2</title>
<path fill="none" stroke="black" d="M417.672,-483.747C417.672,-466.251 417.672,-440.189 417.672,-420.143"/>
<polygon fill="black" stroke="black" points="421.172,-420.002 417.672,-410.002 414.172,-420.002 421.172,-420.002"/>
</g>
<!-- org.slf4j:slf4j&#45;api:1.4.2 -->
<g id="node24" class="node"><title>org.slf4j:slf4j&#45;api:1.4.2</title>
<polygon fill="white" stroke="black" points="447.672,-262 393.672,-262 393.672,-224 447.672,-224 447.672,-262"/>
<text text-anchor="middle" x="420.672" y="-250.8" font-family="SanSerif" font-size="8.00">org.slf4j</text>
<text text-anchor="middle" x="420.672" y="-240.8" font-family="SanSerif" font-size="8.00">slf4j&#45;api</text>
<text text-anchor="middle" x="420.672" y="-230.8" font-family="SanSerif" font-size="8.00">1.4.2</text>
</g>
<!-- org.slf4j:slf4j&#45;log4j12:1.4.2&#45;&gt;org.slf4j:slf4j&#45;api:1.4.2 -->
<g id="edge66" class="edge"><title>org.slf4j:slf4j&#45;log4j12:1.4.2&#45;&gt;org.slf4j:slf4j&#45;api:1.4.2</title>
<path fill="none" stroke="black" d="M418.058,-371.955C418.568,-346.784 419.472,-302.18 420.072,-272.598"/>
<polygon fill="black" stroke="black" points="423.574,-272.511 420.277,-262.442 416.575,-272.369 423.574,-272.511"/>
</g>
<!-- log4j:log4j:1.2.13 -->
<g id="node25" class="node"><title>log4j:log4j:1.2.13</title>
<polygon fill="white" stroke="black" points="389.672,-262 335.672,-262 335.672,-224 389.672,-224 389.672,-262"/>
<text text-anchor="middle" x="362.672" y="-250.8" font-family="SanSerif" font-size="8.00">log4j</text>
<text text-anchor="middle" x="362.672" y="-240.8" font-family="SanSerif" font-size="8.00">log4j</text>
<text text-anchor="middle" x="362.672" y="-230.8" font-family="SanSerif" font-size="8.00">1.2.13</text>
</g>
<!-- org.slf4j:slf4j&#45;log4j12:1.4.2&#45;&gt;log4j:log4j:1.2.13 -->
<g id="edge68" class="edge"><title>org.slf4j:slf4j&#45;log4j12:1.4.2&#45;&gt;log4j:log4j:1.2.13</title>
<path fill="none" stroke="black" d="M410.594,-371.955C401.158,-346.563 384.373,-301.396 373.383,-271.823"/>
<polygon fill="black" stroke="black" points="376.661,-270.597 369.897,-262.442 370.099,-273.035 376.661,-270.597"/>
</g>
<!-- com.bee32.plover:plover&#45;inject:0.0.1&#45;SNAPSHOT&#45;&gt;javax.free:freejava&#45;collection:3.0.0 -->
<g id="edge82" class="edge"><title>com.bee32.plover:plover&#45;inject:0.0.1&#45;SNAPSHOT&#45;&gt;javax.free:freejava&#45;collection:3.0.0</title>
<path fill="none" stroke="black" d="M455.043,-595.902C466.109,-556.558 491.501,-466.273 504.571,-419.801"/>
<polygon fill="black" stroke="black" points="507.976,-420.624 507.314,-410.05 501.237,-418.729 507.976,-420.624"/>
</g>
<!-- com.bee32.plover:plover&#45;inject:0.0.1&#45;SNAPSHOT&#45;&gt;com.bee32.plover:plover&#45;arch:0.0.4&#45;SNAPSHOT -->
<g id="edge84" class="edge"><title>com.bee32.plover:plover&#45;inject:0.0.1&#45;SNAPSHOT&#45;&gt;com.bee32.plover:plover&#45;arch:0.0.4&#45;SNAPSHOT</title>
<path fill="none" stroke="black" d="M444.171,-595.747C439.149,-578.171 431.657,-551.949 425.919,-531.866"/>
<polygon fill="black" stroke="black" points="429.213,-530.656 423.101,-522.002 422.483,-532.579 429.213,-530.656"/>
</g>
<!-- com.bee32.plover:plover&#45;javascript:0.0.1&#45;SNAPSHOT&#45;&gt;com.bee32.plover:plover&#45;inject:0.0.1&#45;SNAPSHOT -->
<g id="edge86" class="edge"><title>com.bee32.plover:plover&#45;javascript:0.0.1&#45;SNAPSHOT&#45;&gt;com.bee32.plover:plover&#45;inject:0.0.1&#45;SNAPSHOT</title>
<path fill="none" stroke="black" d="M545.624,-781.795C526.673,-748.852 487.887,-681.431 465.873,-643.163"/>
<polygon fill="black" stroke="black" points="468.68,-641.023 460.659,-634.1 462.612,-644.514 468.68,-641.023"/>
</g>
</g>
</svg>
