<?xml version="1.0" encoding="UTF-8" standalone="no"?>
<!DOCTYPE svg PUBLIC "-//W3C//DTD SVG 1.1//EN"
 "http://www.w3.org/Graphics/SVG/1.1/DTD/svg11.dtd">
<!-- Generated by graphviz version 2.26.3 (20100126.1600)
 -->
<!-- Title: dependencies Pages: 1 -->
<svg width="633pt" height="668pt"
 viewBox="0.00 0.00 633.00 668.00" xmlns="http://www.w3.org/2000/svg" xmlns:xlink="http://www.w3.org/1999/xlink">
<g id="graph1" class="graph" transform="scale(1 1) rotate(0) translate(4 664)">
<title>dependencies</title>
<polygon fill="white" stroke="white" points="-4,5 -4,-664 630,-664 630,5 -4,5"/>
<text text-anchor="middle" x="233" y="-639.8" font-family="Serif" font-size="18.00">Dependency Graph for Plover :: Modeling :: Form</text>
<!-- com.bee32.plover:plover&#45;form:0.0.1&#45;SNAPSHOT -->
<g id="node1" class="node"><title>com.bee32.plover:plover&#45;form:0.0.1&#45;SNAPSHOT</title>
<polygon fill="#dddddd" stroke="black" points="444,-630 306,-630 306,-568 444,-568 444,-630"/>
<text text-anchor="middle" x="375" y="-613.4" font-family="SanSerif" font-size="14.00">com.bee32.plover</text>
<text text-anchor="middle" x="375" y="-595.4" font-family="SanSerif" font-size="14.00">plover&#45;form</text>
<text text-anchor="middle" x="375" y="-577.4" font-family="SanSerif" font-size="14.00">0.0.1&#45;SNAPSHOT</text>
</g>
<!-- com.bee32.plover:plover&#45;arch:0.0.4&#45;SNAPSHOT -->
<g id="node2" class="node"><title>com.bee32.plover:plover&#45;arch:0.0.4&#45;SNAPSHOT</title>
<polygon fill="white" stroke="black" points="421,-486 329,-486 329,-448 421,-448 421,-486"/>
<text text-anchor="middle" x="375" y="-474.8" font-family="SanSerif" font-size="8.00">com.bee32.plover</text>
<text text-anchor="middle" x="375" y="-464.8" font-family="SanSerif" font-size="8.00">plover&#45;arch</text>
<text text-anchor="middle" x="375" y="-454.8" font-family="SanSerif" font-size="8.00">0.0.4&#45;SNAPSHOT</text>
</g>
<!-- com.bee32.plover:plover&#45;form:0.0.1&#45;SNAPSHOT&#45;&gt;com.bee32.plover:plover&#45;arch:0.0.4&#45;SNAPSHOT -->
<g id="edge48" class="edge"><title>com.bee32.plover:plover&#45;form:0.0.1&#45;SNAPSHOT&#45;&gt;com.bee32.plover:plover&#45;arch:0.0.4&#45;SNAPSHOT</title>
<path fill="none" stroke="black" d="M375,-567.718C375,-546.065 375,-517.442 375,-496.246"/>
<polygon fill="black" stroke="black" points="378.5,-496.207 375,-486.207 371.5,-496.207 378.5,-496.207"/>
</g>
<!-- junit:junit:4.8.2 -->
<g id="node20" class="node"><title>junit:junit:4.8.2</title>
<polygon fill="white" stroke="cornflowerblue" points="479,-486 425,-486 425,-448 479,-448 479,-486"/>
<text text-anchor="middle" x="452" y="-474.8" font-family="SanSerif" font-size="8.00" fill="cornflowerblue">junit</text>
<text text-anchor="middle" x="452" y="-464.8" font-family="SanSerif" font-size="8.00" fill="cornflowerblue">junit</text>
<text text-anchor="middle" x="452" y="-454.8" font-family="SanSerif" font-size="8.00" fill="cornflowerblue">4.8.2</text>
</g>
<!-- com.bee32.plover:plover&#45;form:0.0.1&#45;SNAPSHOT&#45;&gt;junit:junit:4.8.2 -->
<g id="edge50" class="edge"><title>com.bee32.plover:plover&#45;form:0.0.1&#45;SNAPSHOT&#45;&gt;junit:junit:4.8.2</title>
<path fill="none" stroke="cornflowerblue" d="M393.248,-567.718C406.11,-545.669 423.187,-516.394 435.613,-495.092"/>
<polygon fill="cornflowerblue" stroke="cornflowerblue" points="438.78,-496.609 440.796,-486.207 432.734,-493.081 438.78,-496.609"/>
<text text-anchor="middle" x="427.5" y="-524.8" font-family="SanSerif" font-size="8.00" fill="cornflowerblue">test</text>
</g>
<!-- javax.free:freejava&#45;closure:3.0.0 -->
<g id="node3" class="node"><title>javax.free:freejava&#45;closure:3.0.0</title>
<polygon fill="white" stroke="black" points="413,-262 327,-262 327,-224 413,-224 413,-262"/>
<text text-anchor="middle" x="370" y="-250.8" font-family="SanSerif" font-size="8.00">javax.free</text>
<text text-anchor="middle" x="370" y="-240.8" font-family="SanSerif" font-size="8.00">freejava&#45;closure</text>
<text text-anchor="middle" x="370" y="-230.8" font-family="SanSerif" font-size="8.00">3.0.0</text>
</g>
<!-- com.bee32.plover:plover&#45;arch:0.0.4&#45;SNAPSHOT&#45;&gt;javax.free:freejava&#45;closure:3.0.0 -->
<g id="edge8" class="edge"><title>com.bee32.plover:plover&#45;arch:0.0.4&#45;SNAPSHOT&#45;&gt;javax.free:freejava&#45;closure:3.0.0</title>
<path fill="none" stroke="black" d="M374.574,-447.902C373.697,-408.64 371.689,-318.652 370.649,-272.094"/>
<polygon fill="black" stroke="black" points="374.148,-271.969 370.425,-262.05 367.149,-272.125 374.148,-271.969"/>
</g>
<!-- javax.free:freejava&#45;traits:3.0.0 -->
<g id="node7" class="node"><title>javax.free:freejava&#45;traits:3.0.0</title>
<polygon fill="white" stroke="black" points="458,-374 382,-374 382,-336 458,-336 458,-374"/>
<text text-anchor="middle" x="420" y="-362.8" font-family="SanSerif" font-size="8.00">javax.free</text>
<text text-anchor="middle" x="420" y="-352.8" font-family="SanSerif" font-size="8.00">freejava&#45;traits</text>
<text text-anchor="middle" x="420" y="-342.8" font-family="SanSerif" font-size="8.00">3.0.0</text>
</g>
<!-- com.bee32.plover:plover&#45;arch:0.0.4&#45;SNAPSHOT&#45;&gt;javax.free:freejava&#45;traits:3.0.0 -->
<g id="edge18" class="edge"><title>com.bee32.plover:plover&#45;arch:0.0.4&#45;SNAPSHOT&#45;&gt;javax.free:freejava&#45;traits:3.0.0</title>
<path fill="none" stroke="black" d="M382.736,-447.747C389.862,-430.009 400.527,-403.467 408.623,-383.315"/>
<polygon fill="black" stroke="black" points="411.885,-384.586 412.365,-374.002 405.389,-381.976 411.885,-384.586"/>
</g>
<!-- javax.free:freejava&#45;string:3.0.0 -->
<g id="node10" class="node"><title>javax.free:freejava&#45;string:3.0.0</title>
<polygon fill="white" stroke="black" points="212,-374 134,-374 134,-336 212,-336 212,-374"/>
<text text-anchor="middle" x="173" y="-362.8" font-family="SanSerif" font-size="8.00">javax.free</text>
<text text-anchor="middle" x="173" y="-352.8" font-family="SanSerif" font-size="8.00">freejava&#45;string</text>
<text text-anchor="middle" x="173" y="-342.8" font-family="SanSerif" font-size="8.00">3.0.0</text>
</g>
<!-- com.bee32.plover:plover&#45;arch:0.0.4&#45;SNAPSHOT&#45;&gt;javax.free:freejava&#45;string:3.0.0 -->
<g id="edge30" class="edge"><title>com.bee32.plover:plover&#45;arch:0.0.4&#45;SNAPSHOT&#45;&gt;javax.free:freejava&#45;string:3.0.0</title>
<path fill="none" stroke="black" d="M340.275,-447.747C305.958,-428.72 253.366,-399.559 216.332,-379.025"/>
<polygon fill="black" stroke="black" points="217.715,-375.79 207.272,-374.002 214.32,-381.912 217.715,-375.79"/>
</g>
<!-- javax.free:freejava&#45;collection:3.0.0 -->
<g id="node15" class="node"><title>javax.free:freejava&#45;collection:3.0.0</title>
<polygon fill="white" stroke="black" points="368,-374 274,-374 274,-336 368,-336 368,-374"/>
<text text-anchor="middle" x="321" y="-362.8" font-family="SanSerif" font-size="8.00">javax.free</text>
<text text-anchor="middle" x="321" y="-352.8" font-family="SanSerif" font-size="8.00">freejava&#45;collection</text>
<text text-anchor="middle" x="321" y="-342.8" font-family="SanSerif" font-size="8.00">3.0.0</text>
</g>
<!-- com.bee32.plover:plover&#45;arch:0.0.4&#45;SNAPSHOT&#45;&gt;javax.free:freejava&#45;collection:3.0.0 -->
<g id="edge40" class="edge"><title>com.bee32.plover:plover&#45;arch:0.0.4&#45;SNAPSHOT&#45;&gt;javax.free:freejava&#45;collection:3.0.0</title>
<path fill="none" stroke="black" d="M365.717,-447.747C357.126,-429.929 344.251,-403.225 334.52,-383.041"/>
<polygon fill="black" stroke="black" points="337.658,-381.49 330.162,-374.002 331.352,-384.53 337.658,-381.49"/>
</g>
<!-- org.slf4j:slf4j&#45;log4j12:1.4.2 -->
<g id="node17" class="node"><title>org.slf4j:slf4j&#45;log4j12:1.4.2</title>
<polygon fill="white" stroke="black" points="530,-374 462,-374 462,-336 530,-336 530,-374"/>
<text text-anchor="middle" x="496" y="-362.8" font-family="SanSerif" font-size="8.00">org.slf4j</text>
<text text-anchor="middle" x="496" y="-352.8" font-family="SanSerif" font-size="8.00">slf4j&#45;log4j12</text>
<text text-anchor="middle" x="496" y="-342.8" font-family="SanSerif" font-size="8.00">1.4.2</text>
</g>
<!-- com.bee32.plover:plover&#45;arch:0.0.4&#45;SNAPSHOT&#45;&gt;org.slf4j:slf4j&#45;log4j12:1.4.2 -->
<g id="edge46" class="edge"><title>com.bee32.plover:plover&#45;arch:0.0.4&#45;SNAPSHOT&#45;&gt;org.slf4j:slf4j&#45;log4j12:1.4.2</title>
<path fill="none" stroke="black" d="M395.801,-447.747C415.747,-429.284 446.001,-401.28 468.046,-380.875"/>
<polygon fill="black" stroke="black" points="470.51,-383.364 475.471,-374.002 465.755,-378.227 470.51,-383.364"/>
</g>
<!-- javax.free:freejava&#45;meta:3.0.0 -->
<g id="node4" class="node"><title>javax.free:freejava&#45;meta:3.0.0</title>
<polygon fill="white" stroke="black" points="408,-150 332,-150 332,-112 408,-112 408,-150"/>
<text text-anchor="middle" x="370" y="-138.8" font-family="SanSerif" font-size="8.00">javax.free</text>
<text text-anchor="middle" x="370" y="-128.8" font-family="SanSerif" font-size="8.00">freejava&#45;meta</text>
<text text-anchor="middle" x="370" y="-118.8" font-family="SanSerif" font-size="8.00">3.0.0</text>
</g>
<!-- javax.free:freejava&#45;closure:3.0.0&#45;&gt;javax.free:freejava&#45;meta:3.0.0 -->
<g id="edge6" class="edge"><title>javax.free:freejava&#45;closure:3.0.0&#45;&gt;javax.free:freejava&#45;meta:3.0.0</title>
<path fill="none" stroke="black" d="M370,-223.747C370,-206.251 370,-180.189 370,-160.143"/>
<polygon fill="black" stroke="black" points="373.5,-160.002 370,-150.002 366.5,-160.002 373.5,-160.002"/>
</g>
<!-- javax.free:freejava&#45;annotation:3.0.0 -->
<g id="node5" class="node"><title>javax.free:freejava&#45;annotation:3.0.0</title>
<polygon fill="white" stroke="black" points="419,-38 321,-38 321,-7.10543e-15 419,-3.55271e-15 419,-38"/>
<text text-anchor="middle" x="370" y="-26.8" font-family="SanSerif" font-size="8.00">javax.free</text>
<text text-anchor="middle" x="370" y="-16.8" font-family="SanSerif" font-size="8.00">freejava&#45;annotation</text>
<text text-anchor="middle" x="370" y="-6.8" font-family="SanSerif" font-size="8.00">3.0.0</text>
</g>
<!-- javax.free:freejava&#45;meta:3.0.0&#45;&gt;javax.free:freejava&#45;annotation:3.0.0 -->
<g id="edge2" class="edge"><title>javax.free:freejava&#45;meta:3.0.0&#45;&gt;javax.free:freejava&#45;annotation:3.0.0</title>
<path fill="none" stroke="black" d="M370,-111.747C370,-94.2513 370,-68.1891 370,-48.1429"/>
<polygon fill="black" stroke="black" points="373.5,-48.0022 370,-38.0022 366.5,-48.0023 373.5,-48.0022"/>
</g>
<!-- javax.free:freejava&#45;c1:3.0.0 -->
<g id="node6" class="node"><title>javax.free:freejava&#45;c1:3.0.0</title>
<polygon fill="white" stroke="black" points="216,-38 152,-38 152,-7.10543e-15 216,-3.55271e-15 216,-38"/>
<text text-anchor="middle" x="184" y="-26.8" font-family="SanSerif" font-size="8.00">javax.free</text>
<text text-anchor="middle" x="184" y="-16.8" font-family="SanSerif" font-size="8.00">freejava&#45;c1</text>
<text text-anchor="middle" x="184" y="-6.8" font-family="SanSerif" font-size="8.00">3.0.0</text>
</g>
<!-- javax.free:freejava&#45;meta:3.0.0&#45;&gt;javax.free:freejava&#45;c1:3.0.0 -->
<g id="edge4" class="edge"><title>javax.free:freejava&#45;meta:3.0.0&#45;&gt;javax.free:freejava&#45;c1:3.0.0</title>
<path fill="none" stroke="black" d="M338.025,-111.747C306.561,-92.8001 258.411,-63.8064 224.334,-43.287"/>
<polygon fill="black" stroke="black" points="225.93,-40.1624 215.557,-38.0022 222.319,-46.1592 225.93,-40.1624"/>
</g>
<!-- javax.free:freejava&#45;traits:3.0.0&#45;&gt;javax.free:freejava&#45;meta:3.0.0 -->
<g id="edge10" class="edge"><title>javax.free:freejava&#45;traits:3.0.0&#45;&gt;javax.free:freejava&#45;meta:3.0.0</title>
<path fill="none" stroke="black" d="M421.224,-335.573C422.346,-309.696 422.599,-262.684 413,-224 407.309,-201.065 395.945,-176.89 386.329,-158.938"/>
<polygon fill="black" stroke="black" points="389.385,-157.232 381.498,-150.157 383.251,-160.606 389.385,-157.232"/>
</g>
<!-- javax.free:freejava&#45;lang:3.0.0 -->
<g id="node8" class="node"><title>javax.free:freejava&#45;lang:3.0.0</title>
<polygon fill="white" stroke="black" points="499,-262 427,-262 427,-224 499,-224 499,-262"/>
<text text-anchor="middle" x="463" y="-250.8" font-family="SanSerif" font-size="8.00">javax.free</text>
<text text-anchor="middle" x="463" y="-240.8" font-family="SanSerif" font-size="8.00">freejava&#45;lang</text>
<text text-anchor="middle" x="463" y="-230.8" font-family="SanSerif" font-size="8.00">3.0.0</text>
</g>
<!-- javax.free:freejava&#45;traits:3.0.0&#45;&gt;javax.free:freejava&#45;lang:3.0.0 -->
<g id="edge14" class="edge"><title>javax.free:freejava&#45;traits:3.0.0&#45;&gt;javax.free:freejava&#45;lang:3.0.0</title>
<path fill="none" stroke="black" d="M427.392,-335.747C434.171,-318.09 444.3,-291.708 452.023,-271.59"/>
<polygon fill="black" stroke="black" points="455.388,-272.592 455.704,-262.002 448.853,-270.083 455.388,-272.592"/>
</g>
<!-- javax.free:freejava&#45;jdk6compat:3.0.0 -->
<g id="node9" class="node"><title>javax.free:freejava&#45;jdk6compat:3.0.0</title>
<polygon fill="white" stroke="black" points="546,-150 444,-150 444,-112 546,-112 546,-150"/>
<text text-anchor="middle" x="495" y="-138.8" font-family="SanSerif" font-size="8.00">javax.free</text>
<text text-anchor="middle" x="495" y="-128.8" font-family="SanSerif" font-size="8.00">freejava&#45;jdk6compat</text>
<text text-anchor="middle" x="495" y="-118.8" font-family="SanSerif" font-size="8.00">3.0.0</text>
</g>
<!-- javax.free:freejava&#45;traits:3.0.0&#45;&gt;javax.free:freejava&#45;jdk6compat:3.0.0 -->
<g id="edge16" class="edge"><title>javax.free:freejava&#45;traits:3.0.0&#45;&gt;javax.free:freejava&#45;jdk6compat:3.0.0</title>
<path fill="none" stroke="black" d="M443.78,-335.712C462.802,-318.63 488.041,-291.828 499,-262 511.192,-228.815 507.111,-187.656 502.019,-160.427"/>
<polygon fill="black" stroke="black" points="505.397,-159.472 499.974,-150.371 498.537,-160.868 505.397,-159.472"/>
</g>
<!-- javax.free:freejava&#45;lang:3.0.0&#45;&gt;javax.free:freejava&#45;jdk6compat:3.0.0 -->
<g id="edge12" class="edge"><title>javax.free:freejava&#45;lang:3.0.0&#45;&gt;javax.free:freejava&#45;jdk6compat:3.0.0</title>
<path fill="none" stroke="black" d="M468.501,-223.747C473.523,-206.171 481.015,-179.949 486.753,-159.866"/>
<polygon fill="black" stroke="black" points="490.189,-160.579 489.571,-150.002 483.458,-158.656 490.189,-160.579"/>
</g>
<!-- javax.free:freejava&#45;string:3.0.0&#45;&gt;javax.free:freejava&#45;c1:3.0.0 -->
<g id="edge28" class="edge"><title>javax.free:freejava&#45;string:3.0.0&#45;&gt;javax.free:freejava&#45;c1:3.0.0</title>
<path fill="none" stroke="black" d="M173.162,-335.908C173.615,-290.493 175.196,-172.459 180,-74 180.41,-65.5955 181.01,-56.479 181.621,-48.1301"/>
<polygon fill="black" stroke="black" points="185.117,-48.3139 182.388,-38.0767 178.138,-47.7816 185.117,-48.3139"/>
</g>
<!-- commons&#45;lang:commons&#45;lang:2.6 -->
<g id="node11" class="node"><title>commons&#45;lang:commons&#45;lang:2.6</title>
<polygon fill="white" stroke="black" points="96,-262 16,-262 16,-224 96,-224 96,-262"/>
<text text-anchor="middle" x="56" y="-250.8" font-family="SanSerif" font-size="8.00">commons&#45;lang</text>
<text text-anchor="middle" x="56" y="-240.8" font-family="SanSerif" font-size="8.00">commons&#45;lang</text>
<text text-anchor="middle" x="56" y="-230.8" font-family="SanSerif" font-size="8.00">2.6</text>
</g>
<!-- javax.free:freejava&#45;string:3.0.0&#45;&gt;commons&#45;lang:commons&#45;lang:2.6 -->
<g id="edge20" class="edge"><title>javax.free:freejava&#45;string:3.0.0&#45;&gt;commons&#45;lang:commons&#45;lang:2.6</title>
<path fill="none" stroke="black" d="M152.887,-335.747C133.684,-317.364 104.602,-289.525 83.3098,-269.143"/>
<polygon fill="black" stroke="black" points="85.4946,-266.389 75.8506,-262.002 80.6541,-271.446 85.4946,-266.389"/>
</g>
<!-- javax.free:freejava&#45;sio:3.0.0 -->
<g id="node12" class="node"><title>javax.free:freejava&#45;sio:3.0.0</title>
<polygon fill="white" stroke="black" points="166,-262 100,-262 100,-224 166,-224 166,-262"/>
<text text-anchor="middle" x="133" y="-250.8" font-family="SanSerif" font-size="8.00">javax.free</text>
<text text-anchor="middle" x="133" y="-240.8" font-family="SanSerif" font-size="8.00">freejava&#45;sio</text>
<text text-anchor="middle" x="133" y="-230.8" font-family="SanSerif" font-size="8.00">3.0.0</text>
</g>
<!-- javax.free:freejava&#45;string:3.0.0&#45;&gt;javax.free:freejava&#45;sio:3.0.0 -->
<g id="edge26" class="edge"><title>javax.free:freejava&#45;string:3.0.0&#45;&gt;javax.free:freejava&#45;sio:3.0.0</title>
<path fill="none" stroke="black" d="M166.124,-335.747C159.818,-318.09 150.396,-291.708 143.211,-271.59"/>
<polygon fill="black" stroke="black" points="146.446,-270.242 139.787,-262.002 139.854,-272.597 146.446,-270.242"/>
</g>
<!-- javax.free:freejava&#45;bits:3.0.0 -->
<g id="node13" class="node"><title>javax.free:freejava&#45;bits:3.0.0</title>
<polygon fill="white" stroke="black" points="70,-150 2.13163e-14,-150 7.10543e-15,-112 70,-112 70,-150"/>
<text text-anchor="middle" x="35" y="-138.8" font-family="SanSerif" font-size="8.00">javax.free</text>
<text text-anchor="middle" x="35" y="-128.8" font-family="SanSerif" font-size="8.00">freejava&#45;bits</text>
<text text-anchor="middle" x="35" y="-118.8" font-family="SanSerif" font-size="8.00">3.0.0</text>
</g>
<!-- javax.free:freejava&#45;sio:3.0.0&#45;&gt;javax.free:freejava&#45;bits:3.0.0 -->
<g id="edge22" class="edge"><title>javax.free:freejava&#45;sio:3.0.0&#45;&gt;javax.free:freejava&#45;bits:3.0.0</title>
<path fill="none" stroke="black" d="M116.153,-223.747C100.21,-205.526 76.1359,-178.012 58.3457,-157.681"/>
<polygon fill="black" stroke="black" points="60.8461,-155.223 51.627,-150.002 55.578,-159.833 60.8461,-155.223"/>
</g>
<!-- javax.free:freejava&#45;proxy&#45;api:3.0.0 -->
<g id="node14" class="node"><title>javax.free:freejava&#45;proxy&#45;api:3.0.0</title>
<polygon fill="white" stroke="black" points="166,-150 74,-150 74,-112 166,-112 166,-150"/>
<text text-anchor="middle" x="120" y="-138.8" font-family="SanSerif" font-size="8.00">javax.free</text>
<text text-anchor="middle" x="120" y="-128.8" font-family="SanSerif" font-size="8.00">freejava&#45;proxy&#45;api</text>
<text text-anchor="middle" x="120" y="-118.8" font-family="SanSerif" font-size="8.00">3.0.0</text>
</g>
<!-- javax.free:freejava&#45;sio:3.0.0&#45;&gt;javax.free:freejava&#45;proxy&#45;api:3.0.0 -->
<g id="edge24" class="edge"><title>javax.free:freejava&#45;sio:3.0.0&#45;&gt;javax.free:freejava&#45;proxy&#45;api:3.0.0</title>
<path fill="none" stroke="black" d="M130.765,-223.747C128.735,-206.251 125.709,-180.189 123.383,-160.143"/>
<polygon fill="black" stroke="black" points="126.835,-159.532 122.206,-150.002 119.882,-160.339 126.835,-159.532"/>
</g>
<!-- javax.free:freejava&#45;collection:3.0.0&#45;&gt;javax.free:freejava&#45;closure:3.0.0 -->
<g id="edge38" class="edge"><title>javax.free:freejava&#45;collection:3.0.0&#45;&gt;javax.free:freejava&#45;closure:3.0.0</title>
<path fill="none" stroke="black" d="M329.423,-335.747C337.183,-318.009 348.796,-291.467 357.612,-271.315"/>
<polygon fill="black" stroke="black" points="360.885,-272.567 361.687,-262.002 354.472,-269.761 360.885,-272.567"/>
</g>
<!-- javax.free:freejava&#45;collection:3.0.0&#45;&gt;javax.free:freejava&#45;c1:3.0.0 -->
<g id="edge34" class="edge"><title>javax.free:freejava&#45;collection:3.0.0&#45;&gt;javax.free:freejava&#45;c1:3.0.0</title>
<path fill="none" stroke="black" d="M276.041,-335.978C246.162,-320.714 209.195,-296.169 191,-262 171.712,-225.778 177.688,-104.365 181.676,-48.0907"/>
<polygon fill="black" stroke="black" points="185.17,-48.2923 182.415,-38.0622 178.189,-47.7779 185.17,-48.2923"/>
</g>
<!-- javax.free:freejava&#45;collection:3.0.0&#45;&gt;javax.free:freejava&#45;lang:3.0.0 -->
<g id="edge36" class="edge"><title>javax.free:freejava&#45;collection:3.0.0&#45;&gt;javax.free:freejava&#45;lang:3.0.0</title>
<path fill="none" stroke="black" d="M345.411,-335.747C369.023,-317.123 404.944,-288.791 430.87,-268.342"/>
<polygon fill="black" stroke="black" points="433.224,-270.943 438.908,-262.002 428.889,-265.447 433.224,-270.943"/>
</g>
<!-- net.sourceforge.collections:collections&#45;generic:4.01 -->
<g id="node16" class="node"><title>net.sourceforge.collections:collections&#45;generic:4.01</title>
<polygon fill="white" stroke="black" points="323,-262 191,-262 191,-224 323,-224 323,-262"/>
<text text-anchor="middle" x="257" y="-250.8" font-family="SanSerif" font-size="8.00">net.sourceforge.collections</text>
<text text-anchor="middle" x="257" y="-240.8" font-family="SanSerif" font-size="8.00">collections&#45;generic</text>
<text text-anchor="middle" x="257" y="-230.8" font-family="SanSerif" font-size="8.00">4.01</text>
</g>
<!-- javax.free:freejava&#45;collection:3.0.0&#45;&gt;net.sourceforge.collections:collections&#45;generic:4.01 -->
<g id="edge32" class="edge"><title>javax.free:freejava&#45;collection:3.0.0&#45;&gt;net.sourceforge.collections:collections&#45;generic:4.01</title>
<path fill="none" stroke="black" d="M309.998,-335.747C299.77,-317.848 284.419,-290.983 272.867,-270.767"/>
<polygon fill="black" stroke="black" points="275.859,-268.948 267.858,-262.002 269.781,-272.421 275.859,-268.948"/>
</g>
<!-- org.slf4j:slf4j&#45;api:1.4.2 -->
<g id="node18" class="node"><title>org.slf4j:slf4j&#45;api:1.4.2</title>
<polygon fill="white" stroke="black" points="625,-262 571,-262 571,-224 625,-224 625,-262"/>
<text text-anchor="middle" x="598" y="-250.8" font-family="SanSerif" font-size="8.00">org.slf4j</text>
<text text-anchor="middle" x="598" y="-240.8" font-family="SanSerif" font-size="8.00">slf4j&#45;api</text>
<text text-anchor="middle" x="598" y="-230.8" font-family="SanSerif" font-size="8.00">1.4.2</text>
</g>
<!-- org.slf4j:slf4j&#45;log4j12:1.4.2&#45;&gt;org.slf4j:slf4j&#45;api:1.4.2 -->
<g id="edge42" class="edge"><title>org.slf4j:slf4j&#45;log4j12:1.4.2&#45;&gt;org.slf4j:slf4j&#45;api:1.4.2</title>
<path fill="none" stroke="black" d="M513.534,-335.747C530.202,-317.445 555.407,-289.769 573.947,-269.411"/>
<polygon fill="black" stroke="black" points="576.549,-271.752 580.694,-262.002 571.373,-267.039 576.549,-271.752"/>
</g>
<!-- log4j:log4j:1.2.13 -->
<g id="node19" class="node"><title>log4j:log4j:1.2.13</title>
<polygon fill="white" stroke="black" points="567,-262 513,-262 513,-224 567,-224 567,-262"/>
<text text-anchor="middle" x="540" y="-250.8" font-family="SanSerif" font-size="8.00">log4j</text>
<text text-anchor="middle" x="540" y="-240.8" font-family="SanSerif" font-size="8.00">log4j</text>
<text text-anchor="middle" x="540" y="-230.8" font-family="SanSerif" font-size="8.00">1.2.13</text>
</g>
<!-- org.slf4j:slf4j&#45;log4j12:1.4.2&#45;&gt;log4j:log4j:1.2.13 -->
<g id="edge44" class="edge"><title>org.slf4j:slf4j&#45;log4j12:1.4.2&#45;&gt;log4j:log4j:1.2.13</title>
<path fill="none" stroke="black" d="M503.564,-335.747C510.532,-318.009 520.959,-291.467 528.876,-271.315"/>
<polygon fill="black" stroke="black" points="532.136,-272.59 532.535,-262.002 525.621,-270.03 532.136,-272.59"/>
</g>
</g>
</svg>
