<?xml version="1.0" encoding="UTF-8" standalone="no"?>
<!DOCTYPE svg PUBLIC "-//W3C//DTD SVG 1.1//EN"
 "http://www.w3.org/Graphics/SVG/1.1/DTD/svg11.dtd">
<!-- Generated by graphviz version 2.26.3 (20100126.1600)
 -->
<!-- Title: dependencies Pages: 1 -->
<svg width="658pt" height="816pt"
 viewBox="0.00 0.00 658.00 816.00" xmlns="http://www.w3.org/2000/svg" xmlns:xlink="http://www.w3.org/1999/xlink">
<g id="graph1" class="graph" transform="scale(1 1) rotate(0) translate(4 812)">
<title>dependencies</title>
<polygon fill="white" stroke="white" points="-4,5 -4,-812 655,-812 655,5 -4,5"/>
<text text-anchor="middle" x="241" y="-787.8" font-family="Serif" font-size="18.00">Dependency Graph for Plover :: Lifecycle :: Session</text>
<!-- com.bee32.plover:plover&#45;session:0.0.1&#45;SNAPSHOT -->
<g id="node1" class="node"><title>com.bee32.plover:plover&#45;session:0.0.1&#45;SNAPSHOT</title>
<polygon fill="#dddddd" stroke="black" points="499,-778 361,-778 361,-716 499,-716 499,-778"/>
<text text-anchor="middle" x="430" y="-761.4" font-family="SanSerif" font-size="14.00">com.bee32.plover</text>
<text text-anchor="middle" x="430" y="-743.4" font-family="SanSerif" font-size="14.00">plover&#45;session</text>
<text text-anchor="middle" x="430" y="-725.4" font-family="SanSerif" font-size="14.00">0.0.1&#45;SNAPSHOT</text>
</g>
<!-- javax.free:freejava&#45;context:3.0.0 -->
<g id="node2" class="node"><title>javax.free:freejava&#45;context:3.0.0</title>
<polygon fill="white" stroke="black" points="384,-522 300,-522 300,-484 384,-484 384,-522"/>
<text text-anchor="middle" x="342" y="-510.8" font-family="SanSerif" font-size="8.00">javax.free</text>
<text text-anchor="middle" x="342" y="-500.8" font-family="SanSerif" font-size="8.00">freejava&#45;context</text>
<text text-anchor="middle" x="342" y="-490.8" font-family="SanSerif" font-size="8.00">3.0.0</text>
</g>
<!-- com.bee32.plover:plover&#45;session:0.0.1&#45;SNAPSHOT&#45;&gt;javax.free:freejava&#45;context:3.0.0 -->
<g id="edge32" class="edge"><title>com.bee32.plover:plover&#45;session:0.0.1&#45;SNAPSHOT&#45;&gt;javax.free:freejava&#45;context:3.0.0</title>
<path fill="none" stroke="black" d="M417.862,-715.926C409.094,-693.283 397.072,-661.83 387,-634 374.357,-599.066 360.585,-558.587 351.651,-531.978"/>
<polygon fill="black" stroke="black" points="354.858,-530.531 348.363,-522.16 348.22,-532.754 354.858,-530.531"/>
</g>
<!-- javax.free:freejava&#45;variant:3.0.0 -->
<g id="node16" class="node"><title>javax.free:freejava&#45;variant:3.0.0</title>
<polygon fill="white" stroke="black" points="471,-634 389,-634 389,-596 471,-596 471,-634"/>
<text text-anchor="middle" x="430" y="-622.8" font-family="SanSerif" font-size="8.00">javax.free</text>
<text text-anchor="middle" x="430" y="-612.8" font-family="SanSerif" font-size="8.00">freejava&#45;variant</text>
<text text-anchor="middle" x="430" y="-602.8" font-family="SanSerif" font-size="8.00">3.0.0</text>
</g>
<!-- com.bee32.plover:plover&#45;session:0.0.1&#45;SNAPSHOT&#45;&gt;javax.free:freejava&#45;variant:3.0.0 -->
<g id="edge54" class="edge"><title>com.bee32.plover:plover&#45;session:0.0.1&#45;SNAPSHOT&#45;&gt;javax.free:freejava&#45;variant:3.0.0</title>
<path fill="none" stroke="black" d="M430,-715.718C430,-694.065 430,-665.442 430,-644.246"/>
<polygon fill="black" stroke="black" points="433.5,-644.207 430,-634.207 426.5,-644.207 433.5,-644.207"/>
</g>
<!-- javax.servlet:servlet&#45;api:2.5 -->
<g id="node22" class="node"><title>javax.servlet:servlet&#45;api:2.5</title>
<polygon fill="white" stroke="black" points="545,-634 475,-634 475,-596 545,-596 545,-634"/>
<text text-anchor="middle" x="510" y="-622.8" font-family="SanSerif" font-size="8.00">javax.servlet</text>
<text text-anchor="middle" x="510" y="-612.8" font-family="SanSerif" font-size="8.00">servlet&#45;api</text>
<text text-anchor="middle" x="510" y="-602.8" font-family="SanSerif" font-size="8.00">2.5</text>
</g>
<!-- com.bee32.plover:plover&#45;session:0.0.1&#45;SNAPSHOT&#45;&gt;javax.servlet:servlet&#45;api:2.5 -->
<g id="edge56" class="edge"><title>com.bee32.plover:plover&#45;session:0.0.1&#45;SNAPSHOT&#45;&gt;javax.servlet:servlet&#45;api:2.5</title>
<path fill="none" stroke="black" d="M448.959,-715.718C462.382,-693.571 480.223,-664.132 493.148,-642.805"/>
<polygon fill="black" stroke="black" points="496.169,-644.573 498.359,-634.207 490.183,-640.945 496.169,-644.573"/>
</g>
<!-- junit:junit:4.8.2 -->
<g id="node23" class="node"><title>junit:junit:4.8.2</title>
<polygon fill="white" stroke="cornflowerblue" points="603,-634 549,-634 549,-596 603,-596 603,-634"/>
<text text-anchor="middle" x="576" y="-622.8" font-family="SanSerif" font-size="8.00" fill="cornflowerblue">junit</text>
<text text-anchor="middle" x="576" y="-612.8" font-family="SanSerif" font-size="8.00" fill="cornflowerblue">junit</text>
<text text-anchor="middle" x="576" y="-602.8" font-family="SanSerif" font-size="8.00" fill="cornflowerblue">4.8.2</text>
</g>
<!-- com.bee32.plover:plover&#45;session:0.0.1&#45;SNAPSHOT&#45;&gt;junit:junit:4.8.2 -->
<g id="edge58" class="edge"><title>com.bee32.plover:plover&#45;session:0.0.1&#45;SNAPSHOT&#45;&gt;junit:junit:4.8.2</title>
<path fill="none" stroke="cornflowerblue" d="M464.6,-715.718C489.752,-692.977 523.407,-662.549 547.121,-641.109"/>
<polygon fill="cornflowerblue" stroke="cornflowerblue" points="549.685,-643.51 554.756,-634.207 544.991,-638.317 549.685,-643.51"/>
<text text-anchor="middle" x="520.5" y="-672.8" font-family="SanSerif" font-size="8.00" fill="cornflowerblue">test</text>
</g>
<!-- javax.free:freejava&#45;jvmhack:3.0.0 -->
<g id="node3" class="node"><title>javax.free:freejava&#45;jvmhack:3.0.0</title>
<polygon fill="white" stroke="black" points="291,-410 203,-410 203,-372 291,-372 291,-410"/>
<text text-anchor="middle" x="247" y="-398.8" font-family="SanSerif" font-size="8.00">javax.free</text>
<text text-anchor="middle" x="247" y="-388.8" font-family="SanSerif" font-size="8.00">freejava&#45;jvmhack</text>
<text text-anchor="middle" x="247" y="-378.8" font-family="SanSerif" font-size="8.00">3.0.0</text>
</g>
<!-- javax.free:freejava&#45;context:3.0.0&#45;&gt;javax.free:freejava&#45;jvmhack:3.0.0 -->
<g id="edge8" class="edge"><title>javax.free:freejava&#45;context:3.0.0&#45;&gt;javax.free:freejava&#45;jvmhack:3.0.0</title>
<path fill="none" stroke="black" d="M325.669,-483.747C310.214,-465.526 286.877,-438.012 269.631,-417.681"/>
<polygon fill="black" stroke="black" points="272.256,-415.364 263.118,-410.002 266.917,-419.892 272.256,-415.364"/>
</g>
<!-- javax.free:freejava&#45;closure:3.0.0 -->
<g id="node7" class="node"><title>javax.free:freejava&#45;closure:3.0.0</title>
<polygon fill="white" stroke="black" points="504,-262 418,-262 418,-224 504,-224 504,-262"/>
<text text-anchor="middle" x="461" y="-250.8" font-family="SanSerif" font-size="8.00">javax.free</text>
<text text-anchor="middle" x="461" y="-240.8" font-family="SanSerif" font-size="8.00">freejava&#45;closure</text>
<text text-anchor="middle" x="461" y="-230.8" font-family="SanSerif" font-size="8.00">3.0.0</text>
</g>
<!-- javax.free:freejava&#45;context:3.0.0&#45;&gt;javax.free:freejava&#45;closure:3.0.0 -->
<g id="edge16" class="edge"><title>javax.free:freejava&#45;context:3.0.0&#45;&gt;javax.free:freejava&#45;closure:3.0.0</title>
<path fill="none" stroke="black" d="M352.566,-483.717C362.557,-465.121 377.667,-436.043 389,-410 396.182,-393.496 396.194,-388.662 403,-372 417.325,-336.926 435.451,-297.272 447.593,-271.299"/>
<polygon fill="black" stroke="black" points="450.852,-272.592 451.933,-262.052 444.515,-269.618 450.852,-272.592"/>
</g>
<!-- javax.free:freejava&#45;collection:3.0.0 -->
<g id="node11" class="node"><title>javax.free:freejava&#45;collection:3.0.0</title>
<polygon fill="white" stroke="black" points="389,-410 295,-410 295,-372 389,-372 389,-410"/>
<text text-anchor="middle" x="342" y="-398.8" font-family="SanSerif" font-size="8.00">javax.free</text>
<text text-anchor="middle" x="342" y="-388.8" font-family="SanSerif" font-size="8.00">freejava&#45;collection</text>
<text text-anchor="middle" x="342" y="-378.8" font-family="SanSerif" font-size="8.00">3.0.0</text>
</g>
<!-- javax.free:freejava&#45;context:3.0.0&#45;&gt;javax.free:freejava&#45;collection:3.0.0 -->
<g id="edge28" class="edge"><title>javax.free:freejava&#45;context:3.0.0&#45;&gt;javax.free:freejava&#45;collection:3.0.0</title>
<path fill="none" stroke="black" d="M342,-483.747C342,-466.251 342,-440.189 342,-420.143"/>
<polygon fill="black" stroke="black" points="345.5,-420.002 342,-410.002 338.5,-420.002 345.5,-420.002"/>
</g>
<!-- javax.free:freejava&#45;sysinfo:3.0.0 -->
<g id="node15" class="node"><title>javax.free:freejava&#45;sysinfo:3.0.0</title>
<polygon fill="white" stroke="black" points="199,-410 115,-410 115,-372 199,-372 199,-410"/>
<text text-anchor="middle" x="157" y="-398.8" font-family="SanSerif" font-size="8.00">javax.free</text>
<text text-anchor="middle" x="157" y="-388.8" font-family="SanSerif" font-size="8.00">freejava&#45;sysinfo</text>
<text text-anchor="middle" x="157" y="-378.8" font-family="SanSerif" font-size="8.00">3.0.0</text>
</g>
<!-- javax.free:freejava&#45;context:3.0.0&#45;&gt;javax.free:freejava&#45;sysinfo:3.0.0 -->
<g id="edge30" class="edge"><title>javax.free:freejava&#45;context:3.0.0&#45;&gt;javax.free:freejava&#45;sysinfo:3.0.0</title>
<path fill="none" stroke="black" d="M310.197,-483.747C278.902,-464.8 231.011,-435.806 197.117,-415.287"/>
<polygon fill="black" stroke="black" points="198.755,-412.187 188.388,-410.002 195.129,-418.175 198.755,-412.187"/>
</g>
<!-- asm:asm:3.1 -->
<g id="node4" class="node"><title>asm:asm:3.1</title>
<polygon fill="white" stroke="black" points="54,-262 1.42109e-14,-262 3.55271e-15,-224 54,-224 54,-262"/>
<text text-anchor="middle" x="27" y="-250.8" font-family="SanSerif" font-size="8.00">asm</text>
<text text-anchor="middle" x="27" y="-240.8" font-family="SanSerif" font-size="8.00">asm</text>
<text text-anchor="middle" x="27" y="-230.8" font-family="SanSerif" font-size="8.00">3.1</text>
</g>
<!-- javax.free:freejava&#45;jvmhack:3.0.0&#45;&gt;asm:asm:3.1 -->
<g id="edge2" class="edge"><title>javax.free:freejava&#45;jvmhack:3.0.0&#45;&gt;asm:asm:3.1</title>
<path fill="none" stroke="black" d="M218.689,-371.955C178.843,-345.149 106.236,-296.304 62.7251,-267.033"/>
<polygon fill="black" stroke="black" points="64.4176,-263.954 54.1668,-261.276 60.5104,-269.762 64.4176,-263.954"/>
</g>
<!-- javax.free:freejava&#45;proxy&#45;java&#45;security:3.0.0 -->
<g id="node5" class="node"><title>javax.free:freejava&#45;proxy&#45;java&#45;security:3.0.0</title>
<polygon fill="white" stroke="black" points="202,-262 68,-262 68,-224 202,-224 202,-262"/>
<text text-anchor="middle" x="135" y="-250.8" font-family="SanSerif" font-size="8.00">javax.free</text>
<text text-anchor="middle" x="135" y="-240.8" font-family="SanSerif" font-size="8.00">freejava&#45;proxy&#45;java&#45;security</text>
<text text-anchor="middle" x="135" y="-230.8" font-family="SanSerif" font-size="8.00">3.0.0</text>
</g>
<!-- javax.free:freejava&#45;jvmhack:3.0.0&#45;&gt;javax.free:freejava&#45;proxy&#45;java&#45;security:3.0.0 -->
<g id="edge6" class="edge"><title>javax.free:freejava&#45;jvmhack:3.0.0&#45;&gt;javax.free:freejava&#45;proxy&#45;java&#45;security:3.0.0</title>
<path fill="none" stroke="black" d="M232.587,-371.955C213.121,-346.232 178.297,-300.214 155.942,-270.673"/>
<polygon fill="black" stroke="black" points="158.538,-268.304 149.713,-262.442 152.957,-272.528 158.538,-268.304"/>
</g>
<!-- javax.free:freejava&#45;proxy&#45;api:3.0.0 -->
<g id="node6" class="node"><title>javax.free:freejava&#45;proxy&#45;api:3.0.0</title>
<polygon fill="white" stroke="black" points="477,-150 385,-150 385,-112 477,-112 477,-150"/>
<text text-anchor="middle" x="431" y="-138.8" font-family="SanSerif" font-size="8.00">javax.free</text>
<text text-anchor="middle" x="431" y="-128.8" font-family="SanSerif" font-size="8.00">freejava&#45;proxy&#45;api</text>
<text text-anchor="middle" x="431" y="-118.8" font-family="SanSerif" font-size="8.00">3.0.0</text>
</g>
<!-- javax.free:freejava&#45;proxy&#45;java&#45;security:3.0.0&#45;&gt;javax.free:freejava&#45;proxy&#45;api:3.0.0 -->
<g id="edge4" class="edge"><title>javax.free:freejava&#45;proxy&#45;java&#45;security:3.0.0&#45;&gt;javax.free:freejava&#45;proxy&#45;api:3.0.0</title>
<path fill="none" stroke="black" d="M185.548,-223.874C238.197,-203.952 320.465,-172.824 375.042,-152.173"/>
<polygon fill="black" stroke="black" points="376.446,-155.384 384.561,-148.572 373.969,-148.837 376.446,-155.384"/>
</g>
<!-- javax.free:freejava&#45;meta:3.0.0 -->
<g id="node8" class="node"><title>javax.free:freejava&#45;meta:3.0.0</title>
<polygon fill="white" stroke="black" points="570,-150 494,-150 494,-112 570,-112 570,-150"/>
<text text-anchor="middle" x="532" y="-138.8" font-family="SanSerif" font-size="8.00">javax.free</text>
<text text-anchor="middle" x="532" y="-128.8" font-family="SanSerif" font-size="8.00">freejava&#45;meta</text>
<text text-anchor="middle" x="532" y="-118.8" font-family="SanSerif" font-size="8.00">3.0.0</text>
</g>
<!-- javax.free:freejava&#45;closure:3.0.0&#45;&gt;javax.free:freejava&#45;meta:3.0.0 -->
<g id="edge14" class="edge"><title>javax.free:freejava&#45;closure:3.0.0&#45;&gt;javax.free:freejava&#45;meta:3.0.0</title>
<path fill="none" stroke="black" d="M473.205,-223.747C484.603,-205.768 501.735,-178.741 514.571,-158.494"/>
<polygon fill="black" stroke="black" points="517.556,-160.322 519.954,-150.002 511.644,-156.574 517.556,-160.322"/>
</g>
<!-- javax.free:freejava&#45;annotation:3.0.0 -->
<g id="node9" class="node"><title>javax.free:freejava&#45;annotation:3.0.0</title>
<polygon fill="white" stroke="black" points="581,-38 483,-38 483,-7.10543e-15 581,-3.55271e-15 581,-38"/>
<text text-anchor="middle" x="532" y="-26.8" font-family="SanSerif" font-size="8.00">javax.free</text>
<text text-anchor="middle" x="532" y="-16.8" font-family="SanSerif" font-size="8.00">freejava&#45;annotation</text>
<text text-anchor="middle" x="532" y="-6.8" font-family="SanSerif" font-size="8.00">3.0.0</text>
</g>
<!-- javax.free:freejava&#45;meta:3.0.0&#45;&gt;javax.free:freejava&#45;annotation:3.0.0 -->
<g id="edge10" class="edge"><title>javax.free:freejava&#45;meta:3.0.0&#45;&gt;javax.free:freejava&#45;annotation:3.0.0</title>
<path fill="none" stroke="black" d="M532,-111.747C532,-94.2513 532,-68.1891 532,-48.1429"/>
<polygon fill="black" stroke="black" points="535.5,-48.0022 532,-38.0022 528.5,-48.0023 535.5,-48.0022"/>
</g>
<!-- javax.free:freejava&#45;c1:3.0.0 -->
<g id="node10" class="node"><title>javax.free:freejava&#45;c1:3.0.0</title>
<polygon fill="white" stroke="black" points="286,-38 222,-38 222,-7.10543e-15 286,-3.55271e-15 286,-38"/>
<text text-anchor="middle" x="254" y="-26.8" font-family="SanSerif" font-size="8.00">javax.free</text>
<text text-anchor="middle" x="254" y="-16.8" font-family="SanSerif" font-size="8.00">freejava&#45;c1</text>
<text text-anchor="middle" x="254" y="-6.8" font-family="SanSerif" font-size="8.00">3.0.0</text>
</g>
<!-- javax.free:freejava&#45;meta:3.0.0&#45;&gt;javax.free:freejava&#45;c1:3.0.0 -->
<g id="edge12" class="edge"><title>javax.free:freejava&#45;meta:3.0.0&#45;&gt;javax.free:freejava&#45;c1:3.0.0</title>
<path fill="none" stroke="black" d="M493.928,-115.662C441.991,-94.7374 349.266,-57.3805 295.568,-35.7468"/>
<polygon fill="black" stroke="black" points="296.598,-32.3883 286.014,-31.8978 293.982,-38.8812 296.598,-32.3883"/>
</g>
<!-- javax.free:freejava&#45;collection:3.0.0&#45;&gt;javax.free:freejava&#45;closure:3.0.0 -->
<g id="edge26" class="edge"><title>javax.free:freejava&#45;collection:3.0.0&#45;&gt;javax.free:freejava&#45;closure:3.0.0</title>
<path fill="none" stroke="black" d="M349.576,-371.813C358.002,-351.984 372.97,-320.798 392,-298 401.074,-287.129 412.592,-276.938 423.605,-268.353"/>
<polygon fill="black" stroke="black" points="426,-270.93 431.88,-262.116 421.787,-265.34 426,-270.93"/>
</g>
<!-- javax.free:freejava&#45;collection:3.0.0&#45;&gt;javax.free:freejava&#45;c1:3.0.0 -->
<g id="edge20" class="edge"><title>javax.free:freejava&#45;collection:3.0.0&#45;&gt;javax.free:freejava&#45;c1:3.0.0</title>
<path fill="none" stroke="black" d="M300.118,-371.978C224.212,-337.408 71.3846,-267.334 68,-262 13.8609,-176.672 142.857,-83.9921 212.734,-41.9915"/>
<polygon fill="black" stroke="black" points="214.943,-44.7511 221.767,-36.646 211.378,-38.7269 214.943,-44.7511"/>
</g>
<!-- net.sourceforge.collections:collections&#45;generic:4.01 -->
<g id="node12" class="node"><title>net.sourceforge.collections:collections&#45;generic:4.01</title>
<polygon fill="white" stroke="black" points="414,-262 282,-262 282,-224 414,-224 414,-262"/>
<text text-anchor="middle" x="348" y="-250.8" font-family="SanSerif" font-size="8.00">net.sourceforge.collections</text>
<text text-anchor="middle" x="348" y="-240.8" font-family="SanSerif" font-size="8.00">collections&#45;generic</text>
<text text-anchor="middle" x="348" y="-230.8" font-family="SanSerif" font-size="8.00">4.01</text>
</g>
<!-- javax.free:freejava&#45;collection:3.0.0&#45;&gt;net.sourceforge.collections:collections&#45;generic:4.01 -->
<g id="edge18" class="edge"><title>javax.free:freejava&#45;collection:3.0.0&#45;&gt;net.sourceforge.collections:collections&#45;generic:4.01</title>
<path fill="none" stroke="black" d="M342.772,-371.955C343.793,-346.784 345.601,-302.18 346.8,-272.598"/>
<polygon fill="black" stroke="black" points="350.304,-272.576 347.212,-262.442 343.31,-272.292 350.304,-272.576"/>
</g>
<!-- javax.free:freejava&#45;lang:3.0.0 -->
<g id="node13" class="node"><title>javax.free:freejava&#45;lang:3.0.0</title>
<polygon fill="white" stroke="black" points="278,-262 206,-262 206,-224 278,-224 278,-262"/>
<text text-anchor="middle" x="242" y="-250.8" font-family="SanSerif" font-size="8.00">javax.free</text>
<text text-anchor="middle" x="242" y="-240.8" font-family="SanSerif" font-size="8.00">freejava&#45;lang</text>
<text text-anchor="middle" x="242" y="-230.8" font-family="SanSerif" font-size="8.00">3.0.0</text>
</g>
<!-- javax.free:freejava&#45;collection:3.0.0&#45;&gt;javax.free:freejava&#45;lang:3.0.0 -->
<g id="edge24" class="edge"><title>javax.free:freejava&#45;collection:3.0.0&#45;&gt;javax.free:freejava&#45;lang:3.0.0</title>
<path fill="none" stroke="black" d="M329.131,-371.955C311.826,-346.342 280.925,-300.609 260.956,-271.055"/>
<polygon fill="black" stroke="black" points="263.635,-268.769 255.137,-262.442 257.835,-272.688 263.635,-268.769"/>
</g>
<!-- javax.free:freejava&#45;jdk6compat:3.0.0 -->
<g id="node14" class="node"><title>javax.free:freejava&#45;jdk6compat:3.0.0</title>
<polygon fill="white" stroke="black" points="356,-150 254,-150 254,-112 356,-112 356,-150"/>
<text text-anchor="middle" x="305" y="-138.8" font-family="SanSerif" font-size="8.00">javax.free</text>
<text text-anchor="middle" x="305" y="-128.8" font-family="SanSerif" font-size="8.00">freejava&#45;jdk6compat</text>
<text text-anchor="middle" x="305" y="-118.8" font-family="SanSerif" font-size="8.00">3.0.0</text>
</g>
<!-- javax.free:freejava&#45;lang:3.0.0&#45;&gt;javax.free:freejava&#45;jdk6compat:3.0.0 -->
<g id="edge22" class="edge"><title>javax.free:freejava&#45;lang:3.0.0&#45;&gt;javax.free:freejava&#45;jdk6compat:3.0.0</title>
<path fill="none" stroke="black" d="M252.83,-223.747C262.898,-205.848 278.009,-178.983 289.381,-158.767"/>
<polygon fill="black" stroke="black" points="292.459,-160.434 294.311,-150.002 286.358,-157.002 292.459,-160.434"/>
</g>
<!-- javax.free:freejava&#45;valtype:3.0.0 -->
<g id="node17" class="node"><title>javax.free:freejava&#45;valtype:3.0.0</title>
<polygon fill="white" stroke="black" points="472,-522 388,-522 388,-484 472,-484 472,-522"/>
<text text-anchor="middle" x="430" y="-510.8" font-family="SanSerif" font-size="8.00">javax.free</text>
<text text-anchor="middle" x="430" y="-500.8" font-family="SanSerif" font-size="8.00">freejava&#45;valtype</text>
<text text-anchor="middle" x="430" y="-490.8" font-family="SanSerif" font-size="8.00">3.0.0</text>
</g>
<!-- javax.free:freejava&#45;variant:3.0.0&#45;&gt;javax.free:freejava&#45;valtype:3.0.0 -->
<g id="edge52" class="edge"><title>javax.free:freejava&#45;variant:3.0.0&#45;&gt;javax.free:freejava&#45;valtype:3.0.0</title>
<path fill="none" stroke="black" d="M430,-595.747C430,-578.251 430,-552.189 430,-532.143"/>
<polygon fill="black" stroke="black" points="433.5,-532.002 430,-522.002 426.5,-532.002 433.5,-532.002"/>
</g>
<!-- javax.free:freejava&#45;valtype:3.0.0&#45;&gt;javax.free:freejava&#45;closure:3.0.0 -->
<g id="edge48" class="edge"><title>javax.free:freejava&#45;valtype:3.0.0&#45;&gt;javax.free:freejava&#45;closure:3.0.0</title>
<path fill="none" stroke="black" d="M448.138,-483.803C463.454,-466.173 484.248,-438.525 493,-410 507.62,-362.352 489.037,-304.916 474.688,-271.326"/>
<polygon fill="black" stroke="black" points="477.853,-269.83 470.599,-262.109 471.455,-272.669 477.853,-269.83"/>
</g>
<!-- javax.free:freejava&#45;valtype:3.0.0&#45;&gt;javax.free:freejava&#45;collection:3.0.0 -->
<g id="edge50" class="edge"><title>javax.free:freejava&#45;valtype:3.0.0&#45;&gt;javax.free:freejava&#45;collection:3.0.0</title>
<path fill="none" stroke="black" d="M414.872,-483.747C400.619,-465.606 379.13,-438.256 363.176,-417.951"/>
<polygon fill="black" stroke="black" points="365.861,-415.703 356.93,-410.002 360.356,-420.028 365.861,-415.703"/>
</g>
<!-- javax.free:freejava&#45;valtype:3.0.0&#45;&gt;javax.free:freejava&#45;jdk6compat:3.0.0 -->
<g id="edge40" class="edge"><title>javax.free:freejava&#45;valtype:3.0.0&#45;&gt;javax.free:freejava&#45;jdk6compat:3.0.0</title>
<path fill="none" stroke="black" d="M422.051,-483.743C412.49,-457.654 399.327,-409.977 413,-372 439.156,-299.348 545.461,-289.142 504,-224 488.097,-199.014 418.228,-170.11 365.737,-151.241"/>
<polygon fill="black" stroke="black" points="366.75,-147.887 356.155,-147.838 364.407,-154.483 366.75,-147.887"/>
</g>
<!-- javax.free:freejava&#45;sio:3.0.0 -->
<g id="node18" class="node"><title>javax.free:freejava&#45;sio:3.0.0</title>
<polygon fill="white" stroke="black" points="573,-410 507,-410 507,-372 573,-372 573,-410"/>
<text text-anchor="middle" x="540" y="-398.8" font-family="SanSerif" font-size="8.00">javax.free</text>
<text text-anchor="middle" x="540" y="-388.8" font-family="SanSerif" font-size="8.00">freejava&#45;sio</text>
<text text-anchor="middle" x="540" y="-378.8" font-family="SanSerif" font-size="8.00">3.0.0</text>
</g>
<!-- javax.free:freejava&#45;valtype:3.0.0&#45;&gt;javax.free:freejava&#45;sio:3.0.0 -->
<g id="edge38" class="edge"><title>javax.free:freejava&#45;valtype:3.0.0&#45;&gt;javax.free:freejava&#45;sio:3.0.0</title>
<path fill="none" stroke="black" d="M460.863,-483.863C475,-474.188 491.378,-461.618 504,-448 511.959,-439.413 519.195,-428.834 525.057,-419.131"/>
<polygon fill="black" stroke="black" points="528.253,-420.597 530.236,-410.189 522.195,-417.088 528.253,-420.597"/>
</g>
<!-- commons&#45;lang:commons&#45;lang:2.6 -->
<g id="node20" class="node"><title>commons&#45;lang:commons&#45;lang:2.6</title>
<polygon fill="white" stroke="black" points="493,-410 413,-410 413,-372 493,-372 493,-410"/>
<text text-anchor="middle" x="453" y="-398.8" font-family="SanSerif" font-size="8.00">commons&#45;lang</text>
<text text-anchor="middle" x="453" y="-388.8" font-family="SanSerif" font-size="8.00">commons&#45;lang</text>
<text text-anchor="middle" x="453" y="-378.8" font-family="SanSerif" font-size="8.00">2.6</text>
</g>
<!-- javax.free:freejava&#45;valtype:3.0.0&#45;&gt;commons&#45;lang:commons&#45;lang:2.6 -->
<g id="edge42" class="edge"><title>javax.free:freejava&#45;valtype:3.0.0&#45;&gt;commons&#45;lang:commons&#45;lang:2.6</title>
<path fill="none" stroke="black" d="M433.954,-483.747C437.563,-466.171 442.948,-439.949 447.072,-419.866"/>
<polygon fill="black" stroke="black" points="450.515,-420.502 449.098,-410.002 443.658,-419.094 450.515,-420.502"/>
</g>
<!-- javax.free:freejava&#45;primitive:3.0.0 -->
<g id="node21" class="node"><title>javax.free:freejava&#45;primitive:3.0.0</title>
<polygon fill="white" stroke="black" points="650,-336 560,-336 560,-298 650,-298 650,-336"/>
<text text-anchor="middle" x="605" y="-324.8" font-family="SanSerif" font-size="8.00">javax.free</text>
<text text-anchor="middle" x="605" y="-314.8" font-family="SanSerif" font-size="8.00">freejava&#45;primitive</text>
<text text-anchor="middle" x="605" y="-304.8" font-family="SanSerif" font-size="8.00">3.0.0</text>
</g>
<!-- javax.free:freejava&#45;valtype:3.0.0&#45;&gt;javax.free:freejava&#45;primitive:3.0.0 -->
<g id="edge46" class="edge"><title>javax.free:freejava&#45;valtype:3.0.0&#45;&gt;javax.free:freejava&#45;primitive:3.0.0</title>
<path fill="none" stroke="black" d="M472.219,-485.563C504.645,-470.151 548.267,-444.712 575,-410 589.303,-391.429 596.905,-365.814 600.874,-346.168"/>
<polygon fill="black" stroke="black" points="604.336,-346.694 602.679,-336.229 597.448,-345.442 604.336,-346.694"/>
</g>
<!-- javax.free:freejava&#45;sio:3.0.0&#45;&gt;javax.free:freejava&#45;proxy&#45;api:3.0.0 -->
<g id="edge36" class="edge"><title>javax.free:freejava&#45;sio:3.0.0&#45;&gt;javax.free:freejava&#45;proxy&#45;api:3.0.0</title>
<path fill="none" stroke="black" d="M538.471,-371.693C534.538,-323.679 523.702,-201.618 514,-186 506.44,-173.83 495.075,-163.775 483.161,-155.741"/>
<polygon fill="black" stroke="black" points="484.763,-152.614 474.436,-150.247 481.033,-158.537 484.763,-152.614"/>
</g>
<!-- javax.free:freejava&#45;bits:3.0.0 -->
<g id="node19" class="node"><title>javax.free:freejava&#45;bits:3.0.0</title>
<polygon fill="white" stroke="black" points="598,-262 528,-262 528,-224 598,-224 598,-262"/>
<text text-anchor="middle" x="563" y="-250.8" font-family="SanSerif" font-size="8.00">javax.free</text>
<text text-anchor="middle" x="563" y="-240.8" font-family="SanSerif" font-size="8.00">freejava&#45;bits</text>
<text text-anchor="middle" x="563" y="-230.8" font-family="SanSerif" font-size="8.00">3.0.0</text>
</g>
<!-- javax.free:freejava&#45;sio:3.0.0&#45;&gt;javax.free:freejava&#45;bits:3.0.0 -->
<g id="edge34" class="edge"><title>javax.free:freejava&#45;sio:3.0.0&#45;&gt;javax.free:freejava&#45;bits:3.0.0</title>
<path fill="none" stroke="black" d="M542.96,-371.955C546.871,-346.784 553.803,-302.18 558.4,-272.598"/>
<polygon fill="black" stroke="black" points="561.901,-272.861 559.979,-262.442 554.984,-271.786 561.901,-272.861"/>
</g>
<!-- javax.free:freejava&#45;primitive:3.0.0&#45;&gt;javax.free:freejava&#45;meta:3.0.0 -->
<g id="edge44" class="edge"><title>javax.free:freejava&#45;primitive:3.0.0&#45;&gt;javax.free:freejava&#45;meta:3.0.0</title>
<path fill="none" stroke="black" d="M606.493,-297.855C607.327,-278.605 606.79,-248.37 598,-224 589.168,-199.512 571.998,-175.646 557.384,-158.222"/>
<polygon fill="black" stroke="black" points="559.65,-155.491 550.464,-150.212 554.353,-160.067 559.65,-155.491"/>
</g>
</g>
</svg>
