<?xml version="1.0" encoding="UTF-8" standalone="no"?>
<!DOCTYPE svg PUBLIC "-//W3C//DTD SVG 1.1//EN"
 "http://www.w3.org/Graphics/SVG/1.1/DTD/svg11.dtd">
<!-- Generated by graphviz version 2.26.3 (20100126.1600)
 -->
<!-- Title: dependencies Pages: 1 -->
<svg width="847pt" height="892pt"
 viewBox="0.00 0.00 847.00 892.00" xmlns="http://www.w3.org/2000/svg" xmlns:xlink="http://www.w3.org/1999/xlink">
<g id="graph1" class="graph" transform="scale(1 1) rotate(0) translate(4 888)">
<title>dependencies</title>
<polygon fill="white" stroke="white" points="-4,5 -4,-888 844,-888 844,5 -4,5"/>
<text text-anchor="middle" x="208.5" y="-863.8" font-family="Serif" font-size="18.00">Dependency Graph for Plover :: Core :: Conf</text>
<!-- com.bee32.plover:plover&#45;conf:0.0.1&#45;SNAPSHOT -->
<g id="node1" class="node"><title>com.bee32.plover:plover&#45;conf:0.0.1&#45;SNAPSHOT</title>
<polygon fill="#dddddd" stroke="black" points="618,-854 480,-854 480,-792 618,-792 618,-854"/>
<text text-anchor="middle" x="549" y="-837.4" font-family="SanSerif" font-size="14.00">com.bee32.plover</text>
<text text-anchor="middle" x="549" y="-819.4" font-family="SanSerif" font-size="14.00">plover&#45;conf</text>
<text text-anchor="middle" x="549" y="-801.4" font-family="SanSerif" font-size="14.00">0.0.1&#45;SNAPSHOT</text>
</g>
<!-- javax.free:freejava&#45;context:3.0.0 -->
<g id="node2" class="node"><title>javax.free:freejava&#45;context:3.0.0</title>
<polygon fill="white" stroke="black" points="510,-486 426,-486 426,-448 510,-448 510,-486"/>
<text text-anchor="middle" x="468" y="-474.8" font-family="SanSerif" font-size="8.00">javax.free</text>
<text text-anchor="middle" x="468" y="-464.8" font-family="SanSerif" font-size="8.00">freejava&#45;context</text>
<text text-anchor="middle" x="468" y="-454.8" font-family="SanSerif" font-size="8.00">3.0.0</text>
</g>
<!-- com.bee32.plover:plover&#45;conf:0.0.1&#45;SNAPSHOT&#45;&gt;javax.free:freejava&#45;context:3.0.0 -->
<g id="edge32" class="edge"><title>com.bee32.plover:plover&#45;conf:0.0.1&#45;SNAPSHOT&#45;&gt;javax.free:freejava&#45;context:3.0.0</title>
<path fill="none" stroke="black" d="M541.883,-791.719C526.378,-723.573 489.734,-562.52 474.657,-496.258"/>
<polygon fill="black" stroke="black" points="477.978,-495.079 472.347,-486.105 471.153,-496.632 477.978,-495.079"/>
</g>
<!-- com.bee32.plover:plover&#45;arch:0.0.4&#45;SNAPSHOT -->
<g id="node16" class="node"><title>com.bee32.plover:plover&#45;arch:0.0.4&#45;SNAPSHOT</title>
<polygon fill="white" stroke="black" points="606,-486 514,-486 514,-448 606,-448 606,-486"/>
<text text-anchor="middle" x="560" y="-474.8" font-family="SanSerif" font-size="8.00">com.bee32.plover</text>
<text text-anchor="middle" x="560" y="-464.8" font-family="SanSerif" font-size="8.00">plover&#45;arch</text>
<text text-anchor="middle" x="560" y="-454.8" font-family="SanSerif" font-size="8.00">0.0.4&#45;SNAPSHOT</text>
</g>
<!-- com.bee32.plover:plover&#45;conf:0.0.1&#45;SNAPSHOT&#45;&gt;com.bee32.plover:plover&#45;arch:0.0.4&#45;SNAPSHOT -->
<g id="edge64" class="edge"><title>com.bee32.plover:plover&#45;conf:0.0.1&#45;SNAPSHOT&#45;&gt;com.bee32.plover:plover&#45;arch:0.0.4&#45;SNAPSHOT</title>
<path fill="none" stroke="black" d="M549.967,-791.719C552.072,-723.573 557.049,-562.52 559.096,-496.258"/>
<polygon fill="black" stroke="black" points="562.599,-496.208 559.41,-486.105 555.602,-495.992 562.599,-496.208"/>
</g>
<!-- com.bee32.plover:plover&#45;model:0.0.1&#45;SNAPSHOT -->
<g id="node25" class="node"><title>com.bee32.plover:plover&#45;model:0.0.1&#45;SNAPSHOT</title>
<polygon fill="white" stroke="black" points="648,-710 556,-710 556,-672 648,-672 648,-710"/>
<text text-anchor="middle" x="602" y="-698.8" font-family="SanSerif" font-size="8.00">com.bee32.plover</text>
<text text-anchor="middle" x="602" y="-688.8" font-family="SanSerif" font-size="8.00">plover&#45;model</text>
<text text-anchor="middle" x="602" y="-678.8" font-family="SanSerif" font-size="8.00">0.0.1&#45;SNAPSHOT</text>
</g>
<!-- com.bee32.plover:plover&#45;conf:0.0.1&#45;SNAPSHOT&#45;&gt;com.bee32.plover:plover&#45;model:0.0.1&#45;SNAPSHOT -->
<g id="edge76" class="edge"><title>com.bee32.plover:plover&#45;conf:0.0.1&#45;SNAPSHOT&#45;&gt;com.bee32.plover:plover&#45;model:0.0.1&#45;SNAPSHOT</title>
<path fill="none" stroke="black" d="M561.56,-791.718C570.334,-769.867 581.957,-740.919 590.49,-719.667"/>
<polygon fill="black" stroke="black" points="593.81,-720.791 594.288,-710.207 587.314,-718.183 593.81,-720.791"/>
</g>
<!-- junit:junit:4.8.2 -->
<g id="node27" class="node"><title>junit:junit:4.8.2</title>
<polygon fill="white" stroke="cornflowerblue" points="706,-710 652,-710 652,-672 706,-672 706,-710"/>
<text text-anchor="middle" x="679" y="-698.8" font-family="SanSerif" font-size="8.00" fill="cornflowerblue">junit</text>
<text text-anchor="middle" x="679" y="-688.8" font-family="SanSerif" font-size="8.00" fill="cornflowerblue">junit</text>
<text text-anchor="middle" x="679" y="-678.8" font-family="SanSerif" font-size="8.00" fill="cornflowerblue">4.8.2</text>
</g>
<!-- com.bee32.plover:plover&#45;conf:0.0.1&#45;SNAPSHOT&#45;&gt;junit:junit:4.8.2 -->
<g id="edge78" class="edge"><title>com.bee32.plover:plover&#45;conf:0.0.1&#45;SNAPSHOT&#45;&gt;junit:junit:4.8.2</title>
<path fill="none" stroke="cornflowerblue" d="M579.808,-791.718C602.107,-769.076 631.911,-738.814 653.01,-717.39"/>
<polygon fill="cornflowerblue" stroke="cornflowerblue" points="655.561,-719.788 660.084,-710.207 650.573,-714.876 655.561,-719.788"/>
<text text-anchor="middle" x="630.5" y="-748.8" font-family="SanSerif" font-size="8.00" fill="cornflowerblue">test</text>
</g>
<!-- javax.free:freejava&#45;jvmhack:3.0.0 -->
<g id="node3" class="node"><title>javax.free:freejava&#45;jvmhack:3.0.0</title>
<polygon fill="white" stroke="black" points="196,-374 108,-374 108,-336 196,-336 196,-374"/>
<text text-anchor="middle" x="152" y="-362.8" font-family="SanSerif" font-size="8.00">javax.free</text>
<text text-anchor="middle" x="152" y="-352.8" font-family="SanSerif" font-size="8.00">freejava&#45;jvmhack</text>
<text text-anchor="middle" x="152" y="-342.8" font-family="SanSerif" font-size="8.00">3.0.0</text>
</g>
<!-- javax.free:freejava&#45;context:3.0.0&#45;&gt;javax.free:freejava&#45;jvmhack:3.0.0 -->
<g id="edge8" class="edge"><title>javax.free:freejava&#45;context:3.0.0&#45;&gt;javax.free:freejava&#45;jvmhack:3.0.0</title>
<path fill="none" stroke="black" d="M425.711,-452.011C368.88,-431.869 267.836,-396.056 205.697,-374.032"/>
<polygon fill="black" stroke="black" points="206.666,-370.662 196.071,-370.62 204.327,-377.26 206.666,-370.662"/>
</g>
<!-- javax.free:freejava&#45;closure:3.0.0 -->
<g id="node7" class="node"><title>javax.free:freejava&#45;closure:3.0.0</title>
<polygon fill="white" stroke="black" points="562,-262 476,-262 476,-224 562,-224 562,-262"/>
<text text-anchor="middle" x="519" y="-250.8" font-family="SanSerif" font-size="8.00">javax.free</text>
<text text-anchor="middle" x="519" y="-240.8" font-family="SanSerif" font-size="8.00">freejava&#45;closure</text>
<text text-anchor="middle" x="519" y="-230.8" font-family="SanSerif" font-size="8.00">3.0.0</text>
</g>
<!-- javax.free:freejava&#45;context:3.0.0&#45;&gt;javax.free:freejava&#45;closure:3.0.0 -->
<g id="edge16" class="edge"><title>javax.free:freejava&#45;context:3.0.0&#45;&gt;javax.free:freejava&#45;closure:3.0.0</title>
<path fill="none" stroke="black" d="M472.348,-447.902C481.306,-408.558 501.862,-318.273 512.443,-271.801"/>
<polygon fill="black" stroke="black" points="515.855,-272.577 514.663,-262.05 509.03,-271.023 515.855,-272.577"/>
</g>
<!-- javax.free:freejava&#45;collection:3.0.0 -->
<g id="node11" class="node"><title>javax.free:freejava&#45;collection:3.0.0</title>
<polygon fill="white" stroke="black" points="620,-374 526,-374 526,-336 620,-336 620,-374"/>
<text text-anchor="middle" x="573" y="-362.8" font-family="SanSerif" font-size="8.00">javax.free</text>
<text text-anchor="middle" x="573" y="-352.8" font-family="SanSerif" font-size="8.00">freejava&#45;collection</text>
<text text-anchor="middle" x="573" y="-342.8" font-family="SanSerif" font-size="8.00">3.0.0</text>
</g>
<!-- javax.free:freejava&#45;context:3.0.0&#45;&gt;javax.free:freejava&#45;collection:3.0.0 -->
<g id="edge28" class="edge"><title>javax.free:freejava&#45;context:3.0.0&#45;&gt;javax.free:freejava&#45;collection:3.0.0</title>
<path fill="none" stroke="black" d="M486.05,-447.747C503.208,-429.445 529.154,-401.769 548.239,-381.411"/>
<polygon fill="black" stroke="black" points="550.899,-383.691 555.185,-374.002 545.793,-378.904 550.899,-383.691"/>
</g>
<!-- javax.free:freejava&#45;sysinfo:3.0.0 -->
<g id="node15" class="node"><title>javax.free:freejava&#45;sysinfo:3.0.0</title>
<polygon fill="white" stroke="black" points="318,-374 234,-374 234,-336 318,-336 318,-374"/>
<text text-anchor="middle" x="276" y="-362.8" font-family="SanSerif" font-size="8.00">javax.free</text>
<text text-anchor="middle" x="276" y="-352.8" font-family="SanSerif" font-size="8.00">freejava&#45;sysinfo</text>
<text text-anchor="middle" x="276" y="-342.8" font-family="SanSerif" font-size="8.00">3.0.0</text>
</g>
<!-- javax.free:freejava&#45;context:3.0.0&#45;&gt;javax.free:freejava&#45;sysinfo:3.0.0 -->
<g id="edge30" class="edge"><title>javax.free:freejava&#45;context:3.0.0&#45;&gt;javax.free:freejava&#45;sysinfo:3.0.0</title>
<path fill="none" stroke="black" d="M434.994,-447.747C402.514,-428.8 352.811,-399.806 317.635,-379.287"/>
<polygon fill="black" stroke="black" points="318.977,-376.018 308.575,-374.002 315.45,-382.064 318.977,-376.018"/>
</g>
<!-- asm:asm:3.1 -->
<g id="node4" class="node"><title>asm:asm:3.1</title>
<polygon fill="white" stroke="black" points="54,-262 1.42109e-14,-262 3.55271e-15,-224 54,-224 54,-262"/>
<text text-anchor="middle" x="27" y="-250.8" font-family="SanSerif" font-size="8.00">asm</text>
<text text-anchor="middle" x="27" y="-240.8" font-family="SanSerif" font-size="8.00">asm</text>
<text text-anchor="middle" x="27" y="-230.8" font-family="SanSerif" font-size="8.00">3.1</text>
</g>
<!-- javax.free:freejava&#45;jvmhack:3.0.0&#45;&gt;asm:asm:3.1 -->
<g id="edge2" class="edge"><title>javax.free:freejava&#45;jvmhack:3.0.0&#45;&gt;asm:asm:3.1</title>
<path fill="none" stroke="black" d="M130.512,-335.747C109.906,-317.284 78.6522,-289.28 55.8783,-268.875"/>
<polygon fill="black" stroke="black" points="57.9912,-266.069 48.2079,-262.002 53.32,-271.282 57.9912,-266.069"/>
</g>
<!-- javax.free:freejava&#45;proxy&#45;java&#45;security:3.0.0 -->
<g id="node5" class="node"><title>javax.free:freejava&#45;proxy&#45;java&#45;security:3.0.0</title>
<polygon fill="white" stroke="black" points="192,-262 58,-262 58,-224 192,-224 192,-262"/>
<text text-anchor="middle" x="125" y="-250.8" font-family="SanSerif" font-size="8.00">javax.free</text>
<text text-anchor="middle" x="125" y="-240.8" font-family="SanSerif" font-size="8.00">freejava&#45;proxy&#45;java&#45;security</text>
<text text-anchor="middle" x="125" y="-230.8" font-family="SanSerif" font-size="8.00">3.0.0</text>
</g>
<!-- javax.free:freejava&#45;jvmhack:3.0.0&#45;&gt;javax.free:freejava&#45;proxy&#45;java&#45;security:3.0.0 -->
<g id="edge6" class="edge"><title>javax.free:freejava&#45;jvmhack:3.0.0&#45;&gt;javax.free:freejava&#45;proxy&#45;java&#45;security:3.0.0</title>
<path fill="none" stroke="black" d="M147.359,-335.747C143.122,-318.171 136.8,-291.949 131.959,-271.866"/>
<polygon fill="black" stroke="black" points="135.327,-270.903 129.581,-262.002 128.522,-272.544 135.327,-270.903"/>
</g>
<!-- javax.free:freejava&#45;proxy&#45;api:3.0.0 -->
<g id="node6" class="node"><title>javax.free:freejava&#45;proxy&#45;api:3.0.0</title>
<polygon fill="white" stroke="black" points="185,-150 93,-150 93,-112 185,-112 185,-150"/>
<text text-anchor="middle" x="139" y="-138.8" font-family="SanSerif" font-size="8.00">javax.free</text>
<text text-anchor="middle" x="139" y="-128.8" font-family="SanSerif" font-size="8.00">freejava&#45;proxy&#45;api</text>
<text text-anchor="middle" x="139" y="-118.8" font-family="SanSerif" font-size="8.00">3.0.0</text>
</g>
<!-- javax.free:freejava&#45;proxy&#45;java&#45;security:3.0.0&#45;&gt;javax.free:freejava&#45;proxy&#45;api:3.0.0 -->
<g id="edge4" class="edge"><title>javax.free:freejava&#45;proxy&#45;java&#45;security:3.0.0&#45;&gt;javax.free:freejava&#45;proxy&#45;api:3.0.0</title>
<path fill="none" stroke="black" d="M127.407,-223.747C129.594,-206.251 132.851,-180.189 135.357,-160.143"/>
<polygon fill="black" stroke="black" points="138.857,-160.359 136.625,-150.002 131.911,-159.491 138.857,-160.359"/>
</g>
<!-- javax.free:freejava&#45;meta:3.0.0 -->
<g id="node8" class="node"><title>javax.free:freejava&#45;meta:3.0.0</title>
<polygon fill="white" stroke="black" points="672,-150 596,-150 596,-112 672,-112 672,-150"/>
<text text-anchor="middle" x="634" y="-138.8" font-family="SanSerif" font-size="8.00">javax.free</text>
<text text-anchor="middle" x="634" y="-128.8" font-family="SanSerif" font-size="8.00">freejava&#45;meta</text>
<text text-anchor="middle" x="634" y="-118.8" font-family="SanSerif" font-size="8.00">3.0.0</text>
</g>
<!-- javax.free:freejava&#45;closure:3.0.0&#45;&gt;javax.free:freejava&#45;meta:3.0.0 -->
<g id="edge14" class="edge"><title>javax.free:freejava&#45;closure:3.0.0&#45;&gt;javax.free:freejava&#45;meta:3.0.0</title>
<path fill="none" stroke="black" d="M538.769,-223.747C557.644,-205.364 586.229,-177.525 607.157,-157.143"/>
<polygon fill="black" stroke="black" points="609.767,-159.487 614.489,-150.002 604.883,-154.472 609.767,-159.487"/>
</g>
<!-- javax.free:freejava&#45;annotation:3.0.0 -->
<g id="node9" class="node"><title>javax.free:freejava&#45;annotation:3.0.0</title>
<polygon fill="white" stroke="black" points="693,-38 595,-38 595,-7.10543e-15 693,-3.55271e-15 693,-38"/>
<text text-anchor="middle" x="644" y="-26.8" font-family="SanSerif" font-size="8.00">javax.free</text>
<text text-anchor="middle" x="644" y="-16.8" font-family="SanSerif" font-size="8.00">freejava&#45;annotation</text>
<text text-anchor="middle" x="644" y="-6.8" font-family="SanSerif" font-size="8.00">3.0.0</text>
</g>
<!-- javax.free:freejava&#45;meta:3.0.0&#45;&gt;javax.free:freejava&#45;annotation:3.0.0 -->
<g id="edge10" class="edge"><title>javax.free:freejava&#45;meta:3.0.0&#45;&gt;javax.free:freejava&#45;annotation:3.0.0</title>
<path fill="none" stroke="black" d="M635.719,-111.747C637.281,-94.2513 639.608,-68.1891 641.398,-48.1429"/>
<polygon fill="black" stroke="black" points="644.9,-48.2739 642.303,-38.0022 637.928,-47.6513 644.9,-48.2739"/>
</g>
<!-- javax.free:freejava&#45;c1:3.0.0 -->
<g id="node10" class="node"><title>javax.free:freejava&#45;c1:3.0.0</title>
<polygon fill="white" stroke="black" points="591,-38 527,-38 527,-7.10543e-15 591,-3.55271e-15 591,-38"/>
<text text-anchor="middle" x="559" y="-26.8" font-family="SanSerif" font-size="8.00">javax.free</text>
<text text-anchor="middle" x="559" y="-16.8" font-family="SanSerif" font-size="8.00">freejava&#45;c1</text>
<text text-anchor="middle" x="559" y="-6.8" font-family="SanSerif" font-size="8.00">3.0.0</text>
</g>
<!-- javax.free:freejava&#45;meta:3.0.0&#45;&gt;javax.free:freejava&#45;c1:3.0.0 -->
<g id="edge12" class="edge"><title>javax.free:freejava&#45;meta:3.0.0&#45;&gt;javax.free:freejava&#45;c1:3.0.0</title>
<path fill="none" stroke="black" d="M621.107,-111.747C609.068,-93.7676 590.97,-66.7413 577.411,-46.4942"/>
<polygon fill="black" stroke="black" points="580.197,-44.3639 571.725,-38.0022 574.381,-48.2588 580.197,-44.3639"/>
</g>
<!-- javax.free:freejava&#45;collection:3.0.0&#45;&gt;javax.free:freejava&#45;closure:3.0.0 -->
<g id="edge26" class="edge"><title>javax.free:freejava&#45;collection:3.0.0&#45;&gt;javax.free:freejava&#45;closure:3.0.0</title>
<path fill="none" stroke="black" d="M563.717,-335.747C555.126,-317.929 542.251,-291.225 532.52,-271.041"/>
<polygon fill="black" stroke="black" points="535.658,-269.49 528.162,-262.002 529.352,-272.53 535.658,-269.49"/>
</g>
<!-- javax.free:freejava&#45;collection:3.0.0&#45;&gt;javax.free:freejava&#45;c1:3.0.0 -->
<g id="edge20" class="edge"><title>javax.free:freejava&#45;collection:3.0.0&#45;&gt;javax.free:freejava&#45;c1:3.0.0</title>
<path fill="none" stroke="black" d="M572.207,-335.972C569.878,-280.083 563.046,-116.11 560.233,-48.5813"/>
<polygon fill="black" stroke="black" points="563.715,-48.0809 559.801,-38.2353 556.721,-48.3724 563.715,-48.0809"/>
</g>
<!-- net.sourceforge.collections:collections&#45;generic:4.01 -->
<g id="node12" class="node"><title>net.sourceforge.collections:collections&#45;generic:4.01</title>
<polygon fill="white" stroke="black" points="708,-262 576,-262 576,-224 708,-224 708,-262"/>
<text text-anchor="middle" x="642" y="-250.8" font-family="SanSerif" font-size="8.00">net.sourceforge.collections</text>
<text text-anchor="middle" x="642" y="-240.8" font-family="SanSerif" font-size="8.00">collections&#45;generic</text>
<text text-anchor="middle" x="642" y="-230.8" font-family="SanSerif" font-size="8.00">4.01</text>
</g>
<!-- javax.free:freejava&#45;collection:3.0.0&#45;&gt;net.sourceforge.collections:collections&#45;generic:4.01 -->
<g id="edge18" class="edge"><title>javax.free:freejava&#45;collection:3.0.0&#45;&gt;net.sourceforge.collections:collections&#45;generic:4.01</title>
<path fill="none" stroke="black" d="M584.862,-335.747C595.888,-317.848 612.439,-290.983 624.894,-270.767"/>
<polygon fill="black" stroke="black" points="628.028,-272.352 630.293,-262.002 622.068,-268.68 628.028,-272.352"/>
</g>
<!-- javax.free:freejava&#45;lang:3.0.0 -->
<g id="node13" class="node"><title>javax.free:freejava&#45;lang:3.0.0</title>
<polygon fill="white" stroke="black" points="784,-262 712,-262 712,-224 784,-224 784,-262"/>
<text text-anchor="middle" x="748" y="-250.8" font-family="SanSerif" font-size="8.00">javax.free</text>
<text text-anchor="middle" x="748" y="-240.8" font-family="SanSerif" font-size="8.00">freejava&#45;lang</text>
<text text-anchor="middle" x="748" y="-230.8" font-family="SanSerif" font-size="8.00">3.0.0</text>
</g>
<!-- javax.free:freejava&#45;collection:3.0.0&#45;&gt;javax.free:freejava&#45;lang:3.0.0 -->
<g id="edge24" class="edge"><title>javax.free:freejava&#45;collection:3.0.0&#45;&gt;javax.free:freejava&#45;lang:3.0.0</title>
<path fill="none" stroke="black" d="M603.084,-335.747C632.561,-316.881 677.605,-288.053 709.642,-267.549"/>
<polygon fill="black" stroke="black" points="711.773,-270.341 718.309,-262.002 708,-264.445 711.773,-270.341"/>
</g>
<!-- javax.free:freejava&#45;jdk6compat:3.0.0 -->
<g id="node14" class="node"><title>javax.free:freejava&#45;jdk6compat:3.0.0</title>
<polygon fill="white" stroke="black" points="839,-150 737,-150 737,-112 839,-112 839,-150"/>
<text text-anchor="middle" x="788" y="-138.8" font-family="SanSerif" font-size="8.00">javax.free</text>
<text text-anchor="middle" x="788" y="-128.8" font-family="SanSerif" font-size="8.00">freejava&#45;jdk6compat</text>
<text text-anchor="middle" x="788" y="-118.8" font-family="SanSerif" font-size="8.00">3.0.0</text>
</g>
<!-- javax.free:freejava&#45;lang:3.0.0&#45;&gt;javax.free:freejava&#45;jdk6compat:3.0.0 -->
<g id="edge22" class="edge"><title>javax.free:freejava&#45;lang:3.0.0&#45;&gt;javax.free:freejava&#45;jdk6compat:3.0.0</title>
<path fill="none" stroke="black" d="M754.876,-223.747C761.182,-206.09 770.604,-179.708 777.789,-159.59"/>
<polygon fill="black" stroke="black" points="781.146,-160.597 781.213,-150.002 774.554,-158.242 781.146,-160.597"/>
</g>
<!-- com.bee32.plover:plover&#45;arch:0.0.4&#45;SNAPSHOT&#45;&gt;javax.free:freejava&#45;closure:3.0.0 -->
<g id="edge34" class="edge"><title>com.bee32.plover:plover&#45;arch:0.0.4&#45;SNAPSHOT&#45;&gt;javax.free:freejava&#45;closure:3.0.0</title>
<path fill="none" stroke="black" d="M551.107,-447.895C542.975,-429.429 531.413,-400.441 526,-374 518.974,-339.681 517.864,-299.313 518.097,-272.552"/>
<polygon fill="black" stroke="black" points="521.6,-272.372 518.258,-262.318 514.601,-272.261 521.6,-272.372"/>
</g>
<!-- com.bee32.plover:plover&#45;arch:0.0.4&#45;SNAPSHOT&#45;&gt;javax.free:freejava&#45;collection:3.0.0 -->
<g id="edge56" class="edge"><title>com.bee32.plover:plover&#45;arch:0.0.4&#45;SNAPSHOT&#45;&gt;javax.free:freejava&#45;collection:3.0.0</title>
<path fill="none" stroke="black" d="M562.235,-447.747C564.265,-430.251 567.291,-404.189 569.617,-384.143"/>
<polygon fill="black" stroke="black" points="573.118,-384.339 570.794,-374.002 566.165,-383.532 573.118,-384.339"/>
</g>
<!-- javax.free:freejava&#45;traits:3.0.0 -->
<g id="node17" class="node"><title>javax.free:freejava&#45;traits:3.0.0</title>
<polygon fill="white" stroke="black" points="704,-374 628,-374 628,-336 704,-336 704,-374"/>
<text text-anchor="middle" x="666" y="-362.8" font-family="SanSerif" font-size="8.00">javax.free</text>
<text text-anchor="middle" x="666" y="-352.8" font-family="SanSerif" font-size="8.00">freejava&#45;traits</text>
<text text-anchor="middle" x="666" y="-342.8" font-family="SanSerif" font-size="8.00">3.0.0</text>
</g>
<!-- com.bee32.plover:plover&#45;arch:0.0.4&#45;SNAPSHOT&#45;&gt;javax.free:freejava&#45;traits:3.0.0 -->
<g id="edge42" class="edge"><title>com.bee32.plover:plover&#45;arch:0.0.4&#45;SNAPSHOT&#45;&gt;javax.free:freejava&#45;traits:3.0.0</title>
<path fill="none" stroke="black" d="M578.222,-447.747C595.543,-429.445 621.737,-401.769 641.004,-381.411"/>
<polygon fill="black" stroke="black" points="643.684,-383.671 648.016,-374.002 638.6,-378.859 643.684,-383.671"/>
</g>
<!-- javax.free:freejava&#45;string:3.0.0 -->
<g id="node18" class="node"><title>javax.free:freejava&#45;string:3.0.0</title>
<polygon fill="white" stroke="black" points="400,-374 322,-374 322,-336 400,-336 400,-374"/>
<text text-anchor="middle" x="361" y="-362.8" font-family="SanSerif" font-size="8.00">javax.free</text>
<text text-anchor="middle" x="361" y="-352.8" font-family="SanSerif" font-size="8.00">freejava&#45;string</text>
<text text-anchor="middle" x="361" y="-342.8" font-family="SanSerif" font-size="8.00">3.0.0</text>
</g>
<!-- com.bee32.plover:plover&#45;arch:0.0.4&#45;SNAPSHOT&#45;&gt;javax.free:freejava&#45;string:3.0.0 -->
<g id="edge54" class="edge"><title>com.bee32.plover:plover&#45;arch:0.0.4&#45;SNAPSHOT&#45;&gt;javax.free:freejava&#45;string:3.0.0</title>
<path fill="none" stroke="black" d="M525.791,-447.747C491.984,-428.72 440.173,-399.559 403.688,-379.025"/>
<polygon fill="black" stroke="black" points="405.194,-375.857 394.763,-374.002 401.761,-381.957 405.194,-375.857"/>
</g>
<!-- org.slf4j:slf4j&#45;log4j12:1.4.2 -->
<g id="node22" class="node"><title>org.slf4j:slf4j&#45;log4j12:1.4.2</title>
<polygon fill="white" stroke="black" points="479,-374 411,-374 411,-336 479,-336 479,-374"/>
<text text-anchor="middle" x="445" y="-362.8" font-family="SanSerif" font-size="8.00">org.slf4j</text>
<text text-anchor="middle" x="445" y="-352.8" font-family="SanSerif" font-size="8.00">slf4j&#45;log4j12</text>
<text text-anchor="middle" x="445" y="-342.8" font-family="SanSerif" font-size="8.00">1.4.2</text>
</g>
<!-- com.bee32.plover:plover&#45;arch:0.0.4&#45;SNAPSHOT&#45;&gt;org.slf4j:slf4j&#45;log4j12:1.4.2 -->
<g id="edge62" class="edge"><title>com.bee32.plover:plover&#45;arch:0.0.4&#45;SNAPSHOT&#45;&gt;org.slf4j:slf4j&#45;log4j12:1.4.2</title>
<path fill="none" stroke="black" d="M540.231,-447.747C521.356,-429.364 492.771,-401.525 471.843,-381.143"/>
<polygon fill="black" stroke="black" points="474.117,-378.472 464.511,-374.002 469.233,-383.487 474.117,-378.472"/>
</g>
<!-- javax.free:freejava&#45;traits:3.0.0&#45;&gt;javax.free:freejava&#45;meta:3.0.0 -->
<g id="edge36" class="edge"><title>javax.free:freejava&#45;traits:3.0.0&#45;&gt;javax.free:freejava&#45;meta:3.0.0</title>
<path fill="none" stroke="black" d="M704.047,-336.802C747.536,-313.324 809.605,-270.002 784,-224 762.342,-185.089 716.93,-160.385 681.715,-146.298"/>
<polygon fill="black" stroke="black" points="682.672,-142.916 672.081,-142.603 680.165,-149.452 682.672,-142.916"/>
</g>
<!-- javax.free:freejava&#45;traits:3.0.0&#45;&gt;javax.free:freejava&#45;lang:3.0.0 -->
<g id="edge38" class="edge"><title>javax.free:freejava&#45;traits:3.0.0&#45;&gt;javax.free:freejava&#45;lang:3.0.0</title>
<path fill="none" stroke="black" d="M680.096,-335.747C693.318,-317.687 713.224,-290.499 728.069,-270.222"/>
<polygon fill="black" stroke="black" points="731.004,-272.138 734.088,-262.002 725.356,-268.003 731.004,-272.138"/>
</g>
<!-- javax.free:freejava&#45;traits:3.0.0&#45;&gt;javax.free:freejava&#45;jdk6compat:3.0.0 -->
<g id="edge40" class="edge"><title>javax.free:freejava&#45;traits:3.0.0&#45;&gt;javax.free:freejava&#45;jdk6compat:3.0.0</title>
<path fill="none" stroke="black" d="M704.148,-341.043C735.954,-326.856 778.079,-301.316 791,-262 802.035,-228.421 798.57,-187.346 794.141,-160.244"/>
<polygon fill="black" stroke="black" points="797.558,-159.47 792.358,-150.24 790.667,-160.699 797.558,-159.47"/>
</g>
<!-- javax.free:freejava&#45;string:3.0.0&#45;&gt;javax.free:freejava&#45;c1:3.0.0 -->
<g id="edge52" class="edge"><title>javax.free:freejava&#45;string:3.0.0&#45;&gt;javax.free:freejava&#45;c1:3.0.0</title>
<path fill="none" stroke="black" d="M356.451,-335.932C351.141,-309.648 344.871,-261.305 360,-224 392.444,-143.998 472.758,-78.0205 520.852,-43.9779"/>
<polygon fill="black" stroke="black" points="522.947,-46.7844 529.15,-38.1952 518.944,-41.0415 522.947,-46.7844"/>
</g>
<!-- commons&#45;lang:commons&#45;lang:2.6 -->
<g id="node19" class="node"><title>commons&#45;lang:commons&#45;lang:2.6</title>
<polygon fill="white" stroke="black" points="346,-262 266,-262 266,-224 346,-224 346,-262"/>
<text text-anchor="middle" x="306" y="-250.8" font-family="SanSerif" font-size="8.00">commons&#45;lang</text>
<text text-anchor="middle" x="306" y="-240.8" font-family="SanSerif" font-size="8.00">commons&#45;lang</text>
<text text-anchor="middle" x="306" y="-230.8" font-family="SanSerif" font-size="8.00">2.6</text>
</g>
<!-- javax.free:freejava&#45;string:3.0.0&#45;&gt;commons&#45;lang:commons&#45;lang:2.6 -->
<g id="edge44" class="edge"><title>javax.free:freejava&#45;string:3.0.0&#45;&gt;commons&#45;lang:commons&#45;lang:2.6</title>
<path fill="none" stroke="black" d="M351.545,-335.747C342.795,-317.929 329.682,-291.225 319.77,-271.041"/>
<polygon fill="black" stroke="black" points="322.881,-269.436 315.331,-262.002 316.598,-272.521 322.881,-269.436"/>
</g>
<!-- javax.free:freejava&#45;sio:3.0.0 -->
<g id="node20" class="node"><title>javax.free:freejava&#45;sio:3.0.0</title>
<polygon fill="white" stroke="black" points="262,-262 196,-262 196,-224 262,-224 262,-262"/>
<text text-anchor="middle" x="229" y="-250.8" font-family="SanSerif" font-size="8.00">javax.free</text>
<text text-anchor="middle" x="229" y="-240.8" font-family="SanSerif" font-size="8.00">freejava&#45;sio</text>
<text text-anchor="middle" x="229" y="-230.8" font-family="SanSerif" font-size="8.00">3.0.0</text>
</g>
<!-- javax.free:freejava&#45;string:3.0.0&#45;&gt;javax.free:freejava&#45;sio:3.0.0 -->
<g id="edge50" class="edge"><title>javax.free:freejava&#45;string:3.0.0&#45;&gt;javax.free:freejava&#45;sio:3.0.0</title>
<path fill="none" stroke="black" d="M338.308,-335.747C316.454,-317.203 283.256,-289.036 259.181,-268.608"/>
<polygon fill="black" stroke="black" points="261.285,-265.803 251.396,-262.002 256.756,-271.141 261.285,-265.803"/>
</g>
<!-- javax.free:freejava&#45;sio:3.0.0&#45;&gt;javax.free:freejava&#45;proxy&#45;api:3.0.0 -->
<g id="edge48" class="edge"><title>javax.free:freejava&#45;sio:3.0.0&#45;&gt;javax.free:freejava&#45;proxy&#45;api:3.0.0</title>
<path fill="none" stroke="black" d="M213.528,-223.747C198.952,-205.606 176.973,-178.256 160.657,-157.951"/>
<polygon fill="black" stroke="black" points="163.262,-155.605 154.27,-150.002 157.805,-159.99 163.262,-155.605"/>
</g>
<!-- javax.free:freejava&#45;bits:3.0.0 -->
<g id="node21" class="node"><title>javax.free:freejava&#45;bits:3.0.0</title>
<polygon fill="white" stroke="black" points="264,-150 194,-150 194,-112 264,-112 264,-150"/>
<text text-anchor="middle" x="229" y="-138.8" font-family="SanSerif" font-size="8.00">javax.free</text>
<text text-anchor="middle" x="229" y="-128.8" font-family="SanSerif" font-size="8.00">freejava&#45;bits</text>
<text text-anchor="middle" x="229" y="-118.8" font-family="SanSerif" font-size="8.00">3.0.0</text>
</g>
<!-- javax.free:freejava&#45;sio:3.0.0&#45;&gt;javax.free:freejava&#45;bits:3.0.0 -->
<g id="edge46" class="edge"><title>javax.free:freejava&#45;sio:3.0.0&#45;&gt;javax.free:freejava&#45;bits:3.0.0</title>
<path fill="none" stroke="black" d="M229,-223.747C229,-206.251 229,-180.189 229,-160.143"/>
<polygon fill="black" stroke="black" points="232.5,-160.002 229,-150.002 225.5,-160.002 232.5,-160.002"/>
</g>
<!-- org.slf4j:slf4j&#45;api:1.4.2 -->
<g id="node23" class="node"><title>org.slf4j:slf4j&#45;api:1.4.2</title>
<polygon fill="white" stroke="black" points="414,-262 360,-262 360,-224 414,-224 414,-262"/>
<text text-anchor="middle" x="387" y="-250.8" font-family="SanSerif" font-size="8.00">org.slf4j</text>
<text text-anchor="middle" x="387" y="-240.8" font-family="SanSerif" font-size="8.00">slf4j&#45;api</text>
<text text-anchor="middle" x="387" y="-230.8" font-family="SanSerif" font-size="8.00">1.4.2</text>
</g>
<!-- org.slf4j:slf4j&#45;log4j12:1.4.2&#45;&gt;org.slf4j:slf4j&#45;api:1.4.2 -->
<g id="edge58" class="edge"><title>org.slf4j:slf4j&#45;log4j12:1.4.2&#45;&gt;org.slf4j:slf4j&#45;api:1.4.2</title>
<path fill="none" stroke="black" d="M435.029,-335.747C425.802,-317.929 411.974,-291.225 401.521,-271.041"/>
<polygon fill="black" stroke="black" points="404.547,-269.273 396.84,-262.002 398.331,-272.492 404.547,-269.273"/>
</g>
<!-- log4j:log4j:1.2.13 -->
<g id="node24" class="node"><title>log4j:log4j:1.2.13</title>
<polygon fill="white" stroke="black" points="472,-262 418,-262 418,-224 472,-224 472,-262"/>
<text text-anchor="middle" x="445" y="-250.8" font-family="SanSerif" font-size="8.00">log4j</text>
<text text-anchor="middle" x="445" y="-240.8" font-family="SanSerif" font-size="8.00">log4j</text>
<text text-anchor="middle" x="445" y="-230.8" font-family="SanSerif" font-size="8.00">1.2.13</text>
</g>
<!-- org.slf4j:slf4j&#45;log4j12:1.4.2&#45;&gt;log4j:log4j:1.2.13 -->
<g id="edge60" class="edge"><title>org.slf4j:slf4j&#45;log4j12:1.4.2&#45;&gt;log4j:log4j:1.2.13</title>
<path fill="none" stroke="black" d="M445,-335.747C445,-318.251 445,-292.189 445,-272.143"/>
<polygon fill="black" stroke="black" points="448.5,-272.002 445,-262.002 441.5,-272.002 448.5,-272.002"/>
</g>
<!-- com.bee32.plover:plover&#45;model:0.0.1&#45;SNAPSHOT&#45;&gt;com.bee32.plover:plover&#45;arch:0.0.4&#45;SNAPSHOT -->
<g id="edge66" class="edge"><title>com.bee32.plover:plover&#45;model:0.0.1&#45;SNAPSHOT&#45;&gt;com.bee32.plover:plover&#45;arch:0.0.4&#45;SNAPSHOT</title>
<path fill="none" stroke="black" d="M592.839,-671.925C584.463,-653.481 572.558,-624.508 567,-598 559.812,-563.715 558.734,-523.34 559.019,-496.568"/>
<polygon fill="black" stroke="black" points="562.523,-496.39 559.203,-486.329 555.524,-496.265 562.523,-496.39"/>
</g>
<!-- com.bee32.plover:plover&#45;model:0.0.1&#45;SNAPSHOT&#45;&gt;javax.free:freejava&#45;traits:3.0.0 -->
<g id="edge68" class="edge"><title>com.bee32.plover:plover&#45;model:0.0.1&#45;SNAPSHOT&#45;&gt;javax.free:freejava&#45;traits:3.0.0</title>
<path fill="none" stroke="black" d="M617.973,-671.785C631.743,-653.928 650.68,-625.951 659,-598 681.175,-523.508 675.069,-430.442 669.895,-384.073"/>
<polygon fill="black" stroke="black" points="673.368,-383.637 668.717,-374.118 666.416,-384.46 673.368,-383.637"/>
</g>
<!-- com.bee32.plover:plover&#45;inject:0.0.1&#45;SNAPSHOT -->
<g id="node26" class="node"><title>com.bee32.plover:plover&#45;inject:0.0.1&#45;SNAPSHOT</title>
<polygon fill="white" stroke="black" points="659,-598 567,-598 567,-560 659,-560 659,-598"/>
<text text-anchor="middle" x="613" y="-586.8" font-family="SanSerif" font-size="8.00">com.bee32.plover</text>
<text text-anchor="middle" x="613" y="-576.8" font-family="SanSerif" font-size="8.00">plover&#45;inject</text>
<text text-anchor="middle" x="613" y="-566.8" font-family="SanSerif" font-size="8.00">0.0.1&#45;SNAPSHOT</text>
</g>
<!-- com.bee32.plover:plover&#45;model:0.0.1&#45;SNAPSHOT&#45;&gt;com.bee32.plover:plover&#45;inject:0.0.1&#45;SNAPSHOT -->
<g id="edge74" class="edge"><title>com.bee32.plover:plover&#45;model:0.0.1&#45;SNAPSHOT&#45;&gt;com.bee32.plover:plover&#45;inject:0.0.1&#45;SNAPSHOT</title>
<path fill="none" stroke="black" d="M603.891,-671.747C605.609,-654.251 608.169,-628.189 610.138,-608.143"/>
<polygon fill="black" stroke="black" points="613.639,-608.296 611.134,-598.002 606.673,-607.612 613.639,-608.296"/>
</g>
<!-- com.bee32.plover:plover&#45;inject:0.0.1&#45;SNAPSHOT&#45;&gt;javax.free:freejava&#45;collection:3.0.0 -->
<g id="edge70" class="edge"><title>com.bee32.plover:plover&#45;inject:0.0.1&#45;SNAPSHOT&#45;&gt;javax.free:freejava&#45;collection:3.0.0</title>
<path fill="none" stroke="black" d="M613.686,-559.694C614.212,-533.95 613.808,-487.085 606,-448 601.554,-425.745 592.873,-401.62 585.531,-383.52"/>
<polygon fill="black" stroke="black" points="588.698,-382.021 581.624,-374.134 582.235,-384.711 588.698,-382.021"/>
</g>
<!-- com.bee32.plover:plover&#45;inject:0.0.1&#45;SNAPSHOT&#45;&gt;com.bee32.plover:plover&#45;arch:0.0.4&#45;SNAPSHOT -->
<g id="edge72" class="edge"><title>com.bee32.plover:plover&#45;inject:0.0.1&#45;SNAPSHOT&#45;&gt;com.bee32.plover:plover&#45;arch:0.0.4&#45;SNAPSHOT</title>
<path fill="none" stroke="black" d="M603.889,-559.747C595.496,-542.009 582.935,-515.467 573.399,-495.315"/>
<polygon fill="black" stroke="black" points="576.433,-493.544 568.992,-486.002 570.106,-496.538 576.433,-493.544"/>
</g>
</g>
</svg>
