<?xml version="1.0" encoding="UTF-8" standalone="no"?>
<!DOCTYPE svg PUBLIC "-//W3C//DTD SVG 1.1//EN"
 "http://www.w3.org/Graphics/SVG/1.1/DTD/svg11.dtd">
<!-- Generated by graphviz version 2.26.3 (20100126.1600)
 -->
<!-- Title: dependencies Pages: 1 -->
<svg width="920pt" height="892pt"
 viewBox="0.00 0.00 920.00 892.00" xmlns="http://www.w3.org/2000/svg" xmlns:xlink="http://www.w3.org/1999/xlink">
<g id="graph1" class="graph" transform="scale(1 1) rotate(0) translate(4 888)">
<title>dependencies</title>
<polygon fill="white" stroke="white" points="-4,5 -4,-888 917,-888 917,5 -4,5"/>
<text text-anchor="middle" x="221" y="-863.8" font-family="Serif" font-size="18.00">Dependency Graph for Plover :: Modeling :: Zk</text>
<!-- com.bee32.plover:plover&#45;zk:0.0.1&#45;SNAPSHOT -->
<g id="node1" class="node"><title>com.bee32.plover:plover&#45;zk:0.0.1&#45;SNAPSHOT</title>
<polygon fill="#dddddd" stroke="black" points="423,-854 285,-854 285,-792 423,-792 423,-854"/>
<text text-anchor="middle" x="354" y="-837.4" font-family="SanSerif" font-size="14.00">com.bee32.plover</text>
<text text-anchor="middle" x="354" y="-819.4" font-family="SanSerif" font-size="14.00">plover&#45;zk</text>
<text text-anchor="middle" x="354" y="-801.4" font-family="SanSerif" font-size="14.00">0.0.1&#45;SNAPSHOT</text>
</g>
<!-- com.bee32.plover:plover&#45;model:0.0.1&#45;SNAPSHOT -->
<g id="node2" class="node"><title>com.bee32.plover:plover&#45;model:0.0.1&#45;SNAPSHOT</title>
<polygon fill="white" stroke="black" points="304,-710 212,-710 212,-672 304,-672 304,-710"/>
<text text-anchor="middle" x="258" y="-698.8" font-family="SanSerif" font-size="8.00">com.bee32.plover</text>
<text text-anchor="middle" x="258" y="-688.8" font-family="SanSerif" font-size="8.00">plover&#45;model</text>
<text text-anchor="middle" x="258" y="-678.8" font-family="SanSerif" font-size="8.00">0.0.1&#45;SNAPSHOT</text>
</g>
<!-- com.bee32.plover:plover&#45;zk:0.0.1&#45;SNAPSHOT&#45;&gt;com.bee32.plover:plover&#45;model:0.0.1&#45;SNAPSHOT -->
<g id="edge58" class="edge"><title>com.bee32.plover:plover&#45;zk:0.0.1&#45;SNAPSHOT&#45;&gt;com.bee32.plover:plover&#45;model:0.0.1&#45;SNAPSHOT</title>
<path fill="none" stroke="black" d="M331.249,-791.718C315.07,-769.472 293.541,-739.869 278.015,-718.52"/>
<polygon fill="black" stroke="black" points="280.681,-716.236 271.969,-710.207 275.02,-720.353 280.681,-716.236"/>
</g>
<!-- com.bee32.plover:plover&#45;servlet:0.0.1&#45;SNAPSHOT -->
<g id="node22" class="node"><title>com.bee32.plover:plover&#45;servlet:0.0.1&#45;SNAPSHOT</title>
<polygon fill="white" stroke="black" points="400,-710 308,-710 308,-672 400,-672 400,-710"/>
<text text-anchor="middle" x="354" y="-698.8" font-family="SanSerif" font-size="8.00">com.bee32.plover</text>
<text text-anchor="middle" x="354" y="-688.8" font-family="SanSerif" font-size="8.00">plover&#45;servlet</text>
<text text-anchor="middle" x="354" y="-678.8" font-family="SanSerif" font-size="8.00">0.0.1&#45;SNAPSHOT</text>
</g>
<!-- com.bee32.plover:plover&#45;zk:0.0.1&#45;SNAPSHOT&#45;&gt;com.bee32.plover:plover&#45;servlet:0.0.1&#45;SNAPSHOT -->
<g id="edge64" class="edge"><title>com.bee32.plover:plover&#45;zk:0.0.1&#45;SNAPSHOT&#45;&gt;com.bee32.plover:plover&#45;servlet:0.0.1&#45;SNAPSHOT</title>
<path fill="none" stroke="black" d="M354,-791.718C354,-770.065 354,-741.442 354,-720.246"/>
<polygon fill="black" stroke="black" points="357.5,-720.207 354,-710.207 350.5,-720.207 357.5,-720.207"/>
</g>
<!-- org.zkoss.zk:zhtml:5.0.6 -->
<g id="node24" class="node"><title>org.zkoss.zk:zhtml:5.0.6</title>
<polygon fill="white" stroke="black" points="544,-710 476,-710 476,-672 544,-672 544,-710"/>
<text text-anchor="middle" x="510" y="-698.8" font-family="SanSerif" font-size="8.00">org.zkoss.zk</text>
<text text-anchor="middle" x="510" y="-688.8" font-family="SanSerif" font-size="8.00">zhtml</text>
<text text-anchor="middle" x="510" y="-678.8" font-family="SanSerif" font-size="8.00">5.0.6</text>
</g>
<!-- com.bee32.plover:plover&#45;zk:0.0.1&#45;SNAPSHOT&#45;&gt;org.zkoss.zk:zhtml:5.0.6 -->
<g id="edge80" class="edge"><title>com.bee32.plover:plover&#45;zk:0.0.1&#45;SNAPSHOT&#45;&gt;org.zkoss.zk:zhtml:5.0.6</title>
<path fill="none" stroke="black" d="M390.97,-791.718C417.962,-768.878 454.118,-738.285 479.473,-716.83"/>
<polygon fill="black" stroke="black" points="481.928,-719.338 487.301,-710.207 477.406,-713.995 481.928,-719.338"/>
</g>
<!-- org.zkoss.zk:zkplus:5.0.6 -->
<g id="node32" class="node"><title>org.zkoss.zk:zkplus:5.0.6</title>
<polygon fill="white" stroke="black" points="472,-710 404,-710 404,-672 472,-672 472,-710"/>
<text text-anchor="middle" x="438" y="-698.8" font-family="SanSerif" font-size="8.00">org.zkoss.zk</text>
<text text-anchor="middle" x="438" y="-688.8" font-family="SanSerif" font-size="8.00">zkplus</text>
<text text-anchor="middle" x="438" y="-678.8" font-family="SanSerif" font-size="8.00">5.0.6</text>
</g>
<!-- com.bee32.plover:plover&#45;zk:0.0.1&#45;SNAPSHOT&#45;&gt;org.zkoss.zk:zkplus:5.0.6 -->
<g id="edge84" class="edge"><title>com.bee32.plover:plover&#45;zk:0.0.1&#45;SNAPSHOT&#45;&gt;org.zkoss.zk:zkplus:5.0.6</title>
<path fill="none" stroke="black" d="M373.907,-791.718C388.001,-769.571 406.734,-740.132 420.306,-718.805"/>
<polygon fill="black" stroke="black" points="423.361,-720.523 425.777,-710.207 417.456,-716.765 423.361,-720.523"/>
</g>
<!-- junit:junit:4.8.2 -->
<g id="node33" class="node"><title>junit:junit:4.8.2</title>
<polygon fill="white" stroke="cornflowerblue" points="602,-710 548,-710 548,-672 602,-672 602,-710"/>
<text text-anchor="middle" x="575" y="-698.8" font-family="SanSerif" font-size="8.00" fill="cornflowerblue">junit</text>
<text text-anchor="middle" x="575" y="-688.8" font-family="SanSerif" font-size="8.00" fill="cornflowerblue">junit</text>
<text text-anchor="middle" x="575" y="-678.8" font-family="SanSerif" font-size="8.00" fill="cornflowerblue">4.8.2</text>
</g>
<!-- com.bee32.plover:plover&#45;zk:0.0.1&#45;SNAPSHOT&#45;&gt;junit:junit:4.8.2 -->
<g id="edge86" class="edge"><title>com.bee32.plover:plover&#45;zk:0.0.1&#45;SNAPSHOT&#45;&gt;junit:junit:4.8.2</title>
<path fill="none" stroke="cornflowerblue" d="M406.939,-791.77C442.88,-770.51 491.711,-741.511 539.128,-712.931"/>
<polygon fill="cornflowerblue" stroke="cornflowerblue" points="541.207,-715.764 547.962,-707.601 537.591,-709.77 541.207,-715.764"/>
<text text-anchor="middle" x="490.5" y="-748.8" font-family="SanSerif" font-size="8.00" fill="cornflowerblue">test</text>
</g>
<!-- com.bee32.plover:plover&#45;arch:0.0.4&#45;SNAPSHOT -->
<g id="node3" class="node"><title>com.bee32.plover:plover&#45;arch:0.0.4&#45;SNAPSHOT</title>
<polygon fill="white" stroke="black" points="304,-486 212,-486 212,-448 304,-448 304,-486"/>
<text text-anchor="middle" x="258" y="-474.8" font-family="SanSerif" font-size="8.00">com.bee32.plover</text>
<text text-anchor="middle" x="258" y="-464.8" font-family="SanSerif" font-size="8.00">plover&#45;arch</text>
<text text-anchor="middle" x="258" y="-454.8" font-family="SanSerif" font-size="8.00">0.0.4&#45;SNAPSHOT</text>
</g>
<!-- com.bee32.plover:plover&#45;model:0.0.1&#45;SNAPSHOT&#45;&gt;com.bee32.plover:plover&#45;arch:0.0.4&#45;SNAPSHOT -->
<g id="edge36" class="edge"><title>com.bee32.plover:plover&#45;model:0.0.1&#45;SNAPSHOT&#45;&gt;com.bee32.plover:plover&#45;arch:0.0.4&#45;SNAPSHOT</title>
<path fill="none" stroke="black" d="M258,-671.902C258,-632.64 258,-542.652 258,-496.094"/>
<polygon fill="black" stroke="black" points="261.5,-496.05 258,-486.05 254.5,-496.05 261.5,-496.05"/>
</g>
<!-- javax.free:freejava&#45;traits:3.0.0 -->
<g id="node6" class="node"><title>javax.free:freejava&#45;traits:3.0.0</title>
<polygon fill="white" stroke="black" points="243,-374 167,-374 167,-336 243,-336 243,-374"/>
<text text-anchor="middle" x="205" y="-362.8" font-family="SanSerif" font-size="8.00">javax.free</text>
<text text-anchor="middle" x="205" y="-352.8" font-family="SanSerif" font-size="8.00">freejava&#45;traits</text>
<text text-anchor="middle" x="205" y="-342.8" font-family="SanSerif" font-size="8.00">3.0.0</text>
</g>
<!-- com.bee32.plover:plover&#45;model:0.0.1&#45;SNAPSHOT&#45;&gt;javax.free:freejava&#45;traits:3.0.0 -->
<g id="edge50" class="edge"><title>com.bee32.plover:plover&#45;model:0.0.1&#45;SNAPSHOT&#45;&gt;javax.free:freejava&#45;traits:3.0.0</title>
<path fill="none" stroke="black" d="M252.607,-671.977C242.659,-636 221.569,-555.376 212,-486 207.214,-451.298 205.652,-411.007 205.168,-384.369"/>
<polygon fill="black" stroke="black" points="208.665,-384.136 205.023,-374.187 201.666,-384.235 208.665,-384.136"/>
</g>
<!-- com.bee32.plover:plover&#45;inject:0.0.1&#45;SNAPSHOT -->
<g id="node21" class="node"><title>com.bee32.plover:plover&#45;inject:0.0.1&#45;SNAPSHOT</title>
<polygon fill="white" stroke="black" points="357,-598 265,-598 265,-560 357,-560 357,-598"/>
<text text-anchor="middle" x="311" y="-586.8" font-family="SanSerif" font-size="8.00">com.bee32.plover</text>
<text text-anchor="middle" x="311" y="-576.8" font-family="SanSerif" font-size="8.00">plover&#45;inject</text>
<text text-anchor="middle" x="311" y="-566.8" font-family="SanSerif" font-size="8.00">0.0.1&#45;SNAPSHOT</text>
</g>
<!-- com.bee32.plover:plover&#45;model:0.0.1&#45;SNAPSHOT&#45;&gt;com.bee32.plover:plover&#45;inject:0.0.1&#45;SNAPSHOT -->
<g id="edge56" class="edge"><title>com.bee32.plover:plover&#45;model:0.0.1&#45;SNAPSHOT&#45;&gt;com.bee32.plover:plover&#45;inject:0.0.1&#45;SNAPSHOT</title>
<path fill="none" stroke="black" d="M267.111,-671.747C275.504,-654.009 288.065,-627.467 297.601,-607.315"/>
<polygon fill="black" stroke="black" points="300.894,-608.538 302.008,-598.002 294.567,-605.544 300.894,-608.538"/>
</g>
<!-- javax.free:freejava&#45;closure:3.0.0 -->
<g id="node4" class="node"><title>javax.free:freejava&#45;closure:3.0.0</title>
<polygon fill="white" stroke="black" points="298,-262 212,-262 212,-224 298,-224 298,-262"/>
<text text-anchor="middle" x="255" y="-250.8" font-family="SanSerif" font-size="8.00">javax.free</text>
<text text-anchor="middle" x="255" y="-240.8" font-family="SanSerif" font-size="8.00">freejava&#45;closure</text>
<text text-anchor="middle" x="255" y="-230.8" font-family="SanSerif" font-size="8.00">3.0.0</text>
</g>
<!-- com.bee32.plover:plover&#45;arch:0.0.4&#45;SNAPSHOT&#45;&gt;javax.free:freejava&#45;closure:3.0.0 -->
<g id="edge4" class="edge"><title>com.bee32.plover:plover&#45;arch:0.0.4&#45;SNAPSHOT&#45;&gt;javax.free:freejava&#45;closure:3.0.0</title>
<path fill="none" stroke="black" d="M257.744,-447.902C257.218,-408.64 256.013,-318.652 255.39,-272.094"/>
<polygon fill="black" stroke="black" points="258.889,-272.002 255.255,-262.05 251.889,-272.096 258.889,-272.002"/>
</g>
<!-- com.bee32.plover:plover&#45;arch:0.0.4&#45;SNAPSHOT&#45;&gt;javax.free:freejava&#45;traits:3.0.0 -->
<g id="edge6" class="edge"><title>com.bee32.plover:plover&#45;arch:0.0.4&#45;SNAPSHOT&#45;&gt;javax.free:freejava&#45;traits:3.0.0</title>
<path fill="none" stroke="black" d="M248.889,-447.747C240.496,-430.009 227.935,-403.467 218.399,-383.315"/>
<polygon fill="black" stroke="black" points="221.433,-381.544 213.992,-374.002 215.106,-384.538 221.433,-381.544"/>
</g>
<!-- javax.free:freejava&#45;string:3.0.0 -->
<g id="node7" class="node"><title>javax.free:freejava&#45;string:3.0.0</title>
<polygon fill="white" stroke="black" points="490,-374 412,-374 412,-336 490,-336 490,-374"/>
<text text-anchor="middle" x="451" y="-362.8" font-family="SanSerif" font-size="8.00">javax.free</text>
<text text-anchor="middle" x="451" y="-352.8" font-family="SanSerif" font-size="8.00">freejava&#45;string</text>
<text text-anchor="middle" x="451" y="-342.8" font-family="SanSerif" font-size="8.00">3.0.0</text>
</g>
<!-- com.bee32.plover:plover&#45;arch:0.0.4&#45;SNAPSHOT&#45;&gt;javax.free:freejava&#45;string:3.0.0 -->
<g id="edge18" class="edge"><title>com.bee32.plover:plover&#45;arch:0.0.4&#45;SNAPSHOT&#45;&gt;javax.free:freejava&#45;string:3.0.0</title>
<path fill="none" stroke="black" d="M291.178,-447.747C323.966,-428.72 374.214,-399.559 409.599,-379.025"/>
<polygon fill="black" stroke="black" points="411.363,-382.049 418.255,-374.002 407.849,-375.994 411.363,-382.049"/>
</g>
<!-- javax.free:freejava&#45;collection:3.0.0 -->
<g id="node13" class="node"><title>javax.free:freejava&#45;collection:3.0.0</title>
<polygon fill="white" stroke="black" points="356,-374 262,-374 262,-336 356,-336 356,-374"/>
<text text-anchor="middle" x="309" y="-362.8" font-family="SanSerif" font-size="8.00">javax.free</text>
<text text-anchor="middle" x="309" y="-352.8" font-family="SanSerif" font-size="8.00">freejava&#45;collection</text>
<text text-anchor="middle" x="309" y="-342.8" font-family="SanSerif" font-size="8.00">3.0.0</text>
</g>
<!-- com.bee32.plover:plover&#45;arch:0.0.4&#45;SNAPSHOT&#45;&gt;javax.free:freejava&#45;collection:3.0.0 -->
<g id="edge28" class="edge"><title>com.bee32.plover:plover&#45;arch:0.0.4&#45;SNAPSHOT&#45;&gt;javax.free:freejava&#45;collection:3.0.0</title>
<path fill="none" stroke="black" d="M266.767,-447.747C274.844,-430.009 286.93,-403.467 296.107,-383.315"/>
<polygon fill="black" stroke="black" points="299.388,-384.554 300.347,-374.002 293.018,-381.653 299.388,-384.554"/>
</g>
<!-- org.slf4j:slf4j&#45;log4j12:1.4.2 -->
<g id="node16" class="node"><title>org.slf4j:slf4j&#45;log4j12:1.4.2</title>
<polygon fill="white" stroke="black" points="163,-374 95,-374 95,-336 163,-336 163,-374"/>
<text text-anchor="middle" x="129" y="-362.8" font-family="SanSerif" font-size="8.00">org.slf4j</text>
<text text-anchor="middle" x="129" y="-352.8" font-family="SanSerif" font-size="8.00">slf4j&#45;log4j12</text>
<text text-anchor="middle" x="129" y="-342.8" font-family="SanSerif" font-size="8.00">1.4.2</text>
</g>
<!-- com.bee32.plover:plover&#45;arch:0.0.4&#45;SNAPSHOT&#45;&gt;org.slf4j:slf4j&#45;log4j12:1.4.2 -->
<g id="edge34" class="edge"><title>com.bee32.plover:plover&#45;arch:0.0.4&#45;SNAPSHOT&#45;&gt;org.slf4j:slf4j&#45;log4j12:1.4.2</title>
<path fill="none" stroke="black" d="M235.824,-447.747C214.466,-429.203 182.023,-401.036 158.495,-380.608"/>
<polygon fill="black" stroke="black" points="160.732,-377.915 150.887,-374.002 156.143,-383.201 160.732,-377.915"/>
</g>
<!-- javax.free:freejava&#45;meta:3.0.0 -->
<g id="node5" class="node"><title>javax.free:freejava&#45;meta:3.0.0</title>
<polygon fill="white" stroke="black" points="272,-150 196,-150 196,-112 272,-112 272,-150"/>
<text text-anchor="middle" x="234" y="-138.8" font-family="SanSerif" font-size="8.00">javax.free</text>
<text text-anchor="middle" x="234" y="-128.8" font-family="SanSerif" font-size="8.00">freejava&#45;meta</text>
<text text-anchor="middle" x="234" y="-118.8" font-family="SanSerif" font-size="8.00">3.0.0</text>
</g>
<!-- javax.free:freejava&#45;closure:3.0.0&#45;&gt;javax.free:freejava&#45;meta:3.0.0 -->
<g id="edge2" class="edge"><title>javax.free:freejava&#45;closure:3.0.0&#45;&gt;javax.free:freejava&#45;meta:3.0.0</title>
<path fill="none" stroke="black" d="M251.39,-223.747C248.095,-206.171 243.178,-179.949 239.412,-159.866"/>
<polygon fill="black" stroke="black" points="242.846,-159.186 237.563,-150.002 235.966,-160.476 242.846,-159.186"/>
</g>
<!-- javax.free:freejava&#45;c1:3.0.0 -->
<g id="node12" class="node"><title>javax.free:freejava&#45;c1:3.0.0</title>
<polygon fill="white" stroke="black" points="346,-38 282,-38 282,-7.10543e-15 346,-3.55271e-15 346,-38"/>
<text text-anchor="middle" x="314" y="-26.8" font-family="SanSerif" font-size="8.00">javax.free</text>
<text text-anchor="middle" x="314" y="-16.8" font-family="SanSerif" font-size="8.00">freejava&#45;c1</text>
<text text-anchor="middle" x="314" y="-6.8" font-family="SanSerif" font-size="8.00">3.0.0</text>
</g>
<!-- javax.free:freejava&#45;meta:3.0.0&#45;&gt;javax.free:freejava&#45;c1:3.0.0 -->
<g id="edge40" class="edge"><title>javax.free:freejava&#45;meta:3.0.0&#45;&gt;javax.free:freejava&#45;c1:3.0.0</title>
<path fill="none" stroke="black" d="M247.752,-111.747C260.652,-93.687 280.072,-66.4987 294.556,-46.2222"/>
<polygon fill="black" stroke="black" points="297.463,-48.1739 300.427,-38.0022 291.766,-44.1053 297.463,-48.1739"/>
</g>
<!-- javax.free:freejava&#45;annotation:3.0.0 -->
<g id="node19" class="node"><title>javax.free:freejava&#45;annotation:3.0.0</title>
<polygon fill="white" stroke="black" points="278,-38 180,-38 180,-7.10543e-15 278,-3.55271e-15 278,-38"/>
<text text-anchor="middle" x="229" y="-26.8" font-family="SanSerif" font-size="8.00">javax.free</text>
<text text-anchor="middle" x="229" y="-16.8" font-family="SanSerif" font-size="8.00">freejava&#45;annotation</text>
<text text-anchor="middle" x="229" y="-6.8" font-family="SanSerif" font-size="8.00">3.0.0</text>
</g>
<!-- javax.free:freejava&#45;meta:3.0.0&#45;&gt;javax.free:freejava&#45;annotation:3.0.0 -->
<g id="edge38" class="edge"><title>javax.free:freejava&#45;meta:3.0.0&#45;&gt;javax.free:freejava&#45;annotation:3.0.0</title>
<path fill="none" stroke="black" d="M233.14,-111.747C232.359,-94.2513 231.196,-68.1891 230.301,-48.1429"/>
<polygon fill="black" stroke="black" points="233.791,-47.8362 229.848,-38.0022 226.798,-48.1484 233.791,-47.8362"/>
</g>
<!-- javax.free:freejava&#45;traits:3.0.0&#45;&gt;javax.free:freejava&#45;meta:3.0.0 -->
<g id="edge42" class="edge"><title>javax.free:freejava&#45;traits:3.0.0&#45;&gt;javax.free:freejava&#45;meta:3.0.0</title>
<path fill="none" stroke="black" d="M204.955,-335.804C205.138,-310.182 206.326,-263.451 212,-224 215.134,-202.208 220.93,-178.021 225.786,-159.776"/>
<polygon fill="black" stroke="black" points="229.186,-160.613 228.437,-150.044 222.432,-158.773 229.186,-160.613"/>
</g>
<!-- javax.free:freejava&#45;lang:3.0.0 -->
<g id="node15" class="node"><title>javax.free:freejava&#45;lang:3.0.0</title>
<polygon fill="white" stroke="black" points="198,-262 126,-262 126,-224 198,-224 198,-262"/>
<text text-anchor="middle" x="162" y="-250.8" font-family="SanSerif" font-size="8.00">javax.free</text>
<text text-anchor="middle" x="162" y="-240.8" font-family="SanSerif" font-size="8.00">freejava&#45;lang</text>
<text text-anchor="middle" x="162" y="-230.8" font-family="SanSerif" font-size="8.00">3.0.0</text>
</g>
<!-- javax.free:freejava&#45;traits:3.0.0&#45;&gt;javax.free:freejava&#45;lang:3.0.0 -->
<g id="edge46" class="edge"><title>javax.free:freejava&#45;traits:3.0.0&#45;&gt;javax.free:freejava&#45;lang:3.0.0</title>
<path fill="none" stroke="black" d="M197.608,-335.747C190.829,-318.09 180.7,-291.708 172.977,-271.59"/>
<polygon fill="black" stroke="black" points="176.147,-270.083 169.296,-262.002 169.612,-272.592 176.147,-270.083"/>
</g>
<!-- javax.free:freejava&#45;jdk6compat:3.0.0 -->
<g id="node20" class="node"><title>javax.free:freejava&#45;jdk6compat:3.0.0</title>
<polygon fill="white" stroke="black" points="184,-150 82,-150 82,-112 184,-112 184,-150"/>
<text text-anchor="middle" x="133" y="-138.8" font-family="SanSerif" font-size="8.00">javax.free</text>
<text text-anchor="middle" x="133" y="-128.8" font-family="SanSerif" font-size="8.00">freejava&#45;jdk6compat</text>
<text text-anchor="middle" x="133" y="-118.8" font-family="SanSerif" font-size="8.00">3.0.0</text>
</g>
<!-- javax.free:freejava&#45;traits:3.0.0&#45;&gt;javax.free:freejava&#45;jdk6compat:3.0.0 -->
<g id="edge48" class="edge"><title>javax.free:freejava&#45;traits:3.0.0&#45;&gt;javax.free:freejava&#45;jdk6compat:3.0.0</title>
<path fill="none" stroke="black" d="M181.22,-335.712C162.198,-318.63 136.959,-291.828 126,-262 113.796,-228.783 118.985,-187.631 124.949,-160.412"/>
<polygon fill="black" stroke="black" points="128.431,-160.897 127.327,-150.36 121.619,-159.286 128.431,-160.897"/>
</g>
<!-- commons&#45;lang:commons&#45;lang:2.6 -->
<g id="node8" class="node"><title>commons&#45;lang:commons&#45;lang:2.6</title>
<polygon fill="white" stroke="black" points="538,-262 458,-262 458,-224 538,-224 538,-262"/>
<text text-anchor="middle" x="498" y="-250.8" font-family="SanSerif" font-size="8.00">commons&#45;lang</text>
<text text-anchor="middle" x="498" y="-240.8" font-family="SanSerif" font-size="8.00">commons&#45;lang</text>
<text text-anchor="middle" x="498" y="-230.8" font-family="SanSerif" font-size="8.00">2.6</text>
</g>
<!-- javax.free:freejava&#45;string:3.0.0&#45;&gt;commons&#45;lang:commons&#45;lang:2.6 -->
<g id="edge8" class="edge"><title>javax.free:freejava&#45;string:3.0.0&#45;&gt;commons&#45;lang:commons&#45;lang:2.6</title>
<path fill="none" stroke="black" d="M459.08,-335.747C466.523,-318.009 477.661,-291.467 486.118,-271.315"/>
<polygon fill="black" stroke="black" points="489.384,-272.578 490.026,-262.002 482.929,-269.869 489.384,-272.578"/>
</g>
<!-- javax.free:freejava&#45;sio:3.0.0 -->
<g id="node9" class="node"><title>javax.free:freejava&#45;sio:3.0.0</title>
<polygon fill="white" stroke="black" points="608,-262 542,-262 542,-224 608,-224 608,-262"/>
<text text-anchor="middle" x="575" y="-250.8" font-family="SanSerif" font-size="8.00">javax.free</text>
<text text-anchor="middle" x="575" y="-240.8" font-family="SanSerif" font-size="8.00">freejava&#45;sio</text>
<text text-anchor="middle" x="575" y="-230.8" font-family="SanSerif" font-size="8.00">3.0.0</text>
</g>
<!-- javax.free:freejava&#45;string:3.0.0&#45;&gt;javax.free:freejava&#45;sio:3.0.0 -->
<g id="edge14" class="edge"><title>javax.free:freejava&#45;string:3.0.0&#45;&gt;javax.free:freejava&#45;sio:3.0.0</title>
<path fill="none" stroke="black" d="M472.316,-335.747C492.757,-317.284 523.761,-289.28 546.353,-268.875"/>
<polygon fill="black" stroke="black" points="548.887,-271.303 553.962,-262.002 544.195,-266.108 548.887,-271.303"/>
</g>
<!-- javax.free:freejava&#45;string:3.0.0&#45;&gt;javax.free:freejava&#45;c1:3.0.0 -->
<g id="edge16" class="edge"><title>javax.free:freejava&#45;string:3.0.0&#45;&gt;javax.free:freejava&#45;c1:3.0.0</title>
<path fill="none" stroke="black" d="M452.951,-335.803C454.934,-309.782 456.2,-262.183 444,-224 421.462,-153.463 368.619,-83.1786 337.69,-46.0303"/>
<polygon fill="black" stroke="black" points="340.195,-43.5711 331.071,-38.1846 334.844,-48.0848 340.195,-43.5711"/>
</g>
<!-- javax.free:freejava&#45;bits:3.0.0 -->
<g id="node10" class="node"><title>javax.free:freejava&#45;bits:3.0.0</title>
<polygon fill="white" stroke="black" points="622,-150 552,-150 552,-112 622,-112 622,-150"/>
<text text-anchor="middle" x="587" y="-138.8" font-family="SanSerif" font-size="8.00">javax.free</text>
<text text-anchor="middle" x="587" y="-128.8" font-family="SanSerif" font-size="8.00">freejava&#45;bits</text>
<text text-anchor="middle" x="587" y="-118.8" font-family="SanSerif" font-size="8.00">3.0.0</text>
</g>
<!-- javax.free:freejava&#45;sio:3.0.0&#45;&gt;javax.free:freejava&#45;bits:3.0.0 -->
<g id="edge10" class="edge"><title>javax.free:freejava&#45;sio:3.0.0&#45;&gt;javax.free:freejava&#45;bits:3.0.0</title>
<path fill="none" stroke="black" d="M577.063,-223.747C578.937,-206.251 581.73,-180.189 583.878,-160.143"/>
<polygon fill="black" stroke="black" points="587.379,-160.318 584.964,-150.002 580.419,-159.572 587.379,-160.318"/>
</g>
<!-- javax.free:freejava&#45;proxy&#45;api:3.0.0 -->
<g id="node11" class="node"><title>javax.free:freejava&#45;proxy&#45;api:3.0.0</title>
<polygon fill="white" stroke="black" points="548,-150 456,-150 456,-112 548,-112 548,-150"/>
<text text-anchor="middle" x="502" y="-138.8" font-family="SanSerif" font-size="8.00">javax.free</text>
<text text-anchor="middle" x="502" y="-128.8" font-family="SanSerif" font-size="8.00">freejava&#45;proxy&#45;api</text>
<text text-anchor="middle" x="502" y="-118.8" font-family="SanSerif" font-size="8.00">3.0.0</text>
</g>
<!-- javax.free:freejava&#45;sio:3.0.0&#45;&gt;javax.free:freejava&#45;proxy&#45;api:3.0.0 -->
<g id="edge12" class="edge"><title>javax.free:freejava&#45;sio:3.0.0&#45;&gt;javax.free:freejava&#45;proxy&#45;api:3.0.0</title>
<path fill="none" stroke="black" d="M562.451,-223.747C550.732,-205.768 533.117,-178.741 519.92,-158.494"/>
<polygon fill="black" stroke="black" points="522.778,-156.469 514.385,-150.002 516.914,-160.291 522.778,-156.469"/>
</g>
<!-- javax.free:freejava&#45;collection:3.0.0&#45;&gt;javax.free:freejava&#45;closure:3.0.0 -->
<g id="edge26" class="edge"><title>javax.free:freejava&#45;collection:3.0.0&#45;&gt;javax.free:freejava&#45;closure:3.0.0</title>
<path fill="none" stroke="black" d="M299.717,-335.747C291.126,-317.929 278.251,-291.225 268.52,-271.041"/>
<polygon fill="black" stroke="black" points="271.658,-269.49 264.162,-262.002 265.352,-272.53 271.658,-269.49"/>
</g>
<!-- javax.free:freejava&#45;collection:3.0.0&#45;&gt;javax.free:freejava&#45;c1:3.0.0 -->
<g id="edge22" class="edge"><title>javax.free:freejava&#45;collection:3.0.0&#45;&gt;javax.free:freejava&#45;c1:3.0.0</title>
<path fill="none" stroke="black" d="M309.283,-335.972C310.115,-280.083 312.555,-116.11 313.56,-48.5813"/>
<polygon fill="black" stroke="black" points="317.064,-48.2863 313.714,-38.2353 310.065,-48.1821 317.064,-48.2863"/>
</g>
<!-- net.sourceforge.collections:collections&#45;generic:4.01 -->
<g id="node14" class="node"><title>net.sourceforge.collections:collections&#45;generic:4.01</title>
<polygon fill="white" stroke="black" points="444,-262 312,-262 312,-224 444,-224 444,-262"/>
<text text-anchor="middle" x="378" y="-250.8" font-family="SanSerif" font-size="8.00">net.sourceforge.collections</text>
<text text-anchor="middle" x="378" y="-240.8" font-family="SanSerif" font-size="8.00">collections&#45;generic</text>
<text text-anchor="middle" x="378" y="-230.8" font-family="SanSerif" font-size="8.00">4.01</text>
</g>
<!-- javax.free:freejava&#45;collection:3.0.0&#45;&gt;net.sourceforge.collections:collections&#45;generic:4.01 -->
<g id="edge20" class="edge"><title>javax.free:freejava&#45;collection:3.0.0&#45;&gt;net.sourceforge.collections:collections&#45;generic:4.01</title>
<path fill="none" stroke="black" d="M320.862,-335.747C331.888,-317.848 348.439,-290.983 360.894,-270.767"/>
<polygon fill="black" stroke="black" points="364.028,-272.352 366.293,-262.002 358.068,-268.68 364.028,-272.352"/>
</g>
<!-- javax.free:freejava&#45;collection:3.0.0&#45;&gt;javax.free:freejava&#45;lang:3.0.0 -->
<g id="edge24" class="edge"><title>javax.free:freejava&#45;collection:3.0.0&#45;&gt;javax.free:freejava&#45;lang:3.0.0</title>
<path fill="none" stroke="black" d="M283.73,-335.747C259.18,-317.042 221.778,-288.545 194.913,-268.077"/>
<polygon fill="black" stroke="black" points="197.016,-265.279 186.94,-262.002 192.774,-270.847 197.016,-265.279"/>
</g>
<!-- javax.free:freejava&#45;lang:3.0.0&#45;&gt;javax.free:freejava&#45;jdk6compat:3.0.0 -->
<g id="edge44" class="edge"><title>javax.free:freejava&#45;lang:3.0.0&#45;&gt;javax.free:freejava&#45;jdk6compat:3.0.0</title>
<path fill="none" stroke="black" d="M157.015,-223.747C152.464,-206.171 145.674,-179.949 140.474,-159.866"/>
<polygon fill="black" stroke="black" points="143.815,-158.806 137.92,-150.002 137.039,-160.56 143.815,-158.806"/>
</g>
<!-- org.slf4j:slf4j&#45;api:1.4.2 -->
<g id="node17" class="node"><title>org.slf4j:slf4j&#45;api:1.4.2</title>
<polygon fill="white" stroke="black" points="112,-262 58,-262 58,-224 112,-224 112,-262"/>
<text text-anchor="middle" x="85" y="-250.8" font-family="SanSerif" font-size="8.00">org.slf4j</text>
<text text-anchor="middle" x="85" y="-240.8" font-family="SanSerif" font-size="8.00">slf4j&#45;api</text>
<text text-anchor="middle" x="85" y="-230.8" font-family="SanSerif" font-size="8.00">1.4.2</text>
</g>
<!-- org.slf4j:slf4j&#45;log4j12:1.4.2&#45;&gt;org.slf4j:slf4j&#45;api:1.4.2 -->
<g id="edge30" class="edge"><title>org.slf4j:slf4j&#45;log4j12:1.4.2&#45;&gt;org.slf4j:slf4j&#45;api:1.4.2</title>
<path fill="none" stroke="black" d="M121.436,-335.747C114.468,-318.009 104.041,-291.467 96.1237,-271.315"/>
<polygon fill="black" stroke="black" points="99.3794,-270.03 92.4652,-262.002 92.8641,-272.59 99.3794,-270.03"/>
</g>
<!-- log4j:log4j:1.2.13 -->
<g id="node18" class="node"><title>log4j:log4j:1.2.13</title>
<polygon fill="white" stroke="black" points="54,-262 1.42109e-14,-262 3.55271e-15,-224 54,-224 54,-262"/>
<text text-anchor="middle" x="27" y="-250.8" font-family="SanSerif" font-size="8.00">log4j</text>
<text text-anchor="middle" x="27" y="-240.8" font-family="SanSerif" font-size="8.00">log4j</text>
<text text-anchor="middle" x="27" y="-230.8" font-family="SanSerif" font-size="8.00">1.2.13</text>
</g>
<!-- org.slf4j:slf4j&#45;log4j12:1.4.2&#45;&gt;log4j:log4j:1.2.13 -->
<g id="edge32" class="edge"><title>org.slf4j:slf4j&#45;log4j12:1.4.2&#45;&gt;log4j:log4j:1.2.13</title>
<path fill="none" stroke="black" d="M111.466,-335.747C94.7982,-317.445 69.593,-289.769 51.0532,-269.411"/>
<polygon fill="black" stroke="black" points="53.6267,-267.039 44.3056,-262.002 48.4512,-271.752 53.6267,-267.039"/>
</g>
<!-- com.bee32.plover:plover&#45;inject:0.0.1&#45;SNAPSHOT&#45;&gt;com.bee32.plover:plover&#45;arch:0.0.4&#45;SNAPSHOT -->
<g id="edge54" class="edge"><title>com.bee32.plover:plover&#45;inject:0.0.1&#45;SNAPSHOT&#45;&gt;com.bee32.plover:plover&#45;arch:0.0.4&#45;SNAPSHOT</title>
<path fill="none" stroke="black" d="M301.889,-559.747C293.496,-542.009 280.935,-515.467 271.399,-495.315"/>
<polygon fill="black" stroke="black" points="274.433,-493.544 266.992,-486.002 268.106,-496.538 274.433,-493.544"/>
</g>
<!-- com.bee32.plover:plover&#45;inject:0.0.1&#45;SNAPSHOT&#45;&gt;javax.free:freejava&#45;collection:3.0.0 -->
<g id="edge52" class="edge"><title>com.bee32.plover:plover&#45;inject:0.0.1&#45;SNAPSHOT&#45;&gt;javax.free:freejava&#45;collection:3.0.0</title>
<path fill="none" stroke="black" d="M310.829,-559.902C310.479,-520.64 309.675,-430.652 309.26,-384.094"/>
<polygon fill="black" stroke="black" points="312.759,-384.018 309.17,-374.05 305.76,-384.081 312.759,-384.018"/>
</g>
<!-- com.bee32.plover:plover&#45;servlet:0.0.1&#45;SNAPSHOT&#45;&gt;com.bee32.plover:plover&#45;inject:0.0.1&#45;SNAPSHOT -->
<g id="edge62" class="edge"><title>com.bee32.plover:plover&#45;servlet:0.0.1&#45;SNAPSHOT&#45;&gt;com.bee32.plover:plover&#45;inject:0.0.1&#45;SNAPSHOT</title>
<path fill="none" stroke="black" d="M346.608,-671.747C339.829,-654.09 329.7,-627.708 321.977,-607.59"/>
<polygon fill="black" stroke="black" points="325.147,-606.083 318.296,-598.002 318.612,-608.592 325.147,-606.083"/>
</g>
<!-- javax.servlet:servlet&#45;api:2.5 -->
<g id="node23" class="node"><title>javax.servlet:servlet&#45;api:2.5</title>
<polygon fill="white" stroke="black" points="431,-598 361,-598 361,-560 431,-560 431,-598"/>
<text text-anchor="middle" x="396" y="-586.8" font-family="SanSerif" font-size="8.00">javax.servlet</text>
<text text-anchor="middle" x="396" y="-576.8" font-family="SanSerif" font-size="8.00">servlet&#45;api</text>
<text text-anchor="middle" x="396" y="-566.8" font-family="SanSerif" font-size="8.00">2.5</text>
</g>
<!-- com.bee32.plover:plover&#45;servlet:0.0.1&#45;SNAPSHOT&#45;&gt;javax.servlet:servlet&#45;api:2.5 -->
<g id="edge60" class="edge"><title>com.bee32.plover:plover&#45;servlet:0.0.1&#45;SNAPSHOT&#45;&gt;javax.servlet:servlet&#45;api:2.5</title>
<path fill="none" stroke="black" d="M361.22,-671.747C367.841,-654.09 377.735,-627.708 385.279,-607.59"/>
<polygon fill="black" stroke="black" points="388.64,-608.594 388.874,-598.002 382.086,-606.137 388.64,-608.594"/>
</g>
<!-- org.zkoss.zk:zul:5.0.6 -->
<g id="node25" class="node"><title>org.zkoss.zk:zul:5.0.6</title>
<polygon fill="white" stroke="black" points="544,-598 476,-598 476,-560 544,-560 544,-598"/>
<text text-anchor="middle" x="510" y="-586.8" font-family="SanSerif" font-size="8.00">org.zkoss.zk</text>
<text text-anchor="middle" x="510" y="-576.8" font-family="SanSerif" font-size="8.00">zul</text>
<text text-anchor="middle" x="510" y="-566.8" font-family="SanSerif" font-size="8.00">5.0.6</text>
</g>
<!-- org.zkoss.zk:zhtml:5.0.6&#45;&gt;org.zkoss.zk:zul:5.0.6 -->
<g id="edge78" class="edge"><title>org.zkoss.zk:zhtml:5.0.6&#45;&gt;org.zkoss.zk:zul:5.0.6</title>
<path fill="none" stroke="black" d="M510,-671.747C510,-654.251 510,-628.189 510,-608.143"/>
<polygon fill="black" stroke="black" points="513.5,-608.002 510,-598.002 506.5,-608.002 513.5,-608.002"/>
</g>
<!-- org.zkoss.zk:zk:5.0.6 -->
<g id="node26" class="node"><title>org.zkoss.zk:zk:5.0.6</title>
<polygon fill="white" stroke="black" points="578,-486 510,-486 510,-448 578,-448 578,-486"/>
<text text-anchor="middle" x="544" y="-474.8" font-family="SanSerif" font-size="8.00">org.zkoss.zk</text>
<text text-anchor="middle" x="544" y="-464.8" font-family="SanSerif" font-size="8.00">zk</text>
<text text-anchor="middle" x="544" y="-454.8" font-family="SanSerif" font-size="8.00">5.0.6</text>
</g>
<!-- org.zkoss.zk:zul:5.0.6&#45;&gt;org.zkoss.zk:zk:5.0.6 -->
<g id="edge76" class="edge"><title>org.zkoss.zk:zul:5.0.6&#45;&gt;org.zkoss.zk:zk:5.0.6</title>
<path fill="none" stroke="black" d="M515.845,-559.747C521.205,-542.09 529.214,-515.708 535.321,-495.59"/>
<polygon fill="black" stroke="black" points="538.676,-496.588 538.231,-486.002 531.977,-494.554 538.676,-496.588"/>
</g>
<!-- org.zkoss.common:zweb:5.0.6 -->
<g id="node27" class="node"><title>org.zkoss.common:zweb:5.0.6</title>
<polygon fill="white" stroke="black" points="613,-374 515,-374 515,-336 613,-336 613,-374"/>
<text text-anchor="middle" x="564" y="-362.8" font-family="SanSerif" font-size="8.00">org.zkoss.common</text>
<text text-anchor="middle" x="564" y="-352.8" font-family="SanSerif" font-size="8.00">zweb</text>
<text text-anchor="middle" x="564" y="-342.8" font-family="SanSerif" font-size="8.00">5.0.6</text>
</g>
<!-- org.zkoss.zk:zk:5.0.6&#45;&gt;org.zkoss.common:zweb:5.0.6 -->
<g id="edge74" class="edge"><title>org.zkoss.zk:zk:5.0.6&#45;&gt;org.zkoss.common:zweb:5.0.6</title>
<path fill="none" stroke="black" d="M547.438,-447.747C550.577,-430.171 555.259,-403.949 558.845,-383.866"/>
<polygon fill="black" stroke="black" points="562.294,-384.462 560.607,-374.002 555.403,-383.231 562.294,-384.462"/>
</g>
<!-- org.zkoss.common:zcommon:5.0.6 -->
<g id="node28" class="node"><title>org.zkoss.common:zcommon:5.0.6</title>
<polygon fill="white" stroke="black" points="710,-262 612,-262 612,-224 710,-224 710,-262"/>
<text text-anchor="middle" x="661" y="-250.8" font-family="SanSerif" font-size="8.00">org.zkoss.common</text>
<text text-anchor="middle" x="661" y="-240.8" font-family="SanSerif" font-size="8.00">zcommon</text>
<text text-anchor="middle" x="661" y="-230.8" font-family="SanSerif" font-size="8.00">5.0.6</text>
</g>
<!-- org.zkoss.common:zweb:5.0.6&#45;&gt;org.zkoss.common:zcommon:5.0.6 -->
<g id="edge72" class="edge"><title>org.zkoss.common:zweb:5.0.6&#45;&gt;org.zkoss.common:zcommon:5.0.6</title>
<path fill="none" stroke="black" d="M580.675,-335.747C596.455,-317.526 620.284,-290.012 637.893,-269.681"/>
<polygon fill="black" stroke="black" points="640.642,-271.853 644.543,-262.002 635.35,-267.27 640.642,-271.853"/>
</g>
<!-- commons&#45;fileupload:commons&#45;fileupload:1.2.1 -->
<g id="node29" class="node"><title>commons&#45;fileupload:commons&#45;fileupload:1.2.1</title>
<polygon fill="white" stroke="black" points="806,-150 704,-150 704,-112 806,-112 806,-150"/>
<text text-anchor="middle" x="755" y="-138.8" font-family="SanSerif" font-size="8.00">commons&#45;fileupload</text>
<text text-anchor="middle" x="755" y="-128.8" font-family="SanSerif" font-size="8.00">commons&#45;fileupload</text>
<text text-anchor="middle" x="755" y="-118.8" font-family="SanSerif" font-size="8.00">1.2.1</text>
</g>
<!-- org.zkoss.common:zcommon:5.0.6&#45;&gt;commons&#45;fileupload:commons&#45;fileupload:1.2.1 -->
<g id="edge66" class="edge"><title>org.zkoss.common:zcommon:5.0.6&#45;&gt;commons&#45;fileupload:commons&#45;fileupload:1.2.1</title>
<path fill="none" stroke="black" d="M677.159,-223.747C692.452,-205.526 715.543,-178.012 732.607,-157.681"/>
<polygon fill="black" stroke="black" points="735.304,-159.912 739.052,-150.002 729.942,-155.412 735.304,-159.912"/>
</g>
<!-- org.zkoss.zkforge.el:zcommons&#45;el:1.1.0 -->
<g id="node30" class="node"><title>org.zkoss.zkforge.el:zcommons&#45;el:1.1.0</title>
<polygon fill="white" stroke="black" points="912,-150 810,-150 810,-112 912,-112 912,-150"/>
<text text-anchor="middle" x="861" y="-138.8" font-family="SanSerif" font-size="8.00">org.zkoss.zkforge.el</text>
<text text-anchor="middle" x="861" y="-128.8" font-family="SanSerif" font-size="8.00">zcommons&#45;el</text>
<text text-anchor="middle" x="861" y="-118.8" font-family="SanSerif" font-size="8.00">1.1.0</text>
</g>
<!-- org.zkoss.common:zcommon:5.0.6&#45;&gt;org.zkoss.zkforge.el:zcommons&#45;el:1.1.0 -->
<g id="edge68" class="edge"><title>org.zkoss.common:zcommon:5.0.6&#45;&gt;org.zkoss.zkforge.el:zcommons&#45;el:1.1.0</title>
<path fill="none" stroke="black" d="M695.381,-223.747C729.358,-204.72 781.429,-175.559 818.097,-155.025"/>
<polygon fill="black" stroke="black" points="820.052,-157.942 827.067,-150.002 816.632,-151.835 820.052,-157.942"/>
</g>
<!-- org.beanshell:bsh:2.0b4 -->
<g id="node31" class="node"><title>org.beanshell:bsh:2.0b4</title>
<polygon fill="white" stroke="black" points="700,-150 626,-150 626,-112 700,-112 700,-150"/>
<text text-anchor="middle" x="663" y="-138.8" font-family="SanSerif" font-size="8.00">org.beanshell</text>
<text text-anchor="middle" x="663" y="-128.8" font-family="SanSerif" font-size="8.00">bsh</text>
<text text-anchor="middle" x="663" y="-118.8" font-family="SanSerif" font-size="8.00">2.0b4</text>
</g>
<!-- org.zkoss.common:zcommon:5.0.6&#45;&gt;org.beanshell:bsh:2.0b4 -->
<g id="edge70" class="edge"><title>org.zkoss.common:zcommon:5.0.6&#45;&gt;org.beanshell:bsh:2.0b4</title>
<path fill="none" stroke="black" d="M661.344,-223.747C661.656,-206.251 662.122,-180.189 662.48,-160.143"/>
<polygon fill="black" stroke="black" points="665.981,-160.063 662.661,-150.002 658.983,-159.938 665.981,-160.063"/>
</g>
<!-- org.zkoss.zk:zkplus:5.0.6&#45;&gt;org.zkoss.zk:zul:5.0.6 -->
<g id="edge82" class="edge"><title>org.zkoss.zk:zkplus:5.0.6&#45;&gt;org.zkoss.zk:zul:5.0.6</title>
<path fill="none" stroke="black" d="M450.377,-671.747C461.935,-653.768 479.309,-626.741 492.325,-606.494"/>
<polygon fill="black" stroke="black" points="495.321,-608.307 497.784,-598.002 489.433,-604.521 495.321,-608.307"/>
</g>
</g>
</svg>
