<?xml version="1.0" encoding="UTF-8" standalone="no"?>
<!DOCTYPE svg PUBLIC "-//W3C//DTD SVG 1.1//EN"
 "http://www.w3.org/Graphics/SVG/1.1/DTD/svg11.dtd">
<!-- Generated by graphviz version 2.26.3 (20100126.1600)
 -->
<!-- Title: dependencies Pages: 1 -->
<svg width="744pt" height="1040pt"
 viewBox="0.00 0.00 744.00 1040.00" xmlns="http://www.w3.org/2000/svg" xmlns:xlink="http://www.w3.org/1999/xlink">
<g id="graph1" class="graph" transform="scale(1 1) rotate(0) translate(4 1036)">
<title>dependencies</title>
<polygon fill="white" stroke="white" points="-4,5 -4,-1036 741,-1036 741,5 -4,5"/>
<text text-anchor="middle" x="217" y="-1011.8" font-family="Serif" font-size="18.00">Dependency Graph for Plover :: Repr :: X2flex</text>
<!-- com.bee32.plover:plover&#45;x2flex:0.0.1&#45;SNAPSHOT -->
<g id="node1" class="node"><title>com.bee32.plover:plover&#45;x2flex:0.0.1&#45;SNAPSHOT</title>
<polygon fill="#dddddd" stroke="black" points="450,-1002 312,-1002 312,-940 450,-940 450,-1002"/>
<text text-anchor="middle" x="381" y="-985.4" font-family="SanSerif" font-size="14.00">com.bee32.plover</text>
<text text-anchor="middle" x="381" y="-967.4" font-family="SanSerif" font-size="14.00">plover&#45;x2flex</text>
<text text-anchor="middle" x="381" y="-949.4" font-family="SanSerif" font-size="14.00">0.0.1&#45;SNAPSHOT</text>
</g>
<!-- com.bee32.plover:plover&#45;repr:0.0.1&#45;SNAPSHOT -->
<g id="node2" class="node"><title>com.bee32.plover:plover&#45;repr:0.0.1&#45;SNAPSHOT</title>
<polygon fill="white" stroke="black" points="427,-858 335,-858 335,-820 427,-820 427,-858"/>
<text text-anchor="middle" x="381" y="-846.8" font-family="SanSerif" font-size="8.00">com.bee32.plover</text>
<text text-anchor="middle" x="381" y="-836.8" font-family="SanSerif" font-size="8.00">plover&#45;repr</text>
<text text-anchor="middle" x="381" y="-826.8" font-family="SanSerif" font-size="8.00">0.0.1&#45;SNAPSHOT</text>
</g>
<!-- com.bee32.plover:plover&#45;x2flex:0.0.1&#45;SNAPSHOT&#45;&gt;com.bee32.plover:plover&#45;repr:0.0.1&#45;SNAPSHOT -->
<g id="edge84" class="edge"><title>com.bee32.plover:plover&#45;x2flex:0.0.1&#45;SNAPSHOT&#45;&gt;com.bee32.plover:plover&#45;repr:0.0.1&#45;SNAPSHOT</title>
<path fill="none" stroke="black" d="M381,-939.718C381,-918.065 381,-889.442 381,-868.246"/>
<polygon fill="black" stroke="black" points="384.5,-868.207 381,-858.207 377.5,-868.207 384.5,-868.207"/>
</g>
<!-- junit:junit:4.8.2 -->
<g id="node27" class="node"><title>junit:junit:4.8.2</title>
<polygon fill="white" stroke="cornflowerblue" points="485,-858 431,-858 431,-820 485,-820 485,-858"/>
<text text-anchor="middle" x="458" y="-846.8" font-family="SanSerif" font-size="8.00" fill="cornflowerblue">junit</text>
<text text-anchor="middle" x="458" y="-836.8" font-family="SanSerif" font-size="8.00" fill="cornflowerblue">junit</text>
<text text-anchor="middle" x="458" y="-826.8" font-family="SanSerif" font-size="8.00" fill="cornflowerblue">4.8.2</text>
</g>
<!-- com.bee32.plover:plover&#45;x2flex:0.0.1&#45;SNAPSHOT&#45;&gt;junit:junit:4.8.2 -->
<g id="edge86" class="edge"><title>com.bee32.plover:plover&#45;x2flex:0.0.1&#45;SNAPSHOT&#45;&gt;junit:junit:4.8.2</title>
<path fill="none" stroke="cornflowerblue" d="M399.248,-939.718C412.11,-917.669 429.187,-888.394 441.613,-867.092"/>
<polygon fill="cornflowerblue" stroke="cornflowerblue" points="444.78,-868.609 446.796,-858.207 438.734,-865.081 444.78,-868.609"/>
<text text-anchor="middle" x="433.5" y="-896.8" font-family="SanSerif" font-size="8.00" fill="cornflowerblue">test</text>
</g>
<!-- javax.free:freejava&#45;collection:3.0.0 -->
<g id="node3" class="node"><title>javax.free:freejava&#45;collection:3.0.0</title>
<polygon fill="white" stroke="black" points="548,-410 454,-410 454,-372 548,-372 548,-410"/>
<text text-anchor="middle" x="501" y="-398.8" font-family="SanSerif" font-size="8.00">javax.free</text>
<text text-anchor="middle" x="501" y="-388.8" font-family="SanSerif" font-size="8.00">freejava&#45;collection</text>
<text text-anchor="middle" x="501" y="-378.8" font-family="SanSerif" font-size="8.00">3.0.0</text>
</g>
<!-- com.bee32.plover:plover&#45;repr:0.0.1&#45;SNAPSHOT&#45;&gt;javax.free:freejava&#45;collection:3.0.0 -->
<g id="edge14" class="edge"><title>com.bee32.plover:plover&#45;repr:0.0.1&#45;SNAPSHOT&#45;&gt;javax.free:freejava&#45;collection:3.0.0</title>
<path fill="none" stroke="black" d="M424.662,-819.831C458.973,-801.472 501,-770.174 501,-727 501,-727 501,-727 501,-503 501,-474.927 501,-442.896 501,-420.3"/>
<polygon fill="black" stroke="black" points="504.5,-420.024 501,-410.024 497.5,-420.024 504.5,-420.024"/>
</g>
<!-- javax.free:freejava&#45;io:3.0.0 -->
<g id="node10" class="node"><title>javax.free:freejava&#45;io:3.0.0</title>
<polygon fill="white" stroke="black" points="299,-522 237,-522 237,-484 299,-484 299,-522"/>
<text text-anchor="middle" x="268" y="-510.8" font-family="SanSerif" font-size="8.00">javax.free</text>
<text text-anchor="middle" x="268" y="-500.8" font-family="SanSerif" font-size="8.00">freejava&#45;io</text>
<text text-anchor="middle" x="268" y="-490.8" font-family="SanSerif" font-size="8.00">3.0.0</text>
</g>
<!-- com.bee32.plover:plover&#45;repr:0.0.1&#45;SNAPSHOT&#45;&gt;javax.free:freejava&#45;io:3.0.0 -->
<g id="edge56" class="edge"><title>com.bee32.plover:plover&#45;repr:0.0.1&#45;SNAPSHOT&#45;&gt;javax.free:freejava&#45;io:3.0.0</title>
<path fill="none" stroke="black" d="M369.632,-819.97C359.01,-801.557 343.287,-772.607 333,-746 303.999,-670.989 283.086,-578.151 273.633,-531.95"/>
<polygon fill="black" stroke="black" points="277.041,-531.145 271.633,-522.033 270.179,-532.528 277.041,-531.145"/>
</g>
<!-- com.bee32.plover:plover&#45;model:0.0.1&#45;SNAPSHOT -->
<g id="node21" class="node"><title>com.bee32.plover:plover&#45;model:0.0.1&#45;SNAPSHOT</title>
<polygon fill="white" stroke="black" points="427,-746 335,-746 335,-708 427,-708 427,-746"/>
<text text-anchor="middle" x="381" y="-734.8" font-family="SanSerif" font-size="8.00">com.bee32.plover</text>
<text text-anchor="middle" x="381" y="-724.8" font-family="SanSerif" font-size="8.00">plover&#45;model</text>
<text text-anchor="middle" x="381" y="-714.8" font-family="SanSerif" font-size="8.00">0.0.1&#45;SNAPSHOT</text>
</g>
<!-- com.bee32.plover:plover&#45;repr:0.0.1&#45;SNAPSHOT&#45;&gt;com.bee32.plover:plover&#45;model:0.0.1&#45;SNAPSHOT -->
<g id="edge82" class="edge"><title>com.bee32.plover:plover&#45;repr:0.0.1&#45;SNAPSHOT&#45;&gt;com.bee32.plover:plover&#45;model:0.0.1&#45;SNAPSHOT</title>
<path fill="none" stroke="black" d="M381,-819.747C381,-802.251 381,-776.189 381,-756.143"/>
<polygon fill="black" stroke="black" points="384.5,-756.002 381,-746.002 377.5,-756.002 384.5,-756.002"/>
</g>
<!-- net.sourceforge.collections:collections&#45;generic:4.01 -->
<g id="node4" class="node"><title>net.sourceforge.collections:collections&#45;generic:4.01</title>
<polygon fill="white" stroke="black" points="736,-262 604,-262 604,-224 736,-224 736,-262"/>
<text text-anchor="middle" x="670" y="-250.8" font-family="SanSerif" font-size="8.00">net.sourceforge.collections</text>
<text text-anchor="middle" x="670" y="-240.8" font-family="SanSerif" font-size="8.00">collections&#45;generic</text>
<text text-anchor="middle" x="670" y="-230.8" font-family="SanSerif" font-size="8.00">4.01</text>
</g>
<!-- javax.free:freejava&#45;collection:3.0.0&#45;&gt;net.sourceforge.collections:collections&#45;generic:4.01 -->
<g id="edge2" class="edge"><title>javax.free:freejava&#45;collection:3.0.0&#45;&gt;net.sourceforge.collections:collections&#45;generic:4.01</title>
<path fill="none" stroke="black" d="M544.956,-371.974C563.431,-362.724 584.431,-350.463 601,-336 622.409,-317.312 641.212,-290.908 653.76,-271.006"/>
<polygon fill="black" stroke="black" points="656.813,-272.722 659.072,-262.371 650.851,-269.054 656.813,-272.722"/>
</g>
<!-- javax.free:freejava&#45;c1:3.0.0 -->
<g id="node5" class="node"><title>javax.free:freejava&#45;c1:3.0.0</title>
<polygon fill="white" stroke="black" points="382,-38 318,-38 318,-7.10543e-15 382,-3.55271e-15 382,-38"/>
<text text-anchor="middle" x="350" y="-26.8" font-family="SanSerif" font-size="8.00">javax.free</text>
<text text-anchor="middle" x="350" y="-16.8" font-family="SanSerif" font-size="8.00">freejava&#45;c1</text>
<text text-anchor="middle" x="350" y="-6.8" font-family="SanSerif" font-size="8.00">3.0.0</text>
</g>
<!-- javax.free:freejava&#45;collection:3.0.0&#45;&gt;javax.free:freejava&#45;c1:3.0.0 -->
<g id="edge4" class="edge"><title>javax.free:freejava&#45;collection:3.0.0&#45;&gt;javax.free:freejava&#45;c1:3.0.0</title>
<path fill="none" stroke="black" d="M523.528,-371.814C556.079,-341.618 610.267,-280.603 590,-224 556.597,-130.711 450.639,-66.9306 391.29,-37.5167"/>
<polygon fill="black" stroke="black" points="392.707,-34.3142 382.183,-33.0917 389.648,-40.6103 392.707,-34.3142"/>
</g>
<!-- javax.free:freejava&#45;lang:3.0.0 -->
<g id="node6" class="node"><title>javax.free:freejava&#45;lang:3.0.0</title>
<polygon fill="white" stroke="black" points="532,-262 460,-262 460,-224 532,-224 532,-262"/>
<text text-anchor="middle" x="496" y="-250.8" font-family="SanSerif" font-size="8.00">javax.free</text>
<text text-anchor="middle" x="496" y="-240.8" font-family="SanSerif" font-size="8.00">freejava&#45;lang</text>
<text text-anchor="middle" x="496" y="-230.8" font-family="SanSerif" font-size="8.00">3.0.0</text>
</g>
<!-- javax.free:freejava&#45;collection:3.0.0&#45;&gt;javax.free:freejava&#45;lang:3.0.0 -->
<g id="edge8" class="edge"><title>javax.free:freejava&#45;collection:3.0.0&#45;&gt;javax.free:freejava&#45;lang:3.0.0</title>
<path fill="none" stroke="black" d="M500.357,-371.955C499.506,-346.784 497.999,-302.18 497,-272.598"/>
<polygon fill="black" stroke="black" points="500.493,-272.318 496.657,-262.442 493.497,-272.555 500.493,-272.318"/>
</g>
<!-- javax.free:freejava&#45;closure:3.0.0 -->
<g id="node8" class="node"><title>javax.free:freejava&#45;closure:3.0.0</title>
<polygon fill="white" stroke="black" points="388,-262 302,-262 302,-224 388,-224 388,-262"/>
<text text-anchor="middle" x="345" y="-250.8" font-family="SanSerif" font-size="8.00">javax.free</text>
<text text-anchor="middle" x="345" y="-240.8" font-family="SanSerif" font-size="8.00">freejava&#45;closure</text>
<text text-anchor="middle" x="345" y="-230.8" font-family="SanSerif" font-size="8.00">3.0.0</text>
</g>
<!-- javax.free:freejava&#45;collection:3.0.0&#45;&gt;javax.free:freejava&#45;closure:3.0.0 -->
<g id="edge12" class="edge"><title>javax.free:freejava&#45;collection:3.0.0&#45;&gt;javax.free:freejava&#45;closure:3.0.0</title>
<path fill="none" stroke="black" d="M480.925,-371.955C453.463,-345.901 404.054,-299.026 372.975,-269.541"/>
<polygon fill="black" stroke="black" points="375.157,-266.786 365.493,-262.442 370.339,-271.864 375.157,-266.786"/>
</g>
<!-- javax.free:freejava&#45;jdk6compat:3.0.0 -->
<g id="node7" class="node"><title>javax.free:freejava&#45;jdk6compat:3.0.0</title>
<polygon fill="white" stroke="black" points="496,-150 394,-150 394,-112 496,-112 496,-150"/>
<text text-anchor="middle" x="445" y="-138.8" font-family="SanSerif" font-size="8.00">javax.free</text>
<text text-anchor="middle" x="445" y="-128.8" font-family="SanSerif" font-size="8.00">freejava&#45;jdk6compat</text>
<text text-anchor="middle" x="445" y="-118.8" font-family="SanSerif" font-size="8.00">3.0.0</text>
</g>
<!-- javax.free:freejava&#45;lang:3.0.0&#45;&gt;javax.free:freejava&#45;jdk6compat:3.0.0 -->
<g id="edge6" class="edge"><title>javax.free:freejava&#45;lang:3.0.0&#45;&gt;javax.free:freejava&#45;jdk6compat:3.0.0</title>
<path fill="none" stroke="black" d="M487.233,-223.747C479.156,-206.009 467.07,-179.467 457.893,-159.315"/>
<polygon fill="black" stroke="black" points="460.982,-157.653 453.653,-150.002 454.612,-160.554 460.982,-157.653"/>
</g>
<!-- javax.free:freejava&#45;meta:3.0.0 -->
<g id="node9" class="node"><title>javax.free:freejava&#45;meta:3.0.0</title>
<polygon fill="white" stroke="black" points="327,-150 251,-150 251,-112 327,-112 327,-150"/>
<text text-anchor="middle" x="289" y="-138.8" font-family="SanSerif" font-size="8.00">javax.free</text>
<text text-anchor="middle" x="289" y="-128.8" font-family="SanSerif" font-size="8.00">freejava&#45;meta</text>
<text text-anchor="middle" x="289" y="-118.8" font-family="SanSerif" font-size="8.00">3.0.0</text>
</g>
<!-- javax.free:freejava&#45;closure:3.0.0&#45;&gt;javax.free:freejava&#45;meta:3.0.0 -->
<g id="edge10" class="edge"><title>javax.free:freejava&#45;closure:3.0.0&#45;&gt;javax.free:freejava&#45;meta:3.0.0</title>
<path fill="none" stroke="black" d="M335.373,-223.747C326.464,-205.929 313.113,-179.225 303.02,-159.041"/>
<polygon fill="black" stroke="black" points="306.104,-157.381 298.501,-150.002 299.843,-160.512 306.104,-157.381"/>
</g>
<!-- javax.free:freejava&#45;meta:3.0.0&#45;&gt;javax.free:freejava&#45;c1:3.0.0 -->
<g id="edge24" class="edge"><title>javax.free:freejava&#45;meta:3.0.0&#45;&gt;javax.free:freejava&#45;c1:3.0.0</title>
<path fill="none" stroke="black" d="M299.486,-111.747C309.191,-93.9288 323.734,-67.2253 334.728,-47.0406"/>
<polygon fill="black" stroke="black" points="337.941,-48.4583 339.651,-38.0022 331.794,-45.1101 337.941,-48.4583"/>
</g>
<!-- javax.free:freejava&#45;annotation:3.0.0 -->
<g id="node13" class="node"><title>javax.free:freejava&#45;annotation:3.0.0</title>
<polygon fill="white" stroke="black" points="314,-38 216,-38 216,-7.10543e-15 314,-3.55271e-15 314,-38"/>
<text text-anchor="middle" x="265" y="-26.8" font-family="SanSerif" font-size="8.00">javax.free</text>
<text text-anchor="middle" x="265" y="-16.8" font-family="SanSerif" font-size="8.00">freejava&#45;annotation</text>
<text text-anchor="middle" x="265" y="-6.8" font-family="SanSerif" font-size="8.00">3.0.0</text>
</g>
<!-- javax.free:freejava&#45;meta:3.0.0&#45;&gt;javax.free:freejava&#45;annotation:3.0.0 -->
<g id="edge22" class="edge"><title>javax.free:freejava&#45;meta:3.0.0&#45;&gt;javax.free:freejava&#45;annotation:3.0.0</title>
<path fill="none" stroke="black" d="M284.874,-111.747C281.108,-94.1707 275.489,-67.9487 271.186,-47.8662"/>
<polygon fill="black" stroke="black" points="274.59,-47.0469 269.072,-38.0022 267.745,-48.5137 274.59,-47.0469"/>
</g>
<!-- javax.free:freejava&#45;io:3.0.0&#45;&gt;javax.free:freejava&#45;collection:3.0.0 -->
<g id="edge54" class="edge"><title>javax.free:freejava&#45;io:3.0.0&#45;&gt;javax.free:freejava&#45;collection:3.0.0</title>
<path fill="none" stroke="black" d="M299.246,-485.921C300.511,-485.267 301.766,-484.624 303,-484 352.102,-459.167 409.046,-432.654 449.227,-414.317"/>
<polygon fill="black" stroke="black" points="450.904,-417.399 458.555,-410.07 448.004,-411.029 450.904,-417.399"/>
</g>
<!-- javax.free:freejava&#45;io:3.0.0&#45;&gt;javax.free:freejava&#45;meta:3.0.0 -->
<g id="edge26" class="edge"><title>javax.free:freejava&#45;io:3.0.0&#45;&gt;javax.free:freejava&#45;meta:3.0.0</title>
<path fill="none" stroke="black" d="M270.371,-483.937C271.612,-473.364 273.065,-459.97 274,-448 282.248,-342.434 286.566,-216.71 288.206,-160.592"/>
<polygon fill="black" stroke="black" points="291.712,-160.419 288.499,-150.323 284.715,-160.22 291.712,-160.419"/>
</g>
<!-- javax.free:freejava&#45;primitive:3.0.0 -->
<g id="node11" class="node"><title>javax.free:freejava&#45;primitive:3.0.0</title>
<polygon fill="white" stroke="black" points="276,-336 186,-336 186,-298 276,-298 276,-336"/>
<text text-anchor="middle" x="231" y="-324.8" font-family="SanSerif" font-size="8.00">javax.free</text>
<text text-anchor="middle" x="231" y="-314.8" font-family="SanSerif" font-size="8.00">freejava&#45;primitive</text>
<text text-anchor="middle" x="231" y="-304.8" font-family="SanSerif" font-size="8.00">3.0.0</text>
</g>
<!-- javax.free:freejava&#45;io:3.0.0&#45;&gt;javax.free:freejava&#45;primitive:3.0.0 -->
<g id="edge18" class="edge"><title>javax.free:freejava&#45;io:3.0.0&#45;&gt;javax.free:freejava&#45;primitive:3.0.0</title>
<path fill="none" stroke="black" d="M269.581,-483.915C271.145,-458.02 271.938,-410.564 261,-372 258.412,-362.877 254.108,-353.588 249.555,-345.305"/>
<polygon fill="black" stroke="black" points="252.449,-343.32 244.389,-336.443 246.402,-346.845 252.449,-343.32"/>
</g>
<!-- javax.free:freejava&#45;bits:3.0.0 -->
<g id="node12" class="node"><title>javax.free:freejava&#45;bits:3.0.0</title>
<polygon fill="white" stroke="black" points="83,-150 13,-150 13,-112 83,-112 83,-150"/>
<text text-anchor="middle" x="48" y="-138.8" font-family="SanSerif" font-size="8.00">javax.free</text>
<text text-anchor="middle" x="48" y="-128.8" font-family="SanSerif" font-size="8.00">freejava&#45;bits</text>
<text text-anchor="middle" x="48" y="-118.8" font-family="SanSerif" font-size="8.00">3.0.0</text>
</g>
<!-- javax.free:freejava&#45;io:3.0.0&#45;&gt;javax.free:freejava&#45;bits:3.0.0 -->
<g id="edge20" class="edge"><title>javax.free:freejava&#45;io:3.0.0&#45;&gt;javax.free:freejava&#45;bits:3.0.0</title>
<path fill="none" stroke="black" d="M237.842,-483.817C213.55,-466.987 180.084,-440.484 159,-410 109.018,-337.734 125.717,-305.14 92,-224 82.8785,-202.049 71.3499,-177.788 62.3818,-159.55"/>
<polygon fill="black" stroke="black" points="65.399,-157.756 57.8235,-150.349 59.1266,-160.864 65.399,-157.756"/>
</g>
<!-- javax.free:freejava&#45;sio:3.0.0 -->
<g id="node14" class="node"><title>javax.free:freejava&#45;sio:3.0.0</title>
<polygon fill="white" stroke="black" points="172,-262 106,-262 106,-224 172,-224 172,-262"/>
<text text-anchor="middle" x="139" y="-250.8" font-family="SanSerif" font-size="8.00">javax.free</text>
<text text-anchor="middle" x="139" y="-240.8" font-family="SanSerif" font-size="8.00">freejava&#45;sio</text>
<text text-anchor="middle" x="139" y="-230.8" font-family="SanSerif" font-size="8.00">3.0.0</text>
</g>
<!-- javax.free:freejava&#45;io:3.0.0&#45;&gt;javax.free:freejava&#45;sio:3.0.0 -->
<g id="edge32" class="edge"><title>javax.free:freejava&#45;io:3.0.0&#45;&gt;javax.free:freejava&#45;sio:3.0.0</title>
<path fill="none" stroke="black" d="M246.536,-483.985C227.483,-466.264 199.824,-438.372 181,-410 161.091,-379.993 157.187,-370.819 148,-336 142.499,-315.153 140.285,-290.884 139.426,-272.366"/>
<polygon fill="black" stroke="black" points="142.918,-272.065 139.063,-262.197 135.922,-272.315 142.918,-272.065"/>
</g>
<!-- javax.free:freejava&#45;string:3.0.0 -->
<g id="node16" class="node"><title>javax.free:freejava&#45;string:3.0.0</title>
<polygon fill="white" stroke="black" points="261,-410 183,-410 183,-372 261,-372 261,-410"/>
<text text-anchor="middle" x="222" y="-398.8" font-family="SanSerif" font-size="8.00">javax.free</text>
<text text-anchor="middle" x="222" y="-388.8" font-family="SanSerif" font-size="8.00">freejava&#45;string</text>
<text text-anchor="middle" x="222" y="-378.8" font-family="SanSerif" font-size="8.00">3.0.0</text>
</g>
<!-- javax.free:freejava&#45;io:3.0.0&#45;&gt;javax.free:freejava&#45;string:3.0.0 -->
<g id="edge40" class="edge"><title>javax.free:freejava&#45;io:3.0.0&#45;&gt;javax.free:freejava&#45;string:3.0.0</title>
<path fill="none" stroke="black" d="M260.092,-483.747C252.807,-466.009 241.906,-439.467 233.629,-419.315"/>
<polygon fill="black" stroke="black" points="236.841,-417.923 229.804,-410.002 230.366,-420.582 236.841,-417.923"/>
</g>
<!-- javax.free:freejava&#45;traits:3.0.0 -->
<g id="node18" class="node"><title>javax.free:freejava&#45;traits:3.0.0</title>
<polygon fill="white" stroke="black" points="378,-410 302,-410 302,-372 378,-372 378,-410"/>
<text text-anchor="middle" x="340" y="-398.8" font-family="SanSerif" font-size="8.00">javax.free</text>
<text text-anchor="middle" x="340" y="-388.8" font-family="SanSerif" font-size="8.00">freejava&#45;traits</text>
<text text-anchor="middle" x="340" y="-378.8" font-family="SanSerif" font-size="8.00">3.0.0</text>
</g>
<!-- javax.free:freejava&#45;io:3.0.0&#45;&gt;javax.free:freejava&#45;traits:3.0.0 -->
<g id="edge48" class="edge"><title>javax.free:freejava&#45;io:3.0.0&#45;&gt;javax.free:freejava&#45;traits:3.0.0</title>
<path fill="none" stroke="black" d="M280.377,-483.747C291.935,-465.768 309.309,-438.741 322.325,-418.494"/>
<polygon fill="black" stroke="black" points="325.321,-420.307 327.784,-410.002 319.433,-416.521 325.321,-420.307"/>
</g>
<!-- commons&#45;vfs:commons&#45;vfs:1.0 -->
<g id="node19" class="node"><title>commons&#45;vfs:commons&#45;vfs:1.0</title>
<polygon fill="white" stroke="black" points="92,-410 18,-410 18,-372 92,-372 92,-410"/>
<text text-anchor="middle" x="55" y="-398.8" font-family="SanSerif" font-size="8.00">commons&#45;vfs</text>
<text text-anchor="middle" x="55" y="-388.8" font-family="SanSerif" font-size="8.00">commons&#45;vfs</text>
<text text-anchor="middle" x="55" y="-378.8" font-family="SanSerif" font-size="8.00">1.0</text>
</g>
<!-- javax.free:freejava&#45;io:3.0.0&#45;&gt;commons&#45;vfs:commons&#45;vfs:1.0 -->
<g id="edge52" class="edge"><title>javax.free:freejava&#45;io:3.0.0&#45;&gt;commons&#45;vfs:commons&#45;vfs:1.0</title>
<path fill="none" stroke="black" d="M236.841,-499.234C199.94,-493.477 138.059,-479.617 95,-448 84.6745,-440.418 76.0438,-429.348 69.4739,-418.975"/>
<polygon fill="black" stroke="black" points="72.3498,-416.963 64.24,-410.145 66.328,-420.532 72.3498,-416.963"/>
</g>
<!-- javax.free:freejava&#45;primitive:3.0.0&#45;&gt;javax.free:freejava&#45;meta:3.0.0 -->
<g id="edge16" class="edge"><title>javax.free:freejava&#45;primitive:3.0.0&#45;&gt;javax.free:freejava&#45;meta:3.0.0</title>
<path fill="none" stroke="black" d="M245.977,-297.645C253.088,-287.538 261.085,-274.661 266,-262 267.83,-257.286 277.928,-197.664 284.12,-160.5"/>
<polygon fill="black" stroke="black" points="287.641,-160.664 285.828,-150.226 280.735,-159.516 287.641,-160.664"/>
</g>
<!-- javax.free:freejava&#45;sio:3.0.0&#45;&gt;javax.free:freejava&#45;bits:3.0.0 -->
<g id="edge28" class="edge"><title>javax.free:freejava&#45;sio:3.0.0&#45;&gt;javax.free:freejava&#45;bits:3.0.0</title>
<path fill="none" stroke="black" d="M128.326,-223.805C121.636,-212.398 112.501,-197.885 103,-186 95.0294,-176.029 85.4458,-165.922 76.5272,-157.14"/>
<polygon fill="black" stroke="black" points="78.8672,-154.534 69.2421,-150.106 74.0051,-159.57 78.8672,-154.534"/>
</g>
<!-- javax.free:freejava&#45;proxy&#45;api:3.0.0 -->
<g id="node15" class="node"><title>javax.free:freejava&#45;proxy&#45;api:3.0.0</title>
<polygon fill="white" stroke="black" points="179,-150 87,-150 87,-112 179,-112 179,-150"/>
<text text-anchor="middle" x="133" y="-138.8" font-family="SanSerif" font-size="8.00">javax.free</text>
<text text-anchor="middle" x="133" y="-128.8" font-family="SanSerif" font-size="8.00">freejava&#45;proxy&#45;api</text>
<text text-anchor="middle" x="133" y="-118.8" font-family="SanSerif" font-size="8.00">3.0.0</text>
</g>
<!-- javax.free:freejava&#45;sio:3.0.0&#45;&gt;javax.free:freejava&#45;proxy&#45;api:3.0.0 -->
<g id="edge30" class="edge"><title>javax.free:freejava&#45;sio:3.0.0&#45;&gt;javax.free:freejava&#45;proxy&#45;api:3.0.0</title>
<path fill="none" stroke="black" d="M137.969,-223.747C137.031,-206.251 135.635,-180.189 134.561,-160.143"/>
<polygon fill="black" stroke="black" points="138.048,-159.801 134.018,-150.002 131.058,-160.175 138.048,-159.801"/>
</g>
<!-- javax.free:freejava&#45;string:3.0.0&#45;&gt;javax.free:freejava&#45;c1:3.0.0 -->
<g id="edge38" class="edge"><title>javax.free:freejava&#45;string:3.0.0&#45;&gt;javax.free:freejava&#45;c1:3.0.0</title>
<path fill="none" stroke="black" d="M202.96,-371.912C194.481,-362.066 185.425,-349.339 181,-336 175.055,-318.078 182.201,-236.733 186,-224 202.327,-169.271 213.556,-156.784 249,-112 269.069,-86.6429 296.232,-62.0429 317.335,-44.519"/>
<polygon fill="black" stroke="black" points="319.578,-47.2057 325.098,-38.1625 315.143,-41.7896 319.578,-47.2057"/>
</g>
<!-- javax.free:freejava&#45;string:3.0.0&#45;&gt;javax.free:freejava&#45;sio:3.0.0 -->
<g id="edge36" class="edge"><title>javax.free:freejava&#45;string:3.0.0&#45;&gt;javax.free:freejava&#45;sio:3.0.0</title>
<path fill="none" stroke="black" d="M195.513,-371.922C183.973,-362.346 171.231,-349.841 163,-336 151.35,-316.41 145.298,-291.227 142.188,-272.007"/>
<polygon fill="black" stroke="black" points="145.639,-271.415 140.746,-262.017 138.711,-272.415 145.639,-271.415"/>
</g>
<!-- commons&#45;lang:commons&#45;lang:2.6 -->
<g id="node17" class="node"><title>commons&#45;lang:commons&#45;lang:2.6</title>
<polygon fill="white" stroke="black" points="266,-262 186,-262 186,-224 266,-224 266,-262"/>
<text text-anchor="middle" x="226" y="-250.8" font-family="SanSerif" font-size="8.00">commons&#45;lang</text>
<text text-anchor="middle" x="226" y="-240.8" font-family="SanSerif" font-size="8.00">commons&#45;lang</text>
<text text-anchor="middle" x="226" y="-230.8" font-family="SanSerif" font-size="8.00">2.6</text>
</g>
<!-- javax.free:freejava&#45;string:3.0.0&#45;&gt;commons&#45;lang:commons&#45;lang:2.6 -->
<g id="edge34" class="edge"><title>javax.free:freejava&#45;string:3.0.0&#45;&gt;commons&#45;lang:commons&#45;lang:2.6</title>
<path fill="none" stroke="black" d="M204.985,-371.859C197.272,-361.904 188.996,-349.099 185,-336 180.072,-319.846 179.683,-314.03 185,-298 188.319,-287.996 194.243,-278.336 200.574,-269.977"/>
<polygon fill="black" stroke="black" points="203.389,-272.063 206.96,-262.088 197.948,-267.659 203.389,-272.063"/>
</g>
<!-- javax.free:freejava&#45;traits:3.0.0&#45;&gt;javax.free:freejava&#45;lang:3.0.0 -->
<g id="edge44" class="edge"><title>javax.free:freejava&#45;traits:3.0.0&#45;&gt;javax.free:freejava&#45;lang:3.0.0</title>
<path fill="none" stroke="black" d="M360.545,-371.98C371.915,-361.42 386.28,-348.025 399,-336 422.647,-313.644 449.322,-288.041 468.705,-269.366"/>
<polygon fill="black" stroke="black" points="471.245,-271.779 476.015,-262.319 466.386,-266.74 471.245,-271.779"/>
</g>
<!-- javax.free:freejava&#45;traits:3.0.0&#45;&gt;javax.free:freejava&#45;jdk6compat:3.0.0 -->
<g id="edge46" class="edge"><title>javax.free:freejava&#45;traits:3.0.0&#45;&gt;javax.free:freejava&#45;jdk6compat:3.0.0</title>
<path fill="none" stroke="black" d="M347.176,-371.774C356.576,-346.574 373.563,-300.992 388,-262 394.249,-245.121 395.107,-240.626 402,-224 411.124,-201.993 422.471,-177.558 431.217,-159.26"/>
<polygon fill="black" stroke="black" points="434.472,-160.567 435.653,-150.038 428.164,-157.532 434.472,-160.567"/>
</g>
<!-- javax.free:freejava&#45;traits:3.0.0&#45;&gt;javax.free:freejava&#45;meta:3.0.0 -->
<g id="edge42" class="edge"><title>javax.free:freejava&#45;traits:3.0.0&#45;&gt;javax.free:freejava&#45;meta:3.0.0</title>
<path fill="none" stroke="black" d="M333.046,-371.614C324.369,-346.618 309.735,-301.643 302,-262 295.268,-227.498 291.933,-187.166 290.343,-160.465"/>
<polygon fill="black" stroke="black" points="293.825,-160.048 289.78,-150.255 286.836,-160.433 293.825,-160.048"/>
</g>
<!-- commons&#45;logging:commons&#45;logging:1.0.4 -->
<g id="node20" class="node"><title>commons&#45;logging:commons&#45;logging:1.0.4</title>
<polygon fill="white" stroke="black" points="92,-262 2.84217e-14,-262 7.10543e-15,-224 92,-224 92,-262"/>
<text text-anchor="middle" x="46" y="-250.8" font-family="SanSerif" font-size="8.00">commons&#45;logging</text>
<text text-anchor="middle" x="46" y="-240.8" font-family="SanSerif" font-size="8.00">commons&#45;logging</text>
<text text-anchor="middle" x="46" y="-230.8" font-family="SanSerif" font-size="8.00">1.0.4</text>
</g>
<!-- commons&#45;vfs:commons&#45;vfs:1.0&#45;&gt;commons&#45;logging:commons&#45;logging:1.0.4 -->
<g id="edge50" class="edge"><title>commons&#45;vfs:commons&#45;vfs:1.0&#45;&gt;commons&#45;logging:commons&#45;logging:1.0.4</title>
<path fill="none" stroke="black" d="M53.8418,-371.955C52.3112,-346.784 49.5988,-302.18 47.7999,-272.598"/>
<polygon fill="black" stroke="black" points="51.2829,-272.211 47.1823,-262.442 44.2958,-272.636 51.2829,-272.211"/>
</g>
<!-- com.bee32.plover:plover&#45;model:0.0.1&#45;SNAPSHOT&#45;&gt;javax.free:freejava&#45;traits:3.0.0 -->
<g id="edge74" class="edge"><title>com.bee32.plover:plover&#45;model:0.0.1&#45;SNAPSHOT&#45;&gt;javax.free:freejava&#45;traits:3.0.0</title>
<path fill="none" stroke="black" d="M383.659,-707.978C390.343,-658.387 406.513,-526.084 395,-484 388.449,-460.055 373.973,-436.013 361.515,-418.373"/>
<polygon fill="black" stroke="black" points="364.322,-416.281 355.606,-410.257 358.663,-420.401 364.322,-416.281"/>
</g>
<!-- com.bee32.plover:plover&#45;arch:0.0.4&#45;SNAPSHOT -->
<g id="node22" class="node"><title>com.bee32.plover:plover&#45;arch:0.0.4&#45;SNAPSHOT</title>
<polygon fill="white" stroke="black" points="395,-522 303,-522 303,-484 395,-484 395,-522"/>
<text text-anchor="middle" x="349" y="-510.8" font-family="SanSerif" font-size="8.00">com.bee32.plover</text>
<text text-anchor="middle" x="349" y="-500.8" font-family="SanSerif" font-size="8.00">plover&#45;arch</text>
<text text-anchor="middle" x="349" y="-490.8" font-family="SanSerif" font-size="8.00">0.0.4&#45;SNAPSHOT</text>
</g>
<!-- com.bee32.plover:plover&#45;model:0.0.1&#45;SNAPSHOT&#45;&gt;com.bee32.plover:plover&#45;arch:0.0.4&#45;SNAPSHOT -->
<g id="edge72" class="edge"><title>com.bee32.plover:plover&#45;model:0.0.1&#45;SNAPSHOT&#45;&gt;com.bee32.plover:plover&#45;arch:0.0.4&#45;SNAPSHOT</title>
<path fill="none" stroke="black" d="M378.272,-707.902C372.663,-668.64 359.807,-578.652 353.156,-532.094"/>
<polygon fill="black" stroke="black" points="356.601,-531.454 351.721,-522.05 349.671,-532.444 356.601,-531.454"/>
</g>
<!-- com.bee32.plover:plover&#45;inject:0.0.1&#45;SNAPSHOT -->
<g id="node26" class="node"><title>com.bee32.plover:plover&#45;inject:0.0.1&#45;SNAPSHOT</title>
<polygon fill="white" stroke="black" points="494,-634 402,-634 402,-596 494,-596 494,-634"/>
<text text-anchor="middle" x="448" y="-622.8" font-family="SanSerif" font-size="8.00">com.bee32.plover</text>
<text text-anchor="middle" x="448" y="-612.8" font-family="SanSerif" font-size="8.00">plover&#45;inject</text>
<text text-anchor="middle" x="448" y="-602.8" font-family="SanSerif" font-size="8.00">0.0.1&#45;SNAPSHOT</text>
</g>
<!-- com.bee32.plover:plover&#45;model:0.0.1&#45;SNAPSHOT&#45;&gt;com.bee32.plover:plover&#45;inject:0.0.1&#45;SNAPSHOT -->
<g id="edge80" class="edge"><title>com.bee32.plover:plover&#45;model:0.0.1&#45;SNAPSHOT&#45;&gt;com.bee32.plover:plover&#45;inject:0.0.1&#45;SNAPSHOT</title>
<path fill="none" stroke="black" d="M392.518,-707.747C403.225,-689.848 419.296,-662.983 431.389,-642.767"/>
<polygon fill="black" stroke="black" points="434.502,-644.381 436.633,-634.002 428.495,-640.787 434.502,-644.381"/>
</g>
<!-- com.bee32.plover:plover&#45;arch:0.0.4&#45;SNAPSHOT&#45;&gt;javax.free:freejava&#45;collection:3.0.0 -->
<g id="edge64" class="edge"><title>com.bee32.plover:plover&#45;arch:0.0.4&#45;SNAPSHOT&#45;&gt;javax.free:freejava&#45;collection:3.0.0</title>
<path fill="none" stroke="black" d="M375.13,-483.747C400.514,-465.042 439.189,-436.545 466.967,-416.077"/>
<polygon fill="black" stroke="black" points="469.237,-418.752 475.211,-410.002 465.084,-413.117 469.237,-418.752"/>
</g>
<!-- com.bee32.plover:plover&#45;arch:0.0.4&#45;SNAPSHOT&#45;&gt;javax.free:freejava&#45;closure:3.0.0 -->
<g id="edge58" class="edge"><title>com.bee32.plover:plover&#45;arch:0.0.4&#45;SNAPSHOT&#45;&gt;javax.free:freejava&#45;closure:3.0.0</title>
<path fill="none" stroke="black" d="M335.861,-483.732C324.359,-465.616 308.501,-437.276 302,-410 290.376,-361.228 312.362,-304.8 328.959,-271.605"/>
<polygon fill="black" stroke="black" points="332.191,-272.973 333.678,-262.483 325.974,-269.756 332.191,-272.973"/>
</g>
<!-- com.bee32.plover:plover&#45;arch:0.0.4&#45;SNAPSHOT&#45;&gt;javax.free:freejava&#45;string:3.0.0 -->
<g id="edge62" class="edge"><title>com.bee32.plover:plover&#45;arch:0.0.4&#45;SNAPSHOT&#45;&gt;javax.free:freejava&#45;string:3.0.0</title>
<path fill="none" stroke="black" d="M327.168,-483.747C306.233,-465.284 274.479,-437.28 251.34,-416.875"/>
<polygon fill="black" stroke="black" points="253.362,-413.991 243.547,-410.002 248.732,-419.242 253.362,-413.991"/>
</g>
<!-- com.bee32.plover:plover&#45;arch:0.0.4&#45;SNAPSHOT&#45;&gt;javax.free:freejava&#45;traits:3.0.0 -->
<g id="edge60" class="edge"><title>com.bee32.plover:plover&#45;arch:0.0.4&#45;SNAPSHOT&#45;&gt;javax.free:freejava&#45;traits:3.0.0</title>
<path fill="none" stroke="black" d="M347.453,-483.747C346.047,-466.251 343.953,-440.189 342.342,-420.143"/>
<polygon fill="black" stroke="black" points="345.817,-419.69 341.527,-410.002 338.839,-420.25 345.817,-419.69"/>
</g>
<!-- org.slf4j:slf4j&#45;log4j12:1.4.2 -->
<g id="node23" class="node"><title>org.slf4j:slf4j&#45;log4j12:1.4.2</title>
<polygon fill="white" stroke="black" points="450,-410 382,-410 382,-372 450,-372 450,-410"/>
<text text-anchor="middle" x="416" y="-398.8" font-family="SanSerif" font-size="8.00">org.slf4j</text>
<text text-anchor="middle" x="416" y="-388.8" font-family="SanSerif" font-size="8.00">slf4j&#45;log4j12</text>
<text text-anchor="middle" x="416" y="-378.8" font-family="SanSerif" font-size="8.00">1.4.2</text>
</g>
<!-- com.bee32.plover:plover&#45;arch:0.0.4&#45;SNAPSHOT&#45;&gt;org.slf4j:slf4j&#45;log4j12:1.4.2 -->
<g id="edge70" class="edge"><title>com.bee32.plover:plover&#45;arch:0.0.4&#45;SNAPSHOT&#45;&gt;org.slf4j:slf4j&#45;log4j12:1.4.2</title>
<path fill="none" stroke="black" d="M360.518,-483.747C371.225,-465.848 387.296,-438.983 399.389,-418.767"/>
<polygon fill="black" stroke="black" points="402.502,-420.381 404.633,-410.002 396.495,-416.787 402.502,-420.381"/>
</g>
<!-- org.slf4j:slf4j&#45;api:1.4.2 -->
<g id="node24" class="node"><title>org.slf4j:slf4j&#45;api:1.4.2</title>
<polygon fill="white" stroke="black" points="590,-262 536,-262 536,-224 590,-224 590,-262"/>
<text text-anchor="middle" x="563" y="-250.8" font-family="SanSerif" font-size="8.00">org.slf4j</text>
<text text-anchor="middle" x="563" y="-240.8" font-family="SanSerif" font-size="8.00">slf4j&#45;api</text>
<text text-anchor="middle" x="563" y="-230.8" font-family="SanSerif" font-size="8.00">1.4.2</text>
</g>
<!-- org.slf4j:slf4j&#45;log4j12:1.4.2&#45;&gt;org.slf4j:slf4j&#45;api:1.4.2 -->
<g id="edge66" class="edge"><title>org.slf4j:slf4j&#45;log4j12:1.4.2&#45;&gt;org.slf4j:slf4j&#45;api:1.4.2</title>
<path fill="none" stroke="black" d="M434.917,-371.955C460.795,-345.901 507.353,-299.026 536.639,-269.541"/>
<polygon fill="black" stroke="black" points="539.125,-272.004 543.689,-262.442 534.159,-267.071 539.125,-272.004"/>
</g>
<!-- log4j:log4j:1.2.13 -->
<g id="node25" class="node"><title>log4j:log4j:1.2.13</title>
<polygon fill="white" stroke="black" points="456,-262 402,-262 402,-224 456,-224 456,-262"/>
<text text-anchor="middle" x="429" y="-250.8" font-family="SanSerif" font-size="8.00">log4j</text>
<text text-anchor="middle" x="429" y="-240.8" font-family="SanSerif" font-size="8.00">log4j</text>
<text text-anchor="middle" x="429" y="-230.8" font-family="SanSerif" font-size="8.00">1.2.13</text>
</g>
<!-- org.slf4j:slf4j&#45;log4j12:1.4.2&#45;&gt;log4j:log4j:1.2.13 -->
<g id="edge68" class="edge"><title>org.slf4j:slf4j&#45;log4j12:1.4.2&#45;&gt;log4j:log4j:1.2.13</title>
<path fill="none" stroke="black" d="M417.673,-371.955C419.884,-346.784 423.802,-302.18 426.4,-272.598"/>
<polygon fill="black" stroke="black" points="429.904,-272.71 427.292,-262.442 422.931,-272.098 429.904,-272.71"/>
</g>
<!-- com.bee32.plover:plover&#45;inject:0.0.1&#45;SNAPSHOT&#45;&gt;javax.free:freejava&#45;collection:3.0.0 -->
<g id="edge76" class="edge"><title>com.bee32.plover:plover&#45;inject:0.0.1&#45;SNAPSHOT&#45;&gt;javax.free:freejava&#45;collection:3.0.0</title>
<path fill="none" stroke="black" d="M452.519,-595.902C461.828,-556.558 483.19,-466.273 494.185,-419.801"/>
<polygon fill="black" stroke="black" points="497.596,-420.587 496.493,-410.05 490.784,-418.975 497.596,-420.587"/>
</g>
<!-- com.bee32.plover:plover&#45;inject:0.0.1&#45;SNAPSHOT&#45;&gt;com.bee32.plover:plover&#45;arch:0.0.4&#45;SNAPSHOT -->
<g id="edge78" class="edge"><title>com.bee32.plover:plover&#45;inject:0.0.1&#45;SNAPSHOT&#45;&gt;com.bee32.plover:plover&#45;arch:0.0.4&#45;SNAPSHOT</title>
<path fill="none" stroke="black" d="M430.981,-595.747C414.875,-577.526 390.556,-550.012 372.584,-529.681"/>
<polygon fill="black" stroke="black" points="375.042,-527.177 365.797,-522.002 369.797,-531.813 375.042,-527.177"/>
</g>
</g>
</svg>
