<?xml version="1.0" encoding="UTF-8" standalone="no"?>
<!DOCTYPE svg PUBLIC "-//W3C//DTD SVG 1.1//EN"
 "http://www.w3.org/Graphics/SVG/1.1/DTD/svg11.dtd">
<!-- Generated by graphviz version 2.26.3 (20100126.1600)
 -->
<!-- Title: dependencies Pages: 1 -->
<svg width="813pt" height="1116pt"
 viewBox="0.00 0.00 813.00 1116.00" xmlns="http://www.w3.org/2000/svg" xmlns:xlink="http://www.w3.org/1999/xlink">
<g id="graph1" class="graph" transform="scale(1 1) rotate(0) translate(4 1112)">
<title>dependencies</title>
<polygon fill="white" stroke="white" points="-4,5 -4,-1112 810,-1112 810,5 -4,5"/>
<text text-anchor="middle" x="231.5" y="-1087.8" font-family="Serif" font-size="18.00">Dependency Graph for Plover :: Modeling :: View</text>
<!-- com.bee32.plover:plover&#45;view:0.0.1&#45;SNAPSHOT -->
<g id="node1" class="node"><title>com.bee32.plover:plover&#45;view:0.0.1&#45;SNAPSHOT</title>
<polygon fill="#dddddd" stroke="black" points="720,-1078 582,-1078 582,-1016 720,-1016 720,-1078"/>
<text text-anchor="middle" x="651" y="-1061.4" font-family="SanSerif" font-size="14.00">com.bee32.plover</text>
<text text-anchor="middle" x="651" y="-1043.4" font-family="SanSerif" font-size="14.00">plover&#45;view</text>
<text text-anchor="middle" x="651" y="-1025.4" font-family="SanSerif" font-size="14.00">0.0.1&#45;SNAPSHOT</text>
</g>
<!-- com.bee32.plover:plover&#45;commons:0.0.1&#45;SNAPSHOT -->
<g id="node2" class="node"><title>com.bee32.plover:plover&#45;commons:0.0.1&#45;SNAPSHOT</title>
<polygon fill="white" stroke="black" points="601,-934 509,-934 509,-896 601,-896 601,-934"/>
<text text-anchor="middle" x="555" y="-922.8" font-family="SanSerif" font-size="8.00">com.bee32.plover</text>
<text text-anchor="middle" x="555" y="-912.8" font-family="SanSerif" font-size="8.00">plover&#45;commons</text>
<text text-anchor="middle" x="555" y="-902.8" font-family="SanSerif" font-size="8.00">0.0.1&#45;SNAPSHOT</text>
</g>
<!-- com.bee32.plover:plover&#45;view:0.0.1&#45;SNAPSHOT&#45;&gt;com.bee32.plover:plover&#45;commons:0.0.1&#45;SNAPSHOT -->
<g id="edge64" class="edge"><title>com.bee32.plover:plover&#45;view:0.0.1&#45;SNAPSHOT&#45;&gt;com.bee32.plover:plover&#45;commons:0.0.1&#45;SNAPSHOT</title>
<path fill="none" stroke="black" d="M628.249,-1015.72C612.07,-993.472 590.541,-963.869 575.015,-942.52"/>
<polygon fill="black" stroke="black" points="577.681,-940.236 568.969,-934.207 572.02,-944.353 577.681,-940.236"/>
</g>
<!-- com.bee32.plover:plover&#45;model:0.0.1&#45;SNAPSHOT -->
<g id="node25" class="node"><title>com.bee32.plover:plover&#45;model:0.0.1&#45;SNAPSHOT</title>
<polygon fill="white" stroke="black" points="580,-710 488,-710 488,-672 580,-672 580,-710"/>
<text text-anchor="middle" x="534" y="-698.8" font-family="SanSerif" font-size="8.00">com.bee32.plover</text>
<text text-anchor="middle" x="534" y="-688.8" font-family="SanSerif" font-size="8.00">plover&#45;model</text>
<text text-anchor="middle" x="534" y="-678.8" font-family="SanSerif" font-size="8.00">0.0.1&#45;SNAPSHOT</text>
</g>
<!-- com.bee32.plover:plover&#45;view:0.0.1&#45;SNAPSHOT&#45;&gt;com.bee32.plover:plover&#45;model:0.0.1&#45;SNAPSHOT -->
<g id="edge94" class="edge"><title>com.bee32.plover:plover&#45;view:0.0.1&#45;SNAPSHOT&#45;&gt;com.bee32.plover:plover&#45;model:0.0.1&#45;SNAPSHOT</title>
<path fill="none" stroke="black" d="M675.397,-1015.98C712.802,-964.354 775.274,-859.088 728,-784 697.966,-736.295 635.916,-712.515 590.039,-701.031"/>
<polygon fill="black" stroke="black" points="590.759,-697.605 580.221,-698.697 589.14,-704.415 590.759,-697.605"/>
</g>
<!-- com.bee32.plover:plover&#45;servlet:0.0.1&#45;SNAPSHOT -->
<g id="node27" class="node"><title>com.bee32.plover:plover&#45;servlet:0.0.1&#45;SNAPSHOT</title>
<polygon fill="white" stroke="black" points="697,-934 605,-934 605,-896 697,-896 697,-934"/>
<text text-anchor="middle" x="651" y="-922.8" font-family="SanSerif" font-size="8.00">com.bee32.plover</text>
<text text-anchor="middle" x="651" y="-912.8" font-family="SanSerif" font-size="8.00">plover&#45;servlet</text>
<text text-anchor="middle" x="651" y="-902.8" font-family="SanSerif" font-size="8.00">0.0.1&#45;SNAPSHOT</text>
</g>
<!-- com.bee32.plover:plover&#45;view:0.0.1&#45;SNAPSHOT&#45;&gt;com.bee32.plover:plover&#45;servlet:0.0.1&#45;SNAPSHOT -->
<g id="edge74" class="edge"><title>com.bee32.plover:plover&#45;view:0.0.1&#45;SNAPSHOT&#45;&gt;com.bee32.plover:plover&#45;servlet:0.0.1&#45;SNAPSHOT</title>
<path fill="none" stroke="black" d="M651,-1015.72C651,-994.065 651,-965.442 651,-944.246"/>
<polygon fill="black" stroke="black" points="654.5,-944.207 651,-934.207 647.5,-944.207 654.5,-944.207"/>
</g>
<!-- junit:junit:4.8.2 -->
<g id="node32" class="node"><title>junit:junit:4.8.2</title>
<polygon fill="white" stroke="cornflowerblue" points="796,-934 742,-934 742,-896 796,-896 796,-934"/>
<text text-anchor="middle" x="769" y="-922.8" font-family="SanSerif" font-size="8.00" fill="cornflowerblue">junit</text>
<text text-anchor="middle" x="769" y="-912.8" font-family="SanSerif" font-size="8.00" fill="cornflowerblue">junit</text>
<text text-anchor="middle" x="769" y="-902.8" font-family="SanSerif" font-size="8.00" fill="cornflowerblue">4.8.2</text>
</g>
<!-- com.bee32.plover:plover&#45;view:0.0.1&#45;SNAPSHOT&#45;&gt;junit:junit:4.8.2 -->
<g id="edge96" class="edge"><title>com.bee32.plover:plover&#45;view:0.0.1&#45;SNAPSHOT&#45;&gt;junit:junit:4.8.2</title>
<path fill="none" stroke="cornflowerblue" d="M700.832,-1015.68C714.409,-1005.49 728.304,-993.329 739,-980 747.629,-969.246 754.413,-955.606 759.331,-943.601"/>
<polygon fill="cornflowerblue" stroke="cornflowerblue" points="762.7,-944.59 763.022,-934 756.167,-942.078 762.7,-944.59"/>
<text text-anchor="middle" x="754.5" y="-972.8" font-family="SanSerif" font-size="8.00" fill="cornflowerblue">test</text>
</g>
<!-- com.bee32.plover:plover&#45;arch:0.0.4&#45;SNAPSHOT -->
<g id="node3" class="node"><title>com.bee32.plover:plover&#45;arch:0.0.4&#45;SNAPSHOT</title>
<polygon fill="white" stroke="black" points="527,-486 435,-486 435,-448 527,-448 527,-486"/>
<text text-anchor="middle" x="481" y="-474.8" font-family="SanSerif" font-size="8.00">com.bee32.plover</text>
<text text-anchor="middle" x="481" y="-464.8" font-family="SanSerif" font-size="8.00">plover&#45;arch</text>
<text text-anchor="middle" x="481" y="-454.8" font-family="SanSerif" font-size="8.00">0.0.4&#45;SNAPSHOT</text>
</g>
<!-- com.bee32.plover:plover&#45;commons:0.0.1&#45;SNAPSHOT&#45;&gt;com.bee32.plover:plover&#45;arch:0.0.4&#45;SNAPSHOT -->
<g id="edge36" class="edge"><title>com.bee32.plover:plover&#45;commons:0.0.1&#45;SNAPSHOT&#45;&gt;com.bee32.plover:plover&#45;arch:0.0.4&#45;SNAPSHOT</title>
<path fill="none" stroke="black" d="M582.362,-895.663C607.211,-875.617 640,-841.812 640,-803 640,-803 640,-803 640,-579 640,-527.145 582.778,-497.199 536.989,-481.537"/>
<polygon fill="black" stroke="black" points="538.009,-478.188 527.417,-478.409 535.835,-484.842 538.009,-478.188"/>
</g>
<!-- com.bee32.plover:plover&#45;conf:0.0.1&#45;SNAPSHOT -->
<g id="node19" class="node"><title>com.bee32.plover:plover&#45;conf:0.0.1&#45;SNAPSHOT</title>
<polygon fill="white" stroke="black" points="527,-822 435,-822 435,-784 527,-784 527,-822"/>
<text text-anchor="middle" x="481" y="-810.8" font-family="SanSerif" font-size="8.00">com.bee32.plover</text>
<text text-anchor="middle" x="481" y="-800.8" font-family="SanSerif" font-size="8.00">plover&#45;conf</text>
<text text-anchor="middle" x="481" y="-790.8" font-family="SanSerif" font-size="8.00">0.0.1&#45;SNAPSHOT</text>
</g>
<!-- com.bee32.plover:plover&#45;commons:0.0.1&#45;SNAPSHOT&#45;&gt;com.bee32.plover:plover&#45;conf:0.0.1&#45;SNAPSHOT -->
<g id="edge58" class="edge"><title>com.bee32.plover:plover&#45;commons:0.0.1&#45;SNAPSHOT&#45;&gt;com.bee32.plover:plover&#45;conf:0.0.1&#45;SNAPSHOT</title>
<path fill="none" stroke="black" d="M542.279,-895.747C530.4,-877.768 512.543,-850.741 499.166,-830.494"/>
<polygon fill="black" stroke="black" points="501.988,-828.416 493.555,-822.002 496.147,-832.275 501.988,-828.416"/>
</g>
<!-- com.bee32.plover:plover&#45;commons:0.0.1&#45;SNAPSHOT&#45;&gt;com.bee32.plover:plover&#45;model:0.0.1&#45;SNAPSHOT -->
<g id="edge62" class="edge"><title>com.bee32.plover:plover&#45;commons:0.0.1&#45;SNAPSHOT&#45;&gt;com.bee32.plover:plover&#45;model:0.0.1&#45;SNAPSHOT</title>
<path fill="none" stroke="black" d="M551.564,-895.832C548.332,-877.076 543.611,-847.665 541,-822 537.454,-787.149 535.642,-746.888 534.761,-720.298"/>
<polygon fill="black" stroke="black" points="538.254,-720.023 534.447,-710.136 531.257,-720.239 538.254,-720.023"/>
</g>
<!-- com.bee32.plover:plover&#45;collections:0.0.4&#45;SNAPSHOT -->
<g id="node26" class="node"><title>com.bee32.plover:plover&#45;collections:0.0.4&#45;SNAPSHOT</title>
<polygon fill="white" stroke="black" points="633,-822 541,-822 541,-784 633,-784 633,-822"/>
<text text-anchor="middle" x="587" y="-810.8" font-family="SanSerif" font-size="8.00">com.bee32.plover</text>
<text text-anchor="middle" x="587" y="-800.8" font-family="SanSerif" font-size="8.00">plover&#45;collections</text>
<text text-anchor="middle" x="587" y="-790.8" font-family="SanSerif" font-size="8.00">0.0.4&#45;SNAPSHOT</text>
</g>
<!-- com.bee32.plover:plover&#45;commons:0.0.1&#45;SNAPSHOT&#45;&gt;com.bee32.plover:plover&#45;collections:0.0.4&#45;SNAPSHOT -->
<g id="edge60" class="edge"><title>com.bee32.plover:plover&#45;commons:0.0.1&#45;SNAPSHOT&#45;&gt;com.bee32.plover:plover&#45;collections:0.0.4&#45;SNAPSHOT</title>
<path fill="none" stroke="black" d="M560.501,-895.747C565.523,-878.171 573.015,-851.949 578.753,-831.866"/>
<polygon fill="black" stroke="black" points="582.189,-832.579 581.571,-822.002 575.458,-830.656 582.189,-832.579"/>
</g>
<!-- javax.free:freejava&#45;closure:3.0.0 -->
<g id="node4" class="node"><title>javax.free:freejava&#45;closure:3.0.0</title>
<polygon fill="white" stroke="black" points="446,-262 360,-262 360,-224 446,-224 446,-262"/>
<text text-anchor="middle" x="403" y="-250.8" font-family="SanSerif" font-size="8.00">javax.free</text>
<text text-anchor="middle" x="403" y="-240.8" font-family="SanSerif" font-size="8.00">freejava&#45;closure</text>
<text text-anchor="middle" x="403" y="-230.8" font-family="SanSerif" font-size="8.00">3.0.0</text>
</g>
<!-- com.bee32.plover:plover&#45;arch:0.0.4&#45;SNAPSHOT&#45;&gt;javax.free:freejava&#45;closure:3.0.0 -->
<g id="edge4" class="edge"><title>com.bee32.plover:plover&#45;arch:0.0.4&#45;SNAPSHOT&#45;&gt;javax.free:freejava&#45;closure:3.0.0</title>
<path fill="none" stroke="black" d="M466.14,-447.849C452.933,-429.815 434.186,-401.528 424,-374 411.58,-340.436 406.501,-299.358 404.426,-272.251"/>
<polygon fill="black" stroke="black" points="407.917,-271.986 403.749,-262.245 400.933,-272.458 407.917,-271.986"/>
</g>
<!-- javax.free:freejava&#45;traits:3.0.0 -->
<g id="node6" class="node"><title>javax.free:freejava&#45;traits:3.0.0</title>
<polygon fill="white" stroke="black" points="572,-374 496,-374 496,-336 572,-336 572,-374"/>
<text text-anchor="middle" x="534" y="-362.8" font-family="SanSerif" font-size="8.00">javax.free</text>
<text text-anchor="middle" x="534" y="-352.8" font-family="SanSerif" font-size="8.00">freejava&#45;traits</text>
<text text-anchor="middle" x="534" y="-342.8" font-family="SanSerif" font-size="8.00">3.0.0</text>
</g>
<!-- com.bee32.plover:plover&#45;arch:0.0.4&#45;SNAPSHOT&#45;&gt;javax.free:freejava&#45;traits:3.0.0 -->
<g id="edge6" class="edge"><title>com.bee32.plover:plover&#45;arch:0.0.4&#45;SNAPSHOT&#45;&gt;javax.free:freejava&#45;traits:3.0.0</title>
<path fill="none" stroke="black" d="M490.111,-447.747C498.504,-430.009 511.065,-403.467 520.601,-383.315"/>
<polygon fill="black" stroke="black" points="523.894,-384.538 525.008,-374.002 517.567,-381.544 523.894,-384.538"/>
</g>
<!-- javax.free:freejava&#45;string:3.0.0 -->
<g id="node7" class="node"><title>javax.free:freejava&#45;string:3.0.0</title>
<polygon fill="white" stroke="black" points="377,-374 299,-374 299,-336 377,-336 377,-374"/>
<text text-anchor="middle" x="338" y="-362.8" font-family="SanSerif" font-size="8.00">javax.free</text>
<text text-anchor="middle" x="338" y="-352.8" font-family="SanSerif" font-size="8.00">freejava&#45;string</text>
<text text-anchor="middle" x="338" y="-342.8" font-family="SanSerif" font-size="8.00">3.0.0</text>
</g>
<!-- com.bee32.plover:plover&#45;arch:0.0.4&#45;SNAPSHOT&#45;&gt;javax.free:freejava&#45;string:3.0.0 -->
<g id="edge18" class="edge"><title>com.bee32.plover:plover&#45;arch:0.0.4&#45;SNAPSHOT&#45;&gt;javax.free:freejava&#45;string:3.0.0</title>
<path fill="none" stroke="black" d="M456.417,-447.747C432.639,-429.123 396.465,-400.791 370.356,-380.342"/>
<polygon fill="black" stroke="black" points="372.293,-377.413 362.262,-374.002 367.976,-382.924 372.293,-377.413"/>
</g>
<!-- javax.free:freejava&#45;collection:3.0.0 -->
<g id="node13" class="node"><title>javax.free:freejava&#45;collection:3.0.0</title>
<polygon fill="white" stroke="black" points="670,-374 576,-374 576,-336 670,-336 670,-374"/>
<text text-anchor="middle" x="623" y="-362.8" font-family="SanSerif" font-size="8.00">javax.free</text>
<text text-anchor="middle" x="623" y="-352.8" font-family="SanSerif" font-size="8.00">freejava&#45;collection</text>
<text text-anchor="middle" x="623" y="-342.8" font-family="SanSerif" font-size="8.00">3.0.0</text>
</g>
<!-- com.bee32.plover:plover&#45;arch:0.0.4&#45;SNAPSHOT&#45;&gt;javax.free:freejava&#45;collection:3.0.0 -->
<g id="edge28" class="edge"><title>com.bee32.plover:plover&#45;arch:0.0.4&#45;SNAPSHOT&#45;&gt;javax.free:freejava&#45;collection:3.0.0</title>
<path fill="none" stroke="black" d="M505.411,-447.747C529.023,-429.123 564.944,-400.791 590.87,-380.342"/>
<polygon fill="black" stroke="black" points="593.224,-382.943 598.908,-374.002 588.889,-377.447 593.224,-382.943"/>
</g>
<!-- org.slf4j:slf4j&#45;log4j12:1.4.2 -->
<g id="node16" class="node"><title>org.slf4j:slf4j&#45;log4j12:1.4.2</title>
<polygon fill="white" stroke="black" points="492,-374 424,-374 424,-336 492,-336 492,-374"/>
<text text-anchor="middle" x="458" y="-362.8" font-family="SanSerif" font-size="8.00">org.slf4j</text>
<text text-anchor="middle" x="458" y="-352.8" font-family="SanSerif" font-size="8.00">slf4j&#45;log4j12</text>
<text text-anchor="middle" x="458" y="-342.8" font-family="SanSerif" font-size="8.00">1.4.2</text>
</g>
<!-- com.bee32.plover:plover&#45;arch:0.0.4&#45;SNAPSHOT&#45;&gt;org.slf4j:slf4j&#45;log4j12:1.4.2 -->
<g id="edge34" class="edge"><title>com.bee32.plover:plover&#45;arch:0.0.4&#45;SNAPSHOT&#45;&gt;org.slf4j:slf4j&#45;log4j12:1.4.2</title>
<path fill="none" stroke="black" d="M477.046,-447.747C473.437,-430.171 468.052,-403.949 463.928,-383.866"/>
<polygon fill="black" stroke="black" points="467.342,-383.094 461.902,-374.002 460.485,-384.502 467.342,-383.094"/>
</g>
<!-- javax.free:freejava&#45;meta:3.0.0 -->
<g id="node5" class="node"><title>javax.free:freejava&#45;meta:3.0.0</title>
<polygon fill="white" stroke="black" points="511,-150 435,-150 435,-112 511,-112 511,-150"/>
<text text-anchor="middle" x="473" y="-138.8" font-family="SanSerif" font-size="8.00">javax.free</text>
<text text-anchor="middle" x="473" y="-128.8" font-family="SanSerif" font-size="8.00">freejava&#45;meta</text>
<text text-anchor="middle" x="473" y="-118.8" font-family="SanSerif" font-size="8.00">3.0.0</text>
</g>
<!-- javax.free:freejava&#45;closure:3.0.0&#45;&gt;javax.free:freejava&#45;meta:3.0.0 -->
<g id="edge2" class="edge"><title>javax.free:freejava&#45;closure:3.0.0&#45;&gt;javax.free:freejava&#45;meta:3.0.0</title>
<path fill="none" stroke="black" d="M415.033,-223.747C426.27,-205.768 443.162,-178.741 455.816,-158.494"/>
<polygon fill="black" stroke="black" points="458.792,-160.337 461.124,-150.002 452.856,-156.627 458.792,-160.337"/>
</g>
<!-- javax.free:freejava&#45;c1:3.0.0 -->
<g id="node12" class="node"><title>javax.free:freejava&#45;c1:3.0.0</title>
<polygon fill="white" stroke="black" points="566,-38 502,-38 502,-7.10543e-15 566,-3.55271e-15 566,-38"/>
<text text-anchor="middle" x="534" y="-26.8" font-family="SanSerif" font-size="8.00">javax.free</text>
<text text-anchor="middle" x="534" y="-16.8" font-family="SanSerif" font-size="8.00">freejava&#45;c1</text>
<text text-anchor="middle" x="534" y="-6.8" font-family="SanSerif" font-size="8.00">3.0.0</text>
</g>
<!-- javax.free:freejava&#45;meta:3.0.0&#45;&gt;javax.free:freejava&#45;c1:3.0.0 -->
<g id="edge80" class="edge"><title>javax.free:freejava&#45;meta:3.0.0&#45;&gt;javax.free:freejava&#45;c1:3.0.0</title>
<path fill="none" stroke="black" d="M483.486,-111.747C493.191,-93.9288 507.734,-67.2253 518.728,-47.0406"/>
<polygon fill="black" stroke="black" points="521.941,-48.4583 523.651,-38.0022 515.794,-45.1101 521.941,-48.4583"/>
</g>
<!-- javax.free:freejava&#45;annotation:3.0.0 -->
<g id="node30" class="node"><title>javax.free:freejava&#45;annotation:3.0.0</title>
<polygon fill="white" stroke="black" points="498,-38 400,-38 400,-7.10543e-15 498,-3.55271e-15 498,-38"/>
<text text-anchor="middle" x="449" y="-26.8" font-family="SanSerif" font-size="8.00">javax.free</text>
<text text-anchor="middle" x="449" y="-16.8" font-family="SanSerif" font-size="8.00">freejava&#45;annotation</text>
<text text-anchor="middle" x="449" y="-6.8" font-family="SanSerif" font-size="8.00">3.0.0</text>
</g>
<!-- javax.free:freejava&#45;meta:3.0.0&#45;&gt;javax.free:freejava&#45;annotation:3.0.0 -->
<g id="edge78" class="edge"><title>javax.free:freejava&#45;meta:3.0.0&#45;&gt;javax.free:freejava&#45;annotation:3.0.0</title>
<path fill="none" stroke="black" d="M468.874,-111.747C465.108,-94.1707 459.489,-67.9487 455.186,-47.8662"/>
<polygon fill="black" stroke="black" points="458.59,-47.0469 453.072,-38.0022 451.745,-48.5137 458.59,-47.0469"/>
</g>
<!-- javax.free:freejava&#45;traits:3.0.0&#45;&gt;javax.free:freejava&#45;meta:3.0.0 -->
<g id="edge82" class="edge"><title>javax.free:freejava&#45;traits:3.0.0&#45;&gt;javax.free:freejava&#45;meta:3.0.0</title>
<path fill="none" stroke="black" d="M544.961,-335.745C558.295,-309.659 577.248,-261.986 562,-224 551.171,-197.022 528.369,-173.449 508.556,-156.786"/>
<polygon fill="black" stroke="black" points="510.545,-153.892 500.577,-150.301 506.13,-159.324 510.545,-153.892"/>
</g>
<!-- javax.free:freejava&#45;lang:3.0.0 -->
<g id="node15" class="node"><title>javax.free:freejava&#45;lang:3.0.0</title>
<polygon fill="white" stroke="black" points="659,-262 587,-262 587,-224 659,-224 659,-262"/>
<text text-anchor="middle" x="623" y="-250.8" font-family="SanSerif" font-size="8.00">javax.free</text>
<text text-anchor="middle" x="623" y="-240.8" font-family="SanSerif" font-size="8.00">freejava&#45;lang</text>
<text text-anchor="middle" x="623" y="-230.8" font-family="SanSerif" font-size="8.00">3.0.0</text>
</g>
<!-- javax.free:freejava&#45;traits:3.0.0&#45;&gt;javax.free:freejava&#45;lang:3.0.0 -->
<g id="edge86" class="edge"><title>javax.free:freejava&#45;traits:3.0.0&#45;&gt;javax.free:freejava&#45;lang:3.0.0</title>
<path fill="none" stroke="black" d="M552.494,-335.972C562.23,-325.635 574.157,-312.452 584,-300 591.344,-290.71 598.826,-280.104 605.247,-270.58"/>
<polygon fill="black" stroke="black" points="608.192,-272.473 610.811,-262.207 602.361,-268.599 608.192,-272.473"/>
</g>
<!-- javax.free:freejava&#45;jdk6compat:3.0.0 -->
<g id="node31" class="node"><title>javax.free:freejava&#45;jdk6compat:3.0.0</title>
<polygon fill="white" stroke="black" points="645,-150 543,-150 543,-112 645,-112 645,-150"/>
<text text-anchor="middle" x="594" y="-138.8" font-family="SanSerif" font-size="8.00">javax.free</text>
<text text-anchor="middle" x="594" y="-128.8" font-family="SanSerif" font-size="8.00">freejava&#45;jdk6compat</text>
<text text-anchor="middle" x="594" y="-118.8" font-family="SanSerif" font-size="8.00">3.0.0</text>
</g>
<!-- javax.free:freejava&#45;traits:3.0.0&#45;&gt;javax.free:freejava&#45;jdk6compat:3.0.0 -->
<g id="edge88" class="edge"><title>javax.free:freejava&#45;traits:3.0.0&#45;&gt;javax.free:freejava&#45;jdk6compat:3.0.0</title>
<path fill="none" stroke="black" d="M551.223,-335.762C559.179,-325.783 567.96,-312.986 573,-300 582.644,-275.151 589.12,-201.471 592.107,-160.071"/>
<polygon fill="black" stroke="black" points="595.602,-160.267 592.808,-150.047 588.619,-159.779 595.602,-160.267"/>
</g>
<!-- commons&#45;lang:commons&#45;lang:2.6 -->
<g id="node8" class="node"><title>commons&#45;lang:commons&#45;lang:2.6</title>
<polygon fill="white" stroke="black" points="346,-262 266,-262 266,-224 346,-224 346,-262"/>
<text text-anchor="middle" x="306" y="-250.8" font-family="SanSerif" font-size="8.00">commons&#45;lang</text>
<text text-anchor="middle" x="306" y="-240.8" font-family="SanSerif" font-size="8.00">commons&#45;lang</text>
<text text-anchor="middle" x="306" y="-230.8" font-family="SanSerif" font-size="8.00">2.6</text>
</g>
<!-- javax.free:freejava&#45;string:3.0.0&#45;&gt;commons&#45;lang:commons&#45;lang:2.6 -->
<g id="edge8" class="edge"><title>javax.free:freejava&#45;string:3.0.0&#45;&gt;commons&#45;lang:commons&#45;lang:2.6</title>
<path fill="none" stroke="black" d="M332.499,-335.747C327.477,-318.171 319.985,-291.949 314.247,-271.866"/>
<polygon fill="black" stroke="black" points="317.542,-270.656 311.429,-262.002 310.811,-272.579 317.542,-270.656"/>
</g>
<!-- javax.free:freejava&#45;sio:3.0.0 -->
<g id="node9" class="node"><title>javax.free:freejava&#45;sio:3.0.0</title>
<polygon fill="white" stroke="black" points="262,-262 196,-262 196,-224 262,-224 262,-262"/>
<text text-anchor="middle" x="229" y="-250.8" font-family="SanSerif" font-size="8.00">javax.free</text>
<text text-anchor="middle" x="229" y="-240.8" font-family="SanSerif" font-size="8.00">freejava&#45;sio</text>
<text text-anchor="middle" x="229" y="-230.8" font-family="SanSerif" font-size="8.00">3.0.0</text>
</g>
<!-- javax.free:freejava&#45;string:3.0.0&#45;&gt;javax.free:freejava&#45;sio:3.0.0 -->
<g id="edge14" class="edge"><title>javax.free:freejava&#45;string:3.0.0&#45;&gt;javax.free:freejava&#45;sio:3.0.0</title>
<path fill="none" stroke="black" d="M319.262,-335.747C301.451,-317.445 274.516,-289.769 254.704,-269.411"/>
<polygon fill="black" stroke="black" points="256.976,-266.728 247.493,-262.002 251.959,-271.61 256.976,-266.728"/>
</g>
<!-- javax.free:freejava&#45;string:3.0.0&#45;&gt;javax.free:freejava&#45;c1:3.0.0 -->
<g id="edge16" class="edge"><title>javax.free:freejava&#45;string:3.0.0&#45;&gt;javax.free:freejava&#45;c1:3.0.0</title>
<path fill="none" stroke="black" d="M338.78,-335.694C340.381,-309.55 345.247,-261.812 360,-224 389.668,-147.962 459.976,-80.164 501.571,-44.8193"/>
<polygon fill="black" stroke="black" points="504.068,-47.2941 509.487,-38.1903 499.573,-41.9274 504.068,-47.2941"/>
</g>
<!-- javax.free:freejava&#45;bits:3.0.0 -->
<g id="node10" class="node"><title>javax.free:freejava&#45;bits:3.0.0</title>
<polygon fill="white" stroke="black" points="264,-150 194,-150 194,-112 264,-112 264,-150"/>
<text text-anchor="middle" x="229" y="-138.8" font-family="SanSerif" font-size="8.00">javax.free</text>
<text text-anchor="middle" x="229" y="-128.8" font-family="SanSerif" font-size="8.00">freejava&#45;bits</text>
<text text-anchor="middle" x="229" y="-118.8" font-family="SanSerif" font-size="8.00">3.0.0</text>
</g>
<!-- javax.free:freejava&#45;sio:3.0.0&#45;&gt;javax.free:freejava&#45;bits:3.0.0 -->
<g id="edge10" class="edge"><title>javax.free:freejava&#45;sio:3.0.0&#45;&gt;javax.free:freejava&#45;bits:3.0.0</title>
<path fill="none" stroke="black" d="M229,-223.747C229,-206.251 229,-180.189 229,-160.143"/>
<polygon fill="black" stroke="black" points="232.5,-160.002 229,-150.002 225.5,-160.002 232.5,-160.002"/>
</g>
<!-- javax.free:freejava&#45;proxy&#45;api:3.0.0 -->
<g id="node11" class="node"><title>javax.free:freejava&#45;proxy&#45;api:3.0.0</title>
<polygon fill="white" stroke="black" points="188,-150 96,-150 96,-112 188,-112 188,-150"/>
<text text-anchor="middle" x="142" y="-138.8" font-family="SanSerif" font-size="8.00">javax.free</text>
<text text-anchor="middle" x="142" y="-128.8" font-family="SanSerif" font-size="8.00">freejava&#45;proxy&#45;api</text>
<text text-anchor="middle" x="142" y="-118.8" font-family="SanSerif" font-size="8.00">3.0.0</text>
</g>
<!-- javax.free:freejava&#45;sio:3.0.0&#45;&gt;javax.free:freejava&#45;proxy&#45;api:3.0.0 -->
<g id="edge12" class="edge"><title>javax.free:freejava&#45;sio:3.0.0&#45;&gt;javax.free:freejava&#45;proxy&#45;api:3.0.0</title>
<path fill="none" stroke="black" d="M214.044,-223.747C199.953,-205.606 178.708,-178.256 162.935,-157.951"/>
<polygon fill="black" stroke="black" points="165.659,-155.752 156.761,-150.002 160.131,-160.047 165.659,-155.752"/>
</g>
<!-- javax.free:freejava&#45;collection:3.0.0&#45;&gt;javax.free:freejava&#45;closure:3.0.0 -->
<g id="edge26" class="edge"><title>javax.free:freejava&#45;collection:3.0.0&#45;&gt;javax.free:freejava&#45;closure:3.0.0</title>
<path fill="none" stroke="black" d="M585.181,-335.747C547.569,-316.599 489.799,-287.188 449.426,-266.635"/>
<polygon fill="black" stroke="black" points="450.825,-263.42 440.326,-262.002 447.65,-269.658 450.825,-263.42"/>
</g>
<!-- javax.free:freejava&#45;collection:3.0.0&#45;&gt;javax.free:freejava&#45;c1:3.0.0 -->
<g id="edge22" class="edge"><title>javax.free:freejava&#45;collection:3.0.0&#45;&gt;javax.free:freejava&#45;c1:3.0.0</title>
<path fill="none" stroke="black" d="M632.918,-335.668C641.757,-317.276 654.041,-288.55 659,-262 666.744,-220.541 652.157,-121.565 647,-112 630.714,-81.7912 600.155,-57.5698 574.919,-41.4276"/>
<polygon fill="black" stroke="black" points="576.592,-38.3466 566.247,-36.0582 572.907,-44.2982 576.592,-38.3466"/>
</g>
<!-- net.sourceforge.collections:collections&#45;generic:4.01 -->
<g id="node14" class="node"><title>net.sourceforge.collections:collections&#45;generic:4.01</title>
<polygon fill="white" stroke="black" points="805,-262 673,-262 673,-224 805,-224 805,-262"/>
<text text-anchor="middle" x="739" y="-250.8" font-family="SanSerif" font-size="8.00">net.sourceforge.collections</text>
<text text-anchor="middle" x="739" y="-240.8" font-family="SanSerif" font-size="8.00">collections&#45;generic</text>
<text text-anchor="middle" x="739" y="-230.8" font-family="SanSerif" font-size="8.00">4.01</text>
</g>
<!-- javax.free:freejava&#45;collection:3.0.0&#45;&gt;net.sourceforge.collections:collections&#45;generic:4.01 -->
<g id="edge20" class="edge"><title>javax.free:freejava&#45;collection:3.0.0&#45;&gt;net.sourceforge.collections:collections&#45;generic:4.01</title>
<path fill="none" stroke="black" d="M642.941,-335.747C661.98,-317.364 690.814,-289.525 711.924,-269.143"/>
<polygon fill="black" stroke="black" points="714.556,-271.466 719.319,-262.002 709.694,-266.43 714.556,-271.466"/>
</g>
<!-- javax.free:freejava&#45;collection:3.0.0&#45;&gt;javax.free:freejava&#45;lang:3.0.0 -->
<g id="edge24" class="edge"><title>javax.free:freejava&#45;collection:3.0.0&#45;&gt;javax.free:freejava&#45;lang:3.0.0</title>
<path fill="none" stroke="black" d="M623,-335.747C623,-318.251 623,-292.189 623,-272.143"/>
<polygon fill="black" stroke="black" points="626.5,-272.002 623,-262.002 619.5,-272.002 626.5,-272.002"/>
</g>
<!-- javax.free:freejava&#45;lang:3.0.0&#45;&gt;javax.free:freejava&#45;jdk6compat:3.0.0 -->
<g id="edge84" class="edge"><title>javax.free:freejava&#45;lang:3.0.0&#45;&gt;javax.free:freejava&#45;jdk6compat:3.0.0</title>
<path fill="none" stroke="black" d="M618.015,-223.747C613.464,-206.171 606.674,-179.949 601.474,-159.866"/>
<polygon fill="black" stroke="black" points="604.815,-158.806 598.92,-150.002 598.039,-160.56 604.815,-158.806"/>
</g>
<!-- org.slf4j:slf4j&#45;api:1.4.2 -->
<g id="node17" class="node"><title>org.slf4j:slf4j&#45;api:1.4.2</title>
<polygon fill="white" stroke="black" points="504,-262 450,-262 450,-224 504,-224 504,-262"/>
<text text-anchor="middle" x="477" y="-250.8" font-family="SanSerif" font-size="8.00">org.slf4j</text>
<text text-anchor="middle" x="477" y="-240.8" font-family="SanSerif" font-size="8.00">slf4j&#45;api</text>
<text text-anchor="middle" x="477" y="-230.8" font-family="SanSerif" font-size="8.00">1.4.2</text>
</g>
<!-- org.slf4j:slf4j&#45;log4j12:1.4.2&#45;&gt;org.slf4j:slf4j&#45;api:1.4.2 -->
<g id="edge30" class="edge"><title>org.slf4j:slf4j&#45;log4j12:1.4.2&#45;&gt;org.slf4j:slf4j&#45;api:1.4.2</title>
<path fill="none" stroke="black" d="M461.266,-335.747C464.248,-318.171 468.696,-291.949 472.103,-271.866"/>
<polygon fill="black" stroke="black" points="475.554,-272.447 473.776,-262.002 468.653,-271.276 475.554,-272.447"/>
</g>
<!-- log4j:log4j:1.2.13 -->
<g id="node18" class="node"><title>log4j:log4j:1.2.13</title>
<polygon fill="white" stroke="black" points="562,-262 508,-262 508,-224 562,-224 562,-262"/>
<text text-anchor="middle" x="535" y="-250.8" font-family="SanSerif" font-size="8.00">log4j</text>
<text text-anchor="middle" x="535" y="-240.8" font-family="SanSerif" font-size="8.00">log4j</text>
<text text-anchor="middle" x="535" y="-230.8" font-family="SanSerif" font-size="8.00">1.2.13</text>
</g>
<!-- org.slf4j:slf4j&#45;log4j12:1.4.2&#45;&gt;log4j:log4j:1.2.13 -->
<g id="edge32" class="edge"><title>org.slf4j:slf4j&#45;log4j12:1.4.2&#45;&gt;log4j:log4j:1.2.13</title>
<path fill="none" stroke="black" d="M471.237,-335.747C483.597,-317.768 502.178,-290.741 516.098,-270.494"/>
<polygon fill="black" stroke="black" points="519.155,-272.226 521.936,-262.002 513.386,-268.26 519.155,-272.226"/>
</g>
<!-- com.bee32.plover:plover&#45;conf:0.0.1&#45;SNAPSHOT&#45;&gt;com.bee32.plover:plover&#45;arch:0.0.4&#45;SNAPSHOT -->
<g id="edge54" class="edge"><title>com.bee32.plover:plover&#45;conf:0.0.1&#45;SNAPSHOT&#45;&gt;com.bee32.plover:plover&#45;arch:0.0.4&#45;SNAPSHOT</title>
<path fill="none" stroke="black" d="M481,-783.972C481,-728.083 481,-564.11 481,-496.581"/>
<polygon fill="black" stroke="black" points="484.5,-496.235 481,-486.235 477.5,-496.235 484.5,-496.235"/>
</g>
<!-- javax.free:freejava&#45;context:3.0.0 -->
<g id="node20" class="node"><title>javax.free:freejava&#45;context:3.0.0</title>
<polygon fill="white" stroke="black" points="431,-486 347,-486 347,-448 431,-448 431,-486"/>
<text text-anchor="middle" x="389" y="-474.8" font-family="SanSerif" font-size="8.00">javax.free</text>
<text text-anchor="middle" x="389" y="-464.8" font-family="SanSerif" font-size="8.00">freejava&#45;context</text>
<text text-anchor="middle" x="389" y="-454.8" font-family="SanSerif" font-size="8.00">3.0.0</text>
</g>
<!-- com.bee32.plover:plover&#45;conf:0.0.1&#45;SNAPSHOT&#45;&gt;javax.free:freejava&#45;context:3.0.0 -->
<g id="edge52" class="edge"><title>com.bee32.plover:plover&#45;conf:0.0.1&#45;SNAPSHOT&#45;&gt;javax.free:freejava&#45;context:3.0.0</title>
<path fill="none" stroke="black" d="M475.79,-783.972C460.455,-727.968 415.404,-563.433 396.986,-496.165"/>
<polygon fill="black" stroke="black" points="400.284,-494.956 394.267,-486.235 393.532,-496.805 400.284,-494.956"/>
</g>
<!-- com.bee32.plover:plover&#45;conf:0.0.1&#45;SNAPSHOT&#45;&gt;com.bee32.plover:plover&#45;model:0.0.1&#45;SNAPSHOT -->
<g id="edge56" class="edge"><title>com.bee32.plover:plover&#45;conf:0.0.1&#45;SNAPSHOT&#45;&gt;com.bee32.plover:plover&#45;model:0.0.1&#45;SNAPSHOT</title>
<path fill="none" stroke="black" d="M490.111,-783.747C498.504,-766.009 511.065,-739.467 520.601,-719.315"/>
<polygon fill="black" stroke="black" points="523.894,-720.538 525.008,-710.002 517.567,-717.544 523.894,-720.538"/>
</g>
<!-- javax.free:freejava&#45;context:3.0.0&#45;&gt;javax.free:freejava&#45;closure:3.0.0 -->
<g id="edge46" class="edge"><title>javax.free:freejava&#45;context:3.0.0&#45;&gt;javax.free:freejava&#45;closure:3.0.0</title>
<path fill="none" stroke="black" d="M390.194,-447.902C392.647,-408.64 398.272,-318.652 401.182,-272.094"/>
<polygon fill="black" stroke="black" points="404.679,-272.249 401.809,-262.05 397.692,-271.812 404.679,-272.249"/>
</g>
<!-- javax.free:freejava&#45;context:3.0.0&#45;&gt;javax.free:freejava&#45;collection:3.0.0 -->
<g id="edge48" class="edge"><title>javax.free:freejava&#45;context:3.0.0&#45;&gt;javax.free:freejava&#45;collection:3.0.0</title>
<path fill="none" stroke="black" d="M428.96,-447.874C469.092,-428.666 530.992,-399.038 574.047,-378.43"/>
<polygon fill="black" stroke="black" points="575.696,-381.522 583.205,-374.047 572.674,-375.208 575.696,-381.522"/>
</g>
<!-- javax.free:freejava&#45;jvmhack:3.0.0 -->
<g id="node21" class="node"><title>javax.free:freejava&#45;jvmhack:3.0.0</title>
<polygon fill="white" stroke="black" points="295,-374 207,-374 207,-336 295,-336 295,-374"/>
<text text-anchor="middle" x="251" y="-362.8" font-family="SanSerif" font-size="8.00">javax.free</text>
<text text-anchor="middle" x="251" y="-352.8" font-family="SanSerif" font-size="8.00">freejava&#45;jvmhack</text>
<text text-anchor="middle" x="251" y="-342.8" font-family="SanSerif" font-size="8.00">3.0.0</text>
</g>
<!-- javax.free:freejava&#45;context:3.0.0&#45;&gt;javax.free:freejava&#45;jvmhack:3.0.0 -->
<g id="edge44" class="edge"><title>javax.free:freejava&#45;context:3.0.0&#45;&gt;javax.free:freejava&#45;jvmhack:3.0.0</title>
<path fill="none" stroke="black" d="M365.277,-447.747C342.33,-429.123 307.42,-400.791 282.225,-380.342"/>
<polygon fill="black" stroke="black" points="284.384,-377.586 274.413,-374.002 279.972,-383.022 284.384,-377.586"/>
</g>
<!-- javax.free:freejava&#45;sysinfo:3.0.0 -->
<g id="node24" class="node"><title>javax.free:freejava&#45;sysinfo:3.0.0</title>
<polygon fill="white" stroke="black" points="203,-374 119,-374 119,-336 203,-336 203,-374"/>
<text text-anchor="middle" x="161" y="-362.8" font-family="SanSerif" font-size="8.00">javax.free</text>
<text text-anchor="middle" x="161" y="-352.8" font-family="SanSerif" font-size="8.00">freejava&#45;sysinfo</text>
<text text-anchor="middle" x="161" y="-342.8" font-family="SanSerif" font-size="8.00">3.0.0</text>
</g>
<!-- javax.free:freejava&#45;context:3.0.0&#45;&gt;javax.free:freejava&#45;sysinfo:3.0.0 -->
<g id="edge50" class="edge"><title>javax.free:freejava&#45;context:3.0.0&#45;&gt;javax.free:freejava&#45;sysinfo:3.0.0</title>
<path fill="none" stroke="black" d="M350.064,-447.874C311.044,-428.706 250.902,-399.162 208.962,-378.56"/>
<polygon fill="black" stroke="black" points="210.294,-375.315 199.775,-374.047 207.207,-381.598 210.294,-375.315"/>
</g>
<!-- asm:asm:3.1 -->
<g id="node22" class="node"><title>asm:asm:3.1</title>
<polygon fill="white" stroke="black" points="54,-262 1.42109e-14,-262 3.55271e-15,-224 54,-224 54,-262"/>
<text text-anchor="middle" x="27" y="-250.8" font-family="SanSerif" font-size="8.00">asm</text>
<text text-anchor="middle" x="27" y="-240.8" font-family="SanSerif" font-size="8.00">asm</text>
<text text-anchor="middle" x="27" y="-230.8" font-family="SanSerif" font-size="8.00">3.1</text>
</g>
<!-- javax.free:freejava&#45;jvmhack:3.0.0&#45;&gt;asm:asm:3.1 -->
<g id="edge38" class="edge"><title>javax.free:freejava&#45;jvmhack:3.0.0&#45;&gt;asm:asm:3.1</title>
<path fill="none" stroke="black" d="M208.213,-335.888C170.847,-318.865 115.118,-292.672 63.2548,-264.791"/>
<polygon fill="black" stroke="black" points="64.7564,-261.623 54.2968,-259.936 61.4212,-267.778 64.7564,-261.623"/>
</g>
<!-- javax.free:freejava&#45;proxy&#45;java&#45;security:3.0.0 -->
<g id="node23" class="node"><title>javax.free:freejava&#45;proxy&#45;java&#45;security:3.0.0</title>
<polygon fill="white" stroke="black" points="192,-262 58,-262 58,-224 192,-224 192,-262"/>
<text text-anchor="middle" x="125" y="-250.8" font-family="SanSerif" font-size="8.00">javax.free</text>
<text text-anchor="middle" x="125" y="-240.8" font-family="SanSerif" font-size="8.00">freejava&#45;proxy&#45;java&#45;security</text>
<text text-anchor="middle" x="125" y="-230.8" font-family="SanSerif" font-size="8.00">3.0.0</text>
</g>
<!-- javax.free:freejava&#45;jvmhack:3.0.0&#45;&gt;javax.free:freejava&#45;proxy&#45;java&#45;security:3.0.0 -->
<g id="edge42" class="edge"><title>javax.free:freejava&#45;jvmhack:3.0.0&#45;&gt;javax.free:freejava&#45;proxy&#45;java&#45;security:3.0.0</title>
<path fill="none" stroke="black" d="M229.34,-335.747C208.569,-317.284 177.065,-289.28 154.109,-268.875"/>
<polygon fill="black" stroke="black" points="156.177,-266.03 146.378,-262.002 151.526,-271.262 156.177,-266.03"/>
</g>
<!-- javax.free:freejava&#45;proxy&#45;java&#45;security:3.0.0&#45;&gt;javax.free:freejava&#45;proxy&#45;api:3.0.0 -->
<g id="edge40" class="edge"><title>javax.free:freejava&#45;proxy&#45;java&#45;security:3.0.0&#45;&gt;javax.free:freejava&#45;proxy&#45;api:3.0.0</title>
<path fill="none" stroke="black" d="M127.922,-223.747C130.578,-206.251 134.534,-180.189 137.577,-160.143"/>
<polygon fill="black" stroke="black" points="141.075,-160.414 139.116,-150.002 134.155,-159.364 141.075,-160.414"/>
</g>
<!-- com.bee32.plover:plover&#45;model:0.0.1&#45;SNAPSHOT&#45;&gt;com.bee32.plover:plover&#45;arch:0.0.4&#45;SNAPSHOT -->
<g id="edge76" class="edge"><title>com.bee32.plover:plover&#45;model:0.0.1&#45;SNAPSHOT&#45;&gt;com.bee32.plover:plover&#45;arch:0.0.4&#45;SNAPSHOT</title>
<path fill="none" stroke="black" d="M529.481,-671.902C520.172,-632.558 498.81,-542.273 487.815,-495.801"/>
<polygon fill="black" stroke="black" points="491.216,-494.975 485.507,-486.05 484.404,-496.587 491.216,-494.975"/>
</g>
<!-- com.bee32.plover:plover&#45;model:0.0.1&#45;SNAPSHOT&#45;&gt;javax.free:freejava&#45;traits:3.0.0 -->
<g id="edge90" class="edge"><title>com.bee32.plover:plover&#45;model:0.0.1&#45;SNAPSHOT&#45;&gt;javax.free:freejava&#45;traits:3.0.0</title>
<path fill="none" stroke="black" d="M534,-671.972C534,-616.083 534,-452.11 534,-384.581"/>
<polygon fill="black" stroke="black" points="537.5,-384.235 534,-374.235 530.5,-384.235 537.5,-384.235"/>
</g>
<!-- com.bee32.plover:plover&#45;inject:0.0.1&#45;SNAPSHOT -->
<g id="node29" class="node"><title>com.bee32.plover:plover&#45;inject:0.0.1&#45;SNAPSHOT</title>
<polygon fill="white" stroke="black" points="633,-598 541,-598 541,-560 633,-560 633,-598"/>
<text text-anchor="middle" x="587" y="-586.8" font-family="SanSerif" font-size="8.00">com.bee32.plover</text>
<text text-anchor="middle" x="587" y="-576.8" font-family="SanSerif" font-size="8.00">plover&#45;inject</text>
<text text-anchor="middle" x="587" y="-566.8" font-family="SanSerif" font-size="8.00">0.0.1&#45;SNAPSHOT</text>
</g>
<!-- com.bee32.plover:plover&#45;model:0.0.1&#45;SNAPSHOT&#45;&gt;com.bee32.plover:plover&#45;inject:0.0.1&#45;SNAPSHOT -->
<g id="edge92" class="edge"><title>com.bee32.plover:plover&#45;model:0.0.1&#45;SNAPSHOT&#45;&gt;com.bee32.plover:plover&#45;inject:0.0.1&#45;SNAPSHOT</title>
<path fill="none" stroke="black" d="M543.111,-671.747C551.504,-654.009 564.065,-627.467 573.601,-607.315"/>
<polygon fill="black" stroke="black" points="576.894,-608.538 578.008,-598.002 570.567,-605.544 576.894,-608.538"/>
</g>
<!-- javax.servlet:servlet&#45;api:2.5 -->
<g id="node28" class="node"><title>javax.servlet:servlet&#45;api:2.5</title>
<polygon fill="white" stroke="black" points="728,-822 658,-822 658,-784 728,-784 728,-822"/>
<text text-anchor="middle" x="693" y="-810.8" font-family="SanSerif" font-size="8.00">javax.servlet</text>
<text text-anchor="middle" x="693" y="-800.8" font-family="SanSerif" font-size="8.00">servlet&#45;api</text>
<text text-anchor="middle" x="693" y="-790.8" font-family="SanSerif" font-size="8.00">2.5</text>
</g>
<!-- com.bee32.plover:plover&#45;servlet:0.0.1&#45;SNAPSHOT&#45;&gt;javax.servlet:servlet&#45;api:2.5 -->
<g id="edge66" class="edge"><title>com.bee32.plover:plover&#45;servlet:0.0.1&#45;SNAPSHOT&#45;&gt;javax.servlet:servlet&#45;api:2.5</title>
<path fill="none" stroke="black" d="M658.22,-895.747C664.841,-878.09 674.735,-851.708 682.279,-831.59"/>
<polygon fill="black" stroke="black" points="685.64,-832.594 685.874,-822.002 679.086,-830.137 685.64,-832.594"/>
</g>
<!-- com.bee32.plover:plover&#45;servlet:0.0.1&#45;SNAPSHOT&#45;&gt;com.bee32.plover:plover&#45;inject:0.0.1&#45;SNAPSHOT -->
<g id="edge72" class="edge"><title>com.bee32.plover:plover&#45;servlet:0.0.1&#45;SNAPSHOT&#45;&gt;com.bee32.plover:plover&#45;inject:0.0.1&#45;SNAPSHOT</title>
<path fill="none" stroke="black" d="M651.275,-895.768C651.346,-870.107 650.44,-823.333 644,-784 633.507,-719.915 610.547,-647.178 597.19,-607.889"/>
<polygon fill="black" stroke="black" points="600.416,-606.507 593.855,-598.188 593.796,-608.783 600.416,-606.507"/>
</g>
<!-- com.bee32.plover:plover&#45;inject:0.0.1&#45;SNAPSHOT&#45;&gt;com.bee32.plover:plover&#45;arch:0.0.4&#45;SNAPSHOT -->
<g id="edge70" class="edge"><title>com.bee32.plover:plover&#45;inject:0.0.1&#45;SNAPSHOT&#45;&gt;com.bee32.plover:plover&#45;arch:0.0.4&#45;SNAPSHOT</title>
<path fill="none" stroke="black" d="M568.778,-559.747C551.457,-541.445 525.263,-513.769 505.996,-493.411"/>
<polygon fill="black" stroke="black" points="508.4,-490.859 498.984,-486.002 503.316,-495.671 508.4,-490.859"/>
</g>
<!-- com.bee32.plover:plover&#45;inject:0.0.1&#45;SNAPSHOT&#45;&gt;javax.free:freejava&#45;collection:3.0.0 -->
<g id="edge68" class="edge"><title>com.bee32.plover:plover&#45;inject:0.0.1&#45;SNAPSHOT&#45;&gt;javax.free:freejava&#45;collection:3.0.0</title>
<path fill="none" stroke="black" d="M590.069,-559.902C596.379,-520.64 610.842,-430.652 618.324,-384.094"/>
<polygon fill="black" stroke="black" points="621.807,-384.478 619.938,-374.05 614.896,-383.368 621.807,-384.478"/>
</g>
</g>
</svg>
