<?xml version="1.0" encoding="UTF-8" standalone="no"?>
<!DOCTYPE svg PUBLIC "-//W3C//DTD SVG 1.1//EN"
 "http://www.w3.org/Graphics/SVG/1.1/DTD/svg11.dtd">
<!-- Generated by graphviz version 2.26.3 (20100126.1600)
 -->
<!-- Title: dependencies Pages: 1 -->
<svg width="671pt" height="780pt"
 viewBox="0.00 0.00 671.00 780.00" xmlns="http://www.w3.org/2000/svg" xmlns:xlink="http://www.w3.org/1999/xlink">
<g id="graph1" class="graph" transform="scale(1 1) rotate(0) translate(4 776)">
<title>dependencies</title>
<polygon fill="white" stroke="white" points="-4,5 -4,-776 668,-776 668,5 -4,5"/>
<text text-anchor="middle" x="245" y="-751.8" font-family="Serif" font-size="18.00">Dependency Graph for Plover :: Library :: Javascript</text>
<!-- com.bee32.plover:plover&#45;javascript:0.0.1&#45;SNAPSHOT -->
<g id="node1" class="node"><title>com.bee32.plover:plover&#45;javascript:0.0.1&#45;SNAPSHOT</title>
<polygon fill="#dddddd" stroke="black" points="408,-742 270,-742 270,-680 408,-680 408,-742"/>
<text text-anchor="middle" x="339" y="-725.4" font-family="SanSerif" font-size="14.00">com.bee32.plover</text>
<text text-anchor="middle" x="339" y="-707.4" font-family="SanSerif" font-size="14.00">plover&#45;javascript</text>
<text text-anchor="middle" x="339" y="-689.4" font-family="SanSerif" font-size="14.00">0.0.1&#45;SNAPSHOT</text>
</g>
<!-- com.bee32.plover:plover&#45;inject:0.0.1&#45;SNAPSHOT -->
<g id="node2" class="node"><title>com.bee32.plover:plover&#45;inject:0.0.1&#45;SNAPSHOT</title>
<polygon fill="white" stroke="black" points="385,-598 293,-598 293,-560 385,-560 385,-598"/>
<text text-anchor="middle" x="339" y="-586.8" font-family="SanSerif" font-size="8.00">com.bee32.plover</text>
<text text-anchor="middle" x="339" y="-576.8" font-family="SanSerif" font-size="8.00">plover&#45;inject</text>
<text text-anchor="middle" x="339" y="-566.8" font-family="SanSerif" font-size="8.00">0.0.1&#45;SNAPSHOT</text>
</g>
<!-- com.bee32.plover:plover&#45;javascript:0.0.1&#45;SNAPSHOT&#45;&gt;com.bee32.plover:plover&#45;inject:0.0.1&#45;SNAPSHOT -->
<g id="edge52" class="edge"><title>com.bee32.plover:plover&#45;javascript:0.0.1&#45;SNAPSHOT&#45;&gt;com.bee32.plover:plover&#45;inject:0.0.1&#45;SNAPSHOT</title>
<path fill="none" stroke="black" d="M339,-679.718C339,-658.065 339,-629.442 339,-608.246"/>
<polygon fill="black" stroke="black" points="342.5,-608.207 339,-598.207 335.5,-608.207 342.5,-608.207"/>
</g>
<!-- junit:junit:4.8.2 -->
<g id="node21" class="node"><title>junit:junit:4.8.2</title>
<polygon fill="white" stroke="cornflowerblue" points="443,-598 389,-598 389,-560 443,-560 443,-598"/>
<text text-anchor="middle" x="416" y="-586.8" font-family="SanSerif" font-size="8.00" fill="cornflowerblue">junit</text>
<text text-anchor="middle" x="416" y="-576.8" font-family="SanSerif" font-size="8.00" fill="cornflowerblue">junit</text>
<text text-anchor="middle" x="416" y="-566.8" font-family="SanSerif" font-size="8.00" fill="cornflowerblue">4.8.2</text>
</g>
<!-- com.bee32.plover:plover&#45;javascript:0.0.1&#45;SNAPSHOT&#45;&gt;junit:junit:4.8.2 -->
<g id="edge54" class="edge"><title>com.bee32.plover:plover&#45;javascript:0.0.1&#45;SNAPSHOT&#45;&gt;junit:junit:4.8.2</title>
<path fill="none" stroke="cornflowerblue" d="M357.248,-679.718C370.11,-657.669 387.187,-628.394 399.613,-607.092"/>
<polygon fill="cornflowerblue" stroke="cornflowerblue" points="402.78,-608.609 404.796,-598.207 396.734,-605.081 402.78,-608.609"/>
<text text-anchor="middle" x="391.5" y="-636.8" font-family="SanSerif" font-size="8.00" fill="cornflowerblue">test</text>
</g>
<!-- javax.free:freejava&#45;collection:3.0.0 -->
<g id="node3" class="node"><title>javax.free:freejava&#45;collection:3.0.0</title>
<polygon fill="white" stroke="black" points="333,-374 239,-374 239,-336 333,-336 333,-374"/>
<text text-anchor="middle" x="286" y="-362.8" font-family="SanSerif" font-size="8.00">javax.free</text>
<text text-anchor="middle" x="286" y="-352.8" font-family="SanSerif" font-size="8.00">freejava&#45;collection</text>
<text text-anchor="middle" x="286" y="-342.8" font-family="SanSerif" font-size="8.00">3.0.0</text>
</g>
<!-- com.bee32.plover:plover&#45;inject:0.0.1&#45;SNAPSHOT&#45;&gt;javax.free:freejava&#45;collection:3.0.0 -->
<g id="edge18" class="edge"><title>com.bee32.plover:plover&#45;inject:0.0.1&#45;SNAPSHOT&#45;&gt;javax.free:freejava&#45;collection:3.0.0</title>
<path fill="none" stroke="black" d="M326.688,-559.957C315.648,-541.77 300.125,-513.182 293,-486 284.067,-451.921 283.374,-411.196 284.224,-384.3"/>
<polygon fill="black" stroke="black" points="287.733,-384.159 284.646,-374.023 280.738,-383.871 287.733,-384.159"/>
</g>
<!-- com.bee32.plover:plover&#45;arch:0.0.4&#45;SNAPSHOT -->
<g id="node11" class="node"><title>com.bee32.plover:plover&#45;arch:0.0.4&#45;SNAPSHOT</title>
<polygon fill="white" stroke="black" points="385,-486 293,-486 293,-448 385,-448 385,-486"/>
<text text-anchor="middle" x="339" y="-474.8" font-family="SanSerif" font-size="8.00">com.bee32.plover</text>
<text text-anchor="middle" x="339" y="-464.8" font-family="SanSerif" font-size="8.00">plover&#45;arch</text>
<text text-anchor="middle" x="339" y="-454.8" font-family="SanSerif" font-size="8.00">0.0.4&#45;SNAPSHOT</text>
</g>
<!-- com.bee32.plover:plover&#45;inject:0.0.1&#45;SNAPSHOT&#45;&gt;com.bee32.plover:plover&#45;arch:0.0.4&#45;SNAPSHOT -->
<g id="edge50" class="edge"><title>com.bee32.plover:plover&#45;inject:0.0.1&#45;SNAPSHOT&#45;&gt;com.bee32.plover:plover&#45;arch:0.0.4&#45;SNAPSHOT</title>
<path fill="none" stroke="black" d="M339,-559.747C339,-542.251 339,-516.189 339,-496.143"/>
<polygon fill="black" stroke="black" points="342.5,-496.002 339,-486.002 335.5,-496.002 342.5,-496.002"/>
</g>
<!-- net.sourceforge.collections:collections&#45;generic:4.01 -->
<g id="node4" class="node"><title>net.sourceforge.collections:collections&#45;generic:4.01</title>
<polygon fill="white" stroke="black" points="293,-262 161,-262 161,-224 293,-224 293,-262"/>
<text text-anchor="middle" x="227" y="-250.8" font-family="SanSerif" font-size="8.00">net.sourceforge.collections</text>
<text text-anchor="middle" x="227" y="-240.8" font-family="SanSerif" font-size="8.00">collections&#45;generic</text>
<text text-anchor="middle" x="227" y="-230.8" font-family="SanSerif" font-size="8.00">4.01</text>
</g>
<!-- javax.free:freejava&#45;collection:3.0.0&#45;&gt;net.sourceforge.collections:collections&#45;generic:4.01 -->
<g id="edge2" class="edge"><title>javax.free:freejava&#45;collection:3.0.0&#45;&gt;net.sourceforge.collections:collections&#45;generic:4.01</title>
<path fill="none" stroke="black" d="M275.858,-335.747C266.471,-317.929 252.404,-291.225 241.771,-271.041"/>
<polygon fill="black" stroke="black" points="244.768,-269.218 237.01,-262.002 238.574,-272.481 244.768,-269.218"/>
</g>
<!-- javax.free:freejava&#45;c1:3.0.0 -->
<g id="node5" class="node"><title>javax.free:freejava&#45;c1:3.0.0</title>
<polygon fill="white" stroke="black" points="256,-38 192,-38 192,-7.10543e-15 256,-3.55271e-15 256,-38"/>
<text text-anchor="middle" x="224" y="-26.8" font-family="SanSerif" font-size="8.00">javax.free</text>
<text text-anchor="middle" x="224" y="-16.8" font-family="SanSerif" font-size="8.00">freejava&#45;c1</text>
<text text-anchor="middle" x="224" y="-6.8" font-family="SanSerif" font-size="8.00">3.0.0</text>
</g>
<!-- javax.free:freejava&#45;collection:3.0.0&#45;&gt;javax.free:freejava&#45;c1:3.0.0 -->
<g id="edge4" class="edge"><title>javax.free:freejava&#45;collection:3.0.0&#45;&gt;javax.free:freejava&#45;c1:3.0.0</title>
<path fill="none" stroke="black" d="M242.735,-335.863C213.791,-320.479 178,-295.838 161,-262 153.418,-246.909 158.492,-240.702 161,-224 163.651,-206.352 197.665,-100.162 214.58,-47.9469"/>
<polygon fill="black" stroke="black" points="217.964,-48.8577 217.72,-38.2657 211.305,-46.6977 217.964,-48.8577"/>
</g>
<!-- javax.free:freejava&#45;lang:3.0.0 -->
<g id="node6" class="node"><title>javax.free:freejava&#45;lang:3.0.0</title>
<polygon fill="white" stroke="black" points="137,-262 65,-262 65,-224 137,-224 137,-262"/>
<text text-anchor="middle" x="101" y="-250.8" font-family="SanSerif" font-size="8.00">javax.free</text>
<text text-anchor="middle" x="101" y="-240.8" font-family="SanSerif" font-size="8.00">freejava&#45;lang</text>
<text text-anchor="middle" x="101" y="-230.8" font-family="SanSerif" font-size="8.00">3.0.0</text>
</g>
<!-- javax.free:freejava&#45;collection:3.0.0&#45;&gt;javax.free:freejava&#45;lang:3.0.0 -->
<g id="edge8" class="edge"><title>javax.free:freejava&#45;collection:3.0.0&#45;&gt;javax.free:freejava&#45;lang:3.0.0</title>
<path fill="none" stroke="black" d="M238.926,-341.804C211.665,-332.755 177.594,-318.937 151,-300 139.578,-291.866 129.004,-280.632 120.55,-270.286"/>
<polygon fill="black" stroke="black" points="123.176,-267.963 114.25,-262.256 117.669,-272.284 123.176,-267.963"/>
</g>
<!-- javax.free:freejava&#45;closure:3.0.0 -->
<g id="node8" class="node"><title>javax.free:freejava&#45;closure:3.0.0</title>
<polygon fill="white" stroke="black" points="383,-262 297,-262 297,-224 383,-224 383,-262"/>
<text text-anchor="middle" x="340" y="-250.8" font-family="SanSerif" font-size="8.00">javax.free</text>
<text text-anchor="middle" x="340" y="-240.8" font-family="SanSerif" font-size="8.00">freejava&#45;closure</text>
<text text-anchor="middle" x="340" y="-230.8" font-family="SanSerif" font-size="8.00">3.0.0</text>
</g>
<!-- javax.free:freejava&#45;collection:3.0.0&#45;&gt;javax.free:freejava&#45;closure:3.0.0 -->
<g id="edge16" class="edge"><title>javax.free:freejava&#45;collection:3.0.0&#45;&gt;javax.free:freejava&#45;closure:3.0.0</title>
<path fill="none" stroke="black" d="M295.283,-335.747C303.874,-317.929 316.749,-291.225 326.48,-271.041"/>
<polygon fill="black" stroke="black" points="329.648,-272.53 330.838,-262.002 323.342,-269.49 329.648,-272.53"/>
</g>
<!-- javax.free:freejava&#45;jdk6compat:3.0.0 -->
<g id="node7" class="node"><title>javax.free:freejava&#45;jdk6compat:3.0.0</title>
<polygon fill="white" stroke="black" points="102,-150 2.79221e-14,-150 6.81399e-15,-112 102,-112 102,-150"/>
<text text-anchor="middle" x="51" y="-138.8" font-family="SanSerif" font-size="8.00">javax.free</text>
<text text-anchor="middle" x="51" y="-128.8" font-family="SanSerif" font-size="8.00">freejava&#45;jdk6compat</text>
<text text-anchor="middle" x="51" y="-118.8" font-family="SanSerif" font-size="8.00">3.0.0</text>
</g>
<!-- javax.free:freejava&#45;lang:3.0.0&#45;&gt;javax.free:freejava&#45;jdk6compat:3.0.0 -->
<g id="edge6" class="edge"><title>javax.free:freejava&#45;lang:3.0.0&#45;&gt;javax.free:freejava&#45;jdk6compat:3.0.0</title>
<path fill="none" stroke="black" d="M92.4047,-223.747C84.4864,-206.009 72.637,-179.467 63.6406,-159.315"/>
<polygon fill="black" stroke="black" points="66.7557,-157.707 59.4831,-150.002 60.3637,-160.56 66.7557,-157.707"/>
</g>
<!-- javax.free:freejava&#45;meta:3.0.0 -->
<g id="node9" class="node"><title>javax.free:freejava&#45;meta:3.0.0</title>
<polygon fill="white" stroke="black" points="182,-150 106,-150 106,-112 182,-112 182,-150"/>
<text text-anchor="middle" x="144" y="-138.8" font-family="SanSerif" font-size="8.00">javax.free</text>
<text text-anchor="middle" x="144" y="-128.8" font-family="SanSerif" font-size="8.00">freejava&#45;meta</text>
<text text-anchor="middle" x="144" y="-118.8" font-family="SanSerif" font-size="8.00">3.0.0</text>
</g>
<!-- javax.free:freejava&#45;closure:3.0.0&#45;&gt;javax.free:freejava&#45;meta:3.0.0 -->
<g id="edge14" class="edge"><title>javax.free:freejava&#45;closure:3.0.0&#45;&gt;javax.free:freejava&#45;meta:3.0.0</title>
<path fill="none" stroke="black" d="M306.306,-223.747C273.009,-204.72 221.979,-175.559 186.045,-155.025"/>
<polygon fill="black" stroke="black" points="187.673,-151.925 177.254,-150.002 184.2,-158.003 187.673,-151.925"/>
</g>
<!-- javax.free:freejava&#45;meta:3.0.0&#45;&gt;javax.free:freejava&#45;c1:3.0.0 -->
<g id="edge12" class="edge"><title>javax.free:freejava&#45;meta:3.0.0&#45;&gt;javax.free:freejava&#45;c1:3.0.0</title>
<path fill="none" stroke="black" d="M157.752,-111.747C170.652,-93.687 190.072,-66.4987 204.556,-46.2222"/>
<polygon fill="black" stroke="black" points="207.463,-48.1739 210.427,-38.0022 201.766,-44.1053 207.463,-48.1739"/>
</g>
<!-- javax.free:freejava&#45;annotation:3.0.0 -->
<g id="node10" class="node"><title>javax.free:freejava&#45;annotation:3.0.0</title>
<polygon fill="white" stroke="black" points="188,-38 90,-38 90,-7.10543e-15 188,-3.55271e-15 188,-38"/>
<text text-anchor="middle" x="139" y="-26.8" font-family="SanSerif" font-size="8.00">javax.free</text>
<text text-anchor="middle" x="139" y="-16.8" font-family="SanSerif" font-size="8.00">freejava&#45;annotation</text>
<text text-anchor="middle" x="139" y="-6.8" font-family="SanSerif" font-size="8.00">3.0.0</text>
</g>
<!-- javax.free:freejava&#45;meta:3.0.0&#45;&gt;javax.free:freejava&#45;annotation:3.0.0 -->
<g id="edge10" class="edge"><title>javax.free:freejava&#45;meta:3.0.0&#45;&gt;javax.free:freejava&#45;annotation:3.0.0</title>
<path fill="none" stroke="black" d="M143.14,-111.747C142.359,-94.2513 141.196,-68.1891 140.301,-48.1429"/>
<polygon fill="black" stroke="black" points="143.791,-47.8362 139.848,-38.0022 136.798,-48.1484 143.791,-47.8362"/>
</g>
<!-- com.bee32.plover:plover&#45;arch:0.0.4&#45;SNAPSHOT&#45;&gt;javax.free:freejava&#45;collection:3.0.0 -->
<g id="edge42" class="edge"><title>com.bee32.plover:plover&#45;arch:0.0.4&#45;SNAPSHOT&#45;&gt;javax.free:freejava&#45;collection:3.0.0</title>
<path fill="none" stroke="black" d="M329.889,-447.747C321.496,-430.009 308.935,-403.467 299.399,-383.315"/>
<polygon fill="black" stroke="black" points="302.433,-381.544 294.992,-374.002 296.106,-384.538 302.433,-381.544"/>
</g>
<!-- com.bee32.plover:plover&#45;arch:0.0.4&#45;SNAPSHOT&#45;&gt;javax.free:freejava&#45;closure:3.0.0 -->
<g id="edge20" class="edge"><title>com.bee32.plover:plover&#45;arch:0.0.4&#45;SNAPSHOT&#45;&gt;javax.free:freejava&#45;closure:3.0.0</title>
<path fill="none" stroke="black" d="M339.085,-447.902C339.261,-408.64 339.662,-318.652 339.87,-272.094"/>
<polygon fill="black" stroke="black" points="343.37,-272.065 339.915,-262.05 336.37,-272.034 343.37,-272.065"/>
</g>
<!-- javax.free:freejava&#45;traits:3.0.0 -->
<g id="node12" class="node"><title>javax.free:freejava&#45;traits:3.0.0</title>
<polygon fill="white" stroke="black" points="182,-374 106,-374 106,-336 182,-336 182,-374"/>
<text text-anchor="middle" x="144" y="-362.8" font-family="SanSerif" font-size="8.00">javax.free</text>
<text text-anchor="middle" x="144" y="-352.8" font-family="SanSerif" font-size="8.00">freejava&#45;traits</text>
<text text-anchor="middle" x="144" y="-342.8" font-family="SanSerif" font-size="8.00">3.0.0</text>
</g>
<!-- com.bee32.plover:plover&#45;arch:0.0.4&#45;SNAPSHOT&#45;&gt;javax.free:freejava&#45;traits:3.0.0 -->
<g id="edge28" class="edge"><title>com.bee32.plover:plover&#45;arch:0.0.4&#45;SNAPSHOT&#45;&gt;javax.free:freejava&#45;traits:3.0.0</title>
<path fill="none" stroke="black" d="M305.478,-447.747C272.351,-428.72 221.581,-399.559 185.83,-379.025"/>
<polygon fill="black" stroke="black" points="187.499,-375.948 177.084,-374.002 184.013,-382.018 187.499,-375.948"/>
</g>
<!-- javax.free:freejava&#45;string:3.0.0 -->
<g id="node13" class="node"><title>javax.free:freejava&#45;string:3.0.0</title>
<polygon fill="white" stroke="black" points="447,-374 369,-374 369,-336 447,-336 447,-374"/>
<text text-anchor="middle" x="408" y="-362.8" font-family="SanSerif" font-size="8.00">javax.free</text>
<text text-anchor="middle" x="408" y="-352.8" font-family="SanSerif" font-size="8.00">freejava&#45;string</text>
<text text-anchor="middle" x="408" y="-342.8" font-family="SanSerif" font-size="8.00">3.0.0</text>
</g>
<!-- com.bee32.plover:plover&#45;arch:0.0.4&#45;SNAPSHOT&#45;&gt;javax.free:freejava&#45;string:3.0.0 -->
<g id="edge40" class="edge"><title>com.bee32.plover:plover&#45;arch:0.0.4&#45;SNAPSHOT&#45;&gt;javax.free:freejava&#45;string:3.0.0</title>
<path fill="none" stroke="black" d="M350.862,-447.747C361.888,-429.848 378.439,-402.983 390.894,-382.767"/>
<polygon fill="black" stroke="black" points="394.028,-384.352 396.293,-374.002 388.068,-380.68 394.028,-384.352"/>
</g>
<!-- org.slf4j:slf4j&#45;log4j12:1.4.2 -->
<g id="node18" class="node"><title>org.slf4j:slf4j&#45;log4j12:1.4.2</title>
<polygon fill="white" stroke="black" points="519,-374 451,-374 451,-336 519,-336 519,-374"/>
<text text-anchor="middle" x="485" y="-362.8" font-family="SanSerif" font-size="8.00">org.slf4j</text>
<text text-anchor="middle" x="485" y="-352.8" font-family="SanSerif" font-size="8.00">slf4j&#45;log4j12</text>
<text text-anchor="middle" x="485" y="-342.8" font-family="SanSerif" font-size="8.00">1.4.2</text>
</g>
<!-- com.bee32.plover:plover&#45;arch:0.0.4&#45;SNAPSHOT&#45;&gt;org.slf4j:slf4j&#45;log4j12:1.4.2 -->
<g id="edge48" class="edge"><title>com.bee32.plover:plover&#45;arch:0.0.4&#45;SNAPSHOT&#45;&gt;org.slf4j:slf4j&#45;log4j12:1.4.2</title>
<path fill="none" stroke="black" d="M364.098,-447.747C388.376,-429.123 425.309,-400.791 451.965,-380.342"/>
<polygon fill="black" stroke="black" points="454.425,-382.866 460.229,-374.002 450.165,-377.312 454.425,-382.866"/>
</g>
<!-- javax.free:freejava&#45;traits:3.0.0&#45;&gt;javax.free:freejava&#45;lang:3.0.0 -->
<g id="edge24" class="edge"><title>javax.free:freejava&#45;traits:3.0.0&#45;&gt;javax.free:freejava&#45;lang:3.0.0</title>
<path fill="none" stroke="black" d="M136.608,-335.747C129.829,-318.09 119.7,-291.708 111.977,-271.59"/>
<polygon fill="black" stroke="black" points="115.147,-270.083 108.296,-262.002 108.612,-272.592 115.147,-270.083"/>
</g>
<!-- javax.free:freejava&#45;traits:3.0.0&#45;&gt;javax.free:freejava&#45;jdk6compat:3.0.0 -->
<g id="edge26" class="edge"><title>javax.free:freejava&#45;traits:3.0.0&#45;&gt;javax.free:freejava&#45;jdk6compat:3.0.0</title>
<path fill="none" stroke="black" d="M120.712,-335.902C101.605,-318.743 75.7077,-291.729 63,-262 48.9734,-229.186 47.5992,-187.624 48.6576,-160.218"/>
<polygon fill="black" stroke="black" points="52.1593,-160.275 49.1838,-150.107 45.1688,-159.911 52.1593,-160.275"/>
</g>
<!-- javax.free:freejava&#45;traits:3.0.0&#45;&gt;javax.free:freejava&#45;meta:3.0.0 -->
<g id="edge22" class="edge"><title>javax.free:freejava&#45;traits:3.0.0&#45;&gt;javax.free:freejava&#45;meta:3.0.0</title>
<path fill="none" stroke="black" d="M144,-335.902C144,-296.64 144,-206.652 144,-160.094"/>
<polygon fill="black" stroke="black" points="147.5,-160.05 144,-150.05 140.5,-160.05 147.5,-160.05"/>
</g>
<!-- javax.free:freejava&#45;string:3.0.0&#45;&gt;javax.free:freejava&#45;c1:3.0.0 -->
<g id="edge38" class="edge"><title>javax.free:freejava&#45;string:3.0.0&#45;&gt;javax.free:freejava&#45;c1:3.0.0</title>
<path fill="none" stroke="black" d="M441.063,-335.975C475.726,-315.248 526.59,-282.337 537,-262 552.188,-232.328 556.933,-138.717 537,-112 504.355,-68.2447 343.662,-37.687 266.074,-25.2354"/>
<polygon fill="black" stroke="black" points="266.568,-21.7702 256.145,-23.6682 265.477,-28.6846 266.568,-21.7702"/>
</g>
<!-- commons&#45;lang:commons&#45;lang:2.6 -->
<g id="node14" class="node"><title>commons&#45;lang:commons&#45;lang:2.6</title>
<polygon fill="white" stroke="black" points="467,-262 387,-262 387,-224 467,-224 467,-262"/>
<text text-anchor="middle" x="427" y="-250.8" font-family="SanSerif" font-size="8.00">commons&#45;lang</text>
<text text-anchor="middle" x="427" y="-240.8" font-family="SanSerif" font-size="8.00">commons&#45;lang</text>
<text text-anchor="middle" x="427" y="-230.8" font-family="SanSerif" font-size="8.00">2.6</text>
</g>
<!-- javax.free:freejava&#45;string:3.0.0&#45;&gt;commons&#45;lang:commons&#45;lang:2.6 -->
<g id="edge30" class="edge"><title>javax.free:freejava&#45;string:3.0.0&#45;&gt;commons&#45;lang:commons&#45;lang:2.6</title>
<path fill="none" stroke="black" d="M411.266,-335.747C414.248,-318.171 418.696,-291.949 422.103,-271.866"/>
<polygon fill="black" stroke="black" points="425.554,-272.447 423.776,-262.002 418.653,-271.276 425.554,-272.447"/>
</g>
<!-- javax.free:freejava&#45;sio:3.0.0 -->
<g id="node15" class="node"><title>javax.free:freejava&#45;sio:3.0.0</title>
<polygon fill="white" stroke="black" points="537,-262 471,-262 471,-224 537,-224 537,-262"/>
<text text-anchor="middle" x="504" y="-250.8" font-family="SanSerif" font-size="8.00">javax.free</text>
<text text-anchor="middle" x="504" y="-240.8" font-family="SanSerif" font-size="8.00">freejava&#45;sio</text>
<text text-anchor="middle" x="504" y="-230.8" font-family="SanSerif" font-size="8.00">3.0.0</text>
</g>
<!-- javax.free:freejava&#45;string:3.0.0&#45;&gt;javax.free:freejava&#45;sio:3.0.0 -->
<g id="edge36" class="edge"><title>javax.free:freejava&#45;string:3.0.0&#45;&gt;javax.free:freejava&#45;sio:3.0.0</title>
<path fill="none" stroke="black" d="M424.503,-335.747C440.121,-317.526 463.704,-290.012 481.131,-269.681"/>
<polygon fill="black" stroke="black" points="483.862,-271.873 487.712,-262.002 478.547,-267.317 483.862,-271.873"/>
</g>
<!-- javax.free:freejava&#45;bits:3.0.0 -->
<g id="node16" class="node"><title>javax.free:freejava&#45;bits:3.0.0</title>
<polygon fill="white" stroke="black" points="537,-150 467,-150 467,-112 537,-112 537,-150"/>
<text text-anchor="middle" x="502" y="-138.8" font-family="SanSerif" font-size="8.00">javax.free</text>
<text text-anchor="middle" x="502" y="-128.8" font-family="SanSerif" font-size="8.00">freejava&#45;bits</text>
<text text-anchor="middle" x="502" y="-118.8" font-family="SanSerif" font-size="8.00">3.0.0</text>
</g>
<!-- javax.free:freejava&#45;sio:3.0.0&#45;&gt;javax.free:freejava&#45;bits:3.0.0 -->
<g id="edge32" class="edge"><title>javax.free:freejava&#45;sio:3.0.0&#45;&gt;javax.free:freejava&#45;bits:3.0.0</title>
<path fill="none" stroke="black" d="M503.656,-223.747C503.344,-206.251 502.878,-180.189 502.52,-160.143"/>
<polygon fill="black" stroke="black" points="506.017,-159.938 502.339,-150.002 499.019,-160.063 506.017,-159.938"/>
</g>
<!-- javax.free:freejava&#45;proxy&#45;api:3.0.0 -->
<g id="node17" class="node"><title>javax.free:freejava&#45;proxy&#45;api:3.0.0</title>
<polygon fill="white" stroke="black" points="463,-150 371,-150 371,-112 463,-112 463,-150"/>
<text text-anchor="middle" x="417" y="-138.8" font-family="SanSerif" font-size="8.00">javax.free</text>
<text text-anchor="middle" x="417" y="-128.8" font-family="SanSerif" font-size="8.00">freejava&#45;proxy&#45;api</text>
<text text-anchor="middle" x="417" y="-118.8" font-family="SanSerif" font-size="8.00">3.0.0</text>
</g>
<!-- javax.free:freejava&#45;sio:3.0.0&#45;&gt;javax.free:freejava&#45;proxy&#45;api:3.0.0 -->
<g id="edge34" class="edge"><title>javax.free:freejava&#45;sio:3.0.0&#45;&gt;javax.free:freejava&#45;proxy&#45;api:3.0.0</title>
<path fill="none" stroke="black" d="M489.044,-223.747C474.953,-205.606 453.708,-178.256 437.935,-157.951"/>
<polygon fill="black" stroke="black" points="440.659,-155.752 431.761,-150.002 435.131,-160.047 440.659,-155.752"/>
</g>
<!-- org.slf4j:slf4j&#45;api:1.4.2 -->
<g id="node19" class="node"><title>org.slf4j:slf4j&#45;api:1.4.2</title>
<polygon fill="white" stroke="black" points="663,-262 609,-262 609,-224 663,-224 663,-262"/>
<text text-anchor="middle" x="636" y="-250.8" font-family="SanSerif" font-size="8.00">org.slf4j</text>
<text text-anchor="middle" x="636" y="-240.8" font-family="SanSerif" font-size="8.00">slf4j&#45;api</text>
<text text-anchor="middle" x="636" y="-230.8" font-family="SanSerif" font-size="8.00">1.4.2</text>
</g>
<!-- org.slf4j:slf4j&#45;log4j12:1.4.2&#45;&gt;org.slf4j:slf4j&#45;api:1.4.2 -->
<g id="edge44" class="edge"><title>org.slf4j:slf4j&#45;log4j12:1.4.2&#45;&gt;org.slf4j:slf4j&#45;api:1.4.2</title>
<path fill="none" stroke="black" d="M510.958,-335.747C536.176,-317.042 574.596,-288.545 602.191,-268.077"/>
<polygon fill="black" stroke="black" points="604.434,-270.771 610.381,-262.002 600.264,-265.149 604.434,-270.771"/>
</g>
<!-- log4j:log4j:1.2.13 -->
<g id="node20" class="node"><title>log4j:log4j:1.2.13</title>
<polygon fill="white" stroke="black" points="605,-262 551,-262 551,-224 605,-224 605,-262"/>
<text text-anchor="middle" x="578" y="-250.8" font-family="SanSerif" font-size="8.00">log4j</text>
<text text-anchor="middle" x="578" y="-240.8" font-family="SanSerif" font-size="8.00">log4j</text>
<text text-anchor="middle" x="578" y="-230.8" font-family="SanSerif" font-size="8.00">1.2.13</text>
</g>
<!-- org.slf4j:slf4j&#45;log4j12:1.4.2&#45;&gt;log4j:log4j:1.2.13 -->
<g id="edge46" class="edge"><title>org.slf4j:slf4j&#45;log4j12:1.4.2&#45;&gt;log4j:log4j:1.2.13</title>
<path fill="none" stroke="black" d="M511.235,-335.752C523.403,-325.962 537.467,-313.328 548,-300 554.864,-291.314 560.906,-280.822 565.735,-271.219"/>
<polygon fill="black" stroke="black" points="568.981,-272.544 570.145,-262.013 562.668,-269.519 568.981,-272.544"/>
</g>
</g>
</svg>
