<?xml version="1.0" encoding="UTF-8" standalone="no"?>
<!DOCTYPE svg PUBLIC "-//W3C//DTD SVG 1.1//EN"
 "http://www.w3.org/Graphics/SVG/1.1/DTD/svg11.dtd">
<!-- Generated by graphviz version 2.26.3 (20100126.1600)
 -->
<!-- Title: dependencies Pages: 1 -->
<svg width="697pt" height="556pt"
 viewBox="0.00 0.00 697.00 556.00" xmlns="http://www.w3.org/2000/svg" xmlns:xlink="http://www.w3.org/1999/xlink">
<g id="graph1" class="graph" transform="scale(1 1) rotate(0) translate(4 552)">
<title>dependencies</title>
<polygon fill="white" stroke="white" points="-4,5 -4,-552 694,-552 694,5 -4,5"/>
<text text-anchor="middle" x="223" y="-527.8" font-family="Serif" font-size="18.00">Dependency Graph for Plover :: Core :: Criteria</text>
<!-- com.bee32.plover:plover&#45;criteria:0.0.1&#45;SNAPSHOT -->
<g id="node1" class="node"><title>com.bee32.plover:plover&#45;criteria:0.0.1&#45;SNAPSHOT</title>
<polygon fill="#dddddd" stroke="black" points="399,-518 261,-518 261,-456 399,-456 399,-518"/>
<text text-anchor="middle" x="330" y="-501.4" font-family="SanSerif" font-size="14.00">com.bee32.plover</text>
<text text-anchor="middle" x="330" y="-483.4" font-family="SanSerif" font-size="14.00">plover&#45;criteria</text>
<text text-anchor="middle" x="330" y="-465.4" font-family="SanSerif" font-size="14.00">0.0.1&#45;SNAPSHOT</text>
</g>
<!-- javax.persistence:persistence&#45;api:1.0 -->
<g id="node2" class="node"><title>javax.persistence:persistence&#45;api:1.0</title>
<polygon fill="white" stroke="black" points="287,-374 195,-374 195,-336 287,-336 287,-374"/>
<text text-anchor="middle" x="241" y="-362.8" font-family="SanSerif" font-size="8.00">javax.persistence</text>
<text text-anchor="middle" x="241" y="-352.8" font-family="SanSerif" font-size="8.00">persistence&#45;api</text>
<text text-anchor="middle" x="241" y="-342.8" font-family="SanSerif" font-size="8.00">1.0</text>
</g>
<!-- com.bee32.plover:plover&#45;criteria:0.0.1&#45;SNAPSHOT&#45;&gt;javax.persistence:persistence&#45;api:1.0 -->
<g id="edge2" class="edge"><title>com.bee32.plover:plover&#45;criteria:0.0.1&#45;SNAPSHOT&#45;&gt;javax.persistence:persistence&#45;api:1.0</title>
<path fill="none" stroke="black" d="M308.908,-455.718C293.909,-433.472 273.949,-403.869 259.555,-382.52"/>
<polygon fill="black" stroke="black" points="262.443,-380.542 253.95,-374.207 256.639,-384.455 262.443,-380.542"/>
</g>
<!-- org.hibernate:hibernate&#45;core:3.3.2.GA -->
<g id="node3" class="node"><title>org.hibernate:hibernate&#45;core:3.3.2.GA</title>
<polygon fill="white" stroke="black" points="369,-374 291,-374 291,-336 369,-336 369,-374"/>
<text text-anchor="middle" x="330" y="-362.8" font-family="SanSerif" font-size="8.00">org.hibernate</text>
<text text-anchor="middle" x="330" y="-352.8" font-family="SanSerif" font-size="8.00">hibernate&#45;core</text>
<text text-anchor="middle" x="330" y="-342.8" font-family="SanSerif" font-size="8.00">3.3.2.GA</text>
</g>
<!-- com.bee32.plover:plover&#45;criteria:0.0.1&#45;SNAPSHOT&#45;&gt;org.hibernate:hibernate&#45;core:3.3.2.GA -->
<g id="edge16" class="edge"><title>com.bee32.plover:plover&#45;criteria:0.0.1&#45;SNAPSHOT&#45;&gt;org.hibernate:hibernate&#45;core:3.3.2.GA</title>
<path fill="none" stroke="black" d="M330,-455.718C330,-434.065 330,-405.442 330,-384.246"/>
<polygon fill="black" stroke="black" points="333.5,-384.207 330,-374.207 326.5,-384.207 333.5,-384.207"/>
</g>
<!-- com.bee32.plover:plover&#45;expr:0.0.1&#45;SNAPSHOT -->
<g id="node10" class="node"><title>com.bee32.plover:plover&#45;expr:0.0.1&#45;SNAPSHOT</title>
<polygon fill="white" stroke="black" points="465,-374 373,-374 373,-336 465,-336 465,-374"/>
<text text-anchor="middle" x="419" y="-362.8" font-family="SanSerif" font-size="8.00">com.bee32.plover</text>
<text text-anchor="middle" x="419" y="-352.8" font-family="SanSerif" font-size="8.00">plover&#45;expr</text>
<text text-anchor="middle" x="419" y="-342.8" font-family="SanSerif" font-size="8.00">0.0.1&#45;SNAPSHOT</text>
</g>
<!-- com.bee32.plover:plover&#45;criteria:0.0.1&#45;SNAPSHOT&#45;&gt;com.bee32.plover:plover&#45;expr:0.0.1&#45;SNAPSHOT -->
<g id="edge38" class="edge"><title>com.bee32.plover:plover&#45;criteria:0.0.1&#45;SNAPSHOT&#45;&gt;com.bee32.plover:plover&#45;expr:0.0.1&#45;SNAPSHOT</title>
<path fill="none" stroke="black" d="M351.092,-455.718C366.091,-433.472 386.051,-403.869 400.445,-382.52"/>
<polygon fill="black" stroke="black" points="403.361,-384.455 406.05,-374.207 397.557,-380.542 403.361,-384.455"/>
</g>
<!-- junit:junit:4.8.2 -->
<g id="node20" class="node"><title>junit:junit:4.8.2</title>
<polygon fill="white" stroke="cornflowerblue" points="523,-374 469,-374 469,-336 523,-336 523,-374"/>
<text text-anchor="middle" x="496" y="-362.8" font-family="SanSerif" font-size="8.00" fill="cornflowerblue">junit</text>
<text text-anchor="middle" x="496" y="-352.8" font-family="SanSerif" font-size="8.00" fill="cornflowerblue">junit</text>
<text text-anchor="middle" x="496" y="-342.8" font-family="SanSerif" font-size="8.00" fill="cornflowerblue">4.8.2</text>
</g>
<!-- com.bee32.plover:plover&#45;criteria:0.0.1&#45;SNAPSHOT&#45;&gt;junit:junit:4.8.2 -->
<g id="edge40" class="edge"><title>com.bee32.plover:plover&#45;criteria:0.0.1&#45;SNAPSHOT&#45;&gt;junit:junit:4.8.2</title>
<path fill="none" stroke="cornflowerblue" d="M369.34,-455.718C398.186,-432.78 436.869,-402.02 463.866,-380.552"/>
<polygon fill="cornflowerblue" stroke="cornflowerblue" points="466.197,-383.171 471.846,-374.207 461.84,-377.692 466.197,-383.171"/>
<text text-anchor="middle" x="431.5" y="-412.8" font-family="SanSerif" font-size="8.00" fill="cornflowerblue">test</text>
</g>
<!-- antlr:antlr:2.7.6 -->
<g id="node4" class="node"><title>antlr:antlr:2.7.6</title>
<polygon fill="white" stroke="black" points="54,-262 1.42109e-14,-262 3.55271e-15,-224 54,-224 54,-262"/>
<text text-anchor="middle" x="27" y="-250.8" font-family="SanSerif" font-size="8.00">antlr</text>
<text text-anchor="middle" x="27" y="-240.8" font-family="SanSerif" font-size="8.00">antlr</text>
<text text-anchor="middle" x="27" y="-230.8" font-family="SanSerif" font-size="8.00">2.7.6</text>
</g>
<!-- org.hibernate:hibernate&#45;core:3.3.2.GA&#45;&gt;antlr:antlr:2.7.6 -->
<g id="edge4" class="edge"><title>org.hibernate:hibernate&#45;core:3.3.2.GA&#45;&gt;antlr:antlr:2.7.6</title>
<path fill="none" stroke="black" d="M290.7,-337.44C289.456,-336.947 288.22,-336.465 287,-336 190.183,-299.081 157.229,-306.2 63.4588,-264.354"/>
<polygon fill="black" stroke="black" points="64.7429,-261.093 54.1903,-260.148 61.8504,-267.468 64.7429,-261.093"/>
</g>
<!-- commons&#45;collections:commons&#45;collections:3.1 -->
<g id="node5" class="node"><title>commons&#45;collections:commons&#45;collections:3.1</title>
<polygon fill="white" stroke="black" points="164,-262 58,-262 58,-224 164,-224 164,-262"/>
<text text-anchor="middle" x="111" y="-250.8" font-family="SanSerif" font-size="8.00">commons&#45;collections</text>
<text text-anchor="middle" x="111" y="-240.8" font-family="SanSerif" font-size="8.00">commons&#45;collections</text>
<text text-anchor="middle" x="111" y="-230.8" font-family="SanSerif" font-size="8.00">3.1</text>
</g>
<!-- org.hibernate:hibernate&#45;core:3.3.2.GA&#45;&gt;commons&#45;collections:commons&#45;collections:3.1 -->
<g id="edge6" class="edge"><title>org.hibernate:hibernate&#45;core:3.3.2.GA&#45;&gt;commons&#45;collections:commons&#45;collections:3.1</title>
<path fill="none" stroke="black" d="M292.353,-335.747C254.911,-316.599 197.404,-287.188 157.215,-266.635"/>
<polygon fill="black" stroke="black" points="158.653,-263.439 148.156,-262.002 155.466,-269.672 158.653,-263.439"/>
</g>
<!-- dom4j:dom4j:1.6.1 -->
<g id="node6" class="node"><title>dom4j:dom4j:1.6.1</title>
<polygon fill="white" stroke="black" points="222,-262 168,-262 168,-224 222,-224 222,-262"/>
<text text-anchor="middle" x="195" y="-250.8" font-family="SanSerif" font-size="8.00">dom4j</text>
<text text-anchor="middle" x="195" y="-240.8" font-family="SanSerif" font-size="8.00">dom4j</text>
<text text-anchor="middle" x="195" y="-230.8" font-family="SanSerif" font-size="8.00">1.6.1</text>
</g>
<!-- org.hibernate:hibernate&#45;core:3.3.2.GA&#45;&gt;dom4j:dom4j:1.6.1 -->
<g id="edge10" class="edge"><title>org.hibernate:hibernate&#45;core:3.3.2.GA&#45;&gt;dom4j:dom4j:1.6.1</title>
<path fill="none" stroke="black" d="M306.793,-335.747C284.441,-317.203 250.489,-289.036 225.867,-268.608"/>
<polygon fill="black" stroke="black" points="227.835,-265.694 217.904,-262.002 223.366,-271.081 227.835,-265.694"/>
</g>
<!-- javax.transaction:jta:1.1 -->
<g id="node8" class="node"><title>javax.transaction:jta:1.1</title>
<polygon fill="white" stroke="black" points="314,-262 226,-262 226,-224 314,-224 314,-262"/>
<text text-anchor="middle" x="270" y="-250.8" font-family="SanSerif" font-size="8.00">javax.transaction</text>
<text text-anchor="middle" x="270" y="-240.8" font-family="SanSerif" font-size="8.00">jta</text>
<text text-anchor="middle" x="270" y="-230.8" font-family="SanSerif" font-size="8.00">1.1</text>
</g>
<!-- org.hibernate:hibernate&#45;core:3.3.2.GA&#45;&gt;javax.transaction:jta:1.1 -->
<g id="edge12" class="edge"><title>org.hibernate:hibernate&#45;core:3.3.2.GA&#45;&gt;javax.transaction:jta:1.1</title>
<path fill="none" stroke="black" d="M319.686,-335.747C310.14,-317.929 295.835,-291.225 285.022,-271.041"/>
<polygon fill="black" stroke="black" points="287.987,-269.164 280.18,-262.002 281.817,-272.47 287.987,-269.164"/>
</g>
<!-- org.slf4j:slf4j&#45;api:1.5.8 -->
<g id="node9" class="node"><title>org.slf4j:slf4j&#45;api:1.5.8</title>
<polygon fill="white" stroke="black" points="372,-262 318,-262 318,-224 372,-224 372,-262"/>
<text text-anchor="middle" x="345" y="-250.8" font-family="SanSerif" font-size="8.00">org.slf4j</text>
<text text-anchor="middle" x="345" y="-240.8" font-family="SanSerif" font-size="8.00">slf4j&#45;api</text>
<text text-anchor="middle" x="345" y="-230.8" font-family="SanSerif" font-size="8.00">1.5.8</text>
</g>
<!-- org.hibernate:hibernate&#45;core:3.3.2.GA&#45;&gt;org.slf4j:slf4j&#45;api:1.5.8 -->
<g id="edge14" class="edge"><title>org.hibernate:hibernate&#45;core:3.3.2.GA&#45;&gt;org.slf4j:slf4j&#45;api:1.5.8</title>
<path fill="none" stroke="black" d="M332.579,-335.747C334.922,-318.251 338.412,-292.189 341.097,-272.143"/>
<polygon fill="black" stroke="black" points="344.597,-272.378 342.455,-262.002 337.659,-271.449 344.597,-272.378"/>
</g>
<!-- xml&#45;apis:xml&#45;apis:1.0.b2 -->
<g id="node7" class="node"><title>xml&#45;apis:xml&#45;apis:1.0.b2</title>
<polygon fill="white" stroke="black" points="222,-150 168,-150 168,-112 222,-112 222,-150"/>
<text text-anchor="middle" x="195" y="-138.8" font-family="SanSerif" font-size="8.00">xml&#45;apis</text>
<text text-anchor="middle" x="195" y="-128.8" font-family="SanSerif" font-size="8.00">xml&#45;apis</text>
<text text-anchor="middle" x="195" y="-118.8" font-family="SanSerif" font-size="8.00">1.0.b2</text>
</g>
<!-- dom4j:dom4j:1.6.1&#45;&gt;xml&#45;apis:xml&#45;apis:1.0.b2 -->
<g id="edge8" class="edge"><title>dom4j:dom4j:1.6.1&#45;&gt;xml&#45;apis:xml&#45;apis:1.0.b2</title>
<path fill="none" stroke="black" d="M195,-223.747C195,-206.251 195,-180.189 195,-160.143"/>
<polygon fill="black" stroke="black" points="198.5,-160.002 195,-150.002 191.5,-160.002 198.5,-160.002"/>
</g>
<!-- javax.free:freejava&#45;closure:3.0.0 -->
<g id="node11" class="node"><title>javax.free:freejava&#45;closure:3.0.0</title>
<polygon fill="white" stroke="black" points="462,-262 376,-262 376,-224 462,-224 462,-262"/>
<text text-anchor="middle" x="419" y="-250.8" font-family="SanSerif" font-size="8.00">javax.free</text>
<text text-anchor="middle" x="419" y="-240.8" font-family="SanSerif" font-size="8.00">freejava&#45;closure</text>
<text text-anchor="middle" x="419" y="-230.8" font-family="SanSerif" font-size="8.00">3.0.0</text>
</g>
<!-- com.bee32.plover:plover&#45;expr:0.0.1&#45;SNAPSHOT&#45;&gt;javax.free:freejava&#45;closure:3.0.0 -->
<g id="edge24" class="edge"><title>com.bee32.plover:plover&#45;expr:0.0.1&#45;SNAPSHOT&#45;&gt;javax.free:freejava&#45;closure:3.0.0</title>
<path fill="none" stroke="black" d="M419,-335.747C419,-318.251 419,-292.189 419,-272.143"/>
<polygon fill="black" stroke="black" points="422.5,-272.002 419,-262.002 415.5,-272.002 422.5,-272.002"/>
</g>
<!-- javax.free:freejava&#45;string:3.0.0 -->
<g id="node15" class="node"><title>javax.free:freejava&#45;string:3.0.0</title>
<polygon fill="white" stroke="black" points="544,-262 466,-262 466,-224 544,-224 544,-262"/>
<text text-anchor="middle" x="505" y="-250.8" font-family="SanSerif" font-size="8.00">javax.free</text>
<text text-anchor="middle" x="505" y="-240.8" font-family="SanSerif" font-size="8.00">freejava&#45;string</text>
<text text-anchor="middle" x="505" y="-230.8" font-family="SanSerif" font-size="8.00">3.0.0</text>
</g>
<!-- com.bee32.plover:plover&#45;expr:0.0.1&#45;SNAPSHOT&#45;&gt;javax.free:freejava&#45;string:3.0.0 -->
<g id="edge36" class="edge"><title>com.bee32.plover:plover&#45;expr:0.0.1&#45;SNAPSHOT&#45;&gt;javax.free:freejava&#45;string:3.0.0</title>
<path fill="none" stroke="black" d="M433.784,-335.747C447.713,-317.606 468.714,-290.256 484.305,-269.951"/>
<polygon fill="black" stroke="black" points="487.095,-272.065 490.409,-262.002 481.543,-267.802 487.095,-272.065"/>
</g>
<!-- javax.free:freejava&#45;meta:3.0.0 -->
<g id="node12" class="node"><title>javax.free:freejava&#45;meta:3.0.0</title>
<polygon fill="white" stroke="black" points="454,-150 378,-150 378,-112 454,-112 454,-150"/>
<text text-anchor="middle" x="416" y="-138.8" font-family="SanSerif" font-size="8.00">javax.free</text>
<text text-anchor="middle" x="416" y="-128.8" font-family="SanSerif" font-size="8.00">freejava&#45;meta</text>
<text text-anchor="middle" x="416" y="-118.8" font-family="SanSerif" font-size="8.00">3.0.0</text>
</g>
<!-- javax.free:freejava&#45;closure:3.0.0&#45;&gt;javax.free:freejava&#45;meta:3.0.0 -->
<g id="edge22" class="edge"><title>javax.free:freejava&#45;closure:3.0.0&#45;&gt;javax.free:freejava&#45;meta:3.0.0</title>
<path fill="none" stroke="black" d="M418.484,-223.747C418.016,-206.251 417.318,-180.189 416.781,-160.143"/>
<polygon fill="black" stroke="black" points="420.276,-159.905 416.509,-150.002 413.278,-160.092 420.276,-159.905"/>
</g>
<!-- javax.free:freejava&#45;annotation:3.0.0 -->
<g id="node13" class="node"><title>javax.free:freejava&#45;annotation:3.0.0</title>
<polygon fill="white" stroke="black" points="425,-38 327,-38 327,-7.10543e-15 425,-3.55271e-15 425,-38"/>
<text text-anchor="middle" x="376" y="-26.8" font-family="SanSerif" font-size="8.00">javax.free</text>
<text text-anchor="middle" x="376" y="-16.8" font-family="SanSerif" font-size="8.00">freejava&#45;annotation</text>
<text text-anchor="middle" x="376" y="-6.8" font-family="SanSerif" font-size="8.00">3.0.0</text>
</g>
<!-- javax.free:freejava&#45;meta:3.0.0&#45;&gt;javax.free:freejava&#45;annotation:3.0.0 -->
<g id="edge18" class="edge"><title>javax.free:freejava&#45;meta:3.0.0&#45;&gt;javax.free:freejava&#45;annotation:3.0.0</title>
<path fill="none" stroke="black" d="M409.124,-111.747C402.818,-94.0901 393.396,-67.7079 386.211,-47.5902"/>
<polygon fill="black" stroke="black" points="389.446,-46.2425 382.787,-38.0022 382.854,-48.5969 389.446,-46.2425"/>
</g>
<!-- javax.free:freejava&#45;c1:3.0.0 -->
<g id="node14" class="node"><title>javax.free:freejava&#45;c1:3.0.0</title>
<polygon fill="white" stroke="black" points="493,-38 429,-38 429,-7.10543e-15 493,-3.55271e-15 493,-38"/>
<text text-anchor="middle" x="461" y="-26.8" font-family="SanSerif" font-size="8.00">javax.free</text>
<text text-anchor="middle" x="461" y="-16.8" font-family="SanSerif" font-size="8.00">freejava&#45;c1</text>
<text text-anchor="middle" x="461" y="-6.8" font-family="SanSerif" font-size="8.00">3.0.0</text>
</g>
<!-- javax.free:freejava&#45;meta:3.0.0&#45;&gt;javax.free:freejava&#45;c1:3.0.0 -->
<g id="edge20" class="edge"><title>javax.free:freejava&#45;meta:3.0.0&#45;&gt;javax.free:freejava&#45;c1:3.0.0</title>
<path fill="none" stroke="black" d="M423.736,-111.747C430.862,-94.0095 441.527,-67.4668 449.623,-47.315"/>
<polygon fill="black" stroke="black" points="452.885,-48.5862 453.365,-38.0022 446.389,-45.9764 452.885,-48.5862"/>
</g>
<!-- javax.free:freejava&#45;string:3.0.0&#45;&gt;javax.free:freejava&#45;c1:3.0.0 -->
<g id="edge34" class="edge"><title>javax.free:freejava&#45;string:3.0.0&#45;&gt;javax.free:freejava&#45;c1:3.0.0</title>
<path fill="none" stroke="black" d="M495.303,-223.988C486.439,-205.589 473.848,-176.647 468,-150 460.491,-115.783 459.479,-75.3944 459.866,-48.6013"/>
<polygon fill="black" stroke="black" points="463.371,-48.4277 460.093,-38.3527 456.373,-48.2729 463.371,-48.4277"/>
</g>
<!-- commons&#45;lang:commons&#45;lang:2.6 -->
<g id="node16" class="node"><title>commons&#45;lang:commons&#45;lang:2.6</title>
<polygon fill="white" stroke="black" points="548,-150 468,-150 468,-112 548,-112 548,-150"/>
<text text-anchor="middle" x="508" y="-138.8" font-family="SanSerif" font-size="8.00">commons&#45;lang</text>
<text text-anchor="middle" x="508" y="-128.8" font-family="SanSerif" font-size="8.00">commons&#45;lang</text>
<text text-anchor="middle" x="508" y="-118.8" font-family="SanSerif" font-size="8.00">2.6</text>
</g>
<!-- javax.free:freejava&#45;string:3.0.0&#45;&gt;commons&#45;lang:commons&#45;lang:2.6 -->
<g id="edge26" class="edge"><title>javax.free:freejava&#45;string:3.0.0&#45;&gt;commons&#45;lang:commons&#45;lang:2.6</title>
<path fill="none" stroke="black" d="M505.516,-223.747C505.984,-206.251 506.682,-180.189 507.219,-160.143"/>
<polygon fill="black" stroke="black" points="510.722,-160.092 507.491,-150.002 503.724,-159.905 510.722,-160.092"/>
</g>
<!-- javax.free:freejava&#45;sio:3.0.0 -->
<g id="node17" class="node"><title>javax.free:freejava&#45;sio:3.0.0</title>
<polygon fill="white" stroke="black" points="618,-150 552,-150 552,-112 618,-112 618,-150"/>
<text text-anchor="middle" x="585" y="-138.8" font-family="SanSerif" font-size="8.00">javax.free</text>
<text text-anchor="middle" x="585" y="-128.8" font-family="SanSerif" font-size="8.00">freejava&#45;sio</text>
<text text-anchor="middle" x="585" y="-118.8" font-family="SanSerif" font-size="8.00">3.0.0</text>
</g>
<!-- javax.free:freejava&#45;string:3.0.0&#45;&gt;javax.free:freejava&#45;sio:3.0.0 -->
<g id="edge32" class="edge"><title>javax.free:freejava&#45;string:3.0.0&#45;&gt;javax.free:freejava&#45;sio:3.0.0</title>
<path fill="none" stroke="black" d="M518.752,-223.747C531.652,-205.687 551.072,-178.499 565.556,-158.222"/>
<polygon fill="black" stroke="black" points="568.463,-160.174 571.427,-150.002 562.766,-156.105 568.463,-160.174"/>
</g>
<!-- javax.free:freejava&#45;bits:3.0.0 -->
<g id="node18" class="node"><title>javax.free:freejava&#45;bits:3.0.0</title>
<polygon fill="white" stroke="black" points="593,-38 523,-38 523,-7.10543e-15 593,-3.55271e-15 593,-38"/>
<text text-anchor="middle" x="558" y="-26.8" font-family="SanSerif" font-size="8.00">javax.free</text>
<text text-anchor="middle" x="558" y="-16.8" font-family="SanSerif" font-size="8.00">freejava&#45;bits</text>
<text text-anchor="middle" x="558" y="-6.8" font-family="SanSerif" font-size="8.00">3.0.0</text>
</g>
<!-- javax.free:freejava&#45;sio:3.0.0&#45;&gt;javax.free:freejava&#45;bits:3.0.0 -->
<g id="edge28" class="edge"><title>javax.free:freejava&#45;sio:3.0.0&#45;&gt;javax.free:freejava&#45;bits:3.0.0</title>
<path fill="none" stroke="black" d="M580.359,-111.747C576.122,-94.1707 569.8,-67.9487 564.959,-47.8662"/>
<polygon fill="black" stroke="black" points="568.327,-46.9035 562.581,-38.0022 561.522,-48.544 568.327,-46.9035"/>
</g>
<!-- javax.free:freejava&#45;proxy&#45;api:3.0.0 -->
<g id="node19" class="node"><title>javax.free:freejava&#45;proxy&#45;api:3.0.0</title>
<polygon fill="white" stroke="black" points="689,-38 597,-38 597,-7.10543e-15 689,-3.55271e-15 689,-38"/>
<text text-anchor="middle" x="643" y="-26.8" font-family="SanSerif" font-size="8.00">javax.free</text>
<text text-anchor="middle" x="643" y="-16.8" font-family="SanSerif" font-size="8.00">freejava&#45;proxy&#45;api</text>
<text text-anchor="middle" x="643" y="-6.8" font-family="SanSerif" font-size="8.00">3.0.0</text>
</g>
<!-- javax.free:freejava&#45;sio:3.0.0&#45;&gt;javax.free:freejava&#45;proxy&#45;api:3.0.0 -->
<g id="edge30" class="edge"><title>javax.free:freejava&#45;sio:3.0.0&#45;&gt;javax.free:freejava&#45;proxy&#45;api:3.0.0</title>
<path fill="none" stroke="black" d="M594.971,-111.747C604.198,-93.9288 618.026,-67.2253 628.479,-47.0406"/>
<polygon fill="black" stroke="black" points="631.669,-48.4917 633.16,-38.0022 625.453,-45.2727 631.669,-48.4917"/>
</g>
</g>
</svg>
