<?xml version="1.0" encoding="UTF-8" standalone="no"?>
<!DOCTYPE svg PUBLIC "-//W3C//DTD SVG 1.1//EN"
 "http://www.w3.org/Graphics/SVG/1.1/DTD/svg11.dtd">
<!-- Generated by graphviz version 2.26.3 (20100126.1600)
 -->
<!-- Title: dependencies Pages: 1 -->
<svg width="817pt" height="1004pt"
 viewBox="0.00 0.00 817.00 1004.00" xmlns="http://www.w3.org/2000/svg" xmlns:xlink="http://www.w3.org/1999/xlink">
<g id="graph1" class="graph" transform="scale(1 1) rotate(0) translate(4 1000)">
<title>dependencies</title>
<polygon fill="white" stroke="white" points="-4,5 -4,-1000 814,-1000 814,5 -4,5"/>
<text text-anchor="middle" x="244" y="-975.8" font-family="Serif" font-size="18.00">Dependency Graph for Plover :: Library :: Commons</text>
<!-- com.bee32.plover:plover&#45;commons:0.0.1&#45;SNAPSHOT -->
<g id="node1" class="node"><title>com.bee32.plover:plover&#45;commons:0.0.1&#45;SNAPSHOT</title>
<polygon fill="#dddddd" stroke="black" points="616,-966 478,-966 478,-904 616,-904 616,-966"/>
<text text-anchor="middle" x="547" y="-949.4" font-family="SanSerif" font-size="14.00">com.bee32.plover</text>
<text text-anchor="middle" x="547" y="-931.4" font-family="SanSerif" font-size="14.00">plover&#45;commons</text>
<text text-anchor="middle" x="547" y="-913.4" font-family="SanSerif" font-size="14.00">0.0.1&#45;SNAPSHOT</text>
</g>
<!-- com.bee32.plover:plover&#45;arch:0.0.4&#45;SNAPSHOT -->
<g id="node2" class="node"><title>com.bee32.plover:plover&#45;arch:0.0.4&#45;SNAPSHOT</title>
<polygon fill="white" stroke="black" points="593,-486 501,-486 501,-448 593,-448 593,-486"/>
<text text-anchor="middle" x="547" y="-474.8" font-family="SanSerif" font-size="8.00">com.bee32.plover</text>
<text text-anchor="middle" x="547" y="-464.8" font-family="SanSerif" font-size="8.00">plover&#45;arch</text>
<text text-anchor="middle" x="547" y="-454.8" font-family="SanSerif" font-size="8.00">0.0.4&#45;SNAPSHOT</text>
</g>
<!-- com.bee32.plover:plover&#45;commons:0.0.1&#45;SNAPSHOT&#45;&gt;com.bee32.plover:plover&#45;arch:0.0.4&#45;SNAPSHOT -->
<g id="edge48" class="edge"><title>com.bee32.plover:plover&#45;commons:0.0.1&#45;SNAPSHOT&#45;&gt;com.bee32.plover:plover&#45;arch:0.0.4&#45;SNAPSHOT</title>
<path fill="none" stroke="black" d="M547,-903.796C547,-877.048 547,-837.49 547,-803 547,-803 547,-803 547,-579 547,-550.927 547,-518.896 547,-496.3"/>
<polygon fill="black" stroke="black" points="550.5,-496.024 547,-486.024 543.5,-496.024 550.5,-496.024"/>
</g>
<!-- com.bee32.plover:plover&#45;conf:0.0.1&#45;SNAPSHOT -->
<g id="node20" class="node"><title>com.bee32.plover:plover&#45;conf:0.0.1&#45;SNAPSHOT</title>
<polygon fill="white" stroke="black" points="540,-822 448,-822 448,-784 540,-784 540,-822"/>
<text text-anchor="middle" x="494" y="-810.8" font-family="SanSerif" font-size="8.00">com.bee32.plover</text>
<text text-anchor="middle" x="494" y="-800.8" font-family="SanSerif" font-size="8.00">plover&#45;conf</text>
<text text-anchor="middle" x="494" y="-790.8" font-family="SanSerif" font-size="8.00">0.0.1&#45;SNAPSHOT</text>
</g>
<!-- com.bee32.plover:plover&#45;commons:0.0.1&#45;SNAPSHOT&#45;&gt;com.bee32.plover:plover&#45;conf:0.0.1&#45;SNAPSHOT -->
<g id="edge70" class="edge"><title>com.bee32.plover:plover&#45;commons:0.0.1&#45;SNAPSHOT&#45;&gt;com.bee32.plover:plover&#45;conf:0.0.1&#45;SNAPSHOT</title>
<path fill="none" stroke="black" d="M534.44,-903.718C525.666,-881.867 514.043,-852.919 505.51,-831.667"/>
<polygon fill="black" stroke="black" points="508.686,-830.183 501.712,-822.207 502.19,-832.791 508.686,-830.183"/>
</g>
<!-- com.bee32.plover:plover&#45;model:0.0.1&#45;SNAPSHOT -->
<g id="node26" class="node"><title>com.bee32.plover:plover&#45;model:0.0.1&#45;SNAPSHOT</title>
<polygon fill="white" stroke="black" points="646,-710 554,-710 554,-672 646,-672 646,-710"/>
<text text-anchor="middle" x="600" y="-698.8" font-family="SanSerif" font-size="8.00">com.bee32.plover</text>
<text text-anchor="middle" x="600" y="-688.8" font-family="SanSerif" font-size="8.00">plover&#45;model</text>
<text text-anchor="middle" x="600" y="-678.8" font-family="SanSerif" font-size="8.00">0.0.1&#45;SNAPSHOT</text>
</g>
<!-- com.bee32.plover:plover&#45;commons:0.0.1&#45;SNAPSHOT&#45;&gt;com.bee32.plover:plover&#45;model:0.0.1&#45;SNAPSHOT -->
<g id="edge84" class="edge"><title>com.bee32.plover:plover&#45;commons:0.0.1&#45;SNAPSHOT&#45;&gt;com.bee32.plover:plover&#45;model:0.0.1&#45;SNAPSHOT</title>
<path fill="none" stroke="black" d="M548.509,-903.956C550.517,-873.154 555.051,-824.781 565,-784 570.417,-761.798 579.599,-737.672 587.2,-719.557"/>
<polygon fill="black" stroke="black" points="590.504,-720.732 591.226,-710.162 584.07,-717.975 590.504,-720.732"/>
</g>
<!-- com.bee32.plover:plover&#45;collections:0.0.4&#45;SNAPSHOT -->
<g id="node27" class="node"><title>com.bee32.plover:plover&#45;collections:0.0.4&#45;SNAPSHOT</title>
<polygon fill="white" stroke="black" points="657,-822 565,-822 565,-784 657,-784 657,-822"/>
<text text-anchor="middle" x="611" y="-810.8" font-family="SanSerif" font-size="8.00">com.bee32.plover</text>
<text text-anchor="middle" x="611" y="-800.8" font-family="SanSerif" font-size="8.00">plover&#45;collections</text>
<text text-anchor="middle" x="611" y="-790.8" font-family="SanSerif" font-size="8.00">0.0.4&#45;SNAPSHOT</text>
</g>
<!-- com.bee32.plover:plover&#45;commons:0.0.1&#45;SNAPSHOT&#45;&gt;com.bee32.plover:plover&#45;collections:0.0.4&#45;SNAPSHOT -->
<g id="edge72" class="edge"><title>com.bee32.plover:plover&#45;commons:0.0.1&#45;SNAPSHOT&#45;&gt;com.bee32.plover:plover&#45;collections:0.0.4&#45;SNAPSHOT</title>
<path fill="none" stroke="black" d="M562.167,-903.718C572.809,-881.768 586.924,-852.657 597.241,-831.379"/>
<polygon fill="black" stroke="black" points="600.474,-832.732 601.687,-822.207 594.175,-829.678 600.474,-832.732"/>
</g>
<!-- junit:junit:4.8.2 -->
<g id="node29" class="node"><title>junit:junit:4.8.2</title>
<polygon fill="white" stroke="cornflowerblue" points="715,-822 661,-822 661,-784 715,-784 715,-822"/>
<text text-anchor="middle" x="688" y="-810.8" font-family="SanSerif" font-size="8.00" fill="cornflowerblue">junit</text>
<text text-anchor="middle" x="688" y="-800.8" font-family="SanSerif" font-size="8.00" fill="cornflowerblue">junit</text>
<text text-anchor="middle" x="688" y="-790.8" font-family="SanSerif" font-size="8.00" fill="cornflowerblue">4.8.2</text>
</g>
<!-- com.bee32.plover:plover&#45;commons:0.0.1&#45;SNAPSHOT&#45;&gt;junit:junit:4.8.2 -->
<g id="edge86" class="edge"><title>com.bee32.plover:plover&#45;commons:0.0.1&#45;SNAPSHOT&#45;&gt;junit:junit:4.8.2</title>
<path fill="none" stroke="cornflowerblue" d="M580.415,-903.718C604.706,-880.977 637.208,-850.549 660.11,-829.109"/>
<polygon fill="cornflowerblue" stroke="cornflowerblue" points="662.575,-831.597 667.483,-822.207 657.791,-826.486 662.575,-831.597"/>
<text text-anchor="middle" x="634.5" y="-860.8" font-family="SanSerif" font-size="8.00" fill="cornflowerblue">test</text>
</g>
<!-- javax.free:freejava&#45;closure:3.0.0 -->
<g id="node3" class="node"><title>javax.free:freejava&#45;closure:3.0.0</title>
<polygon fill="white" stroke="black" points="562,-262 476,-262 476,-224 562,-224 562,-262"/>
<text text-anchor="middle" x="519" y="-250.8" font-family="SanSerif" font-size="8.00">javax.free</text>
<text text-anchor="middle" x="519" y="-240.8" font-family="SanSerif" font-size="8.00">freejava&#45;closure</text>
<text text-anchor="middle" x="519" y="-230.8" font-family="SanSerif" font-size="8.00">3.0.0</text>
</g>
<!-- com.bee32.plover:plover&#45;arch:0.0.4&#45;SNAPSHOT&#45;&gt;javax.free:freejava&#45;closure:3.0.0 -->
<g id="edge8" class="edge"><title>com.bee32.plover:plover&#45;arch:0.0.4&#45;SNAPSHOT&#45;&gt;javax.free:freejava&#45;closure:3.0.0</title>
<path fill="none" stroke="black" d="M541.702,-447.937C536.748,-429.259 529.591,-399.905 526,-374 521.19,-339.301 519.633,-299.009 519.157,-272.371"/>
<polygon fill="black" stroke="black" points="522.654,-272.138 519.015,-262.188 515.654,-272.235 522.654,-272.138"/>
</g>
<!-- javax.free:freejava&#45;traits:3.0.0 -->
<g id="node7" class="node"><title>javax.free:freejava&#45;traits:3.0.0</title>
<polygon fill="white" stroke="black" points="602,-374 526,-374 526,-336 602,-336 602,-374"/>
<text text-anchor="middle" x="564" y="-362.8" font-family="SanSerif" font-size="8.00">javax.free</text>
<text text-anchor="middle" x="564" y="-352.8" font-family="SanSerif" font-size="8.00">freejava&#45;traits</text>
<text text-anchor="middle" x="564" y="-342.8" font-family="SanSerif" font-size="8.00">3.0.0</text>
</g>
<!-- com.bee32.plover:plover&#45;arch:0.0.4&#45;SNAPSHOT&#45;&gt;javax.free:freejava&#45;traits:3.0.0 -->
<g id="edge18" class="edge"><title>com.bee32.plover:plover&#45;arch:0.0.4&#45;SNAPSHOT&#45;&gt;javax.free:freejava&#45;traits:3.0.0</title>
<path fill="none" stroke="black" d="M549.922,-447.747C552.578,-430.251 556.534,-404.189 559.577,-384.143"/>
<polygon fill="black" stroke="black" points="563.075,-384.414 561.116,-374.002 556.155,-383.364 563.075,-384.414"/>
</g>
<!-- javax.free:freejava&#45;string:3.0.0 -->
<g id="node10" class="node"><title>javax.free:freejava&#45;string:3.0.0</title>
<polygon fill="white" stroke="black" points="490,-374 412,-374 412,-336 490,-336 490,-374"/>
<text text-anchor="middle" x="451" y="-362.8" font-family="SanSerif" font-size="8.00">javax.free</text>
<text text-anchor="middle" x="451" y="-352.8" font-family="SanSerif" font-size="8.00">freejava&#45;string</text>
<text text-anchor="middle" x="451" y="-342.8" font-family="SanSerif" font-size="8.00">3.0.0</text>
</g>
<!-- com.bee32.plover:plover&#45;arch:0.0.4&#45;SNAPSHOT&#45;&gt;javax.free:freejava&#45;string:3.0.0 -->
<g id="edge30" class="edge"><title>com.bee32.plover:plover&#45;arch:0.0.4&#45;SNAPSHOT&#45;&gt;javax.free:freejava&#45;string:3.0.0</title>
<path fill="none" stroke="black" d="M530.497,-447.747C514.879,-429.526 491.296,-402.012 473.869,-381.681"/>
<polygon fill="black" stroke="black" points="476.453,-379.317 467.288,-374.002 471.138,-383.873 476.453,-379.317"/>
</g>
<!-- javax.free:freejava&#45;collection:3.0.0 -->
<g id="node15" class="node"><title>javax.free:freejava&#45;collection:3.0.0</title>
<polygon fill="white" stroke="black" points="700,-374 606,-374 606,-336 700,-336 700,-374"/>
<text text-anchor="middle" x="653" y="-362.8" font-family="SanSerif" font-size="8.00">javax.free</text>
<text text-anchor="middle" x="653" y="-352.8" font-family="SanSerif" font-size="8.00">freejava&#45;collection</text>
<text text-anchor="middle" x="653" y="-342.8" font-family="SanSerif" font-size="8.00">3.0.0</text>
</g>
<!-- com.bee32.plover:plover&#45;arch:0.0.4&#45;SNAPSHOT&#45;&gt;javax.free:freejava&#45;collection:3.0.0 -->
<g id="edge40" class="edge"><title>com.bee32.plover:plover&#45;arch:0.0.4&#45;SNAPSHOT&#45;&gt;javax.free:freejava&#45;collection:3.0.0</title>
<path fill="none" stroke="black" d="M565.222,-447.747C582.543,-429.445 608.737,-401.769 628.004,-381.411"/>
<polygon fill="black" stroke="black" points="630.684,-383.671 635.016,-374.002 625.6,-378.859 630.684,-383.671"/>
</g>
<!-- org.slf4j:slf4j&#45;log4j12:1.4.2 -->
<g id="node17" class="node"><title>org.slf4j:slf4j&#45;log4j12:1.4.2</title>
<polygon fill="white" stroke="black" points="408,-374 340,-374 340,-336 408,-336 408,-374"/>
<text text-anchor="middle" x="374" y="-362.8" font-family="SanSerif" font-size="8.00">org.slf4j</text>
<text text-anchor="middle" x="374" y="-352.8" font-family="SanSerif" font-size="8.00">slf4j&#45;log4j12</text>
<text text-anchor="middle" x="374" y="-342.8" font-family="SanSerif" font-size="8.00">1.4.2</text>
</g>
<!-- com.bee32.plover:plover&#45;arch:0.0.4&#45;SNAPSHOT&#45;&gt;org.slf4j:slf4j&#45;log4j12:1.4.2 -->
<g id="edge46" class="edge"><title>com.bee32.plover:plover&#45;arch:0.0.4&#45;SNAPSHOT&#45;&gt;org.slf4j:slf4j&#45;log4j12:1.4.2</title>
<path fill="none" stroke="black" d="M517.26,-447.747C488.119,-428.881 443.591,-400.053 411.92,-379.549"/>
<polygon fill="black" stroke="black" points="413.648,-376.499 403.352,-374.002 409.844,-382.375 413.648,-376.499"/>
</g>
<!-- javax.free:freejava&#45;meta:3.0.0 -->
<g id="node4" class="node"><title>javax.free:freejava&#45;meta:3.0.0</title>
<polygon fill="white" stroke="black" points="557,-150 481,-150 481,-112 557,-112 557,-150"/>
<text text-anchor="middle" x="519" y="-138.8" font-family="SanSerif" font-size="8.00">javax.free</text>
<text text-anchor="middle" x="519" y="-128.8" font-family="SanSerif" font-size="8.00">freejava&#45;meta</text>
<text text-anchor="middle" x="519" y="-118.8" font-family="SanSerif" font-size="8.00">3.0.0</text>
</g>
<!-- javax.free:freejava&#45;closure:3.0.0&#45;&gt;javax.free:freejava&#45;meta:3.0.0 -->
<g id="edge6" class="edge"><title>javax.free:freejava&#45;closure:3.0.0&#45;&gt;javax.free:freejava&#45;meta:3.0.0</title>
<path fill="none" stroke="black" d="M519,-223.747C519,-206.251 519,-180.189 519,-160.143"/>
<polygon fill="black" stroke="black" points="522.5,-160.002 519,-150.002 515.5,-160.002 522.5,-160.002"/>
</g>
<!-- javax.free:freejava&#45;annotation:3.0.0 -->
<g id="node5" class="node"><title>javax.free:freejava&#45;annotation:3.0.0</title>
<polygon fill="white" stroke="black" points="555,-38 457,-38 457,-7.10543e-15 555,-3.55271e-15 555,-38"/>
<text text-anchor="middle" x="506" y="-26.8" font-family="SanSerif" font-size="8.00">javax.free</text>
<text text-anchor="middle" x="506" y="-16.8" font-family="SanSerif" font-size="8.00">freejava&#45;annotation</text>
<text text-anchor="middle" x="506" y="-6.8" font-family="SanSerif" font-size="8.00">3.0.0</text>
</g>
<!-- javax.free:freejava&#45;meta:3.0.0&#45;&gt;javax.free:freejava&#45;annotation:3.0.0 -->
<g id="edge2" class="edge"><title>javax.free:freejava&#45;meta:3.0.0&#45;&gt;javax.free:freejava&#45;annotation:3.0.0</title>
<path fill="none" stroke="black" d="M516.765,-111.747C514.735,-94.2513 511.709,-68.1891 509.383,-48.1429"/>
<polygon fill="black" stroke="black" points="512.835,-47.532 508.206,-38.0022 505.882,-48.3391 512.835,-47.532"/>
</g>
<!-- javax.free:freejava&#45;c1:3.0.0 -->
<g id="node6" class="node"><title>javax.free:freejava&#45;c1:3.0.0</title>
<polygon fill="white" stroke="black" points="623,-38 559,-38 559,-7.10543e-15 623,-3.55271e-15 623,-38"/>
<text text-anchor="middle" x="591" y="-26.8" font-family="SanSerif" font-size="8.00">javax.free</text>
<text text-anchor="middle" x="591" y="-16.8" font-family="SanSerif" font-size="8.00">freejava&#45;c1</text>
<text text-anchor="middle" x="591" y="-6.8" font-family="SanSerif" font-size="8.00">3.0.0</text>
</g>
<!-- javax.free:freejava&#45;meta:3.0.0&#45;&gt;javax.free:freejava&#45;c1:3.0.0 -->
<g id="edge4" class="edge"><title>javax.free:freejava&#45;meta:3.0.0&#45;&gt;javax.free:freejava&#45;c1:3.0.0</title>
<path fill="none" stroke="black" d="M531.377,-111.747C542.935,-93.7676 560.309,-66.7413 573.325,-46.4942"/>
<polygon fill="black" stroke="black" points="576.321,-48.3067 578.784,-38.0022 570.433,-44.5214 576.321,-48.3067"/>
</g>
<!-- javax.free:freejava&#45;traits:3.0.0&#45;&gt;javax.free:freejava&#45;meta:3.0.0 -->
<g id="edge10" class="edge"><title>javax.free:freejava&#45;traits:3.0.0&#45;&gt;javax.free:freejava&#45;meta:3.0.0</title>
<path fill="none" stroke="black" d="M566.184,-335.611C568.534,-309.775 570.849,-262.809 562,-224 556.747,-200.961 545.367,-176.79 535.633,-158.865"/>
<polygon fill="black" stroke="black" points="538.668,-157.122 530.734,-150.101 532.558,-160.537 538.668,-157.122"/>
</g>
<!-- javax.free:freejava&#45;lang:3.0.0 -->
<g id="node8" class="node"><title>javax.free:freejava&#45;lang:3.0.0</title>
<polygon fill="white" stroke="black" points="659,-262 587,-262 587,-224 659,-224 659,-262"/>
<text text-anchor="middle" x="623" y="-250.8" font-family="SanSerif" font-size="8.00">javax.free</text>
<text text-anchor="middle" x="623" y="-240.8" font-family="SanSerif" font-size="8.00">freejava&#45;lang</text>
<text text-anchor="middle" x="623" y="-230.8" font-family="SanSerif" font-size="8.00">3.0.0</text>
</g>
<!-- javax.free:freejava&#45;traits:3.0.0&#45;&gt;javax.free:freejava&#45;lang:3.0.0 -->
<g id="edge14" class="edge"><title>javax.free:freejava&#45;traits:3.0.0&#45;&gt;javax.free:freejava&#45;lang:3.0.0</title>
<path fill="none" stroke="black" d="M574.142,-335.747C583.529,-317.929 597.596,-291.225 608.229,-271.041"/>
<polygon fill="black" stroke="black" points="611.426,-272.481 612.99,-262.002 605.232,-269.218 611.426,-272.481"/>
</g>
<!-- javax.free:freejava&#45;jdk6compat:3.0.0 -->
<g id="node9" class="node"><title>javax.free:freejava&#45;jdk6compat:3.0.0</title>
<polygon fill="white" stroke="black" points="663,-150 561,-150 561,-112 663,-112 663,-150"/>
<text text-anchor="middle" x="612" y="-138.8" font-family="SanSerif" font-size="8.00">javax.free</text>
<text text-anchor="middle" x="612" y="-128.8" font-family="SanSerif" font-size="8.00">freejava&#45;jdk6compat</text>
<text text-anchor="middle" x="612" y="-118.8" font-family="SanSerif" font-size="8.00">3.0.0</text>
</g>
<!-- javax.free:freejava&#45;traits:3.0.0&#45;&gt;javax.free:freejava&#45;jdk6compat:3.0.0 -->
<g id="edge16" class="edge"><title>javax.free:freejava&#45;traits:3.0.0&#45;&gt;javax.free:freejava&#45;jdk6compat:3.0.0</title>
<path fill="none" stroke="black" d="M567.176,-335.675C572.316,-304.619 582.351,-244.965 587,-224 591.803,-202.341 598.343,-178.148 603.53,-159.868"/>
<polygon fill="black" stroke="black" points="606.935,-160.691 606.328,-150.114 600.206,-158.761 606.935,-160.691"/>
</g>
<!-- javax.free:freejava&#45;lang:3.0.0&#45;&gt;javax.free:freejava&#45;jdk6compat:3.0.0 -->
<g id="edge12" class="edge"><title>javax.free:freejava&#45;lang:3.0.0&#45;&gt;javax.free:freejava&#45;jdk6compat:3.0.0</title>
<path fill="none" stroke="black" d="M621.109,-223.747C619.391,-206.251 616.831,-180.189 614.862,-160.143"/>
<polygon fill="black" stroke="black" points="618.327,-159.612 613.866,-150.002 611.361,-160.296 618.327,-159.612"/>
</g>
<!-- javax.free:freejava&#45;string:3.0.0&#45;&gt;javax.free:freejava&#45;c1:3.0.0 -->
<g id="edge28" class="edge"><title>javax.free:freejava&#45;string:3.0.0&#45;&gt;javax.free:freejava&#45;c1:3.0.0</title>
<path fill="none" stroke="black" d="M453.303,-335.767C455.547,-316.963 459.045,-287.518 462,-262 469.718,-195.352 447.109,-171.029 479,-112 495.173,-82.0639 525.31,-57.8941 550.251,-41.7047"/>
<polygon fill="black" stroke="black" points="552.222,-44.6001 558.825,-36.3147 548.497,-38.6738 552.222,-44.6001"/>
</g>
<!-- commons&#45;lang:commons&#45;lang:2.6 -->
<g id="node11" class="node"><title>commons&#45;lang:commons&#45;lang:2.6</title>
<polygon fill="white" stroke="black" points="462,-262 382,-262 382,-224 462,-224 462,-262"/>
<text text-anchor="middle" x="422" y="-250.8" font-family="SanSerif" font-size="8.00">commons&#45;lang</text>
<text text-anchor="middle" x="422" y="-240.8" font-family="SanSerif" font-size="8.00">commons&#45;lang</text>
<text text-anchor="middle" x="422" y="-230.8" font-family="SanSerif" font-size="8.00">2.6</text>
</g>
<!-- javax.free:freejava&#45;string:3.0.0&#45;&gt;commons&#45;lang:commons&#45;lang:2.6 -->
<g id="edge20" class="edge"><title>javax.free:freejava&#45;string:3.0.0&#45;&gt;commons&#45;lang:commons&#45;lang:2.6</title>
<path fill="none" stroke="black" d="M446.015,-335.747C441.464,-318.171 434.674,-291.949 429.474,-271.866"/>
<polygon fill="black" stroke="black" points="432.815,-270.806 426.92,-262.002 426.039,-272.56 432.815,-270.806"/>
</g>
<!-- javax.free:freejava&#45;sio:3.0.0 -->
<g id="node12" class="node"><title>javax.free:freejava&#45;sio:3.0.0</title>
<polygon fill="white" stroke="black" points="378,-262 312,-262 312,-224 378,-224 378,-262"/>
<text text-anchor="middle" x="345" y="-250.8" font-family="SanSerif" font-size="8.00">javax.free</text>
<text text-anchor="middle" x="345" y="-240.8" font-family="SanSerif" font-size="8.00">freejava&#45;sio</text>
<text text-anchor="middle" x="345" y="-230.8" font-family="SanSerif" font-size="8.00">3.0.0</text>
</g>
<!-- javax.free:freejava&#45;string:3.0.0&#45;&gt;javax.free:freejava&#45;sio:3.0.0 -->
<g id="edge26" class="edge"><title>javax.free:freejava&#45;string:3.0.0&#45;&gt;javax.free:freejava&#45;sio:3.0.0</title>
<path fill="none" stroke="black" d="M432.778,-335.747C415.457,-317.445 389.263,-289.769 369.996,-269.411"/>
<polygon fill="black" stroke="black" points="372.4,-266.859 362.984,-262.002 367.316,-271.671 372.4,-266.859"/>
</g>
<!-- javax.free:freejava&#45;bits:3.0.0 -->
<g id="node13" class="node"><title>javax.free:freejava&#45;bits:3.0.0</title>
<polygon fill="white" stroke="black" points="380,-150 310,-150 310,-112 380,-112 380,-150"/>
<text text-anchor="middle" x="345" y="-138.8" font-family="SanSerif" font-size="8.00">javax.free</text>
<text text-anchor="middle" x="345" y="-128.8" font-family="SanSerif" font-size="8.00">freejava&#45;bits</text>
<text text-anchor="middle" x="345" y="-118.8" font-family="SanSerif" font-size="8.00">3.0.0</text>
</g>
<!-- javax.free:freejava&#45;sio:3.0.0&#45;&gt;javax.free:freejava&#45;bits:3.0.0 -->
<g id="edge22" class="edge"><title>javax.free:freejava&#45;sio:3.0.0&#45;&gt;javax.free:freejava&#45;bits:3.0.0</title>
<path fill="none" stroke="black" d="M345,-223.747C345,-206.251 345,-180.189 345,-160.143"/>
<polygon fill="black" stroke="black" points="348.5,-160.002 345,-150.002 341.5,-160.002 348.5,-160.002"/>
</g>
<!-- javax.free:freejava&#45;proxy&#45;api:3.0.0 -->
<g id="node14" class="node"><title>javax.free:freejava&#45;proxy&#45;api:3.0.0</title>
<polygon fill="white" stroke="black" points="272,-150 180,-150 180,-112 272,-112 272,-150"/>
<text text-anchor="middle" x="226" y="-138.8" font-family="SanSerif" font-size="8.00">javax.free</text>
<text text-anchor="middle" x="226" y="-128.8" font-family="SanSerif" font-size="8.00">freejava&#45;proxy&#45;api</text>
<text text-anchor="middle" x="226" y="-118.8" font-family="SanSerif" font-size="8.00">3.0.0</text>
</g>
<!-- javax.free:freejava&#45;sio:3.0.0&#45;&gt;javax.free:freejava&#45;proxy&#45;api:3.0.0 -->
<g id="edge24" class="edge"><title>javax.free:freejava&#45;sio:3.0.0&#45;&gt;javax.free:freejava&#45;proxy&#45;api:3.0.0</title>
<path fill="none" stroke="black" d="M324.543,-223.747C304.927,-205.284 275.173,-177.28 253.492,-156.875"/>
<polygon fill="black" stroke="black" points="255.871,-154.307 246.19,-150.002 251.073,-159.405 255.871,-154.307"/>
</g>
<!-- javax.free:freejava&#45;collection:3.0.0&#45;&gt;javax.free:freejava&#45;closure:3.0.0 -->
<g id="edge38" class="edge"><title>javax.free:freejava&#45;collection:3.0.0&#45;&gt;javax.free:freejava&#45;closure:3.0.0</title>
<path fill="none" stroke="black" d="M629.965,-335.747C607.779,-317.203 574.078,-289.036 549.638,-268.608"/>
<polygon fill="black" stroke="black" points="551.652,-265.73 541.735,-262.002 547.163,-271.101 551.652,-265.73"/>
</g>
<!-- javax.free:freejava&#45;collection:3.0.0&#45;&gt;javax.free:freejava&#45;c1:3.0.0 -->
<g id="edge34" class="edge"><title>javax.free:freejava&#45;collection:3.0.0&#45;&gt;javax.free:freejava&#45;c1:3.0.0</title>
<path fill="none" stroke="black" d="M658.39,-335.732C669.167,-293.725 690.112,-191.307 663,-112 654.294,-86.5322 635.465,-62.6351 619.245,-45.4431"/>
<polygon fill="black" stroke="black" points="621.51,-42.7516 612.023,-38.0344 616.497,-47.638 621.51,-42.7516"/>
</g>
<!-- javax.free:freejava&#45;collection:3.0.0&#45;&gt;javax.free:freejava&#45;lang:3.0.0 -->
<g id="edge36" class="edge"><title>javax.free:freejava&#45;collection:3.0.0&#45;&gt;javax.free:freejava&#45;lang:3.0.0</title>
<path fill="none" stroke="black" d="M647.843,-335.747C643.135,-318.171 636.111,-291.949 630.732,-271.866"/>
<polygon fill="black" stroke="black" points="634.058,-270.756 628.09,-262.002 627.297,-272.567 634.058,-270.756"/>
</g>
<!-- net.sourceforge.collections:collections&#45;generic:4.01 -->
<g id="node16" class="node"><title>net.sourceforge.collections:collections&#45;generic:4.01</title>
<polygon fill="white" stroke="black" points="809,-262 677,-262 677,-224 809,-224 809,-262"/>
<text text-anchor="middle" x="743" y="-250.8" font-family="SanSerif" font-size="8.00">net.sourceforge.collections</text>
<text text-anchor="middle" x="743" y="-240.8" font-family="SanSerif" font-size="8.00">collections&#45;generic</text>
<text text-anchor="middle" x="743" y="-230.8" font-family="SanSerif" font-size="8.00">4.01</text>
</g>
<!-- javax.free:freejava&#45;collection:3.0.0&#45;&gt;net.sourceforge.collections:collections&#45;generic:4.01 -->
<g id="edge32" class="edge"><title>javax.free:freejava&#45;collection:3.0.0&#45;&gt;net.sourceforge.collections:collections&#45;generic:4.01</title>
<path fill="none" stroke="black" d="M668.472,-335.747C683.048,-317.606 705.027,-290.256 721.343,-269.951"/>
<polygon fill="black" stroke="black" points="724.195,-271.99 727.73,-262.002 718.738,-267.605 724.195,-271.99"/>
</g>
<!-- org.slf4j:slf4j&#45;api:1.4.2 -->
<g id="node18" class="node"><title>org.slf4j:slf4j&#45;api:1.4.2</title>
<polygon fill="white" stroke="black" points="308,-262 254,-262 254,-224 308,-224 308,-262"/>
<text text-anchor="middle" x="281" y="-250.8" font-family="SanSerif" font-size="8.00">org.slf4j</text>
<text text-anchor="middle" x="281" y="-240.8" font-family="SanSerif" font-size="8.00">slf4j&#45;api</text>
<text text-anchor="middle" x="281" y="-230.8" font-family="SanSerif" font-size="8.00">1.4.2</text>
</g>
<!-- org.slf4j:slf4j&#45;log4j12:1.4.2&#45;&gt;org.slf4j:slf4j&#45;api:1.4.2 -->
<g id="edge42" class="edge"><title>org.slf4j:slf4j&#45;log4j12:1.4.2&#45;&gt;org.slf4j:slf4j&#45;api:1.4.2</title>
<path fill="none" stroke="black" d="M358.013,-335.747C342.95,-317.606 320.239,-290.256 303.379,-269.951"/>
<polygon fill="black" stroke="black" points="305.86,-267.46 296.779,-262.002 300.474,-271.932 305.86,-267.46"/>
</g>
<!-- log4j:log4j:1.2.13 -->
<g id="node19" class="node"><title>log4j:log4j:1.2.13</title>
<polygon fill="white" stroke="black" points="250,-262 196,-262 196,-224 250,-224 250,-262"/>
<text text-anchor="middle" x="223" y="-250.8" font-family="SanSerif" font-size="8.00">log4j</text>
<text text-anchor="middle" x="223" y="-240.8" font-family="SanSerif" font-size="8.00">log4j</text>
<text text-anchor="middle" x="223" y="-230.8" font-family="SanSerif" font-size="8.00">1.2.13</text>
</g>
<!-- org.slf4j:slf4j&#45;log4j12:1.4.2&#45;&gt;log4j:log4j:1.2.13 -->
<g id="edge44" class="edge"><title>org.slf4j:slf4j&#45;log4j12:1.4.2&#45;&gt;log4j:log4j:1.2.13</title>
<path fill="none" stroke="black" d="M348.042,-335.747C322.824,-317.042 284.404,-288.545 256.809,-268.077"/>
<polygon fill="black" stroke="black" points="258.736,-265.149 248.619,-262.002 254.566,-270.771 258.736,-265.149"/>
</g>
<!-- com.bee32.plover:plover&#45;conf:0.0.1&#45;SNAPSHOT&#45;&gt;com.bee32.plover:plover&#45;arch:0.0.4&#45;SNAPSHOT -->
<g id="edge66" class="edge"><title>com.bee32.plover:plover&#45;conf:0.0.1&#45;SNAPSHOT&#45;&gt;com.bee32.plover:plover&#45;arch:0.0.4&#45;SNAPSHOT</title>
<path fill="none" stroke="black" d="M497.001,-783.972C505.835,-727.968 531.789,-563.433 542.4,-496.165"/>
<polygon fill="black" stroke="black" points="545.865,-496.659 543.966,-486.235 538.95,-495.568 545.865,-496.659"/>
</g>
<!-- javax.free:freejava&#45;context:3.0.0 -->
<g id="node21" class="node"><title>javax.free:freejava&#45;context:3.0.0</title>
<polygon fill="white" stroke="black" points="497,-486 413,-486 413,-448 497,-448 497,-486"/>
<text text-anchor="middle" x="455" y="-474.8" font-family="SanSerif" font-size="8.00">javax.free</text>
<text text-anchor="middle" x="455" y="-464.8" font-family="SanSerif" font-size="8.00">freejava&#45;context</text>
<text text-anchor="middle" x="455" y="-454.8" font-family="SanSerif" font-size="8.00">3.0.0</text>
</g>
<!-- com.bee32.plover:plover&#45;conf:0.0.1&#45;SNAPSHOT&#45;&gt;javax.free:freejava&#45;context:3.0.0 -->
<g id="edge64" class="edge"><title>com.bee32.plover:plover&#45;conf:0.0.1&#45;SNAPSHOT&#45;&gt;javax.free:freejava&#45;context:3.0.0</title>
<path fill="none" stroke="black" d="M491.791,-783.972C485.304,-728.083 466.272,-564.11 458.434,-496.581"/>
<polygon fill="black" stroke="black" points="461.862,-495.765 457.233,-486.235 454.909,-496.572 461.862,-495.765"/>
</g>
<!-- com.bee32.plover:plover&#45;conf:0.0.1&#45;SNAPSHOT&#45;&gt;com.bee32.plover:plover&#45;model:0.0.1&#45;SNAPSHOT -->
<g id="edge68" class="edge"><title>com.bee32.plover:plover&#45;conf:0.0.1&#45;SNAPSHOT&#45;&gt;com.bee32.plover:plover&#45;model:0.0.1&#45;SNAPSHOT</title>
<path fill="none" stroke="black" d="M512.222,-783.747C529.543,-765.445 555.737,-737.769 575.004,-717.411"/>
<polygon fill="black" stroke="black" points="577.684,-719.671 582.016,-710.002 572.6,-714.859 577.684,-719.671"/>
</g>
<!-- javax.free:freejava&#45;context:3.0.0&#45;&gt;javax.free:freejava&#45;closure:3.0.0 -->
<g id="edge58" class="edge"><title>javax.free:freejava&#45;context:3.0.0&#45;&gt;javax.free:freejava&#45;closure:3.0.0</title>
<path fill="none" stroke="black" d="M463.192,-447.68C470.868,-429.059 482.284,-399.962 490,-374 500.253,-339.505 508.692,-298.935 513.773,-272.185"/>
<polygon fill="black" stroke="black" points="517.222,-272.782 515.615,-262.31 510.341,-271.498 517.222,-272.782"/>
</g>
<!-- javax.free:freejava&#45;context:3.0.0&#45;&gt;javax.free:freejava&#45;collection:3.0.0 -->
<g id="edge60" class="edge"><title>javax.free:freejava&#45;context:3.0.0&#45;&gt;javax.free:freejava&#45;collection:3.0.0</title>
<path fill="none" stroke="black" d="M489.037,-447.747C522.674,-428.72 574.225,-399.559 610.526,-379.025"/>
<polygon fill="black" stroke="black" points="612.426,-381.972 619.407,-374.002 608.98,-375.879 612.426,-381.972"/>
</g>
<!-- javax.free:freejava&#45;jvmhack:3.0.0 -->
<g id="node22" class="node"><title>javax.free:freejava&#45;jvmhack:3.0.0</title>
<polygon fill="white" stroke="black" points="336,-374 248,-374 248,-336 336,-336 336,-374"/>
<text text-anchor="middle" x="292" y="-362.8" font-family="SanSerif" font-size="8.00">javax.free</text>
<text text-anchor="middle" x="292" y="-352.8" font-family="SanSerif" font-size="8.00">freejava&#45;jvmhack</text>
<text text-anchor="middle" x="292" y="-342.8" font-family="SanSerif" font-size="8.00">3.0.0</text>
</g>
<!-- javax.free:freejava&#45;context:3.0.0&#45;&gt;javax.free:freejava&#45;jvmhack:3.0.0 -->
<g id="edge56" class="edge"><title>javax.free:freejava&#45;context:3.0.0&#45;&gt;javax.free:freejava&#45;jvmhack:3.0.0</title>
<path fill="none" stroke="black" d="M426.979,-447.747C399.64,-428.961 357.927,-400.299 328.111,-379.813"/>
<polygon fill="black" stroke="black" points="329.879,-376.781 319.655,-374.002 325.915,-382.55 329.879,-376.781"/>
</g>
<!-- javax.free:freejava&#45;sysinfo:3.0.0 -->
<g id="node25" class="node"><title>javax.free:freejava&#45;sysinfo:3.0.0</title>
<polygon fill="white" stroke="black" points="244,-374 160,-374 160,-336 244,-336 244,-374"/>
<text text-anchor="middle" x="202" y="-362.8" font-family="SanSerif" font-size="8.00">javax.free</text>
<text text-anchor="middle" x="202" y="-352.8" font-family="SanSerif" font-size="8.00">freejava&#45;sysinfo</text>
<text text-anchor="middle" x="202" y="-342.8" font-family="SanSerif" font-size="8.00">3.0.0</text>
</g>
<!-- javax.free:freejava&#45;context:3.0.0&#45;&gt;javax.free:freejava&#45;sysinfo:3.0.0 -->
<g id="edge62" class="edge"><title>javax.free:freejava&#45;context:3.0.0&#45;&gt;javax.free:freejava&#45;sysinfo:3.0.0</title>
<path fill="none" stroke="black" d="M412.938,-448.38C369.164,-429.001 300.563,-398.633 253.555,-377.823"/>
<polygon fill="black" stroke="black" points="254.723,-374.512 244.162,-373.665 251.89,-380.913 254.723,-374.512"/>
</g>
<!-- asm:asm:3.1 -->
<g id="node23" class="node"><title>asm:asm:3.1</title>
<polygon fill="white" stroke="black" points="54,-262 1.42109e-14,-262 3.55271e-15,-224 54,-224 54,-262"/>
<text text-anchor="middle" x="27" y="-250.8" font-family="SanSerif" font-size="8.00">asm</text>
<text text-anchor="middle" x="27" y="-240.8" font-family="SanSerif" font-size="8.00">asm</text>
<text text-anchor="middle" x="27" y="-230.8" font-family="SanSerif" font-size="8.00">3.1</text>
</g>
<!-- javax.free:freejava&#45;jvmhack:3.0.0&#45;&gt;asm:asm:3.1 -->
<g id="edge50" class="edge"><title>javax.free:freejava&#45;jvmhack:3.0.0&#45;&gt;asm:asm:3.1</title>
<path fill="none" stroke="black" d="M247.963,-337.553C190.509,-314.783 93.9845,-276.505 63.5181,-263.986"/>
<polygon fill="black" stroke="black" points="64.8123,-260.733 54.2398,-260.045 62.0759,-267.176 64.8123,-260.733"/>
</g>
<!-- javax.free:freejava&#45;proxy&#45;java&#45;security:3.0.0 -->
<g id="node24" class="node"><title>javax.free:freejava&#45;proxy&#45;java&#45;security:3.0.0</title>
<polygon fill="white" stroke="black" points="192,-262 58,-262 58,-224 192,-224 192,-262"/>
<text text-anchor="middle" x="125" y="-250.8" font-family="SanSerif" font-size="8.00">javax.free</text>
<text text-anchor="middle" x="125" y="-240.8" font-family="SanSerif" font-size="8.00">freejava&#45;proxy&#45;java&#45;security</text>
<text text-anchor="middle" x="125" y="-230.8" font-family="SanSerif" font-size="8.00">3.0.0</text>
</g>
<!-- javax.free:freejava&#45;jvmhack:3.0.0&#45;&gt;javax.free:freejava&#45;proxy&#45;java&#45;security:3.0.0 -->
<g id="edge54" class="edge"><title>javax.free:freejava&#45;jvmhack:3.0.0&#45;&gt;javax.free:freejava&#45;proxy&#45;java&#45;security:3.0.0</title>
<path fill="none" stroke="black" d="M263.292,-335.747C235.282,-316.961 192.544,-288.299 161.998,-267.813"/>
<polygon fill="black" stroke="black" points="163.588,-264.665 153.334,-262.002 159.689,-270.479 163.588,-264.665"/>
</g>
<!-- javax.free:freejava&#45;proxy&#45;java&#45;security:3.0.0&#45;&gt;javax.free:freejava&#45;proxy&#45;api:3.0.0 -->
<g id="edge52" class="edge"><title>javax.free:freejava&#45;proxy&#45;java&#45;security:3.0.0&#45;&gt;javax.free:freejava&#45;proxy&#45;api:3.0.0</title>
<path fill="none" stroke="black" d="M142.363,-223.747C158.794,-205.526 183.605,-178.012 201.94,-157.681"/>
<polygon fill="black" stroke="black" points="204.766,-159.773 208.864,-150.002 199.568,-155.085 204.766,-159.773"/>
</g>
<!-- com.bee32.plover:plover&#45;model:0.0.1&#45;SNAPSHOT&#45;&gt;com.bee32.plover:plover&#45;arch:0.0.4&#45;SNAPSHOT -->
<g id="edge74" class="edge"><title>com.bee32.plover:plover&#45;model:0.0.1&#45;SNAPSHOT&#45;&gt;com.bee32.plover:plover&#45;arch:0.0.4&#45;SNAPSHOT</title>
<path fill="none" stroke="black" d="M595.481,-671.902C586.172,-632.558 564.81,-542.273 553.815,-495.801"/>
<polygon fill="black" stroke="black" points="557.216,-494.975 551.507,-486.05 550.404,-496.587 557.216,-494.975"/>
</g>
<!-- com.bee32.plover:plover&#45;model:0.0.1&#45;SNAPSHOT&#45;&gt;javax.free:freejava&#45;traits:3.0.0 -->
<g id="edge76" class="edge"><title>com.bee32.plover:plover&#45;model:0.0.1&#45;SNAPSHOT&#45;&gt;javax.free:freejava&#45;traits:3.0.0</title>
<path fill="none" stroke="black" d="M601.205,-671.925C603.427,-630.712 606.77,-530.424 593,-448 589.308,-425.902 581.672,-401.772 575.162,-383.63"/>
<polygon fill="black" stroke="black" points="578.436,-382.39 571.694,-374.217 571.867,-384.811 578.436,-382.39"/>
</g>
<!-- com.bee32.plover:plover&#45;inject:0.0.1&#45;SNAPSHOT -->
<g id="node28" class="node"><title>com.bee32.plover:plover&#45;inject:0.0.1&#45;SNAPSHOT</title>
<polygon fill="white" stroke="black" points="699,-598 607,-598 607,-560 699,-560 699,-598"/>
<text text-anchor="middle" x="653" y="-586.8" font-family="SanSerif" font-size="8.00">com.bee32.plover</text>
<text text-anchor="middle" x="653" y="-576.8" font-family="SanSerif" font-size="8.00">plover&#45;inject</text>
<text text-anchor="middle" x="653" y="-566.8" font-family="SanSerif" font-size="8.00">0.0.1&#45;SNAPSHOT</text>
</g>
<!-- com.bee32.plover:plover&#45;model:0.0.1&#45;SNAPSHOT&#45;&gt;com.bee32.plover:plover&#45;inject:0.0.1&#45;SNAPSHOT -->
<g id="edge82" class="edge"><title>com.bee32.plover:plover&#45;model:0.0.1&#45;SNAPSHOT&#45;&gt;com.bee32.plover:plover&#45;inject:0.0.1&#45;SNAPSHOT</title>
<path fill="none" stroke="black" d="M609.111,-671.747C617.504,-654.009 630.065,-627.467 639.601,-607.315"/>
<polygon fill="black" stroke="black" points="642.894,-608.538 644.008,-598.002 636.567,-605.544 642.894,-608.538"/>
</g>
<!-- com.bee32.plover:plover&#45;inject:0.0.1&#45;SNAPSHOT&#45;&gt;com.bee32.plover:plover&#45;arch:0.0.4&#45;SNAPSHOT -->
<g id="edge80" class="edge"><title>com.bee32.plover:plover&#45;inject:0.0.1&#45;SNAPSHOT&#45;&gt;com.bee32.plover:plover&#45;arch:0.0.4&#45;SNAPSHOT</title>
<path fill="none" stroke="black" d="M634.778,-559.747C617.457,-541.445 591.263,-513.769 571.996,-493.411"/>
<polygon fill="black" stroke="black" points="574.4,-490.859 564.984,-486.002 569.316,-495.671 574.4,-490.859"/>
</g>
<!-- com.bee32.plover:plover&#45;inject:0.0.1&#45;SNAPSHOT&#45;&gt;javax.free:freejava&#45;collection:3.0.0 -->
<g id="edge78" class="edge"><title>com.bee32.plover:plover&#45;inject:0.0.1&#45;SNAPSHOT&#45;&gt;javax.free:freejava&#45;collection:3.0.0</title>
<path fill="none" stroke="black" d="M653,-559.902C653,-520.64 653,-430.652 653,-384.094"/>
<polygon fill="black" stroke="black" points="656.5,-384.05 653,-374.05 649.5,-384.05 656.5,-384.05"/>
</g>
</g>
</svg>
