<?xml version="1.0" encoding="UTF-8" standalone="no"?>
<!DOCTYPE svg PUBLIC "-//W3C//DTD SVG 1.1//EN"
 "http://www.w3.org/Graphics/SVG/1.1/DTD/svg11.dtd">
<!-- Generated by graphviz version 2.26.3 (20100126.1600)
 -->
<!-- Title: dependencies Pages: 1 -->
<svg width="442pt" height="220pt"
 viewBox="0.00 0.00 442.00 220.00" xmlns="http://www.w3.org/2000/svg" xmlns:xlink="http://www.w3.org/1999/xlink">
<g id="graph1" class="graph" transform="scale(1 1) rotate(0) translate(4 216)">
<title>dependencies</title>
<polygon fill="white" stroke="white" points="-4,5 -4,-216 439,-216 439,5 -4,5"/>
<text text-anchor="middle" x="217" y="-191.8" font-family="Serif" font-size="18.00">Dependency Graph for Plover :: Repr :: X2xml</text>
<!-- com.bee32.plover:plover&#45;x2xml:0.0.1&#45;SNAPSHOT -->
<g id="node1" class="node"><title>com.bee32.plover:plover&#45;x2xml:0.0.1&#45;SNAPSHOT</title>
<polygon fill="#dddddd" stroke="black" points="286,-182 148,-182 148,-120 286,-120 286,-182"/>
<text text-anchor="middle" x="217" y="-165.4" font-family="SanSerif" font-size="14.00">com.bee32.plover</text>
<text text-anchor="middle" x="217" y="-147.4" font-family="SanSerif" font-size="14.00">plover&#45;x2xml</text>
<text text-anchor="middle" x="217" y="-129.4" font-family="SanSerif" font-size="14.00">0.0.1&#45;SNAPSHOT</text>
</g>
<!-- junit:junit:4.8.2 -->
<g id="node2" class="node"><title>junit:junit:4.8.2</title>
<polygon fill="white" stroke="cornflowerblue" points="244,-38 190,-38 190,-7.10543e-15 244,-3.55271e-15 244,-38"/>
<text text-anchor="middle" x="217" y="-26.8" font-family="SanSerif" font-size="8.00" fill="cornflowerblue">junit</text>
<text text-anchor="middle" x="217" y="-16.8" font-family="SanSerif" font-size="8.00" fill="cornflowerblue">junit</text>
<text text-anchor="middle" x="217" y="-6.8" font-family="SanSerif" font-size="8.00" fill="cornflowerblue">4.8.2</text>
</g>
<!-- com.bee32.plover:plover&#45;x2xml:0.0.1&#45;SNAPSHOT&#45;&gt;junit:junit:4.8.2 -->
<g id="edge2" class="edge"><title>com.bee32.plover:plover&#45;x2xml:0.0.1&#45;SNAPSHOT&#45;&gt;junit:junit:4.8.2</title>
<path fill="none" stroke="cornflowerblue" d="M217,-119.718C217,-98.0649 217,-69.4424 217,-48.2455"/>
<polygon fill="cornflowerblue" stroke="cornflowerblue" points="220.5,-48.2071 217,-38.2072 213.5,-48.2072 220.5,-48.2071"/>
<text text-anchor="middle" x="225.5" y="-76.8" font-family="SanSerif" font-size="8.00" fill="cornflowerblue">test</text>
</g>
</g>
</svg>
