<?xml version="1.0" encoding="UTF-8" standalone="no"?>
<!DOCTYPE svg PUBLIC "-//W3C//DTD SVG 1.1//EN"
 "http://www.w3.org/Graphics/SVG/1.1/DTD/svg11.dtd">
<!-- Generated by graphviz version 2.26.3 (20100126.1600)
 -->
<!-- Title: dependencies Pages: 1 -->
<svg width="669pt" height="780pt"
 viewBox="0.00 0.00 669.00 780.00" xmlns="http://www.w3.org/2000/svg" xmlns:xlink="http://www.w3.org/1999/xlink">
<g id="graph1" class="graph" transform="scale(1 1) rotate(0) translate(4 776)">
<title>dependencies</title>
<polygon fill="white" stroke="white" points="-4,5 -4,-776 666,-776 666,5 -4,5"/>
<text text-anchor="middle" x="237.5" y="-751.8" font-family="Serif" font-size="18.00">Dependency Graph for Plover :: Modeling :: Model</text>
<!-- com.bee32.plover:plover&#45;model:0.0.1&#45;SNAPSHOT -->
<g id="node1" class="node"><title>com.bee32.plover:plover&#45;model:0.0.1&#45;SNAPSHOT</title>
<polygon fill="#dddddd" stroke="black" points="429,-742 291,-742 291,-680 429,-680 429,-742"/>
<text text-anchor="middle" x="360" y="-725.4" font-family="SanSerif" font-size="14.00">com.bee32.plover</text>
<text text-anchor="middle" x="360" y="-707.4" font-family="SanSerif" font-size="14.00">plover&#45;model</text>
<text text-anchor="middle" x="360" y="-689.4" font-family="SanSerif" font-size="14.00">0.0.1&#45;SNAPSHOT</text>
</g>
<!-- com.bee32.plover:plover&#45;arch:0.0.4&#45;SNAPSHOT -->
<g id="node2" class="node"><title>com.bee32.plover:plover&#45;arch:0.0.4&#45;SNAPSHOT</title>
<polygon fill="white" stroke="black" points="353,-486 261,-486 261,-448 353,-448 353,-486"/>
<text text-anchor="middle" x="307" y="-474.8" font-family="SanSerif" font-size="8.00">com.bee32.plover</text>
<text text-anchor="middle" x="307" y="-464.8" font-family="SanSerif" font-size="8.00">plover&#45;arch</text>
<text text-anchor="middle" x="307" y="-454.8" font-family="SanSerif" font-size="8.00">0.0.4&#45;SNAPSHOT</text>
</g>
<!-- com.bee32.plover:plover&#45;model:0.0.1&#45;SNAPSHOT&#45;&gt;com.bee32.plover:plover&#45;arch:0.0.4&#45;SNAPSHOT -->
<g id="edge36" class="edge"><title>com.bee32.plover:plover&#45;model:0.0.1&#45;SNAPSHOT&#45;&gt;com.bee32.plover:plover&#45;arch:0.0.4&#45;SNAPSHOT</title>
<path fill="none" stroke="black" d="M343.984,-679.77C333.434,-657.577 320.425,-626.732 314,-598 306.356,-563.814 305.37,-523.418 305.801,-496.616"/>
<polygon fill="black" stroke="black" points="309.306,-496.444 306.047,-486.363 302.308,-496.276 309.306,-496.444"/>
</g>
<!-- javax.free:freejava&#45;traits:3.0.0 -->
<g id="node5" class="node"><title>javax.free:freejava&#45;traits:3.0.0</title>
<polygon fill="white" stroke="black" points="487,-374 411,-374 411,-336 487,-336 487,-374"/>
<text text-anchor="middle" x="449" y="-362.8" font-family="SanSerif" font-size="8.00">javax.free</text>
<text text-anchor="middle" x="449" y="-352.8" font-family="SanSerif" font-size="8.00">freejava&#45;traits</text>
<text text-anchor="middle" x="449" y="-342.8" font-family="SanSerif" font-size="8.00">3.0.0</text>
</g>
<!-- com.bee32.plover:plover&#45;model:0.0.1&#45;SNAPSHOT&#45;&gt;javax.free:freejava&#45;traits:3.0.0 -->
<g id="edge50" class="edge"><title>com.bee32.plover:plover&#45;model:0.0.1&#45;SNAPSHOT&#45;&gt;javax.free:freejava&#45;traits:3.0.0</title>
<path fill="none" stroke="black" d="M374.712,-679.972C384.794,-657.616 397.78,-626.492 406,-598 427.769,-522.544 440.409,-430.559 445.833,-384.402"/>
<polygon fill="black" stroke="black" points="449.339,-384.55 446.999,-374.217 442.384,-383.754 449.339,-384.55"/>
</g>
<!-- com.bee32.plover:plover&#45;inject:0.0.1&#45;SNAPSHOT -->
<g id="node20" class="node"><title>com.bee32.plover:plover&#45;inject:0.0.1&#45;SNAPSHOT</title>
<polygon fill="white" stroke="black" points="406,-598 314,-598 314,-560 406,-560 406,-598"/>
<text text-anchor="middle" x="360" y="-586.8" font-family="SanSerif" font-size="8.00">com.bee32.plover</text>
<text text-anchor="middle" x="360" y="-576.8" font-family="SanSerif" font-size="8.00">plover&#45;inject</text>
<text text-anchor="middle" x="360" y="-566.8" font-family="SanSerif" font-size="8.00">0.0.1&#45;SNAPSHOT</text>
</g>
<!-- com.bee32.plover:plover&#45;model:0.0.1&#45;SNAPSHOT&#45;&gt;com.bee32.plover:plover&#45;inject:0.0.1&#45;SNAPSHOT -->
<g id="edge56" class="edge"><title>com.bee32.plover:plover&#45;model:0.0.1&#45;SNAPSHOT&#45;&gt;com.bee32.plover:plover&#45;inject:0.0.1&#45;SNAPSHOT</title>
<path fill="none" stroke="black" d="M360,-679.718C360,-658.065 360,-629.442 360,-608.246"/>
<polygon fill="black" stroke="black" points="363.5,-608.207 360,-598.207 356.5,-608.207 363.5,-608.207"/>
</g>
<!-- junit:junit:4.8.2 -->
<g id="node21" class="node"><title>junit:junit:4.8.2</title>
<polygon fill="white" stroke="cornflowerblue" points="474,-598 420,-598 420,-560 474,-560 474,-598"/>
<text text-anchor="middle" x="447" y="-586.8" font-family="SanSerif" font-size="8.00" fill="cornflowerblue">junit</text>
<text text-anchor="middle" x="447" y="-576.8" font-family="SanSerif" font-size="8.00" fill="cornflowerblue">junit</text>
<text text-anchor="middle" x="447" y="-566.8" font-family="SanSerif" font-size="8.00" fill="cornflowerblue">4.8.2</text>
</g>
<!-- com.bee32.plover:plover&#45;model:0.0.1&#45;SNAPSHOT&#45;&gt;junit:junit:4.8.2 -->
<g id="edge58" class="edge"><title>com.bee32.plover:plover&#45;model:0.0.1&#45;SNAPSHOT&#45;&gt;junit:junit:4.8.2</title>
<path fill="none" stroke="cornflowerblue" d="M389.713,-679.676C399.116,-668.864 409.105,-656.354 417,-644 424.268,-632.627 430.768,-619.207 435.844,-607.523"/>
<polygon fill="cornflowerblue" stroke="cornflowerblue" points="439.115,-608.774 439.759,-598.199 432.66,-606.064 439.115,-608.774"/>
<text text-anchor="middle" x="431.5" y="-636.8" font-family="SanSerif" font-size="8.00" fill="cornflowerblue">test</text>
</g>
<!-- javax.free:freejava&#45;closure:3.0.0 -->
<g id="node3" class="node"><title>javax.free:freejava&#45;closure:3.0.0</title>
<polygon fill="white" stroke="black" points="392,-262 306,-262 306,-224 392,-224 392,-262"/>
<text text-anchor="middle" x="349" y="-250.8" font-family="SanSerif" font-size="8.00">javax.free</text>
<text text-anchor="middle" x="349" y="-240.8" font-family="SanSerif" font-size="8.00">freejava&#45;closure</text>
<text text-anchor="middle" x="349" y="-230.8" font-family="SanSerif" font-size="8.00">3.0.0</text>
</g>
<!-- com.bee32.plover:plover&#45;arch:0.0.4&#45;SNAPSHOT&#45;&gt;javax.free:freejava&#45;closure:3.0.0 -->
<g id="edge4" class="edge"><title>com.bee32.plover:plover&#45;arch:0.0.4&#45;SNAPSHOT&#45;&gt;javax.free:freejava&#45;closure:3.0.0</title>
<path fill="none" stroke="black" d="M305.956,-447.664C305.001,-421.888 304.79,-374.987 313,-336 317.726,-313.558 327.2,-289.439 335.244,-271.389"/>
<polygon fill="black" stroke="black" points="338.546,-272.584 339.526,-262.034 332.181,-269.67 338.546,-272.584"/>
</g>
<!-- com.bee32.plover:plover&#45;arch:0.0.4&#45;SNAPSHOT&#45;&gt;javax.free:freejava&#45;traits:3.0.0 -->
<g id="edge6" class="edge"><title>com.bee32.plover:plover&#45;arch:0.0.4&#45;SNAPSHOT&#45;&gt;javax.free:freejava&#45;traits:3.0.0</title>
<path fill="none" stroke="black" d="M331.411,-447.747C355.023,-429.123 390.944,-400.791 416.87,-380.342"/>
<polygon fill="black" stroke="black" points="419.224,-382.943 424.908,-374.002 414.889,-377.447 419.224,-382.943"/>
</g>
<!-- javax.free:freejava&#45;string:3.0.0 -->
<g id="node6" class="node"><title>javax.free:freejava&#45;string:3.0.0</title>
<polygon fill="white" stroke="black" points="212,-374 134,-374 134,-336 212,-336 212,-374"/>
<text text-anchor="middle" x="173" y="-362.8" font-family="SanSerif" font-size="8.00">javax.free</text>
<text text-anchor="middle" x="173" y="-352.8" font-family="SanSerif" font-size="8.00">freejava&#45;string</text>
<text text-anchor="middle" x="173" y="-342.8" font-family="SanSerif" font-size="8.00">3.0.0</text>
</g>
<!-- com.bee32.plover:plover&#45;arch:0.0.4&#45;SNAPSHOT&#45;&gt;javax.free:freejava&#45;string:3.0.0 -->
<g id="edge18" class="edge"><title>com.bee32.plover:plover&#45;arch:0.0.4&#45;SNAPSHOT&#45;&gt;javax.free:freejava&#45;string:3.0.0</title>
<path fill="none" stroke="black" d="M283.965,-447.747C261.779,-429.203 228.078,-401.036 203.638,-380.608"/>
<polygon fill="black" stroke="black" points="205.652,-377.73 195.735,-374.002 201.163,-383.101 205.652,-377.73"/>
</g>
<!-- javax.free:freejava&#45;collection:3.0.0 -->
<g id="node12" class="node"><title>javax.free:freejava&#45;collection:3.0.0</title>
<polygon fill="white" stroke="black" points="407,-374 313,-374 313,-336 407,-336 407,-374"/>
<text text-anchor="middle" x="360" y="-362.8" font-family="SanSerif" font-size="8.00">javax.free</text>
<text text-anchor="middle" x="360" y="-352.8" font-family="SanSerif" font-size="8.00">freejava&#45;collection</text>
<text text-anchor="middle" x="360" y="-342.8" font-family="SanSerif" font-size="8.00">3.0.0</text>
</g>
<!-- com.bee32.plover:plover&#45;arch:0.0.4&#45;SNAPSHOT&#45;&gt;javax.free:freejava&#45;collection:3.0.0 -->
<g id="edge28" class="edge"><title>com.bee32.plover:plover&#45;arch:0.0.4&#45;SNAPSHOT&#45;&gt;javax.free:freejava&#45;collection:3.0.0</title>
<path fill="none" stroke="black" d="M316.111,-447.747C324.504,-430.009 337.065,-403.467 346.601,-383.315"/>
<polygon fill="black" stroke="black" points="349.894,-384.538 351.008,-374.002 343.567,-381.544 349.894,-384.538"/>
</g>
<!-- org.slf4j:slf4j&#45;log4j12:1.4.2 -->
<g id="node15" class="node"><title>org.slf4j:slf4j&#45;log4j12:1.4.2</title>
<polygon fill="white" stroke="black" points="299,-374 231,-374 231,-336 299,-336 299,-374"/>
<text text-anchor="middle" x="265" y="-362.8" font-family="SanSerif" font-size="8.00">org.slf4j</text>
<text text-anchor="middle" x="265" y="-352.8" font-family="SanSerif" font-size="8.00">slf4j&#45;log4j12</text>
<text text-anchor="middle" x="265" y="-342.8" font-family="SanSerif" font-size="8.00">1.4.2</text>
</g>
<!-- com.bee32.plover:plover&#45;arch:0.0.4&#45;SNAPSHOT&#45;&gt;org.slf4j:slf4j&#45;log4j12:1.4.2 -->
<g id="edge34" class="edge"><title>com.bee32.plover:plover&#45;arch:0.0.4&#45;SNAPSHOT&#45;&gt;org.slf4j:slf4j&#45;log4j12:1.4.2</title>
<path fill="none" stroke="black" d="M299.78,-447.747C293.159,-430.09 283.265,-403.708 275.721,-383.59"/>
<polygon fill="black" stroke="black" points="278.914,-382.137 272.126,-374.002 272.36,-384.594 278.914,-382.137"/>
</g>
<!-- javax.free:freejava&#45;meta:3.0.0 -->
<g id="node4" class="node"><title>javax.free:freejava&#45;meta:3.0.0</title>
<polygon fill="white" stroke="black" points="413,-150 337,-150 337,-112 413,-112 413,-150"/>
<text text-anchor="middle" x="375" y="-138.8" font-family="SanSerif" font-size="8.00">javax.free</text>
<text text-anchor="middle" x="375" y="-128.8" font-family="SanSerif" font-size="8.00">freejava&#45;meta</text>
<text text-anchor="middle" x="375" y="-118.8" font-family="SanSerif" font-size="8.00">3.0.0</text>
</g>
<!-- javax.free:freejava&#45;closure:3.0.0&#45;&gt;javax.free:freejava&#45;meta:3.0.0 -->
<g id="edge2" class="edge"><title>javax.free:freejava&#45;closure:3.0.0&#45;&gt;javax.free:freejava&#45;meta:3.0.0</title>
<path fill="none" stroke="black" d="M353.47,-223.747C357.55,-206.171 363.637,-179.949 368.299,-159.866"/>
<polygon fill="black" stroke="black" points="371.737,-160.535 370.589,-150.002 364.918,-158.952 371.737,-160.535"/>
</g>
<!-- javax.free:freejava&#45;c1:3.0.0 -->
<g id="node11" class="node"><title>javax.free:freejava&#45;c1:3.0.0</title>
<polygon fill="white" stroke="black" points="326,-38 262,-38 262,-7.10543e-15 326,-3.55271e-15 326,-38"/>
<text text-anchor="middle" x="294" y="-26.8" font-family="SanSerif" font-size="8.00">javax.free</text>
<text text-anchor="middle" x="294" y="-16.8" font-family="SanSerif" font-size="8.00">freejava&#45;c1</text>
<text text-anchor="middle" x="294" y="-6.8" font-family="SanSerif" font-size="8.00">3.0.0</text>
</g>
<!-- javax.free:freejava&#45;meta:3.0.0&#45;&gt;javax.free:freejava&#45;c1:3.0.0 -->
<g id="edge40" class="edge"><title>javax.free:freejava&#45;meta:3.0.0&#45;&gt;javax.free:freejava&#45;c1:3.0.0</title>
<path fill="none" stroke="black" d="M361.076,-111.747C348.015,-93.687 328.352,-66.4987 313.688,-46.2222"/>
<polygon fill="black" stroke="black" points="316.439,-44.0542 307.743,-38.0022 310.767,-48.1563 316.439,-44.0542"/>
</g>
<!-- javax.free:freejava&#45;annotation:3.0.0 -->
<g id="node18" class="node"><title>javax.free:freejava&#45;annotation:3.0.0</title>
<polygon fill="white" stroke="black" points="428,-38 330,-38 330,-7.10543e-15 428,-3.55271e-15 428,-38"/>
<text text-anchor="middle" x="379" y="-26.8" font-family="SanSerif" font-size="8.00">javax.free</text>
<text text-anchor="middle" x="379" y="-16.8" font-family="SanSerif" font-size="8.00">freejava&#45;annotation</text>
<text text-anchor="middle" x="379" y="-6.8" font-family="SanSerif" font-size="8.00">3.0.0</text>
</g>
<!-- javax.free:freejava&#45;meta:3.0.0&#45;&gt;javax.free:freejava&#45;annotation:3.0.0 -->
<g id="edge38" class="edge"><title>javax.free:freejava&#45;meta:3.0.0&#45;&gt;javax.free:freejava&#45;annotation:3.0.0</title>
<path fill="none" stroke="black" d="M375.688,-111.747C376.312,-94.2513 377.243,-68.1891 377.959,-48.1429"/>
<polygon fill="black" stroke="black" points="381.462,-48.1208 378.321,-38.0022 374.467,-47.8709 381.462,-48.1208"/>
</g>
<!-- javax.free:freejava&#45;traits:3.0.0&#45;&gt;javax.free:freejava&#45;meta:3.0.0 -->
<g id="edge42" class="edge"><title>javax.free:freejava&#45;traits:3.0.0&#45;&gt;javax.free:freejava&#45;meta:3.0.0</title>
<path fill="none" stroke="black" d="M474.83,-335.905C505.759,-310.587 550.718,-264.395 528,-224 505.715,-184.375 458.958,-159.672 422.963,-145.774"/>
<polygon fill="black" stroke="black" points="423.718,-142.322 413.125,-142.138 421.291,-148.888 423.718,-142.322"/>
</g>
<!-- javax.free:freejava&#45;lang:3.0.0 -->
<g id="node14" class="node"><title>javax.free:freejava&#45;lang:3.0.0</title>
<polygon fill="white" stroke="black" points="614,-262 542,-262 542,-224 614,-224 614,-262"/>
<text text-anchor="middle" x="578" y="-250.8" font-family="SanSerif" font-size="8.00">javax.free</text>
<text text-anchor="middle" x="578" y="-240.8" font-family="SanSerif" font-size="8.00">freejava&#45;lang</text>
<text text-anchor="middle" x="578" y="-230.8" font-family="SanSerif" font-size="8.00">3.0.0</text>
</g>
<!-- javax.free:freejava&#45;traits:3.0.0&#45;&gt;javax.free:freejava&#45;lang:3.0.0 -->
<g id="edge46" class="edge"><title>javax.free:freejava&#45;traits:3.0.0&#45;&gt;javax.free:freejava&#45;lang:3.0.0</title>
<path fill="none" stroke="black" d="M487.382,-336.276C504.361,-326.855 523.864,-314.376 539,-300 547.853,-291.592 555.834,-280.854 562.235,-270.97"/>
<polygon fill="black" stroke="black" points="565.361,-272.57 567.65,-262.225 559.41,-268.885 565.361,-272.57"/>
</g>
<!-- javax.free:freejava&#45;jdk6compat:3.0.0 -->
<g id="node19" class="node"><title>javax.free:freejava&#45;jdk6compat:3.0.0</title>
<polygon fill="white" stroke="black" points="661,-150 559,-150 559,-112 661,-112 661,-150"/>
<text text-anchor="middle" x="610" y="-138.8" font-family="SanSerif" font-size="8.00">javax.free</text>
<text text-anchor="middle" x="610" y="-128.8" font-family="SanSerif" font-size="8.00">freejava&#45;jdk6compat</text>
<text text-anchor="middle" x="610" y="-118.8" font-family="SanSerif" font-size="8.00">3.0.0</text>
</g>
<!-- javax.free:freejava&#45;traits:3.0.0&#45;&gt;javax.free:freejava&#45;jdk6compat:3.0.0 -->
<g id="edge48" class="edge"><title>javax.free:freejava&#45;traits:3.0.0&#45;&gt;javax.free:freejava&#45;jdk6compat:3.0.0</title>
<path fill="none" stroke="black" d="M487.072,-345.641C526.73,-333.634 586.795,-308.563 614,-262 632.117,-230.991 626.374,-188.422 619.305,-160.335"/>
<polygon fill="black" stroke="black" points="622.586,-159.061 616.578,-150.334 615.832,-160.902 622.586,-159.061"/>
</g>
<!-- commons&#45;lang:commons&#45;lang:2.6 -->
<g id="node7" class="node"><title>commons&#45;lang:commons&#45;lang:2.6</title>
<polygon fill="white" stroke="black" points="96,-262 16,-262 16,-224 96,-224 96,-262"/>
<text text-anchor="middle" x="56" y="-250.8" font-family="SanSerif" font-size="8.00">commons&#45;lang</text>
<text text-anchor="middle" x="56" y="-240.8" font-family="SanSerif" font-size="8.00">commons&#45;lang</text>
<text text-anchor="middle" x="56" y="-230.8" font-family="SanSerif" font-size="8.00">2.6</text>
</g>
<!-- javax.free:freejava&#45;string:3.0.0&#45;&gt;commons&#45;lang:commons&#45;lang:2.6 -->
<g id="edge8" class="edge"><title>javax.free:freejava&#45;string:3.0.0&#45;&gt;commons&#45;lang:commons&#45;lang:2.6</title>
<path fill="none" stroke="black" d="M152.887,-335.747C133.684,-317.364 104.602,-289.525 83.3098,-269.143"/>
<polygon fill="black" stroke="black" points="85.4946,-266.389 75.8506,-262.002 80.6541,-271.446 85.4946,-266.389"/>
</g>
<!-- javax.free:freejava&#45;sio:3.0.0 -->
<g id="node8" class="node"><title>javax.free:freejava&#45;sio:3.0.0</title>
<polygon fill="white" stroke="black" points="166,-262 100,-262 100,-224 166,-224 166,-262"/>
<text text-anchor="middle" x="133" y="-250.8" font-family="SanSerif" font-size="8.00">javax.free</text>
<text text-anchor="middle" x="133" y="-240.8" font-family="SanSerif" font-size="8.00">freejava&#45;sio</text>
<text text-anchor="middle" x="133" y="-230.8" font-family="SanSerif" font-size="8.00">3.0.0</text>
</g>
<!-- javax.free:freejava&#45;string:3.0.0&#45;&gt;javax.free:freejava&#45;sio:3.0.0 -->
<g id="edge14" class="edge"><title>javax.free:freejava&#45;string:3.0.0&#45;&gt;javax.free:freejava&#45;sio:3.0.0</title>
<path fill="none" stroke="black" d="M166.124,-335.747C159.818,-318.09 150.396,-291.708 143.211,-271.59"/>
<polygon fill="black" stroke="black" points="146.446,-270.242 139.787,-262.002 139.854,-272.597 146.446,-270.242"/>
</g>
<!-- javax.free:freejava&#45;string:3.0.0&#45;&gt;javax.free:freejava&#45;c1:3.0.0 -->
<g id="edge16" class="edge"><title>javax.free:freejava&#45;string:3.0.0&#45;&gt;javax.free:freejava&#45;c1:3.0.0</title>
<path fill="none" stroke="black" d="M171.373,-335.902C169.757,-309.992 168.905,-262.519 180,-224 199.827,-155.167 246.228,-84.1421 273.325,-46.4341"/>
<polygon fill="black" stroke="black" points="276.39,-48.1704 279.446,-38.0258 270.731,-44.0506 276.39,-48.1704"/>
</g>
<!-- javax.free:freejava&#45;bits:3.0.0 -->
<g id="node9" class="node"><title>javax.free:freejava&#45;bits:3.0.0</title>
<polygon fill="white" stroke="black" points="70,-150 2.13163e-14,-150 7.10543e-15,-112 70,-112 70,-150"/>
<text text-anchor="middle" x="35" y="-138.8" font-family="SanSerif" font-size="8.00">javax.free</text>
<text text-anchor="middle" x="35" y="-128.8" font-family="SanSerif" font-size="8.00">freejava&#45;bits</text>
<text text-anchor="middle" x="35" y="-118.8" font-family="SanSerif" font-size="8.00">3.0.0</text>
</g>
<!-- javax.free:freejava&#45;sio:3.0.0&#45;&gt;javax.free:freejava&#45;bits:3.0.0 -->
<g id="edge10" class="edge"><title>javax.free:freejava&#45;sio:3.0.0&#45;&gt;javax.free:freejava&#45;bits:3.0.0</title>
<path fill="none" stroke="black" d="M116.153,-223.747C100.21,-205.526 76.1359,-178.012 58.3457,-157.681"/>
<polygon fill="black" stroke="black" points="60.8461,-155.223 51.627,-150.002 55.578,-159.833 60.8461,-155.223"/>
</g>
<!-- javax.free:freejava&#45;proxy&#45;api:3.0.0 -->
<g id="node10" class="node"><title>javax.free:freejava&#45;proxy&#45;api:3.0.0</title>
<polygon fill="white" stroke="black" points="166,-150 74,-150 74,-112 166,-112 166,-150"/>
<text text-anchor="middle" x="120" y="-138.8" font-family="SanSerif" font-size="8.00">javax.free</text>
<text text-anchor="middle" x="120" y="-128.8" font-family="SanSerif" font-size="8.00">freejava&#45;proxy&#45;api</text>
<text text-anchor="middle" x="120" y="-118.8" font-family="SanSerif" font-size="8.00">3.0.0</text>
</g>
<!-- javax.free:freejava&#45;sio:3.0.0&#45;&gt;javax.free:freejava&#45;proxy&#45;api:3.0.0 -->
<g id="edge12" class="edge"><title>javax.free:freejava&#45;sio:3.0.0&#45;&gt;javax.free:freejava&#45;proxy&#45;api:3.0.0</title>
<path fill="none" stroke="black" d="M130.765,-223.747C128.735,-206.251 125.709,-180.189 123.383,-160.143"/>
<polygon fill="black" stroke="black" points="126.835,-159.532 122.206,-150.002 119.882,-160.339 126.835,-159.532"/>
</g>
<!-- javax.free:freejava&#45;collection:3.0.0&#45;&gt;javax.free:freejava&#45;closure:3.0.0 -->
<g id="edge26" class="edge"><title>javax.free:freejava&#45;collection:3.0.0&#45;&gt;javax.free:freejava&#45;closure:3.0.0</title>
<path fill="none" stroke="black" d="M358.109,-335.747C356.391,-318.251 353.831,-292.189 351.862,-272.143"/>
<polygon fill="black" stroke="black" points="355.327,-271.612 350.866,-262.002 348.361,-272.296 355.327,-271.612"/>
</g>
<!-- javax.free:freejava&#45;collection:3.0.0&#45;&gt;javax.free:freejava&#45;c1:3.0.0 -->
<g id="edge22" class="edge"><title>javax.free:freejava&#45;collection:3.0.0&#45;&gt;javax.free:freejava&#45;c1:3.0.0</title>
<path fill="none" stroke="black" d="M345.251,-335.953C332.275,-317.989 314.211,-289.749 306,-262 283.975,-187.569 287.387,-94.7802 291.066,-48.3436"/>
<polygon fill="black" stroke="black" points="294.577,-48.3646 291.944,-38.1024 287.603,-47.7673 294.577,-48.3646"/>
</g>
<!-- net.sourceforge.collections:collections&#45;generic:4.01 -->
<g id="node13" class="node"><title>net.sourceforge.collections:collections&#45;generic:4.01</title>
<polygon fill="white" stroke="black" points="528,-262 396,-262 396,-224 528,-224 528,-262"/>
<text text-anchor="middle" x="462" y="-250.8" font-family="SanSerif" font-size="8.00">net.sourceforge.collections</text>
<text text-anchor="middle" x="462" y="-240.8" font-family="SanSerif" font-size="8.00">collections&#45;generic</text>
<text text-anchor="middle" x="462" y="-230.8" font-family="SanSerif" font-size="8.00">4.01</text>
</g>
<!-- javax.free:freejava&#45;collection:3.0.0&#45;&gt;net.sourceforge.collections:collections&#45;generic:4.01 -->
<g id="edge20" class="edge"><title>javax.free:freejava&#45;collection:3.0.0&#45;&gt;net.sourceforge.collections:collections&#45;generic:4.01</title>
<path fill="none" stroke="black" d="M377.534,-335.747C394.202,-317.445 419.407,-289.769 437.947,-269.411"/>
<polygon fill="black" stroke="black" points="440.549,-271.752 444.694,-262.002 435.373,-267.039 440.549,-271.752"/>
</g>
<!-- javax.free:freejava&#45;collection:3.0.0&#45;&gt;javax.free:freejava&#45;lang:3.0.0 -->
<g id="edge24" class="edge"><title>javax.free:freejava&#45;collection:3.0.0&#45;&gt;javax.free:freejava&#45;lang:3.0.0</title>
<path fill="none" stroke="black" d="M397.476,-335.747C434.972,-316.483 492.685,-286.832 532.722,-266.262"/>
<polygon fill="black" stroke="black" points="534.443,-269.313 541.738,-261.63 531.244,-263.087 534.443,-269.313"/>
</g>
<!-- javax.free:freejava&#45;lang:3.0.0&#45;&gt;javax.free:freejava&#45;jdk6compat:3.0.0 -->
<g id="edge44" class="edge"><title>javax.free:freejava&#45;lang:3.0.0&#45;&gt;javax.free:freejava&#45;jdk6compat:3.0.0</title>
<path fill="none" stroke="black" d="M583.501,-223.747C588.523,-206.171 596.015,-179.949 601.753,-159.866"/>
<polygon fill="black" stroke="black" points="605.189,-160.579 604.571,-150.002 598.458,-158.656 605.189,-160.579"/>
</g>
<!-- org.slf4j:slf4j&#45;api:1.4.2 -->
<g id="node16" class="node"><title>org.slf4j:slf4j&#45;api:1.4.2</title>
<polygon fill="white" stroke="black" points="234,-262 180,-262 180,-224 234,-224 234,-262"/>
<text text-anchor="middle" x="207" y="-250.8" font-family="SanSerif" font-size="8.00">org.slf4j</text>
<text text-anchor="middle" x="207" y="-240.8" font-family="SanSerif" font-size="8.00">slf4j&#45;api</text>
<text text-anchor="middle" x="207" y="-230.8" font-family="SanSerif" font-size="8.00">1.4.2</text>
</g>
<!-- org.slf4j:slf4j&#45;log4j12:1.4.2&#45;&gt;org.slf4j:slf4j&#45;api:1.4.2 -->
<g id="edge30" class="edge"><title>org.slf4j:slf4j&#45;log4j12:1.4.2&#45;&gt;org.slf4j:slf4j&#45;api:1.4.2</title>
<path fill="none" stroke="black" d="M255.029,-335.747C245.802,-317.929 231.974,-291.225 221.521,-271.041"/>
<polygon fill="black" stroke="black" points="224.547,-269.273 216.84,-262.002 218.331,-272.492 224.547,-269.273"/>
</g>
<!-- log4j:log4j:1.2.13 -->
<g id="node17" class="node"><title>log4j:log4j:1.2.13</title>
<polygon fill="white" stroke="black" points="292,-262 238,-262 238,-224 292,-224 292,-262"/>
<text text-anchor="middle" x="265" y="-250.8" font-family="SanSerif" font-size="8.00">log4j</text>
<text text-anchor="middle" x="265" y="-240.8" font-family="SanSerif" font-size="8.00">log4j</text>
<text text-anchor="middle" x="265" y="-230.8" font-family="SanSerif" font-size="8.00">1.2.13</text>
</g>
<!-- org.slf4j:slf4j&#45;log4j12:1.4.2&#45;&gt;log4j:log4j:1.2.13 -->
<g id="edge32" class="edge"><title>org.slf4j:slf4j&#45;log4j12:1.4.2&#45;&gt;log4j:log4j:1.2.13</title>
<path fill="none" stroke="black" d="M265,-335.747C265,-318.251 265,-292.189 265,-272.143"/>
<polygon fill="black" stroke="black" points="268.5,-272.002 265,-262.002 261.5,-272.002 268.5,-272.002"/>
</g>
<!-- com.bee32.plover:plover&#45;inject:0.0.1&#45;SNAPSHOT&#45;&gt;com.bee32.plover:plover&#45;arch:0.0.4&#45;SNAPSHOT -->
<g id="edge54" class="edge"><title>com.bee32.plover:plover&#45;inject:0.0.1&#45;SNAPSHOT&#45;&gt;com.bee32.plover:plover&#45;arch:0.0.4&#45;SNAPSHOT</title>
<path fill="none" stroke="black" d="M350.889,-559.747C342.496,-542.009 329.935,-515.467 320.399,-495.315"/>
<polygon fill="black" stroke="black" points="323.433,-493.544 315.992,-486.002 317.106,-496.538 323.433,-493.544"/>
</g>
<!-- com.bee32.plover:plover&#45;inject:0.0.1&#45;SNAPSHOT&#45;&gt;javax.free:freejava&#45;collection:3.0.0 -->
<g id="edge52" class="edge"><title>com.bee32.plover:plover&#45;inject:0.0.1&#45;SNAPSHOT&#45;&gt;javax.free:freejava&#45;collection:3.0.0</title>
<path fill="none" stroke="black" d="M360,-559.902C360,-520.64 360,-430.652 360,-384.094"/>
<polygon fill="black" stroke="black" points="363.5,-384.05 360,-374.05 356.5,-384.05 363.5,-384.05"/>
</g>
</g>
</svg>
