<?xml version="1.0" encoding="UTF-8" standalone="no"?>
<!DOCTYPE svg PUBLIC "-//W3C//DTD SVG 1.1//EN"
 "http://www.w3.org/Graphics/SVG/1.1/DTD/svg11.dtd">
<!-- Generated by graphviz version 2.26.3 (20100126.1600)
 -->
<!-- Title: dependencies Pages: 1 -->
<svg width="760pt" height="928pt"
 viewBox="0.00 0.00 760.18 928.00" xmlns="http://www.w3.org/2000/svg" xmlns:xlink="http://www.w3.org/1999/xlink">
<g id="graph1" class="graph" transform="scale(1 1) rotate(0) translate(4 924)">
<title>dependencies</title>
<polygon fill="white" stroke="white" points="-4,5 -4,-924 757.177,-924 757.177,5 -4,5"/>
<text text-anchor="middle" x="236.5" y="-899.8" font-family="Serif" font-size="18.00">Dependency Graph for Plover :: Library :: Internet</text>
<!-- com.bee32.plover:plover&#45;internet:0.0.1&#45;SNAPSHOT -->
<g id="node1" class="node"><title>com.bee32.plover:plover&#45;internet:0.0.1&#45;SNAPSHOT</title>
<polygon fill="#dddddd" stroke="black" points="426.177,-890 288.177,-890 288.177,-828 426.177,-828 426.177,-890"/>
<text text-anchor="middle" x="357.177" y="-873.4" font-family="SanSerif" font-size="14.00">com.bee32.plover</text>
<text text-anchor="middle" x="357.177" y="-855.4" font-family="SanSerif" font-size="14.00">plover&#45;internet</text>
<text text-anchor="middle" x="357.177" y="-837.4" font-family="SanSerif" font-size="14.00">0.0.1&#45;SNAPSHOT</text>
</g>
<!-- com.bee32.plover:plover&#45;arch:0.0.4&#45;SNAPSHOT -->
<g id="node2" class="node"><title>com.bee32.plover:plover&#45;arch:0.0.4&#45;SNAPSHOT</title>
<polygon fill="white" stroke="black" points="349.177,-522 257.177,-522 257.177,-484 349.177,-484 349.177,-522"/>
<text text-anchor="middle" x="303.177" y="-510.8" font-family="SanSerif" font-size="8.00">com.bee32.plover</text>
<text text-anchor="middle" x="303.177" y="-500.8" font-family="SanSerif" font-size="8.00">plover&#45;arch</text>
<text text-anchor="middle" x="303.177" y="-490.8" font-family="SanSerif" font-size="8.00">0.0.4&#45;SNAPSHOT</text>
</g>
<!-- com.bee32.plover:plover&#45;internet:0.0.1&#45;SNAPSHOT&#45;&gt;com.bee32.plover:plover&#45;arch:0.0.4&#45;SNAPSHOT -->
<g id="edge48" class="edge"><title>com.bee32.plover:plover&#45;internet:0.0.1&#45;SNAPSHOT&#45;&gt;com.bee32.plover:plover&#45;arch:0.0.4&#45;SNAPSHOT</title>
<path fill="none" stroke="black" d="M358.001,-827.972C358.788,-778.518 358.213,-678.937 344.177,-596 341.243,-578.664 339.871,-574.258 333.177,-558 329.437,-548.915 324.601,-539.394 319.908,-530.875"/>
<polygon fill="black" stroke="black" points="322.907,-529.068 314.931,-522.093 316.817,-532.519 322.907,-529.068"/>
</g>
<!-- com.bee32.plover:plover&#45;model:0.0.1&#45;SNAPSHOT -->
<g id="node20" class="node"><title>com.bee32.plover:plover&#45;model:0.0.1&#45;SNAPSHOT</title>
<polygon fill="white" stroke="black" points="350.177,-746 258.177,-746 258.177,-708 350.177,-708 350.177,-746"/>
<text text-anchor="middle" x="304.177" y="-734.8" font-family="SanSerif" font-size="8.00">com.bee32.plover</text>
<text text-anchor="middle" x="304.177" y="-724.8" font-family="SanSerif" font-size="8.00">plover&#45;model</text>
<text text-anchor="middle" x="304.177" y="-714.8" font-family="SanSerif" font-size="8.00">0.0.1&#45;SNAPSHOT</text>
</g>
<!-- com.bee32.plover:plover&#45;internet:0.0.1&#45;SNAPSHOT&#45;&gt;com.bee32.plover:plover&#45;model:0.0.1&#45;SNAPSHOT -->
<g id="edge60" class="edge"><title>com.bee32.plover:plover&#45;internet:0.0.1&#45;SNAPSHOT&#45;&gt;com.bee32.plover:plover&#45;model:0.0.1&#45;SNAPSHOT</title>
<path fill="none" stroke="black" d="M344.617,-827.718C335.843,-805.867 324.22,-776.919 315.687,-755.667"/>
<polygon fill="black" stroke="black" points="318.863,-754.183 311.889,-746.207 312.367,-756.791 318.863,-754.183"/>
</g>
<!-- javax.free:freejava&#45;c3:3.0.0 -->
<g id="node22" class="node"><title>javax.free:freejava&#45;c3:3.0.0</title>
<polygon fill="white" stroke="black" points="428.177,-634 364.177,-634 364.177,-596 428.177,-596 428.177,-634"/>
<text text-anchor="middle" x="396.177" y="-622.8" font-family="SanSerif" font-size="8.00">javax.free</text>
<text text-anchor="middle" x="396.177" y="-612.8" font-family="SanSerif" font-size="8.00">freejava&#45;c3</text>
<text text-anchor="middle" x="396.177" y="-602.8" font-family="SanSerif" font-size="8.00">3.0.0</text>
</g>
<!-- com.bee32.plover:plover&#45;internet:0.0.1&#45;SNAPSHOT&#45;&gt;javax.free:freejava&#45;c3:3.0.0 -->
<g id="edge96" class="edge"><title>com.bee32.plover:plover&#45;internet:0.0.1&#45;SNAPSHOT&#45;&gt;javax.free:freejava&#45;c3:3.0.0</title>
<path fill="none" stroke="black" d="M359.934,-827.921C362.873,-797.297 368.082,-749.24 375.177,-708 378.901,-686.354 384.406,-662.161 388.846,-643.877"/>
<polygon fill="black" stroke="black" points="392.256,-644.667 391.25,-634.12 385.459,-642.993 392.256,-644.667"/>
</g>
<!-- junit:junit:4.8.2 -->
<g id="node28" class="node"><title>junit:junit:4.8.2</title>
<polygon fill="white" stroke="cornflowerblue" points="429.177,-746 375.177,-746 375.177,-708 429.177,-708 429.177,-746"/>
<text text-anchor="middle" x="402.177" y="-734.8" font-family="SanSerif" font-size="8.00" fill="cornflowerblue">junit</text>
<text text-anchor="middle" x="402.177" y="-724.8" font-family="SanSerif" font-size="8.00" fill="cornflowerblue">junit</text>
<text text-anchor="middle" x="402.177" y="-714.8" font-family="SanSerif" font-size="8.00" fill="cornflowerblue">4.8.2</text>
</g>
<!-- com.bee32.plover:plover&#45;internet:0.0.1&#45;SNAPSHOT&#45;&gt;junit:junit:4.8.2 -->
<g id="edge98" class="edge"><title>com.bee32.plover:plover&#45;internet:0.0.1&#45;SNAPSHOT&#45;&gt;junit:junit:4.8.2</title>
<path fill="none" stroke="cornflowerblue" d="M367.841,-827.718C375.257,-805.966 385.07,-777.181 392.306,-755.956"/>
<polygon fill="cornflowerblue" stroke="cornflowerblue" points="395.715,-756.802 395.629,-746.207 389.089,-754.543 395.715,-756.802"/>
<text text-anchor="middle" x="390.677" y="-784.8" font-family="SanSerif" font-size="8.00" fill="cornflowerblue">test</text>
</g>
<!-- javax.free:freejava&#45;closure:3.0.0 -->
<g id="node3" class="node"><title>javax.free:freejava&#45;closure:3.0.0</title>
<polygon fill="white" stroke="black" points="315.177,-262 229.177,-262 229.177,-224 315.177,-224 315.177,-262"/>
<text text-anchor="middle" x="272.177" y="-250.8" font-family="SanSerif" font-size="8.00">javax.free</text>
<text text-anchor="middle" x="272.177" y="-240.8" font-family="SanSerif" font-size="8.00">freejava&#45;closure</text>
<text text-anchor="middle" x="272.177" y="-230.8" font-family="SanSerif" font-size="8.00">3.0.0</text>
</g>
<!-- com.bee32.plover:plover&#45;arch:0.0.4&#45;SNAPSHOT&#45;&gt;javax.free:freejava&#45;closure:3.0.0 -->
<g id="edge8" class="edge"><title>com.bee32.plover:plover&#45;arch:0.0.4&#45;SNAPSHOT&#45;&gt;javax.free:freejava&#45;closure:3.0.0</title>
<path fill="none" stroke="black" d="M303.978,-483.768C304.719,-464.965 305.765,-435.52 306.177,-410 306.449,-393.113 308.347,-388.749 306.177,-372 301.632,-336.921 290.408,-297.784 282.093,-271.916"/>
<polygon fill="black" stroke="black" points="285.4,-270.768 278.958,-262.357 278.749,-272.95 285.4,-270.768"/>
</g>
<!-- javax.free:freejava&#45;traits:3.0.0 -->
<g id="node7" class="node"><title>javax.free:freejava&#45;traits:3.0.0</title>
<polygon fill="white" stroke="black" points="306.177,-410 230.177,-410 230.177,-372 306.177,-372 306.177,-410"/>
<text text-anchor="middle" x="268.177" y="-398.8" font-family="SanSerif" font-size="8.00">javax.free</text>
<text text-anchor="middle" x="268.177" y="-388.8" font-family="SanSerif" font-size="8.00">freejava&#45;traits</text>
<text text-anchor="middle" x="268.177" y="-378.8" font-family="SanSerif" font-size="8.00">3.0.0</text>
</g>
<!-- com.bee32.plover:plover&#45;arch:0.0.4&#45;SNAPSHOT&#45;&gt;javax.free:freejava&#45;traits:3.0.0 -->
<g id="edge18" class="edge"><title>com.bee32.plover:plover&#45;arch:0.0.4&#45;SNAPSHOT&#45;&gt;javax.free:freejava&#45;traits:3.0.0</title>
<path fill="none" stroke="black" d="M297.16,-483.747C291.643,-466.09 283.398,-439.708 277.111,-419.59"/>
<polygon fill="black" stroke="black" points="280.439,-418.503 274.115,-410.002 273.757,-420.591 280.439,-418.503"/>
</g>
<!-- javax.free:freejava&#45;string:3.0.0 -->
<g id="node10" class="node"><title>javax.free:freejava&#45;string:3.0.0</title>
<polygon fill="white" stroke="black" points="570.177,-410 492.177,-410 492.177,-372 570.177,-372 570.177,-410"/>
<text text-anchor="middle" x="531.177" y="-398.8" font-family="SanSerif" font-size="8.00">javax.free</text>
<text text-anchor="middle" x="531.177" y="-388.8" font-family="SanSerif" font-size="8.00">freejava&#45;string</text>
<text text-anchor="middle" x="531.177" y="-378.8" font-family="SanSerif" font-size="8.00">3.0.0</text>
</g>
<!-- com.bee32.plover:plover&#45;arch:0.0.4&#45;SNAPSHOT&#45;&gt;javax.free:freejava&#45;string:3.0.0 -->
<g id="edge30" class="edge"><title>com.bee32.plover:plover&#45;arch:0.0.4&#45;SNAPSHOT&#45;&gt;javax.free:freejava&#45;string:3.0.0</title>
<path fill="none" stroke="black" d="M342.112,-483.874C381.133,-464.706 441.275,-435.162 483.215,-414.56"/>
<polygon fill="black" stroke="black" points="484.97,-417.598 492.402,-410.047 481.883,-411.315 484.97,-417.598"/>
</g>
<!-- javax.free:freejava&#45;collection:3.0.0 -->
<g id="node15" class="node"><title>javax.free:freejava&#45;collection:3.0.0</title>
<polygon fill="white" stroke="black" points="226.177,-410 132.177,-410 132.177,-372 226.177,-372 226.177,-410"/>
<text text-anchor="middle" x="179.177" y="-398.8" font-family="SanSerif" font-size="8.00">javax.free</text>
<text text-anchor="middle" x="179.177" y="-388.8" font-family="SanSerif" font-size="8.00">freejava&#45;collection</text>
<text text-anchor="middle" x="179.177" y="-378.8" font-family="SanSerif" font-size="8.00">3.0.0</text>
</g>
<!-- com.bee32.plover:plover&#45;arch:0.0.4&#45;SNAPSHOT&#45;&gt;javax.free:freejava&#45;collection:3.0.0 -->
<g id="edge40" class="edge"><title>com.bee32.plover:plover&#45;arch:0.0.4&#45;SNAPSHOT&#45;&gt;javax.free:freejava&#45;collection:3.0.0</title>
<path fill="none" stroke="black" d="M281.861,-483.747C261.42,-465.284 230.416,-437.28 207.824,-416.875"/>
<polygon fill="black" stroke="black" points="209.982,-414.108 200.215,-410.002 205.29,-419.303 209.982,-414.108"/>
</g>
<!-- org.slf4j:slf4j&#45;log4j12:1.4.2 -->
<g id="node17" class="node"><title>org.slf4j:slf4j&#45;log4j12:1.4.2</title>
<polygon fill="white" stroke="black" points="420.177,-410 352.177,-410 352.177,-372 420.177,-372 420.177,-410"/>
<text text-anchor="middle" x="386.177" y="-398.8" font-family="SanSerif" font-size="8.00">org.slf4j</text>
<text text-anchor="middle" x="386.177" y="-388.8" font-family="SanSerif" font-size="8.00">slf4j&#45;log4j12</text>
<text text-anchor="middle" x="386.177" y="-378.8" font-family="SanSerif" font-size="8.00">1.4.2</text>
</g>
<!-- com.bee32.plover:plover&#45;arch:0.0.4&#45;SNAPSHOT&#45;&gt;org.slf4j:slf4j&#45;log4j12:1.4.2 -->
<g id="edge46" class="edge"><title>com.bee32.plover:plover&#45;arch:0.0.4&#45;SNAPSHOT&#45;&gt;org.slf4j:slf4j&#45;log4j12:1.4.2</title>
<path fill="none" stroke="black" d="M317.445,-483.747C330.828,-465.687 350.977,-438.499 366.003,-418.222"/>
<polygon fill="black" stroke="black" points="368.953,-420.12 372.095,-410.002 363.329,-415.953 368.953,-420.12"/>
</g>
<!-- javax.free:freejava&#45;meta:3.0.0 -->
<g id="node4" class="node"><title>javax.free:freejava&#45;meta:3.0.0</title>
<polygon fill="white" stroke="black" points="495.177,-150 419.177,-150 419.177,-112 495.177,-112 495.177,-150"/>
<text text-anchor="middle" x="457.177" y="-138.8" font-family="SanSerif" font-size="8.00">javax.free</text>
<text text-anchor="middle" x="457.177" y="-128.8" font-family="SanSerif" font-size="8.00">freejava&#45;meta</text>
<text text-anchor="middle" x="457.177" y="-118.8" font-family="SanSerif" font-size="8.00">3.0.0</text>
</g>
<!-- javax.free:freejava&#45;closure:3.0.0&#45;&gt;javax.free:freejava&#45;meta:3.0.0 -->
<g id="edge6" class="edge"><title>javax.free:freejava&#45;closure:3.0.0&#45;&gt;javax.free:freejava&#45;meta:3.0.0</title>
<path fill="none" stroke="black" d="M283.841,-223.924C292.135,-211.695 304.246,-196.249 318.177,-186 345.479,-165.914 381.101,-152.008 409.448,-143.204"/>
<polygon fill="black" stroke="black" points="410.569,-146.521 419.146,-140.3 408.562,-139.815 410.569,-146.521"/>
</g>
<!-- javax.free:freejava&#45;annotation:3.0.0 -->
<g id="node5" class="node"><title>javax.free:freejava&#45;annotation:3.0.0</title>
<polygon fill="white" stroke="black" points="506.177,-38 408.177,-38 408.177,-7.10543e-15 506.177,-3.55271e-15 506.177,-38"/>
<text text-anchor="middle" x="457.177" y="-26.8" font-family="SanSerif" font-size="8.00">javax.free</text>
<text text-anchor="middle" x="457.177" y="-16.8" font-family="SanSerif" font-size="8.00">freejava&#45;annotation</text>
<text text-anchor="middle" x="457.177" y="-6.8" font-family="SanSerif" font-size="8.00">3.0.0</text>
</g>
<!-- javax.free:freejava&#45;meta:3.0.0&#45;&gt;javax.free:freejava&#45;annotation:3.0.0 -->
<g id="edge2" class="edge"><title>javax.free:freejava&#45;meta:3.0.0&#45;&gt;javax.free:freejava&#45;annotation:3.0.0</title>
<path fill="none" stroke="black" d="M457.177,-111.747C457.177,-94.2513 457.177,-68.1891 457.177,-48.1429"/>
<polygon fill="black" stroke="black" points="460.677,-48.0022 457.177,-38.0022 453.677,-48.0023 460.677,-48.0022"/>
</g>
<!-- javax.free:freejava&#45;c1:3.0.0 -->
<g id="node6" class="node"><title>javax.free:freejava&#45;c1:3.0.0</title>
<polygon fill="white" stroke="black" points="368.177,-38 304.177,-38 304.177,-7.10543e-15 368.177,-3.55271e-15 368.177,-38"/>
<text text-anchor="middle" x="336.177" y="-26.8" font-family="SanSerif" font-size="8.00">javax.free</text>
<text text-anchor="middle" x="336.177" y="-16.8" font-family="SanSerif" font-size="8.00">freejava&#45;c1</text>
<text text-anchor="middle" x="336.177" y="-6.8" font-family="SanSerif" font-size="8.00">3.0.0</text>
</g>
<!-- javax.free:freejava&#45;meta:3.0.0&#45;&gt;javax.free:freejava&#45;c1:3.0.0 -->
<g id="edge4" class="edge"><title>javax.free:freejava&#45;meta:3.0.0&#45;&gt;javax.free:freejava&#45;c1:3.0.0</title>
<path fill="none" stroke="black" d="M436.376,-111.747C416.43,-93.2839 386.176,-65.2804 364.131,-44.8749"/>
<polygon fill="black" stroke="black" points="366.422,-42.2266 356.706,-38.0022 361.667,-47.3637 366.422,-42.2266"/>
</g>
<!-- javax.free:freejava&#45;traits:3.0.0&#45;&gt;javax.free:freejava&#45;meta:3.0.0 -->
<g id="edge10" class="edge"><title>javax.free:freejava&#45;traits:3.0.0&#45;&gt;javax.free:freejava&#45;meta:3.0.0</title>
<path fill="none" stroke="black" d="M274.698,-371.807C287.99,-333.35 318.531,-248.443 337.177,-224 358.341,-196.256 389.708,-172.335 415.065,-155.703"/>
<polygon fill="black" stroke="black" points="417.228,-158.474 423.757,-150.13 413.45,-152.581 417.228,-158.474"/>
</g>
<!-- javax.free:freejava&#45;lang:3.0.0 -->
<g id="node8" class="node"><title>javax.free:freejava&#45;lang:3.0.0</title>
<polygon fill="white" stroke="black" points="215.177,-262 143.177,-262 143.177,-224 215.177,-224 215.177,-262"/>
<text text-anchor="middle" x="179.177" y="-250.8" font-family="SanSerif" font-size="8.00">javax.free</text>
<text text-anchor="middle" x="179.177" y="-240.8" font-family="SanSerif" font-size="8.00">freejava&#45;lang</text>
<text text-anchor="middle" x="179.177" y="-230.8" font-family="SanSerif" font-size="8.00">3.0.0</text>
</g>
<!-- javax.free:freejava&#45;traits:3.0.0&#45;&gt;javax.free:freejava&#45;lang:3.0.0 -->
<g id="edge14" class="edge"><title>javax.free:freejava&#45;traits:3.0.0&#45;&gt;javax.free:freejava&#45;lang:3.0.0</title>
<path fill="none" stroke="black" d="M247.883,-371.982C238.007,-361.96 226.5,-349.059 218.177,-336 205.334,-315.851 195.101,-290.755 188.345,-271.712"/>
<polygon fill="black" stroke="black" points="191.601,-270.418 185.044,-262.096 184.98,-272.69 191.601,-270.418"/>
</g>
<!-- javax.free:freejava&#45;jdk6compat:3.0.0 -->
<g id="node9" class="node"><title>javax.free:freejava&#45;jdk6compat:3.0.0</title>
<polygon fill="white" stroke="black" points="262.177,-150 160.177,-150 160.177,-112 262.177,-112 262.177,-150"/>
<text text-anchor="middle" x="211.177" y="-138.8" font-family="SanSerif" font-size="8.00">javax.free</text>
<text text-anchor="middle" x="211.177" y="-128.8" font-family="SanSerif" font-size="8.00">freejava&#45;jdk6compat</text>
<text text-anchor="middle" x="211.177" y="-118.8" font-family="SanSerif" font-size="8.00">3.0.0</text>
</g>
<!-- javax.free:freejava&#45;traits:3.0.0&#45;&gt;javax.free:freejava&#45;jdk6compat:3.0.0 -->
<g id="edge16" class="edge"><title>javax.free:freejava&#45;traits:3.0.0&#45;&gt;javax.free:freejava&#45;jdk6compat:3.0.0</title>
<path fill="none" stroke="black" d="M261.261,-371.583C252.589,-346.554 237.815,-301.544 229.177,-262 221.641,-227.504 216.663,-187.171 213.889,-160.468"/>
<polygon fill="black" stroke="black" points="217.346,-159.859 212.868,-150.257 210.381,-160.556 217.346,-159.859"/>
</g>
<!-- javax.free:freejava&#45;lang:3.0.0&#45;&gt;javax.free:freejava&#45;jdk6compat:3.0.0 -->
<g id="edge12" class="edge"><title>javax.free:freejava&#45;lang:3.0.0&#45;&gt;javax.free:freejava&#45;jdk6compat:3.0.0</title>
<path fill="none" stroke="black" d="M184.678,-223.747C189.7,-206.171 197.192,-179.949 202.929,-159.866"/>
<polygon fill="black" stroke="black" points="206.366,-160.579 205.748,-150.002 199.635,-158.656 206.366,-160.579"/>
</g>
<!-- javax.free:freejava&#45;string:3.0.0&#45;&gt;javax.free:freejava&#45;c1:3.0.0 -->
<g id="edge28" class="edge"><title>javax.free:freejava&#45;string:3.0.0&#45;&gt;javax.free:freejava&#45;c1:3.0.0</title>
<path fill="none" stroke="black" d="M547.738,-371.786C555.245,-361.814 563.296,-349.014 567.177,-336 571.148,-322.681 572.35,-245.241 566.177,-224 549.86,-167.857 539.1,-152.752 497.177,-112 462.268,-78.0663 412.61,-51.837 377.699,-36.012"/>
<polygon fill="black" stroke="black" points="378.828,-32.6838 368.267,-31.8267 375.988,-39.0821 378.828,-32.6838"/>
</g>
<!-- commons&#45;lang:commons&#45;lang:2.6 -->
<g id="node11" class="node"><title>commons&#45;lang:commons&#45;lang:2.6</title>
<polygon fill="white" stroke="black" points="566.177,-262 486.177,-262 486.177,-224 566.177,-224 566.177,-262"/>
<text text-anchor="middle" x="526.177" y="-250.8" font-family="SanSerif" font-size="8.00">commons&#45;lang</text>
<text text-anchor="middle" x="526.177" y="-240.8" font-family="SanSerif" font-size="8.00">commons&#45;lang</text>
<text text-anchor="middle" x="526.177" y="-230.8" font-family="SanSerif" font-size="8.00">2.6</text>
</g>
<!-- javax.free:freejava&#45;string:3.0.0&#45;&gt;commons&#45;lang:commons&#45;lang:2.6 -->
<g id="edge20" class="edge"><title>javax.free:freejava&#45;string:3.0.0&#45;&gt;commons&#45;lang:commons&#45;lang:2.6</title>
<path fill="none" stroke="black" d="M545.301,-371.697C551.818,-361.602 558.838,-348.722 562.177,-336 566.464,-319.664 567.003,-314.185 562.177,-298 559.297,-288.341 554.119,-278.8 548.572,-270.446"/>
<polygon fill="black" stroke="black" points="551.376,-268.349 542.738,-262.214 545.665,-272.397 551.376,-268.349"/>
</g>
<!-- javax.free:freejava&#45;sio:3.0.0 -->
<g id="node12" class="node"><title>javax.free:freejava&#45;sio:3.0.0</title>
<polygon fill="white" stroke="black" points="646.177,-262 580.177,-262 580.177,-224 646.177,-224 646.177,-262"/>
<text text-anchor="middle" x="613.177" y="-250.8" font-family="SanSerif" font-size="8.00">javax.free</text>
<text text-anchor="middle" x="613.177" y="-240.8" font-family="SanSerif" font-size="8.00">freejava&#45;sio</text>
<text text-anchor="middle" x="613.177" y="-230.8" font-family="SanSerif" font-size="8.00">3.0.0</text>
</g>
<!-- javax.free:freejava&#45;string:3.0.0&#45;&gt;javax.free:freejava&#45;sio:3.0.0 -->
<g id="edge26" class="edge"><title>javax.free:freejava&#45;string:3.0.0&#45;&gt;javax.free:freejava&#45;sio:3.0.0</title>
<path fill="none" stroke="black" d="M554.093,-371.771C564.523,-361.986 576.272,-349.35 584.177,-336 587.528,-330.34 597.515,-297.216 604.836,-272.097"/>
<polygon fill="black" stroke="black" points="608.264,-272.842 607.686,-262.263 601.541,-270.894 608.264,-272.842"/>
</g>
<!-- javax.free:freejava&#45;bits:3.0.0 -->
<g id="node13" class="node"><title>javax.free:freejava&#45;bits:3.0.0</title>
<polygon fill="white" stroke="black" points="736.177,-150 666.177,-150 666.177,-112 736.177,-112 736.177,-150"/>
<text text-anchor="middle" x="701.177" y="-138.8" font-family="SanSerif" font-size="8.00">javax.free</text>
<text text-anchor="middle" x="701.177" y="-128.8" font-family="SanSerif" font-size="8.00">freejava&#45;bits</text>
<text text-anchor="middle" x="701.177" y="-118.8" font-family="SanSerif" font-size="8.00">3.0.0</text>
</g>
<!-- javax.free:freejava&#45;sio:3.0.0&#45;&gt;javax.free:freejava&#45;bits:3.0.0 -->
<g id="edge22" class="edge"><title>javax.free:freejava&#45;sio:3.0.0&#45;&gt;javax.free:freejava&#45;bits:3.0.0</title>
<path fill="none" stroke="black" d="M623.972,-223.901C630.706,-212.528 639.844,-198.017 649.177,-186 656.783,-176.207 665.846,-166.161 674.26,-157.379"/>
<polygon fill="black" stroke="black" points="676.956,-159.627 681.433,-150.025 671.945,-154.74 676.956,-159.627"/>
</g>
<!-- javax.free:freejava&#45;proxy&#45;api:3.0.0 -->
<g id="node14" class="node"><title>javax.free:freejava&#45;proxy&#45;api:3.0.0</title>
<polygon fill="white" stroke="black" points="662.177,-150 570.177,-150 570.177,-112 662.177,-112 662.177,-150"/>
<text text-anchor="middle" x="616.177" y="-138.8" font-family="SanSerif" font-size="8.00">javax.free</text>
<text text-anchor="middle" x="616.177" y="-128.8" font-family="SanSerif" font-size="8.00">freejava&#45;proxy&#45;api</text>
<text text-anchor="middle" x="616.177" y="-118.8" font-family="SanSerif" font-size="8.00">3.0.0</text>
</g>
<!-- javax.free:freejava&#45;sio:3.0.0&#45;&gt;javax.free:freejava&#45;proxy&#45;api:3.0.0 -->
<g id="edge24" class="edge"><title>javax.free:freejava&#45;sio:3.0.0&#45;&gt;javax.free:freejava&#45;proxy&#45;api:3.0.0</title>
<path fill="none" stroke="black" d="M613.693,-223.747C614.161,-206.251 614.859,-180.189 615.396,-160.143"/>
<polygon fill="black" stroke="black" points="618.899,-160.092 615.668,-150.002 611.901,-159.905 618.899,-160.092"/>
</g>
<!-- javax.free:freejava&#45;collection:3.0.0&#45;&gt;javax.free:freejava&#45;closure:3.0.0 -->
<g id="edge38" class="edge"><title>javax.free:freejava&#45;collection:3.0.0&#45;&gt;javax.free:freejava&#45;closure:3.0.0</title>
<path fill="none" stroke="black" d="M191.145,-371.955C207.239,-346.342 235.977,-300.609 254.548,-271.055"/>
<polygon fill="black" stroke="black" points="257.603,-272.772 259.96,-262.442 251.676,-269.047 257.603,-272.772"/>
</g>
<!-- javax.free:freejava&#45;collection:3.0.0&#45;&gt;javax.free:freejava&#45;c1:3.0.0 -->
<g id="edge34" class="edge"><title>javax.free:freejava&#45;collection:3.0.0&#45;&gt;javax.free:freejava&#45;c1:3.0.0</title>
<path fill="none" stroke="black" d="M131.988,-372.482C70.3053,-345.217 -26.1778,-290.268 7.17687,-224 64.8279,-109.461 218.916,-51.8589 293.95,-29.8897"/>
<polygon fill="black" stroke="black" points="295.339,-33.1333 303.995,-27.024 293.418,-26.4019 295.339,-33.1333"/>
</g>
<!-- javax.free:freejava&#45;collection:3.0.0&#45;&gt;javax.free:freejava&#45;lang:3.0.0 -->
<g id="edge36" class="edge"><title>javax.free:freejava&#45;collection:3.0.0&#45;&gt;javax.free:freejava&#45;lang:3.0.0</title>
<path fill="none" stroke="black" d="M179.177,-371.955C179.177,-346.784 179.177,-302.18 179.177,-272.598"/>
<polygon fill="black" stroke="black" points="182.677,-272.442 179.177,-262.442 175.677,-272.442 182.677,-272.442"/>
</g>
<!-- net.sourceforge.collections:collections&#45;generic:4.01 -->
<g id="node16" class="node"><title>net.sourceforge.collections:collections&#45;generic:4.01</title>
<polygon fill="white" stroke="black" points="139.177,-262 7.17687,-262 7.17687,-224 139.177,-224 139.177,-262"/>
<text text-anchor="middle" x="73.1769" y="-250.8" font-family="SanSerif" font-size="8.00">net.sourceforge.collections</text>
<text text-anchor="middle" x="73.1769" y="-240.8" font-family="SanSerif" font-size="8.00">collections&#45;generic</text>
<text text-anchor="middle" x="73.1769" y="-230.8" font-family="SanSerif" font-size="8.00">4.01</text>
</g>
<!-- javax.free:freejava&#45;collection:3.0.0&#45;&gt;net.sourceforge.collections:collections&#45;generic:4.01 -->
<g id="edge32" class="edge"><title>javax.free:freejava&#45;collection:3.0.0&#45;&gt;net.sourceforge.collections:collections&#45;generic:4.01</title>
<path fill="none" stroke="black" d="M165.536,-371.955C147.113,-346.232 114.155,-300.214 92.997,-270.673"/>
<polygon fill="black" stroke="black" points="95.77,-268.534 87.1018,-262.442 90.0791,-272.61 95.77,-268.534"/>
</g>
<!-- org.slf4j:slf4j&#45;api:1.4.2 -->
<g id="node18" class="node"><title>org.slf4j:slf4j&#45;api:1.4.2</title>
<polygon fill="white" stroke="black" points="451.177,-262 397.177,-262 397.177,-224 451.177,-224 451.177,-262"/>
<text text-anchor="middle" x="424.177" y="-250.8" font-family="SanSerif" font-size="8.00">org.slf4j</text>
<text text-anchor="middle" x="424.177" y="-240.8" font-family="SanSerif" font-size="8.00">slf4j&#45;api</text>
<text text-anchor="middle" x="424.177" y="-230.8" font-family="SanSerif" font-size="8.00">1.4.2</text>
</g>
<!-- org.slf4j:slf4j&#45;log4j12:1.4.2&#45;&gt;org.slf4j:slf4j&#45;api:1.4.2 -->
<g id="edge42" class="edge"><title>org.slf4j:slf4j&#45;log4j12:1.4.2&#45;&gt;org.slf4j:slf4j&#45;api:1.4.2</title>
<path fill="none" stroke="black" d="M391.067,-371.955C397.558,-346.674 409.083,-301.788 416.677,-272.209"/>
<polygon fill="black" stroke="black" points="420.088,-272.999 419.185,-262.442 413.308,-271.258 420.088,-272.999"/>
</g>
<!-- log4j:log4j:1.2.13 -->
<g id="node19" class="node"><title>log4j:log4j:1.2.13</title>
<polygon fill="white" stroke="black" points="393.177,-262 339.177,-262 339.177,-224 393.177,-224 393.177,-262"/>
<text text-anchor="middle" x="366.177" y="-250.8" font-family="SanSerif" font-size="8.00">log4j</text>
<text text-anchor="middle" x="366.177" y="-240.8" font-family="SanSerif" font-size="8.00">log4j</text>
<text text-anchor="middle" x="366.177" y="-230.8" font-family="SanSerif" font-size="8.00">1.2.13</text>
</g>
<!-- org.slf4j:slf4j&#45;log4j12:1.4.2&#45;&gt;log4j:log4j:1.2.13 -->
<g id="edge44" class="edge"><title>org.slf4j:slf4j&#45;log4j12:1.4.2&#45;&gt;log4j:log4j:1.2.13</title>
<path fill="none" stroke="black" d="M383.603,-371.955C380.202,-346.784 374.174,-302.18 370.177,-272.598"/>
<polygon fill="black" stroke="black" points="373.612,-271.883 368.804,-262.442 366.675,-272.821 373.612,-271.883"/>
</g>
<!-- com.bee32.plover:plover&#45;model:0.0.1&#45;SNAPSHOT&#45;&gt;com.bee32.plover:plover&#45;arch:0.0.4&#45;SNAPSHOT -->
<g id="edge50" class="edge"><title>com.bee32.plover:plover&#45;model:0.0.1&#45;SNAPSHOT&#45;&gt;com.bee32.plover:plover&#45;arch:0.0.4&#45;SNAPSHOT</title>
<path fill="none" stroke="black" d="M314.964,-707.682C327.826,-682.313 346.698,-636.265 339.177,-596 334.992,-573.599 325.594,-549.648 317.449,-531.662"/>
<polygon fill="black" stroke="black" points="320.496,-529.913 313.095,-522.332 314.152,-532.874 320.496,-529.913"/>
</g>
<!-- com.bee32.plover:plover&#45;model:0.0.1&#45;SNAPSHOT&#45;&gt;javax.free:freejava&#45;traits:3.0.0 -->
<g id="edge52" class="edge"><title>com.bee32.plover:plover&#45;model:0.0.1&#45;SNAPSHOT&#45;&gt;javax.free:freejava&#45;traits:3.0.0</title>
<path fill="none" stroke="black" d="M288.012,-707.841C274.113,-690.021 255.094,-662.068 247.177,-634 225.963,-558.79 246.247,-465.738 259.223,-419.65"/>
<polygon fill="black" stroke="black" points="262.59,-420.606 262.021,-410.027 255.868,-418.652 262.59,-420.606"/>
</g>
<!-- com.bee32.plover:plover&#45;inject:0.0.1&#45;SNAPSHOT -->
<g id="node21" class="node"><title>com.bee32.plover:plover&#45;inject:0.0.1&#45;SNAPSHOT</title>
<polygon fill="white" stroke="black" points="339.177,-634 247.177,-634 247.177,-596 339.177,-596 339.177,-634"/>
<text text-anchor="middle" x="293.177" y="-622.8" font-family="SanSerif" font-size="8.00">com.bee32.plover</text>
<text text-anchor="middle" x="293.177" y="-612.8" font-family="SanSerif" font-size="8.00">plover&#45;inject</text>
<text text-anchor="middle" x="293.177" y="-602.8" font-family="SanSerif" font-size="8.00">0.0.1&#45;SNAPSHOT</text>
</g>
<!-- com.bee32.plover:plover&#45;model:0.0.1&#45;SNAPSHOT&#45;&gt;com.bee32.plover:plover&#45;inject:0.0.1&#45;SNAPSHOT -->
<g id="edge58" class="edge"><title>com.bee32.plover:plover&#45;model:0.0.1&#45;SNAPSHOT&#45;&gt;com.bee32.plover:plover&#45;inject:0.0.1&#45;SNAPSHOT</title>
<path fill="none" stroke="black" d="M302.286,-707.747C300.568,-690.251 298.008,-664.189 296.039,-644.143"/>
<polygon fill="black" stroke="black" points="299.504,-643.612 295.043,-634.002 292.537,-644.296 299.504,-643.612"/>
</g>
<!-- com.bee32.plover:plover&#45;inject:0.0.1&#45;SNAPSHOT&#45;&gt;com.bee32.plover:plover&#45;arch:0.0.4&#45;SNAPSHOT -->
<g id="edge56" class="edge"><title>com.bee32.plover:plover&#45;inject:0.0.1&#45;SNAPSHOT&#45;&gt;com.bee32.plover:plover&#45;arch:0.0.4&#45;SNAPSHOT</title>
<path fill="none" stroke="black" d="M294.896,-595.747C296.458,-578.251 298.785,-552.189 300.575,-532.143"/>
<polygon fill="black" stroke="black" points="304.077,-532.274 301.48,-522.002 297.105,-531.651 304.077,-532.274"/>
</g>
<!-- com.bee32.plover:plover&#45;inject:0.0.1&#45;SNAPSHOT&#45;&gt;javax.free:freejava&#45;collection:3.0.0 -->
<g id="edge54" class="edge"><title>com.bee32.plover:plover&#45;inject:0.0.1&#45;SNAPSHOT&#45;&gt;javax.free:freejava&#45;collection:3.0.0</title>
<path fill="none" stroke="black" d="M283.457,-595.902C263.35,-556.392 217.099,-465.513 193.538,-419.218"/>
<polygon fill="black" stroke="black" points="196.527,-417.374 188.872,-410.05 190.288,-420.55 196.527,-417.374"/>
</g>
<!-- javax.free:freejava&#45;text&#45;diff:3.0.0 -->
<g id="node23" class="node"><title>javax.free:freejava&#45;text&#45;diff:3.0.0</title>
<polygon fill="white" stroke="black" points="439.177,-522 353.177,-522 353.177,-484 439.177,-484 439.177,-522"/>
<text text-anchor="middle" x="396.177" y="-510.8" font-family="SanSerif" font-size="8.00">javax.free</text>
<text text-anchor="middle" x="396.177" y="-500.8" font-family="SanSerif" font-size="8.00">freejava&#45;text&#45;diff</text>
<text text-anchor="middle" x="396.177" y="-490.8" font-family="SanSerif" font-size="8.00">3.0.0</text>
</g>
<!-- javax.free:freejava&#45;c3:3.0.0&#45;&gt;javax.free:freejava&#45;text&#45;diff:3.0.0 -->
<g id="edge72" class="edge"><title>javax.free:freejava&#45;c3:3.0.0&#45;&gt;javax.free:freejava&#45;text&#45;diff:3.0.0</title>
<path fill="none" stroke="black" d="M396.177,-595.747C396.177,-578.251 396.177,-552.189 396.177,-532.143"/>
<polygon fill="black" stroke="black" points="399.677,-532.002 396.177,-522.002 392.677,-532.002 399.677,-532.002"/>
</g>
<!-- javax.free:freejava&#45;io:3.0.0 -->
<g id="node24" class="node"><title>javax.free:freejava&#45;io:3.0.0</title>
<polygon fill="white" stroke="black" points="505.177,-522 443.177,-522 443.177,-484 505.177,-484 505.177,-522"/>
<text text-anchor="middle" x="474.177" y="-510.8" font-family="SanSerif" font-size="8.00">javax.free</text>
<text text-anchor="middle" x="474.177" y="-500.8" font-family="SanSerif" font-size="8.00">freejava&#45;io</text>
<text text-anchor="middle" x="474.177" y="-490.8" font-family="SanSerif" font-size="8.00">3.0.0</text>
</g>
<!-- javax.free:freejava&#45;c3:3.0.0&#45;&gt;javax.free:freejava&#45;io:3.0.0 -->
<g id="edge94" class="edge"><title>javax.free:freejava&#45;c3:3.0.0&#45;&gt;javax.free:freejava&#45;io:3.0.0</title>
<path fill="none" stroke="black" d="M409.586,-595.747C422.163,-577.687 441.097,-550.499 455.219,-530.222"/>
<polygon fill="black" stroke="black" points="458.1,-532.209 460.943,-522.002 452.356,-528.208 458.1,-532.209"/>
</g>
<!-- javax.free:freejava&#45;text&#45;diff:3.0.0&#45;&gt;javax.free:freejava&#45;closure:3.0.0 -->
<g id="edge68" class="edge"><title>javax.free:freejava&#45;text&#45;diff:3.0.0&#45;&gt;javax.free:freejava&#45;closure:3.0.0</title>
<path fill="none" stroke="black" d="M387.119,-483.848C363.444,-433.79 301.389,-302.589 299.177,-298 294.982,-289.298 290.366,-279.847 286.154,-271.276"/>
<polygon fill="black" stroke="black" points="289.173,-269.483 281.616,-262.057 282.893,-272.575 289.173,-269.483"/>
</g>
<!-- javax.free:freejava&#45;text&#45;diff:3.0.0&#45;&gt;javax.free:freejava&#45;meta:3.0.0 -->
<g id="edge62" class="edge"><title>javax.free:freejava&#45;text&#45;diff:3.0.0&#45;&gt;javax.free:freejava&#45;meta:3.0.0</title>
<path fill="none" stroke="black" d="M402.001,-483.879C407.589,-465.158 416.059,-435.773 422.177,-410 437.657,-344.783 443.177,-328.55 451.177,-262 455.356,-227.233 456.679,-186.955 457.07,-160.338"/>
<polygon fill="black" stroke="black" points="460.571,-160.203 457.183,-150.165 453.572,-160.125 460.571,-160.203"/>
</g>
<!-- javax.free:freejava&#45;text&#45;diff:3.0.0&#45;&gt;javax.free:freejava&#45;c1:3.0.0 -->
<g id="edge66" class="edge"><title>javax.free:freejava&#45;text&#45;diff:3.0.0&#45;&gt;javax.free:freejava&#45;c1:3.0.0</title>
<path fill="none" stroke="black" d="M383.994,-483.923C373.046,-465.711 357.584,-437.106 350.177,-410 314.388,-279.037 325.95,-114.229 332.74,-48.2576"/>
<polygon fill="black" stroke="black" points="336.234,-48.4977 333.82,-38.1815 329.274,-47.7512 336.234,-48.4977"/>
</g>
<!-- javax.free:freejava&#45;text&#45;diff:3.0.0&#45;&gt;javax.free:freejava&#45;traits:3.0.0 -->
<g id="edge64" class="edge"><title>javax.free:freejava&#45;text&#45;diff:3.0.0&#45;&gt;javax.free:freejava&#45;traits:3.0.0</title>
<path fill="none" stroke="black" d="M373.583,-483.752C361.292,-473.24 345.849,-459.962 332.177,-448 320.643,-437.909 308.03,-426.711 297.073,-416.93"/>
<polygon fill="black" stroke="black" points="299.215,-414.15 289.427,-410.095 294.549,-419.369 299.215,-414.15"/>
</g>
<!-- javax.free:freejava&#45;text&#45;diff:3.0.0&#45;&gt;javax.free:freejava&#45;sio:3.0.0 -->
<g id="edge70" class="edge"><title>javax.free:freejava&#45;text&#45;diff:3.0.0&#45;&gt;javax.free:freejava&#45;sio:3.0.0</title>
<path fill="none" stroke="black" d="M439.397,-484.823C485.385,-464.699 553.989,-432.18 572.177,-410 604.686,-370.355 612.03,-308.747 613.342,-272.484"/>
<polygon fill="black" stroke="black" points="616.849,-272.173 613.576,-262.096 609.851,-272.015 616.849,-272.173"/>
</g>
<!-- javax.free:freejava&#45;io:3.0.0&#45;&gt;javax.free:freejava&#45;meta:3.0.0 -->
<g id="edge80" class="edge"><title>javax.free:freejava&#45;io:3.0.0&#45;&gt;javax.free:freejava&#45;meta:3.0.0</title>
<path fill="none" stroke="black" d="M473.598,-483.692C472.067,-434.194 467.586,-298.734 461.177,-186 460.699,-177.599 460.078,-168.484 459.468,-160.135"/>
<polygon fill="black" stroke="black" points="462.952,-159.791 458.714,-150.081 455.972,-160.315 462.952,-159.791"/>
</g>
<!-- javax.free:freejava&#45;io:3.0.0&#45;&gt;javax.free:freejava&#45;traits:3.0.0 -->
<g id="edge86" class="edge"><title>javax.free:freejava&#45;io:3.0.0&#45;&gt;javax.free:freejava&#45;traits:3.0.0</title>
<path fill="none" stroke="black" d="M442.89,-485.99C408.087,-467.068 351.598,-436.355 312.31,-414.995"/>
<polygon fill="black" stroke="black" points="313.67,-411.751 303.213,-410.049 310.327,-417.9 313.67,-411.751"/>
</g>
<!-- javax.free:freejava&#45;io:3.0.0&#45;&gt;javax.free:freejava&#45;string:3.0.0 -->
<g id="edge84" class="edge"><title>javax.free:freejava&#45;io:3.0.0&#45;&gt;javax.free:freejava&#45;string:3.0.0</title>
<path fill="none" stroke="black" d="M483.976,-483.747C493.043,-465.929 506.634,-439.225 516.906,-419.041"/>
<polygon fill="black" stroke="black" points="520.09,-420.502 521.506,-410.002 513.851,-417.327 520.09,-420.502"/>
</g>
<!-- javax.free:freejava&#45;io:3.0.0&#45;&gt;javax.free:freejava&#45;sio:3.0.0 -->
<g id="edge82" class="edge"><title>javax.free:freejava&#45;io:3.0.0&#45;&gt;javax.free:freejava&#45;sio:3.0.0</title>
<path fill="none" stroke="black" d="M505.189,-487.696C533.208,-472.151 573.174,-445.349 594.177,-410 619.572,-367.26 619.58,-307.44 616.745,-272.206"/>
<polygon fill="black" stroke="black" points="620.216,-271.736 615.799,-262.106 613.247,-272.389 620.216,-271.736"/>
</g>
<!-- javax.free:freejava&#45;io:3.0.0&#45;&gt;javax.free:freejava&#45;bits:3.0.0 -->
<g id="edge78" class="edge"><title>javax.free:freejava&#45;io:3.0.0&#45;&gt;javax.free:freejava&#45;bits:3.0.0</title>
<path fill="none" stroke="black" d="M505.426,-490.03C536.33,-475.43 582.226,-448.597 605.177,-410 649.235,-335.904 630.507,-304.938 660.177,-224 668.259,-201.952 679.018,-177.695 687.487,-159.483"/>
<polygon fill="black" stroke="black" points="690.718,-160.837 691.802,-150.298 684.382,-157.861 690.718,-160.837"/>
</g>
<!-- javax.free:freejava&#45;io:3.0.0&#45;&gt;javax.free:freejava&#45;collection:3.0.0 -->
<g id="edge92" class="edge"><title>javax.free:freejava&#45;io:3.0.0&#45;&gt;javax.free:freejava&#45;collection:3.0.0</title>
<path fill="none" stroke="black" d="M443.005,-485.764C441.72,-485.153 440.44,-484.562 439.177,-484 352.231,-445.296 324.671,-443.712 236.047,-412.097"/>
<polygon fill="black" stroke="black" points="236.997,-408.72 226.403,-408.625 234.626,-415.306 236.997,-408.72"/>
</g>
<!-- javax.free:freejava&#45;primitive:3.0.0 -->
<g id="node25" class="node"><title>javax.free:freejava&#45;primitive:3.0.0</title>
<polygon fill="white" stroke="black" points="561.177,-336 471.177,-336 471.177,-298 561.177,-298 561.177,-336"/>
<text text-anchor="middle" x="516.177" y="-324.8" font-family="SanSerif" font-size="8.00">javax.free</text>
<text text-anchor="middle" x="516.177" y="-314.8" font-family="SanSerif" font-size="8.00">freejava&#45;primitive</text>
<text text-anchor="middle" x="516.177" y="-304.8" font-family="SanSerif" font-size="8.00">3.0.0</text>
</g>
<!-- javax.free:freejava&#45;io:3.0.0&#45;&gt;javax.free:freejava&#45;primitive:3.0.0 -->
<g id="edge76" class="edge"><title>javax.free:freejava&#45;io:3.0.0&#45;&gt;javax.free:freejava&#45;primitive:3.0.0</title>
<path fill="none" stroke="black" d="M475.178,-483.571C476.886,-457.691 481.306,-410.676 492.177,-372 494.669,-363.133 498.302,-353.831 501.991,-345.452"/>
<polygon fill="black" stroke="black" points="505.284,-346.669 506.282,-336.121 498.924,-343.745 505.284,-346.669"/>
</g>
<!-- commons&#45;vfs:commons&#45;vfs:1.0 -->
<g id="node26" class="node"><title>commons&#45;vfs:commons&#45;vfs:1.0</title>
<polygon fill="white" stroke="black" points="734.177,-410 660.177,-410 660.177,-372 734.177,-372 734.177,-410"/>
<text text-anchor="middle" x="697.177" y="-398.8" font-family="SanSerif" font-size="8.00">commons&#45;vfs</text>
<text text-anchor="middle" x="697.177" y="-388.8" font-family="SanSerif" font-size="8.00">commons&#45;vfs</text>
<text text-anchor="middle" x="697.177" y="-378.8" font-family="SanSerif" font-size="8.00">1.0</text>
</g>
<!-- javax.free:freejava&#45;io:3.0.0&#45;&gt;commons&#45;vfs:commons&#45;vfs:1.0 -->
<g id="edge90" class="edge"><title>javax.free:freejava&#45;io:3.0.0&#45;&gt;commons&#45;vfs:commons&#45;vfs:1.0</title>
<path fill="none" stroke="black" d="M505.414,-499.911C544.21,-494.75 610.917,-481.406 657.177,-448 667.562,-440.5 676.203,-429.444 682.765,-419.06"/>
<polygon fill="black" stroke="black" points="685.917,-420.604 687.987,-410.214 679.889,-417.046 685.917,-420.604"/>
</g>
<!-- javax.free:freejava&#45;primitive:3.0.0&#45;&gt;javax.free:freejava&#45;meta:3.0.0 -->
<g id="edge74" class="edge"><title>javax.free:freejava&#45;primitive:3.0.0&#45;&gt;javax.free:freejava&#45;meta:3.0.0</title>
<path fill="none" stroke="black" d="M503.768,-297.848C497.633,-287.584 490.612,-274.507 486.177,-262 474.698,-229.629 479.813,-219.486 472.177,-186 470.237,-177.493 467.854,-168.323 465.564,-159.955"/>
<polygon fill="black" stroke="black" points="468.913,-158.935 462.852,-150.245 462.171,-160.818 468.913,-158.935"/>
</g>
<!-- commons&#45;logging:commons&#45;logging:1.0.4 -->
<g id="node27" class="node"><title>commons&#45;logging:commons&#45;logging:1.0.4</title>
<polygon fill="white" stroke="black" points="752.177,-262 660.177,-262 660.177,-224 752.177,-224 752.177,-262"/>
<text text-anchor="middle" x="706.177" y="-250.8" font-family="SanSerif" font-size="8.00">commons&#45;logging</text>
<text text-anchor="middle" x="706.177" y="-240.8" font-family="SanSerif" font-size="8.00">commons&#45;logging</text>
<text text-anchor="middle" x="706.177" y="-230.8" font-family="SanSerif" font-size="8.00">1.0.4</text>
</g>
<!-- commons&#45;vfs:commons&#45;vfs:1.0&#45;&gt;commons&#45;logging:commons&#45;logging:1.0.4 -->
<g id="edge88" class="edge"><title>commons&#45;vfs:commons&#45;vfs:1.0&#45;&gt;commons&#45;logging:commons&#45;logging:1.0.4</title>
<path fill="none" stroke="black" d="M698.335,-371.955C699.866,-346.784 702.578,-302.18 704.377,-272.598"/>
<polygon fill="black" stroke="black" points="707.881,-272.636 704.995,-262.442 700.894,-272.211 707.881,-272.636"/>
</g>
</g>
</svg>
