<?xml version="1.0" encoding="UTF-8" standalone="no"?>
<!DOCTYPE svg PUBLIC "-//W3C//DTD SVG 1.1//EN"
 "http://www.w3.org/Graphics/SVG/1.1/DTD/svg11.dtd">
<!-- Generated by graphviz version 2.26.3 (20100126.1600)
 -->
<!-- Title: dependencies Pages: 1 -->
<svg width="462pt" height="556pt"
 viewBox="0.00 0.00 462.00 556.00" xmlns="http://www.w3.org/2000/svg" xmlns:xlink="http://www.w3.org/1999/xlink">
<g id="graph1" class="graph" transform="scale(1 1) rotate(0) translate(4 552)">
<title>dependencies</title>
<polygon fill="white" stroke="white" points="-4,5 -4,-552 459,-552 459,5 -4,5"/>
<text text-anchor="middle" x="227" y="-527.8" font-family="Serif" font-size="18.00">Dependency Graph for Plover :: Core :: Expr Sql</text>
<!-- com.bee32.plover:plover&#45;expr&#45;sql:0.0.1&#45;SNAPSHOT -->
<g id="node1" class="node"><title>com.bee32.plover:plover&#45;expr&#45;sql:0.0.1&#45;SNAPSHOT</title>
<polygon fill="#dddddd" stroke="black" points="295,-518 157,-518 157,-456 295,-456 295,-518"/>
<text text-anchor="middle" x="226" y="-501.4" font-family="SanSerif" font-size="14.00">com.bee32.plover</text>
<text text-anchor="middle" x="226" y="-483.4" font-family="SanSerif" font-size="14.00">plover&#45;expr&#45;sql</text>
<text text-anchor="middle" x="226" y="-465.4" font-family="SanSerif" font-size="14.00">0.0.1&#45;SNAPSHOT</text>
</g>
<!-- com.bee32.plover:plover&#45;expr:0.0.1&#45;SNAPSHOT -->
<g id="node2" class="node"><title>com.bee32.plover:plover&#45;expr:0.0.1&#45;SNAPSHOT</title>
<polygon fill="white" stroke="black" points="272,-374 180,-374 180,-336 272,-336 272,-374"/>
<text text-anchor="middle" x="226" y="-362.8" font-family="SanSerif" font-size="8.00">com.bee32.plover</text>
<text text-anchor="middle" x="226" y="-352.8" font-family="SanSerif" font-size="8.00">plover&#45;expr</text>
<text text-anchor="middle" x="226" y="-342.8" font-family="SanSerif" font-size="8.00">0.0.1&#45;SNAPSHOT</text>
</g>
<!-- com.bee32.plover:plover&#45;expr&#45;sql:0.0.1&#45;SNAPSHOT&#45;&gt;com.bee32.plover:plover&#45;expr:0.0.1&#45;SNAPSHOT -->
<g id="edge22" class="edge"><title>com.bee32.plover:plover&#45;expr&#45;sql:0.0.1&#45;SNAPSHOT&#45;&gt;com.bee32.plover:plover&#45;expr:0.0.1&#45;SNAPSHOT</title>
<path fill="none" stroke="black" d="M226,-455.718C226,-434.065 226,-405.442 226,-384.246"/>
<polygon fill="black" stroke="black" points="229.5,-384.207 226,-374.207 222.5,-384.207 229.5,-384.207"/>
</g>
<!-- junit:junit:4.8.2 -->
<g id="node12" class="node"><title>junit:junit:4.8.2</title>
<polygon fill="white" stroke="cornflowerblue" points="330,-374 276,-374 276,-336 330,-336 330,-374"/>
<text text-anchor="middle" x="303" y="-362.8" font-family="SanSerif" font-size="8.00" fill="cornflowerblue">junit</text>
<text text-anchor="middle" x="303" y="-352.8" font-family="SanSerif" font-size="8.00" fill="cornflowerblue">junit</text>
<text text-anchor="middle" x="303" y="-342.8" font-family="SanSerif" font-size="8.00" fill="cornflowerblue">4.8.2</text>
</g>
<!-- com.bee32.plover:plover&#45;expr&#45;sql:0.0.1&#45;SNAPSHOT&#45;&gt;junit:junit:4.8.2 -->
<g id="edge24" class="edge"><title>com.bee32.plover:plover&#45;expr&#45;sql:0.0.1&#45;SNAPSHOT&#45;&gt;junit:junit:4.8.2</title>
<path fill="none" stroke="cornflowerblue" d="M244.248,-455.718C257.11,-433.669 274.187,-404.394 286.613,-383.092"/>
<polygon fill="cornflowerblue" stroke="cornflowerblue" points="289.78,-384.609 291.796,-374.207 283.734,-381.081 289.78,-384.609"/>
<text text-anchor="middle" x="278.5" y="-412.8" font-family="SanSerif" font-size="8.00" fill="cornflowerblue">test</text>
</g>
<!-- javax.free:freejava&#45;closure:3.0.0 -->
<g id="node3" class="node"><title>javax.free:freejava&#45;closure:3.0.0</title>
<polygon fill="white" stroke="black" points="182,-262 96,-262 96,-224 182,-224 182,-262"/>
<text text-anchor="middle" x="139" y="-250.8" font-family="SanSerif" font-size="8.00">javax.free</text>
<text text-anchor="middle" x="139" y="-240.8" font-family="SanSerif" font-size="8.00">freejava&#45;closure</text>
<text text-anchor="middle" x="139" y="-230.8" font-family="SanSerif" font-size="8.00">3.0.0</text>
</g>
<!-- com.bee32.plover:plover&#45;expr:0.0.1&#45;SNAPSHOT&#45;&gt;javax.free:freejava&#45;closure:3.0.0 -->
<g id="edge8" class="edge"><title>com.bee32.plover:plover&#45;expr:0.0.1&#45;SNAPSHOT&#45;&gt;javax.free:freejava&#45;closure:3.0.0</title>
<path fill="none" stroke="black" d="M211.044,-335.747C196.953,-317.606 175.708,-290.256 159.935,-269.951"/>
<polygon fill="black" stroke="black" points="162.659,-267.752 153.761,-262.002 157.131,-272.047 162.659,-267.752"/>
</g>
<!-- javax.free:freejava&#45;string:3.0.0 -->
<g id="node7" class="node"><title>javax.free:freejava&#45;string:3.0.0</title>
<polygon fill="white" stroke="black" points="265,-262 187,-262 187,-224 265,-224 265,-262"/>
<text text-anchor="middle" x="226" y="-250.8" font-family="SanSerif" font-size="8.00">javax.free</text>
<text text-anchor="middle" x="226" y="-240.8" font-family="SanSerif" font-size="8.00">freejava&#45;string</text>
<text text-anchor="middle" x="226" y="-230.8" font-family="SanSerif" font-size="8.00">3.0.0</text>
</g>
<!-- com.bee32.plover:plover&#45;expr:0.0.1&#45;SNAPSHOT&#45;&gt;javax.free:freejava&#45;string:3.0.0 -->
<g id="edge20" class="edge"><title>com.bee32.plover:plover&#45;expr:0.0.1&#45;SNAPSHOT&#45;&gt;javax.free:freejava&#45;string:3.0.0</title>
<path fill="none" stroke="black" d="M226,-335.747C226,-318.251 226,-292.189 226,-272.143"/>
<polygon fill="black" stroke="black" points="229.5,-272.002 226,-262.002 222.5,-272.002 229.5,-272.002"/>
</g>
<!-- javax.free:freejava&#45;meta:3.0.0 -->
<g id="node4" class="node"><title>javax.free:freejava&#45;meta:3.0.0</title>
<polygon fill="white" stroke="black" points="173,-150 97,-150 97,-112 173,-112 173,-150"/>
<text text-anchor="middle" x="135" y="-138.8" font-family="SanSerif" font-size="8.00">javax.free</text>
<text text-anchor="middle" x="135" y="-128.8" font-family="SanSerif" font-size="8.00">freejava&#45;meta</text>
<text text-anchor="middle" x="135" y="-118.8" font-family="SanSerif" font-size="8.00">3.0.0</text>
</g>
<!-- javax.free:freejava&#45;closure:3.0.0&#45;&gt;javax.free:freejava&#45;meta:3.0.0 -->
<g id="edge6" class="edge"><title>javax.free:freejava&#45;closure:3.0.0&#45;&gt;javax.free:freejava&#45;meta:3.0.0</title>
<path fill="none" stroke="black" d="M138.312,-223.747C137.688,-206.251 136.757,-180.189 136.041,-160.143"/>
<polygon fill="black" stroke="black" points="139.533,-159.871 135.679,-150.002 132.538,-160.121 139.533,-159.871"/>
</g>
<!-- javax.free:freejava&#45;annotation:3.0.0 -->
<g id="node5" class="node"><title>javax.free:freejava&#45;annotation:3.0.0</title>
<polygon fill="white" stroke="black" points="144,-38 46,-38 46,-7.10543e-15 144,-3.55271e-15 144,-38"/>
<text text-anchor="middle" x="95" y="-26.8" font-family="SanSerif" font-size="8.00">javax.free</text>
<text text-anchor="middle" x="95" y="-16.8" font-family="SanSerif" font-size="8.00">freejava&#45;annotation</text>
<text text-anchor="middle" x="95" y="-6.8" font-family="SanSerif" font-size="8.00">3.0.0</text>
</g>
<!-- javax.free:freejava&#45;meta:3.0.0&#45;&gt;javax.free:freejava&#45;annotation:3.0.0 -->
<g id="edge2" class="edge"><title>javax.free:freejava&#45;meta:3.0.0&#45;&gt;javax.free:freejava&#45;annotation:3.0.0</title>
<path fill="none" stroke="black" d="M128.124,-111.747C121.818,-94.0901 112.396,-67.7079 105.211,-47.5902"/>
<polygon fill="black" stroke="black" points="108.446,-46.2425 101.787,-38.0022 101.854,-48.5969 108.446,-46.2425"/>
</g>
<!-- javax.free:freejava&#45;c1:3.0.0 -->
<g id="node6" class="node"><title>javax.free:freejava&#45;c1:3.0.0</title>
<polygon fill="white" stroke="black" points="212,-38 148,-38 148,-7.10543e-15 212,-3.55271e-15 212,-38"/>
<text text-anchor="middle" x="180" y="-26.8" font-family="SanSerif" font-size="8.00">javax.free</text>
<text text-anchor="middle" x="180" y="-16.8" font-family="SanSerif" font-size="8.00">freejava&#45;c1</text>
<text text-anchor="middle" x="180" y="-6.8" font-family="SanSerif" font-size="8.00">3.0.0</text>
</g>
<!-- javax.free:freejava&#45;meta:3.0.0&#45;&gt;javax.free:freejava&#45;c1:3.0.0 -->
<g id="edge4" class="edge"><title>javax.free:freejava&#45;meta:3.0.0&#45;&gt;javax.free:freejava&#45;c1:3.0.0</title>
<path fill="none" stroke="black" d="M142.736,-111.747C149.862,-94.0095 160.527,-67.4668 168.623,-47.315"/>
<polygon fill="black" stroke="black" points="171.885,-48.5862 172.365,-38.0022 165.389,-45.9764 171.885,-48.5862"/>
</g>
<!-- javax.free:freejava&#45;string:3.0.0&#45;&gt;javax.free:freejava&#45;c1:3.0.0 -->
<g id="edge18" class="edge"><title>javax.free:freejava&#45;string:3.0.0&#45;&gt;javax.free:freejava&#45;c1:3.0.0</title>
<path fill="none" stroke="black" d="M215.589,-223.701C206.248,-205.333 193.1,-176.623 187,-150 179.177,-115.854 178.227,-75.4508 178.716,-48.635"/>
<polygon fill="black" stroke="black" points="182.221,-48.4654 178.985,-38.3769 175.224,-48.2814 182.221,-48.4654"/>
</g>
<!-- commons&#45;lang:commons&#45;lang:2.6 -->
<g id="node8" class="node"><title>commons&#45;lang:commons&#45;lang:2.6</title>
<polygon fill="white" stroke="black" points="267,-150 187,-150 187,-112 267,-112 267,-150"/>
<text text-anchor="middle" x="227" y="-138.8" font-family="SanSerif" font-size="8.00">commons&#45;lang</text>
<text text-anchor="middle" x="227" y="-128.8" font-family="SanSerif" font-size="8.00">commons&#45;lang</text>
<text text-anchor="middle" x="227" y="-118.8" font-family="SanSerif" font-size="8.00">2.6</text>
</g>
<!-- javax.free:freejava&#45;string:3.0.0&#45;&gt;commons&#45;lang:commons&#45;lang:2.6 -->
<g id="edge10" class="edge"><title>javax.free:freejava&#45;string:3.0.0&#45;&gt;commons&#45;lang:commons&#45;lang:2.6</title>
<path fill="none" stroke="black" d="M226.172,-223.747C226.328,-206.251 226.561,-180.189 226.74,-160.143"/>
<polygon fill="black" stroke="black" points="230.241,-160.033 226.83,-150.002 223.241,-159.971 230.241,-160.033"/>
</g>
<!-- javax.free:freejava&#45;sio:3.0.0 -->
<g id="node9" class="node"><title>javax.free:freejava&#45;sio:3.0.0</title>
<polygon fill="white" stroke="black" points="337,-150 271,-150 271,-112 337,-112 337,-150"/>
<text text-anchor="middle" x="304" y="-138.8" font-family="SanSerif" font-size="8.00">javax.free</text>
<text text-anchor="middle" x="304" y="-128.8" font-family="SanSerif" font-size="8.00">freejava&#45;sio</text>
<text text-anchor="middle" x="304" y="-118.8" font-family="SanSerif" font-size="8.00">3.0.0</text>
</g>
<!-- javax.free:freejava&#45;string:3.0.0&#45;&gt;javax.free:freejava&#45;sio:3.0.0 -->
<g id="edge16" class="edge"><title>javax.free:freejava&#45;string:3.0.0&#45;&gt;javax.free:freejava&#45;sio:3.0.0</title>
<path fill="none" stroke="black" d="M239.409,-223.747C251.986,-205.687 270.921,-178.499 285.042,-158.222"/>
<polygon fill="black" stroke="black" points="287.923,-160.209 290.766,-150.002 282.179,-156.208 287.923,-160.209"/>
</g>
<!-- javax.free:freejava&#45;bits:3.0.0 -->
<g id="node10" class="node"><title>javax.free:freejava&#45;bits:3.0.0</title>
<polygon fill="white" stroke="black" points="312,-38 242,-38 242,-7.10543e-15 312,-3.55271e-15 312,-38"/>
<text text-anchor="middle" x="277" y="-26.8" font-family="SanSerif" font-size="8.00">javax.free</text>
<text text-anchor="middle" x="277" y="-16.8" font-family="SanSerif" font-size="8.00">freejava&#45;bits</text>
<text text-anchor="middle" x="277" y="-6.8" font-family="SanSerif" font-size="8.00">3.0.0</text>
</g>
<!-- javax.free:freejava&#45;sio:3.0.0&#45;&gt;javax.free:freejava&#45;bits:3.0.0 -->
<g id="edge12" class="edge"><title>javax.free:freejava&#45;sio:3.0.0&#45;&gt;javax.free:freejava&#45;bits:3.0.0</title>
<path fill="none" stroke="black" d="M299.359,-111.747C295.122,-94.1707 288.8,-67.9487 283.959,-47.8662"/>
<polygon fill="black" stroke="black" points="287.327,-46.9035 281.581,-38.0022 280.522,-48.544 287.327,-46.9035"/>
</g>
<!-- javax.free:freejava&#45;proxy&#45;api:3.0.0 -->
<g id="node11" class="node"><title>javax.free:freejava&#45;proxy&#45;api:3.0.0</title>
<polygon fill="white" stroke="black" points="408,-38 316,-38 316,-7.10543e-15 408,-3.55271e-15 408,-38"/>
<text text-anchor="middle" x="362" y="-26.8" font-family="SanSerif" font-size="8.00">javax.free</text>
<text text-anchor="middle" x="362" y="-16.8" font-family="SanSerif" font-size="8.00">freejava&#45;proxy&#45;api</text>
<text text-anchor="middle" x="362" y="-6.8" font-family="SanSerif" font-size="8.00">3.0.0</text>
</g>
<!-- javax.free:freejava&#45;sio:3.0.0&#45;&gt;javax.free:freejava&#45;proxy&#45;api:3.0.0 -->
<g id="edge14" class="edge"><title>javax.free:freejava&#45;sio:3.0.0&#45;&gt;javax.free:freejava&#45;proxy&#45;api:3.0.0</title>
<path fill="none" stroke="black" d="M313.971,-111.747C323.198,-93.9288 337.026,-67.2253 347.479,-47.0406"/>
<polygon fill="black" stroke="black" points="350.669,-48.4917 352.16,-38.0022 344.453,-45.2727 350.669,-48.4917"/>
</g>
</g>
</svg>
