<?xml version="1.0" encoding="UTF-8" standalone="no"?>
<!DOCTYPE svg PUBLIC "-//W3C//DTD SVG 1.1//EN"
 "http://www.w3.org/Graphics/SVG/1.1/DTD/svg11.dtd">
<!-- Generated by graphviz version 2.26.3 (20100126.1600)
 -->
<!-- Title: dependencies Pages: 1 -->
<svg width="678pt" height="892pt"
 viewBox="0.00 0.00 678.15 892.00" xmlns="http://www.w3.org/2000/svg" xmlns:xlink="http://www.w3.org/1999/xlink">
<g id="graph1" class="graph" transform="scale(1 1) rotate(0) translate(4 888)">
<title>dependencies</title>
<polygon fill="white" stroke="white" points="-4,5 -4,-888 675.153,-888 675.153,5 -4,5"/>
<text text-anchor="middle" x="245" y="-863.8" font-family="Serif" font-size="18.00">Dependency Graph for Plover :: Modeling :: Velocity</text>
<!-- com.bee32.plover:plover&#45;velocity:0.0.1&#45;SNAPSHOT -->
<g id="node1" class="node"><title>com.bee32.plover:plover&#45;velocity:0.0.1&#45;SNAPSHOT</title>
<polygon fill="#dddddd" stroke="black" points="318,-854 180,-854 180,-792 318,-792 318,-854"/>
<text text-anchor="middle" x="249" y="-837.4" font-family="SanSerif" font-size="14.00">com.bee32.plover</text>
<text text-anchor="middle" x="249" y="-819.4" font-family="SanSerif" font-size="14.00">plover&#45;velocity</text>
<text text-anchor="middle" x="249" y="-801.4" font-family="SanSerif" font-size="14.00">0.0.1&#45;SNAPSHOT</text>
</g>
<!-- org.apache.velocity:velocity:1.7&#45;beta1 -->
<g id="node2" class="node"><title>org.apache.velocity:velocity:1.7&#45;beta1</title>
<polygon fill="white" stroke="black" points="199,-710 101,-710 101,-672 199,-672 199,-710"/>
<text text-anchor="middle" x="150" y="-698.8" font-family="SanSerif" font-size="8.00">org.apache.velocity</text>
<text text-anchor="middle" x="150" y="-688.8" font-family="SanSerif" font-size="8.00">velocity</text>
<text text-anchor="middle" x="150" y="-678.8" font-family="SanSerif" font-size="8.00">1.7&#45;beta1</text>
</g>
<!-- com.bee32.plover:plover&#45;velocity:0.0.1&#45;SNAPSHOT&#45;&gt;org.apache.velocity:velocity:1.7&#45;beta1 -->
<g id="edge6" class="edge"><title>com.bee32.plover:plover&#45;velocity:0.0.1&#45;SNAPSHOT&#45;&gt;org.apache.velocity:velocity:1.7&#45;beta1</title>
<path fill="none" stroke="black" d="M225.538,-791.718C208.78,-769.373 186.454,-739.606 170.427,-718.236"/>
<polygon fill="black" stroke="black" points="173.205,-716.107 164.405,-710.207 167.605,-720.307 173.205,-716.107"/>
</g>
<!-- com.bee32.plover:plover&#45;model:0.0.1&#45;SNAPSHOT -->
<g id="node5" class="node"><title>com.bee32.plover:plover&#45;model:0.0.1&#45;SNAPSHOT</title>
<polygon fill="white" stroke="black" points="295,-710 203,-710 203,-672 295,-672 295,-710"/>
<text text-anchor="middle" x="249" y="-698.8" font-family="SanSerif" font-size="8.00">com.bee32.plover</text>
<text text-anchor="middle" x="249" y="-688.8" font-family="SanSerif" font-size="8.00">plover&#45;model</text>
<text text-anchor="middle" x="249" y="-678.8" font-family="SanSerif" font-size="8.00">0.0.1&#45;SNAPSHOT</text>
</g>
<!-- com.bee32.plover:plover&#45;velocity:0.0.1&#45;SNAPSHOT&#45;&gt;com.bee32.plover:plover&#45;model:0.0.1&#45;SNAPSHOT -->
<g id="edge62" class="edge"><title>com.bee32.plover:plover&#45;velocity:0.0.1&#45;SNAPSHOT&#45;&gt;com.bee32.plover:plover&#45;model:0.0.1&#45;SNAPSHOT</title>
<path fill="none" stroke="black" d="M249,-791.718C249,-770.065 249,-741.442 249,-720.246"/>
<polygon fill="black" stroke="black" points="252.5,-720.207 249,-710.207 245.5,-720.207 252.5,-720.207"/>
</g>
<!-- com.bee32.plover:plover&#45;servlet:0.0.1&#45;SNAPSHOT -->
<g id="node24" class="node"><title>com.bee32.plover:plover&#45;servlet:0.0.1&#45;SNAPSHOT</title>
<polygon fill="white" stroke="black" points="391,-710 299,-710 299,-672 391,-672 391,-710"/>
<text text-anchor="middle" x="345" y="-698.8" font-family="SanSerif" font-size="8.00">com.bee32.plover</text>
<text text-anchor="middle" x="345" y="-688.8" font-family="SanSerif" font-size="8.00">plover&#45;servlet</text>
<text text-anchor="middle" x="345" y="-678.8" font-family="SanSerif" font-size="8.00">0.0.1&#45;SNAPSHOT</text>
</g>
<!-- com.bee32.plover:plover&#45;velocity:0.0.1&#45;SNAPSHOT&#45;&gt;com.bee32.plover:plover&#45;servlet:0.0.1&#45;SNAPSHOT -->
<g id="edge68" class="edge"><title>com.bee32.plover:plover&#45;velocity:0.0.1&#45;SNAPSHOT&#45;&gt;com.bee32.plover:plover&#45;servlet:0.0.1&#45;SNAPSHOT</title>
<path fill="none" stroke="black" d="M271.751,-791.718C287.93,-769.472 309.459,-739.869 324.985,-718.52"/>
<polygon fill="black" stroke="black" points="327.98,-720.353 331.031,-710.207 322.319,-716.236 327.98,-720.353"/>
</g>
<!-- junit:junit:4.8.2 -->
<g id="node26" class="node"><title>junit:junit:4.8.2</title>
<polygon fill="white" stroke="cornflowerblue" points="449,-710 395,-710 395,-672 449,-672 449,-710"/>
<text text-anchor="middle" x="422" y="-698.8" font-family="SanSerif" font-size="8.00" fill="cornflowerblue">junit</text>
<text text-anchor="middle" x="422" y="-688.8" font-family="SanSerif" font-size="8.00" fill="cornflowerblue">junit</text>
<text text-anchor="middle" x="422" y="-678.8" font-family="SanSerif" font-size="8.00" fill="cornflowerblue">4.8.2</text>
</g>
<!-- com.bee32.plover:plover&#45;velocity:0.0.1&#45;SNAPSHOT&#45;&gt;junit:junit:4.8.2 -->
<g id="edge70" class="edge"><title>com.bee32.plover:plover&#45;velocity:0.0.1&#45;SNAPSHOT&#45;&gt;junit:junit:4.8.2</title>
<path fill="none" stroke="cornflowerblue" d="M289.999,-791.718C320.282,-768.611 360.968,-737.568 389.128,-716.081"/>
<polygon fill="cornflowerblue" stroke="cornflowerblue" points="391.252,-718.863 397.08,-710.014 387.006,-713.298 391.252,-718.863"/>
<text text-anchor="middle" x="354.5" y="-748.8" font-family="SanSerif" font-size="8.00" fill="cornflowerblue">test</text>
</g>
<!-- commons&#45;collections:commons&#45;collections:3.2.1 -->
<g id="node3" class="node"><title>commons&#45;collections:commons&#45;collections:3.2.1</title>
<polygon fill="white" stroke="black" points="106,-598 2.82101e-14,-598 7.09502e-15,-560 106,-560 106,-598"/>
<text text-anchor="middle" x="53" y="-586.8" font-family="SanSerif" font-size="8.00">commons&#45;collections</text>
<text text-anchor="middle" x="53" y="-576.8" font-family="SanSerif" font-size="8.00">commons&#45;collections</text>
<text text-anchor="middle" x="53" y="-566.8" font-family="SanSerif" font-size="8.00">3.2.1</text>
</g>
<!-- org.apache.velocity:velocity:1.7&#45;beta1&#45;&gt;commons&#45;collections:commons&#45;collections:3.2.1 -->
<g id="edge2" class="edge"><title>org.apache.velocity:velocity:1.7&#45;beta1&#45;&gt;commons&#45;collections:commons&#45;collections:3.2.1</title>
<path fill="none" stroke="black" d="M133.325,-671.747C117.545,-653.526 93.7162,-626.012 76.1075,-605.681"/>
<polygon fill="black" stroke="black" points="78.6498,-603.27 69.4573,-598.002 73.3584,-607.853 78.6498,-603.27"/>
</g>
<!-- commons&#45;lang:commons&#45;lang:2.4 -->
<g id="node4" class="node"><title>commons&#45;lang:commons&#45;lang:2.4</title>
<polygon fill="white" stroke="black" points="190,-598 110,-598 110,-560 190,-560 190,-598"/>
<text text-anchor="middle" x="150" y="-586.8" font-family="SanSerif" font-size="8.00">commons&#45;lang</text>
<text text-anchor="middle" x="150" y="-576.8" font-family="SanSerif" font-size="8.00">commons&#45;lang</text>
<text text-anchor="middle" x="150" y="-566.8" font-family="SanSerif" font-size="8.00">2.4</text>
</g>
<!-- org.apache.velocity:velocity:1.7&#45;beta1&#45;&gt;commons&#45;lang:commons&#45;lang:2.4 -->
<g id="edge4" class="edge"><title>org.apache.velocity:velocity:1.7&#45;beta1&#45;&gt;commons&#45;lang:commons&#45;lang:2.4</title>
<path fill="none" stroke="black" d="M150,-671.747C150,-654.251 150,-628.189 150,-608.143"/>
<polygon fill="black" stroke="black" points="153.5,-608.002 150,-598.002 146.5,-608.002 153.5,-608.002"/>
</g>
<!-- com.bee32.plover:plover&#45;arch:0.0.4&#45;SNAPSHOT -->
<g id="node6" class="node"><title>com.bee32.plover:plover&#45;arch:0.0.4&#45;SNAPSHOT</title>
<polygon fill="white" stroke="black" points="296,-486 204,-486 204,-448 296,-448 296,-486"/>
<text text-anchor="middle" x="250" y="-474.8" font-family="SanSerif" font-size="8.00">com.bee32.plover</text>
<text text-anchor="middle" x="250" y="-464.8" font-family="SanSerif" font-size="8.00">plover&#45;arch</text>
<text text-anchor="middle" x="250" y="-454.8" font-family="SanSerif" font-size="8.00">0.0.4&#45;SNAPSHOT</text>
</g>
<!-- com.bee32.plover:plover&#45;model:0.0.1&#45;SNAPSHOT&#45;&gt;com.bee32.plover:plover&#45;arch:0.0.4&#45;SNAPSHOT -->
<g id="edge40" class="edge"><title>com.bee32.plover:plover&#45;model:0.0.1&#45;SNAPSHOT&#45;&gt;com.bee32.plover:plover&#45;arch:0.0.4&#45;SNAPSHOT</title>
<path fill="none" stroke="black" d="M249.085,-671.902C249.261,-632.64 249.662,-542.652 249.87,-496.094"/>
<polygon fill="black" stroke="black" points="253.37,-496.065 249.915,-486.05 246.37,-496.034 253.37,-496.065"/>
</g>
<!-- javax.free:freejava&#45;traits:3.0.0 -->
<g id="node9" class="node"><title>javax.free:freejava&#45;traits:3.0.0</title>
<polygon fill="white" stroke="black" points="171,-374 95,-374 95,-336 171,-336 171,-374"/>
<text text-anchor="middle" x="133" y="-362.8" font-family="SanSerif" font-size="8.00">javax.free</text>
<text text-anchor="middle" x="133" y="-352.8" font-family="SanSerif" font-size="8.00">freejava&#45;traits</text>
<text text-anchor="middle" x="133" y="-342.8" font-family="SanSerif" font-size="8.00">3.0.0</text>
</g>
<!-- com.bee32.plover:plover&#45;model:0.0.1&#45;SNAPSHOT&#45;&gt;javax.free:freejava&#45;traits:3.0.0 -->
<g id="edge54" class="edge"><title>com.bee32.plover:plover&#45;model:0.0.1&#45;SNAPSHOT&#45;&gt;javax.free:freejava&#45;traits:3.0.0</title>
<path fill="none" stroke="black" d="M242.431,-671.972C223.056,-615.853 166.058,-450.756 142.926,-383.751"/>
<polygon fill="black" stroke="black" points="146.213,-382.546 139.641,-374.235 139.596,-384.83 146.213,-382.546"/>
</g>
<!-- com.bee32.plover:plover&#45;inject:0.0.1&#45;SNAPSHOT -->
<g id="node23" class="node"><title>com.bee32.plover:plover&#45;inject:0.0.1&#45;SNAPSHOT</title>
<polygon fill="white" stroke="black" points="348,-598 256,-598 256,-560 348,-560 348,-598"/>
<text text-anchor="middle" x="302" y="-586.8" font-family="SanSerif" font-size="8.00">com.bee32.plover</text>
<text text-anchor="middle" x="302" y="-576.8" font-family="SanSerif" font-size="8.00">plover&#45;inject</text>
<text text-anchor="middle" x="302" y="-566.8" font-family="SanSerif" font-size="8.00">0.0.1&#45;SNAPSHOT</text>
</g>
<!-- com.bee32.plover:plover&#45;model:0.0.1&#45;SNAPSHOT&#45;&gt;com.bee32.plover:plover&#45;inject:0.0.1&#45;SNAPSHOT -->
<g id="edge60" class="edge"><title>com.bee32.plover:plover&#45;model:0.0.1&#45;SNAPSHOT&#45;&gt;com.bee32.plover:plover&#45;inject:0.0.1&#45;SNAPSHOT</title>
<path fill="none" stroke="black" d="M258.111,-671.747C266.504,-654.009 279.065,-627.467 288.601,-607.315"/>
<polygon fill="black" stroke="black" points="291.894,-608.538 293.008,-598.002 285.567,-605.544 291.894,-608.538"/>
</g>
<!-- javax.free:freejava&#45;closure:3.0.0 -->
<g id="node7" class="node"><title>javax.free:freejava&#45;closure:3.0.0</title>
<polygon fill="white" stroke="black" points="342,-262 256,-262 256,-224 342,-224 342,-262"/>
<text text-anchor="middle" x="299" y="-250.8" font-family="SanSerif" font-size="8.00">javax.free</text>
<text text-anchor="middle" x="299" y="-240.8" font-family="SanSerif" font-size="8.00">freejava&#45;closure</text>
<text text-anchor="middle" x="299" y="-230.8" font-family="SanSerif" font-size="8.00">3.0.0</text>
</g>
<!-- com.bee32.plover:plover&#45;arch:0.0.4&#45;SNAPSHOT&#45;&gt;javax.free:freejava&#45;closure:3.0.0 -->
<g id="edge10" class="edge"><title>com.bee32.plover:plover&#45;arch:0.0.4&#45;SNAPSHOT&#45;&gt;javax.free:freejava&#45;closure:3.0.0</title>
<path fill="none" stroke="black" d="M248.828,-447.586C247.763,-421.723 247.573,-374.726 257,-336 262.515,-313.343 273.462,-289.399 282.797,-271.481"/>
<polygon fill="black" stroke="black" points="286.136,-272.661 287.773,-262.193 279.966,-269.355 286.136,-272.661"/>
</g>
<!-- com.bee32.plover:plover&#45;arch:0.0.4&#45;SNAPSHOT&#45;&gt;javax.free:freejava&#45;traits:3.0.0 -->
<g id="edge12" class="edge"><title>com.bee32.plover:plover&#45;arch:0.0.4&#45;SNAPSHOT&#45;&gt;javax.free:freejava&#45;traits:3.0.0</title>
<path fill="none" stroke="black" d="M234.922,-447.754C225.62,-436.329 213.174,-421.815 201,-410 190.391,-399.704 178.015,-389.284 166.751,-380.323"/>
<polygon fill="black" stroke="black" points="168.816,-377.495 158.787,-374.079 164.497,-383.003 168.816,-377.495"/>
</g>
<!-- javax.free:freejava&#45;string:3.0.0 -->
<g id="node10" class="node"><title>javax.free:freejava&#45;string:3.0.0</title>
<polygon fill="white" stroke="black" points="565,-374 487,-374 487,-336 565,-336 565,-374"/>
<text text-anchor="middle" x="526" y="-362.8" font-family="SanSerif" font-size="8.00">javax.free</text>
<text text-anchor="middle" x="526" y="-352.8" font-family="SanSerif" font-size="8.00">freejava&#45;string</text>
<text text-anchor="middle" x="526" y="-342.8" font-family="SanSerif" font-size="8.00">3.0.0</text>
</g>
<!-- com.bee32.plover:plover&#45;arch:0.0.4&#45;SNAPSHOT&#45;&gt;javax.free:freejava&#45;string:3.0.0 -->
<g id="edge22" class="edge"><title>com.bee32.plover:plover&#45;arch:0.0.4&#45;SNAPSHOT&#45;&gt;javax.free:freejava&#45;string:3.0.0</title>
<path fill="none" stroke="black" d="M296.196,-448.254C346.366,-427.895 426.163,-395.514 477.295,-374.764"/>
<polygon fill="black" stroke="black" points="478.858,-377.907 486.808,-370.904 476.226,-371.421 478.858,-377.907"/>
</g>
<!-- javax.free:freejava&#45;collection:3.0.0 -->
<g id="node15" class="node"><title>javax.free:freejava&#45;collection:3.0.0</title>
<polygon fill="white" stroke="black" points="351,-374 257,-374 257,-336 351,-336 351,-374"/>
<text text-anchor="middle" x="304" y="-362.8" font-family="SanSerif" font-size="8.00">javax.free</text>
<text text-anchor="middle" x="304" y="-352.8" font-family="SanSerif" font-size="8.00">freejava&#45;collection</text>
<text text-anchor="middle" x="304" y="-342.8" font-family="SanSerif" font-size="8.00">3.0.0</text>
</g>
<!-- com.bee32.plover:plover&#45;arch:0.0.4&#45;SNAPSHOT&#45;&gt;javax.free:freejava&#45;collection:3.0.0 -->
<g id="edge32" class="edge"><title>com.bee32.plover:plover&#45;arch:0.0.4&#45;SNAPSHOT&#45;&gt;javax.free:freejava&#45;collection:3.0.0</title>
<path fill="none" stroke="black" d="M259.283,-447.747C267.874,-429.929 280.749,-403.225 290.48,-383.041"/>
<polygon fill="black" stroke="black" points="293.648,-384.53 294.838,-374.002 287.342,-381.49 293.648,-384.53"/>
</g>
<!-- org.slf4j:slf4j&#45;log4j12:1.4.2 -->
<g id="node18" class="node"><title>org.slf4j:slf4j&#45;log4j12:1.4.2</title>
<polygon fill="white" stroke="black" points="243,-374 175,-374 175,-336 243,-336 243,-374"/>
<text text-anchor="middle" x="209" y="-362.8" font-family="SanSerif" font-size="8.00">org.slf4j</text>
<text text-anchor="middle" x="209" y="-352.8" font-family="SanSerif" font-size="8.00">slf4j&#45;log4j12</text>
<text text-anchor="middle" x="209" y="-342.8" font-family="SanSerif" font-size="8.00">1.4.2</text>
</g>
<!-- com.bee32.plover:plover&#45;arch:0.0.4&#45;SNAPSHOT&#45;&gt;org.slf4j:slf4j&#45;log4j12:1.4.2 -->
<g id="edge38" class="edge"><title>com.bee32.plover:plover&#45;arch:0.0.4&#45;SNAPSHOT&#45;&gt;org.slf4j:slf4j&#45;log4j12:1.4.2</title>
<path fill="none" stroke="black" d="M242.952,-447.747C236.488,-430.09 226.831,-403.708 219.466,-383.59"/>
<polygon fill="black" stroke="black" points="222.681,-382.19 215.956,-374.002 216.107,-384.596 222.681,-382.19"/>
</g>
<!-- javax.free:freejava&#45;meta:3.0.0 -->
<g id="node8" class="node"><title>javax.free:freejava&#45;meta:3.0.0</title>
<polygon fill="white" stroke="black" points="337,-150 261,-150 261,-112 337,-112 337,-150"/>
<text text-anchor="middle" x="299" y="-138.8" font-family="SanSerif" font-size="8.00">javax.free</text>
<text text-anchor="middle" x="299" y="-128.8" font-family="SanSerif" font-size="8.00">freejava&#45;meta</text>
<text text-anchor="middle" x="299" y="-118.8" font-family="SanSerif" font-size="8.00">3.0.0</text>
</g>
<!-- javax.free:freejava&#45;closure:3.0.0&#45;&gt;javax.free:freejava&#45;meta:3.0.0 -->
<g id="edge8" class="edge"><title>javax.free:freejava&#45;closure:3.0.0&#45;&gt;javax.free:freejava&#45;meta:3.0.0</title>
<path fill="none" stroke="black" d="M299,-223.747C299,-206.251 299,-180.189 299,-160.143"/>
<polygon fill="black" stroke="black" points="302.5,-160.002 299,-150.002 295.5,-160.002 302.5,-160.002"/>
</g>
<!-- javax.free:freejava&#45;c1:3.0.0 -->
<g id="node14" class="node"><title>javax.free:freejava&#45;c1:3.0.0</title>
<polygon fill="white" stroke="black" points="516,-38 452,-38 452,-7.10543e-15 516,-3.55271e-15 516,-38"/>
<text text-anchor="middle" x="484" y="-26.8" font-family="SanSerif" font-size="8.00">javax.free</text>
<text text-anchor="middle" x="484" y="-16.8" font-family="SanSerif" font-size="8.00">freejava&#45;c1</text>
<text text-anchor="middle" x="484" y="-6.8" font-family="SanSerif" font-size="8.00">3.0.0</text>
</g>
<!-- javax.free:freejava&#45;meta:3.0.0&#45;&gt;javax.free:freejava&#45;c1:3.0.0 -->
<g id="edge44" class="edge"><title>javax.free:freejava&#45;meta:3.0.0&#45;&gt;javax.free:freejava&#45;c1:3.0.0</title>
<path fill="none" stroke="black" d="M330.803,-111.747C362.098,-92.8001 409.989,-63.8064 443.883,-43.287"/>
<polygon fill="black" stroke="black" points="445.871,-46.1753 452.612,-38.0022 442.245,-40.1871 445.871,-46.1753"/>
</g>
<!-- javax.free:freejava&#45;annotation:3.0.0 -->
<g id="node21" class="node"><title>javax.free:freejava&#45;annotation:3.0.0</title>
<polygon fill="white" stroke="black" points="348,-38 250,-38 250,-7.10543e-15 348,-3.55271e-15 348,-38"/>
<text text-anchor="middle" x="299" y="-26.8" font-family="SanSerif" font-size="8.00">javax.free</text>
<text text-anchor="middle" x="299" y="-16.8" font-family="SanSerif" font-size="8.00">freejava&#45;annotation</text>
<text text-anchor="middle" x="299" y="-6.8" font-family="SanSerif" font-size="8.00">3.0.0</text>
</g>
<!-- javax.free:freejava&#45;meta:3.0.0&#45;&gt;javax.free:freejava&#45;annotation:3.0.0 -->
<g id="edge42" class="edge"><title>javax.free:freejava&#45;meta:3.0.0&#45;&gt;javax.free:freejava&#45;annotation:3.0.0</title>
<path fill="none" stroke="black" d="M299,-111.747C299,-94.2513 299,-68.1891 299,-48.1429"/>
<polygon fill="black" stroke="black" points="302.5,-48.0022 299,-38.0022 295.5,-48.0023 302.5,-48.0022"/>
</g>
<!-- javax.free:freejava&#45;traits:3.0.0&#45;&gt;javax.free:freejava&#45;meta:3.0.0 -->
<g id="edge46" class="edge"><title>javax.free:freejava&#45;traits:3.0.0&#45;&gt;javax.free:freejava&#45;meta:3.0.0</title>
<path fill="none" stroke="black" d="M128.676,-335.567C123.757,-308.427 118.898,-258.615 140,-224 164.678,-183.519 214.097,-158.735 251.325,-145.043"/>
<polygon fill="black" stroke="black" points="252.721,-148.262 260.987,-141.635 250.392,-141.661 252.721,-148.262"/>
</g>
<!-- javax.free:freejava&#45;lang:3.0.0 -->
<g id="node17" class="node"><title>javax.free:freejava&#45;lang:3.0.0</title>
<polygon fill="white" stroke="black" points="126,-262 54,-262 54,-224 126,-224 126,-262"/>
<text text-anchor="middle" x="90" y="-250.8" font-family="SanSerif" font-size="8.00">javax.free</text>
<text text-anchor="middle" x="90" y="-240.8" font-family="SanSerif" font-size="8.00">freejava&#45;lang</text>
<text text-anchor="middle" x="90" y="-230.8" font-family="SanSerif" font-size="8.00">3.0.0</text>
</g>
<!-- javax.free:freejava&#45;traits:3.0.0&#45;&gt;javax.free:freejava&#45;lang:3.0.0 -->
<g id="edge50" class="edge"><title>javax.free:freejava&#45;traits:3.0.0&#45;&gt;javax.free:freejava&#45;lang:3.0.0</title>
<path fill="none" stroke="black" d="M125.608,-335.747C118.829,-318.09 108.7,-291.708 100.977,-271.59"/>
<polygon fill="black" stroke="black" points="104.147,-270.083 97.2955,-262.002 97.6123,-272.592 104.147,-270.083"/>
</g>
<!-- javax.free:freejava&#45;jdk6compat:3.0.0 -->
<g id="node22" class="node"><title>javax.free:freejava&#45;jdk6compat:3.0.0</title>
<polygon fill="white" stroke="black" points="112,-150 10,-150 10,-112 112,-112 112,-150"/>
<text text-anchor="middle" x="61" y="-138.8" font-family="SanSerif" font-size="8.00">javax.free</text>
<text text-anchor="middle" x="61" y="-128.8" font-family="SanSerif" font-size="8.00">freejava&#45;jdk6compat</text>
<text text-anchor="middle" x="61" y="-118.8" font-family="SanSerif" font-size="8.00">3.0.0</text>
</g>
<!-- javax.free:freejava&#45;traits:3.0.0&#45;&gt;javax.free:freejava&#45;jdk6compat:3.0.0 -->
<g id="edge52" class="edge"><title>javax.free:freejava&#45;traits:3.0.0&#45;&gt;javax.free:freejava&#45;jdk6compat:3.0.0</title>
<path fill="none" stroke="black" d="M109.22,-335.712C90.1977,-318.63 64.9587,-291.828 54,-262 41.7962,-228.783 46.9848,-187.631 52.9492,-160.412"/>
<polygon fill="black" stroke="black" points="56.4309,-160.897 55.3265,-150.36 49.6188,-159.286 56.4309,-160.897"/>
</g>
<!-- javax.free:freejava&#45;sio:3.0.0 -->
<g id="node11" class="node"><title>javax.free:freejava&#45;sio:3.0.0</title>
<polygon fill="white" stroke="black" points="559,-262 493,-262 493,-224 559,-224 559,-262"/>
<text text-anchor="middle" x="526" y="-250.8" font-family="SanSerif" font-size="8.00">javax.free</text>
<text text-anchor="middle" x="526" y="-240.8" font-family="SanSerif" font-size="8.00">freejava&#45;sio</text>
<text text-anchor="middle" x="526" y="-230.8" font-family="SanSerif" font-size="8.00">3.0.0</text>
</g>
<!-- javax.free:freejava&#45;string:3.0.0&#45;&gt;javax.free:freejava&#45;sio:3.0.0 -->
<g id="edge18" class="edge"><title>javax.free:freejava&#45;string:3.0.0&#45;&gt;javax.free:freejava&#45;sio:3.0.0</title>
<path fill="none" stroke="black" d="M526,-335.747C526,-318.251 526,-292.189 526,-272.143"/>
<polygon fill="black" stroke="black" points="529.5,-272.002 526,-262.002 522.5,-272.002 529.5,-272.002"/>
</g>
<!-- javax.free:freejava&#45;string:3.0.0&#45;&gt;javax.free:freejava&#45;c1:3.0.0 -->
<g id="edge20" class="edge"><title>javax.free:freejava&#45;string:3.0.0&#45;&gt;javax.free:freejava&#45;c1:3.0.0</title>
<path fill="none" stroke="black" d="M550.624,-335.775C600.698,-294.272 705.69,-193.453 657,-112 628.795,-64.8162 567.51,-40.1787 525.992,-28.4024"/>
<polygon fill="black" stroke="black" points="526.722,-24.9741 516.155,-25.7463 524.897,-31.7321 526.722,-24.9741"/>
</g>
<!-- javax.free:freejava&#45;bits:3.0.0 -->
<g id="node12" class="node"><title>javax.free:freejava&#45;bits:3.0.0</title>
<polygon fill="white" stroke="black" points="561,-150 491,-150 491,-112 561,-112 561,-150"/>
<text text-anchor="middle" x="526" y="-138.8" font-family="SanSerif" font-size="8.00">javax.free</text>
<text text-anchor="middle" x="526" y="-128.8" font-family="SanSerif" font-size="8.00">freejava&#45;bits</text>
<text text-anchor="middle" x="526" y="-118.8" font-family="SanSerif" font-size="8.00">3.0.0</text>
</g>
<!-- javax.free:freejava&#45;sio:3.0.0&#45;&gt;javax.free:freejava&#45;bits:3.0.0 -->
<g id="edge14" class="edge"><title>javax.free:freejava&#45;sio:3.0.0&#45;&gt;javax.free:freejava&#45;bits:3.0.0</title>
<path fill="none" stroke="black" d="M526,-223.747C526,-206.251 526,-180.189 526,-160.143"/>
<polygon fill="black" stroke="black" points="529.5,-160.002 526,-150.002 522.5,-160.002 529.5,-160.002"/>
</g>
<!-- javax.free:freejava&#45;proxy&#45;api:3.0.0 -->
<g id="node13" class="node"><title>javax.free:freejava&#45;proxy&#45;api:3.0.0</title>
<polygon fill="white" stroke="black" points="657,-150 565,-150 565,-112 657,-112 657,-150"/>
<text text-anchor="middle" x="611" y="-138.8" font-family="SanSerif" font-size="8.00">javax.free</text>
<text text-anchor="middle" x="611" y="-128.8" font-family="SanSerif" font-size="8.00">freejava&#45;proxy&#45;api</text>
<text text-anchor="middle" x="611" y="-118.8" font-family="SanSerif" font-size="8.00">3.0.0</text>
</g>
<!-- javax.free:freejava&#45;sio:3.0.0&#45;&gt;javax.free:freejava&#45;proxy&#45;api:3.0.0 -->
<g id="edge16" class="edge"><title>javax.free:freejava&#45;sio:3.0.0&#45;&gt;javax.free:freejava&#45;proxy&#45;api:3.0.0</title>
<path fill="none" stroke="black" d="M540.612,-223.747C554.318,-205.687 574.952,-178.499 590.34,-158.222"/>
<polygon fill="black" stroke="black" points="593.321,-160.084 596.579,-150.002 587.745,-155.852 593.321,-160.084"/>
</g>
<!-- javax.free:freejava&#45;collection:3.0.0&#45;&gt;javax.free:freejava&#45;closure:3.0.0 -->
<g id="edge30" class="edge"><title>javax.free:freejava&#45;collection:3.0.0&#45;&gt;javax.free:freejava&#45;closure:3.0.0</title>
<path fill="none" stroke="black" d="M303.14,-335.747C302.359,-318.251 301.196,-292.189 300.301,-272.143"/>
<polygon fill="black" stroke="black" points="303.791,-271.836 299.848,-262.002 296.798,-272.148 303.791,-271.836"/>
</g>
<!-- javax.free:freejava&#45;collection:3.0.0&#45;&gt;javax.free:freejava&#45;c1:3.0.0 -->
<g id="edge26" class="edge"><title>javax.free:freejava&#45;collection:3.0.0&#45;&gt;javax.free:freejava&#45;c1:3.0.0</title>
<path fill="none" stroke="black" d="M351.274,-343.98C392.607,-331.598 450.235,-307.051 478,-262 488.939,-244.25 486.564,-109.079 484.912,-48.3663"/>
<polygon fill="black" stroke="black" points="488.409,-48.1737 484.626,-38.2772 481.411,-48.3726 488.409,-48.1737"/>
</g>
<!-- net.sourceforge.collections:collections&#45;generic:4.01 -->
<g id="node16" class="node"><title>net.sourceforge.collections:collections&#45;generic:4.01</title>
<polygon fill="white" stroke="black" points="478,-262 346,-262 346,-224 478,-224 478,-262"/>
<text text-anchor="middle" x="412" y="-250.8" font-family="SanSerif" font-size="8.00">net.sourceforge.collections</text>
<text text-anchor="middle" x="412" y="-240.8" font-family="SanSerif" font-size="8.00">collections&#45;generic</text>
<text text-anchor="middle" x="412" y="-230.8" font-family="SanSerif" font-size="8.00">4.01</text>
</g>
<!-- javax.free:freejava&#45;collection:3.0.0&#45;&gt;net.sourceforge.collections:collections&#45;generic:4.01 -->
<g id="edge24" class="edge"><title>javax.free:freejava&#45;collection:3.0.0&#45;&gt;net.sourceforge.collections:collections&#45;generic:4.01</title>
<path fill="none" stroke="black" d="M322.566,-335.747C340.214,-317.445 366.901,-289.769 386.532,-269.411"/>
<polygon fill="black" stroke="black" points="389.254,-271.63 393.676,-262.002 384.216,-266.771 389.254,-271.63"/>
</g>
<!-- javax.free:freejava&#45;collection:3.0.0&#45;&gt;javax.free:freejava&#45;lang:3.0.0 -->
<g id="edge28" class="edge"><title>javax.free:freejava&#45;collection:3.0.0&#45;&gt;javax.free:freejava&#45;lang:3.0.0</title>
<path fill="none" stroke="black" d="M267.212,-335.747C230.703,-316.639 174.668,-287.312 135.408,-266.765"/>
<polygon fill="black" stroke="black" points="136.791,-263.538 126.308,-262.002 133.545,-269.74 136.791,-263.538"/>
</g>
<!-- javax.free:freejava&#45;lang:3.0.0&#45;&gt;javax.free:freejava&#45;jdk6compat:3.0.0 -->
<g id="edge48" class="edge"><title>javax.free:freejava&#45;lang:3.0.0&#45;&gt;javax.free:freejava&#45;jdk6compat:3.0.0</title>
<path fill="none" stroke="black" d="M85.0147,-223.747C80.4638,-206.171 73.6742,-179.949 68.4743,-159.866"/>
<polygon fill="black" stroke="black" points="71.8152,-158.806 65.9202,-150.002 65.0387,-160.56 71.8152,-158.806"/>
</g>
<!-- org.slf4j:slf4j&#45;api:1.4.2 -->
<g id="node19" class="node"><title>org.slf4j:slf4j&#45;api:1.4.2</title>
<polygon fill="white" stroke="black" points="194,-262 140,-262 140,-224 194,-224 194,-262"/>
<text text-anchor="middle" x="167" y="-250.8" font-family="SanSerif" font-size="8.00">org.slf4j</text>
<text text-anchor="middle" x="167" y="-240.8" font-family="SanSerif" font-size="8.00">slf4j&#45;api</text>
<text text-anchor="middle" x="167" y="-230.8" font-family="SanSerif" font-size="8.00">1.4.2</text>
</g>
<!-- org.slf4j:slf4j&#45;log4j12:1.4.2&#45;&gt;org.slf4j:slf4j&#45;api:1.4.2 -->
<g id="edge34" class="edge"><title>org.slf4j:slf4j&#45;log4j12:1.4.2&#45;&gt;org.slf4j:slf4j&#45;api:1.4.2</title>
<path fill="none" stroke="black" d="M201.78,-335.747C195.159,-318.09 185.265,-291.708 177.721,-271.59"/>
<polygon fill="black" stroke="black" points="180.914,-270.137 174.126,-262.002 174.36,-272.594 180.914,-270.137"/>
</g>
<!-- log4j:log4j:1.2.13 -->
<g id="node20" class="node"><title>log4j:log4j:1.2.13</title>
<polygon fill="white" stroke="black" points="252,-262 198,-262 198,-224 252,-224 252,-262"/>
<text text-anchor="middle" x="225" y="-250.8" font-family="SanSerif" font-size="8.00">log4j</text>
<text text-anchor="middle" x="225" y="-240.8" font-family="SanSerif" font-size="8.00">log4j</text>
<text text-anchor="middle" x="225" y="-230.8" font-family="SanSerif" font-size="8.00">1.2.13</text>
</g>
<!-- org.slf4j:slf4j&#45;log4j12:1.4.2&#45;&gt;log4j:log4j:1.2.13 -->
<g id="edge36" class="edge"><title>org.slf4j:slf4j&#45;log4j12:1.4.2&#45;&gt;log4j:log4j:1.2.13</title>
<path fill="none" stroke="black" d="M211.75,-335.747C214.25,-318.251 217.973,-292.189 220.837,-272.143"/>
<polygon fill="black" stroke="black" points="224.336,-272.397 222.285,-262.002 217.406,-271.407 224.336,-272.397"/>
</g>
<!-- com.bee32.plover:plover&#45;inject:0.0.1&#45;SNAPSHOT&#45;&gt;com.bee32.plover:plover&#45;arch:0.0.4&#45;SNAPSHOT -->
<g id="edge58" class="edge"><title>com.bee32.plover:plover&#45;inject:0.0.1&#45;SNAPSHOT&#45;&gt;com.bee32.plover:plover&#45;arch:0.0.4&#45;SNAPSHOT</title>
<path fill="none" stroke="black" d="M293.061,-559.747C284.826,-542.009 272.502,-515.467 263.146,-495.315"/>
<polygon fill="black" stroke="black" points="266.208,-493.598 258.822,-486.002 259.859,-496.546 266.208,-493.598"/>
</g>
<!-- com.bee32.plover:plover&#45;inject:0.0.1&#45;SNAPSHOT&#45;&gt;javax.free:freejava&#45;collection:3.0.0 -->
<g id="edge56" class="edge"><title>com.bee32.plover:plover&#45;inject:0.0.1&#45;SNAPSHOT&#45;&gt;javax.free:freejava&#45;collection:3.0.0</title>
<path fill="none" stroke="black" d="M302.171,-559.902C302.521,-520.64 303.325,-430.652 303.74,-384.094"/>
<polygon fill="black" stroke="black" points="307.24,-384.081 303.83,-374.05 300.241,-384.018 307.24,-384.081"/>
</g>
<!-- com.bee32.plover:plover&#45;servlet:0.0.1&#45;SNAPSHOT&#45;&gt;com.bee32.plover:plover&#45;inject:0.0.1&#45;SNAPSHOT -->
<g id="edge66" class="edge"><title>com.bee32.plover:plover&#45;servlet:0.0.1&#45;SNAPSHOT&#45;&gt;com.bee32.plover:plover&#45;inject:0.0.1&#45;SNAPSHOT</title>
<path fill="none" stroke="black" d="M337.608,-671.747C330.829,-654.09 320.7,-627.708 312.977,-607.59"/>
<polygon fill="black" stroke="black" points="316.147,-606.083 309.296,-598.002 309.612,-608.592 316.147,-606.083"/>
</g>
<!-- javax.servlet:servlet&#45;api:2.5 -->
<g id="node25" class="node"><title>javax.servlet:servlet&#45;api:2.5</title>
<polygon fill="white" stroke="black" points="422,-598 352,-598 352,-560 422,-560 422,-598"/>
<text text-anchor="middle" x="387" y="-586.8" font-family="SanSerif" font-size="8.00">javax.servlet</text>
<text text-anchor="middle" x="387" y="-576.8" font-family="SanSerif" font-size="8.00">servlet&#45;api</text>
<text text-anchor="middle" x="387" y="-566.8" font-family="SanSerif" font-size="8.00">2.5</text>
</g>
<!-- com.bee32.plover:plover&#45;servlet:0.0.1&#45;SNAPSHOT&#45;&gt;javax.servlet:servlet&#45;api:2.5 -->
<g id="edge64" class="edge"><title>com.bee32.plover:plover&#45;servlet:0.0.1&#45;SNAPSHOT&#45;&gt;javax.servlet:servlet&#45;api:2.5</title>
<path fill="none" stroke="black" d="M352.22,-671.747C358.841,-654.09 368.735,-627.708 376.279,-607.59"/>
<polygon fill="black" stroke="black" points="379.64,-608.594 379.874,-598.002 373.086,-606.137 379.64,-608.594"/>
</g>
</g>
</svg>
