<?xml version="1.0" encoding="UTF-8" standalone="no"?>
<!DOCTYPE svg PUBLIC "-//W3C//DTD SVG 1.1//EN"
 "http://www.w3.org/Graphics/SVG/1.1/DTD/svg11.dtd">
<!-- Generated by graphviz version 2.26.3 (20100126.1600)
 -->
<!-- Title: dependencies Pages: 1 -->
<svg width="786pt" height="796pt"
 viewBox="0.00 0.00 786.00 796.00" xmlns="http://www.w3.org/2000/svg" xmlns:xlink="http://www.w3.org/1999/xlink">
<g id="graph1" class="graph" transform="scale(1 1) rotate(0) translate(4 792)">
<title>dependencies</title>
<polygon fill="white" stroke="white" points="-4,5 -4,-792 783,-792 783,5 -4,5"/>
<text text-anchor="middle" x="220" y="-767.8" font-family="Serif" font-size="18.00">Dependency Graph for Plover :: Core :: Servlet</text>
<!-- com.bee32.plover:plover&#45;servlet:0.0.1&#45;SNAPSHOT -->
<g id="node1" class="node"><title>com.bee32.plover:plover&#45;servlet:0.0.1&#45;SNAPSHOT</title>
<polygon fill="#dddddd" stroke="black" points="507,-758 369,-758 369,-696 507,-696 507,-758"/>
<text text-anchor="middle" x="438" y="-741.4" font-family="SanSerif" font-size="14.00">com.bee32.plover</text>
<text text-anchor="middle" x="438" y="-723.4" font-family="SanSerif" font-size="14.00">plover&#45;servlet</text>
<text text-anchor="middle" x="438" y="-705.4" font-family="SanSerif" font-size="14.00">0.0.1&#45;SNAPSHOT</text>
</g>
<!-- javax.servlet:servlet&#45;api:2.5 -->
<g id="node2" class="node"><title>javax.servlet:servlet&#45;api:2.5</title>
<polygon fill="white" stroke="black" points="70,-614 2.73566e-14,-614 6.33868e-15,-576 70,-576 70,-614"/>
<text text-anchor="middle" x="35" y="-602.8" font-family="SanSerif" font-size="8.00">javax.servlet</text>
<text text-anchor="middle" x="35" y="-592.8" font-family="SanSerif" font-size="8.00">servlet&#45;api</text>
<text text-anchor="middle" x="35" y="-582.8" font-family="SanSerif" font-size="8.00">2.5</text>
</g>
<!-- com.bee32.plover:plover&#45;servlet:0.0.1&#45;SNAPSHOT&#45;&gt;javax.servlet:servlet&#45;api:2.5 -->
<g id="edge2" class="edge"><title>com.bee32.plover:plover&#45;servlet:0.0.1&#45;SNAPSHOT&#45;&gt;javax.servlet:servlet&#45;api:2.5</title>
<path fill="none" stroke="black" d="M368.829,-708.916C297.036,-689.389 181.674,-655.889 79.691,-616.174"/>
<polygon fill="black" stroke="black" points="80.7678,-612.837 70.1805,-612.437 78.2075,-619.352 80.7678,-612.837"/>
</g>
<!-- org.mortbay.jetty:jetty&#45;servlet&#45;tester:6.1.16 -->
<g id="node3" class="node"><title>org.mortbay.jetty:jetty&#45;servlet&#45;tester:6.1.16</title>
<polygon fill="white" stroke="cornflowerblue" points="168,-614 74,-614 74,-576 168,-576 168,-614"/>
<text text-anchor="middle" x="121" y="-602.8" font-family="SanSerif" font-size="8.00" fill="cornflowerblue">org.mortbay.jetty</text>
<text text-anchor="middle" x="121" y="-592.8" font-family="SanSerif" font-size="8.00" fill="cornflowerblue">jetty&#45;servlet&#45;tester</text>
<text text-anchor="middle" x="121" y="-582.8" font-family="SanSerif" font-size="8.00" fill="cornflowerblue">6.1.16</text>
</g>
<!-- com.bee32.plover:plover&#45;servlet:0.0.1&#45;SNAPSHOT&#45;&gt;org.mortbay.jetty:jetty&#45;servlet&#45;tester:6.1.16 -->
<g id="edge10" class="edge"><title>com.bee32.plover:plover&#45;servlet:0.0.1&#45;SNAPSHOT&#45;&gt;org.mortbay.jetty:jetty&#45;servlet&#45;tester:6.1.16</title>
<path fill="none" stroke="cornflowerblue" d="M368.825,-698.195C311.081,-674.15 229.852,-640.326 176.347,-618.047"/>
<polygon fill="cornflowerblue" stroke="cornflowerblue" points="177.597,-614.776 167.02,-614.163 174.907,-621.238 177.597,-614.776"/>
<text text-anchor="middle" x="278.5" y="-652.8" font-family="SanSerif" font-size="8.00" fill="cornflowerblue">test</text>
</g>
<!-- org.springframework:spring&#45;core:3.0.5.RELEASE -->
<g id="node7" class="node"><title>org.springframework:spring&#45;core:3.0.5.RELEASE</title>
<polygon fill="white" stroke="cornflowerblue" points="278,-614 172,-614 172,-576 278,-576 278,-614"/>
<text text-anchor="middle" x="225" y="-602.8" font-family="SanSerif" font-size="8.00" fill="cornflowerblue">org.springframework</text>
<text text-anchor="middle" x="225" y="-592.8" font-family="SanSerif" font-size="8.00" fill="cornflowerblue">spring&#45;core</text>
<text text-anchor="middle" x="225" y="-582.8" font-family="SanSerif" font-size="8.00" fill="cornflowerblue">3.0.5.RELEASE</text>
</g>
<!-- com.bee32.plover:plover&#45;servlet:0.0.1&#45;SNAPSHOT&#45;&gt;org.springframework:spring&#45;core:3.0.5.RELEASE -->
<g id="edge16" class="edge"><title>com.bee32.plover:plover&#45;servlet:0.0.1&#45;SNAPSHOT&#45;&gt;org.springframework:spring&#45;core:3.0.5.RELEASE</title>
<path fill="none" stroke="cornflowerblue" d="M387.792,-695.885C350.195,-672.586 299.464,-641.147 264.683,-619.592"/>
<polygon fill="cornflowerblue" stroke="cornflowerblue" points="266.106,-616.356 255.762,-614.064 262.418,-622.306 266.106,-616.356"/>
<text text-anchor="middle" x="334.5" y="-652.8" font-family="SanSerif" font-size="8.00" fill="cornflowerblue">test</text>
</g>
<!-- org.springframework:spring&#45;mock:2.0.8 -->
<g id="node10" class="node"><title>org.springframework:spring&#45;mock:2.0.8</title>
<polygon fill="white" stroke="cornflowerblue" points="388,-614 282,-614 282,-576 388,-576 388,-614"/>
<text text-anchor="middle" x="335" y="-602.8" font-family="SanSerif" font-size="8.00" fill="cornflowerblue">org.springframework</text>
<text text-anchor="middle" x="335" y="-592.8" font-family="SanSerif" font-size="8.00" fill="cornflowerblue">spring&#45;mock</text>
<text text-anchor="middle" x="335" y="-582.8" font-family="SanSerif" font-size="8.00" fill="cornflowerblue">2.0.8</text>
</g>
<!-- com.bee32.plover:plover&#45;servlet:0.0.1&#45;SNAPSHOT&#45;&gt;org.springframework:spring&#45;mock:2.0.8 -->
<g id="edge18" class="edge"><title>com.bee32.plover:plover&#45;servlet:0.0.1&#45;SNAPSHOT&#45;&gt;org.springframework:spring&#45;mock:2.0.8</title>
<path fill="none" stroke="cornflowerblue" d="M413.59,-695.718C396.155,-673.373 372.927,-643.606 356.252,-622.236"/>
<polygon fill="cornflowerblue" stroke="cornflowerblue" points="358.899,-619.938 349.987,-614.207 353.38,-624.244 358.899,-619.938"/>
<text text-anchor="middle" x="392.5" y="-652.8" font-family="SanSerif" font-size="8.00" fill="cornflowerblue">test</text>
</g>
<!-- com.bee32.plover:plover&#45;inject:0.0.1&#45;SNAPSHOT -->
<g id="node11" class="node"><title>com.bee32.plover:plover&#45;inject:0.0.1&#45;SNAPSHOT</title>
<polygon fill="white" stroke="black" points="484,-614 392,-614 392,-576 484,-576 484,-614"/>
<text text-anchor="middle" x="438" y="-602.8" font-family="SanSerif" font-size="8.00">com.bee32.plover</text>
<text text-anchor="middle" x="438" y="-592.8" font-family="SanSerif" font-size="8.00">plover&#45;inject</text>
<text text-anchor="middle" x="438" y="-582.8" font-family="SanSerif" font-size="8.00">0.0.1&#45;SNAPSHOT</text>
</g>
<!-- com.bee32.plover:plover&#45;servlet:0.0.1&#45;SNAPSHOT&#45;&gt;com.bee32.plover:plover&#45;inject:0.0.1&#45;SNAPSHOT -->
<g id="edge70" class="edge"><title>com.bee32.plover:plover&#45;servlet:0.0.1&#45;SNAPSHOT&#45;&gt;com.bee32.plover:plover&#45;inject:0.0.1&#45;SNAPSHOT</title>
<path fill="none" stroke="black" d="M438,-695.718C438,-674.065 438,-645.442 438,-624.246"/>
<polygon fill="black" stroke="black" points="441.5,-624.207 438,-614.207 434.5,-624.207 441.5,-624.207"/>
</g>
<!-- junit:junit:4.8.2 -->
<g id="node30" class="node"><title>junit:junit:4.8.2</title>
<polygon fill="white" stroke="cornflowerblue" points="542,-614 488,-614 488,-576 542,-576 542,-614"/>
<text text-anchor="middle" x="515" y="-602.8" font-family="SanSerif" font-size="8.00" fill="cornflowerblue">junit</text>
<text text-anchor="middle" x="515" y="-592.8" font-family="SanSerif" font-size="8.00" fill="cornflowerblue">junit</text>
<text text-anchor="middle" x="515" y="-582.8" font-family="SanSerif" font-size="8.00" fill="cornflowerblue">4.8.2</text>
</g>
<!-- com.bee32.plover:plover&#45;servlet:0.0.1&#45;SNAPSHOT&#45;&gt;junit:junit:4.8.2 -->
<g id="edge72" class="edge"><title>com.bee32.plover:plover&#45;servlet:0.0.1&#45;SNAPSHOT&#45;&gt;junit:junit:4.8.2</title>
<path fill="none" stroke="cornflowerblue" d="M456.248,-695.718C469.11,-673.669 486.187,-644.394 498.613,-623.092"/>
<polygon fill="cornflowerblue" stroke="cornflowerblue" points="501.78,-624.609 503.796,-614.207 495.734,-621.081 501.78,-624.609"/>
<text text-anchor="middle" x="490.5" y="-652.8" font-family="SanSerif" font-size="8.00" fill="cornflowerblue">test</text>
</g>
<!-- org.mortbay.jetty:jetty:6.1.16 -->
<g id="node4" class="node"><title>org.mortbay.jetty:jetty:6.1.16</title>
<polygon fill="white" stroke="cornflowerblue" points="165,-494 77,-494 77,-456 165,-456 165,-494"/>
<text text-anchor="middle" x="121" y="-482.8" font-family="SanSerif" font-size="8.00" fill="cornflowerblue">org.mortbay.jetty</text>
<text text-anchor="middle" x="121" y="-472.8" font-family="SanSerif" font-size="8.00" fill="cornflowerblue">jetty</text>
<text text-anchor="middle" x="121" y="-462.8" font-family="SanSerif" font-size="8.00" fill="cornflowerblue">6.1.16</text>
</g>
<!-- org.mortbay.jetty:jetty&#45;servlet&#45;tester:6.1.16&#45;&gt;org.mortbay.jetty:jetty:6.1.16 -->
<g id="edge8" class="edge"><title>org.mortbay.jetty:jetty&#45;servlet&#45;tester:6.1.16&#45;&gt;org.mortbay.jetty:jetty:6.1.16</title>
<path fill="none" stroke="cornflowerblue" d="M121,-575.986C121,-556.789 121,-526.871 121,-504.575"/>
<polygon fill="cornflowerblue" stroke="cornflowerblue" points="124.5,-504.323 121,-494.323 117.5,-504.323 124.5,-504.323"/>
<text text-anchor="middle" x="129.5" y="-532.8" font-family="SanSerif" font-size="8.00" fill="cornflowerblue">test</text>
</g>
<!-- org.mortbay.jetty:jetty&#45;util:6.1.16 -->
<g id="node5" class="node"><title>org.mortbay.jetty:jetty&#45;util:6.1.16</title>
<polygon fill="white" stroke="cornflowerblue" points="119,-374 31,-374 31,-336 119,-336 119,-374"/>
<text text-anchor="middle" x="75" y="-362.8" font-family="SanSerif" font-size="8.00" fill="cornflowerblue">org.mortbay.jetty</text>
<text text-anchor="middle" x="75" y="-352.8" font-family="SanSerif" font-size="8.00" fill="cornflowerblue">jetty&#45;util</text>
<text text-anchor="middle" x="75" y="-342.8" font-family="SanSerif" font-size="8.00" fill="cornflowerblue">6.1.16</text>
</g>
<!-- org.mortbay.jetty:jetty:6.1.16&#45;&gt;org.mortbay.jetty:jetty&#45;util:6.1.16 -->
<g id="edge4" class="edge"><title>org.mortbay.jetty:jetty:6.1.16&#45;&gt;org.mortbay.jetty:jetty&#45;util:6.1.16</title>
<path fill="none" stroke="cornflowerblue" d="M113.711,-455.986C106.252,-436.528 94.5705,-406.053 85.9892,-383.668"/>
<polygon fill="cornflowerblue" stroke="cornflowerblue" points="89.2546,-382.407 82.4071,-374.323 82.7184,-384.913 89.2546,-382.407"/>
<text text-anchor="middle" x="108.5" y="-412.8" font-family="SanSerif" font-size="8.00" fill="cornflowerblue">test</text>
</g>
<!-- org.mortbay.jetty:servlet&#45;api:2.5&#45;20081211 -->
<g id="node6" class="node"><title>org.mortbay.jetty:servlet&#45;api:2.5&#45;20081211</title>
<polygon fill="white" stroke="cornflowerblue" points="211,-374 123,-374 123,-336 211,-336 211,-374"/>
<text text-anchor="middle" x="167" y="-362.8" font-family="SanSerif" font-size="8.00" fill="cornflowerblue">org.mortbay.jetty</text>
<text text-anchor="middle" x="167" y="-352.8" font-family="SanSerif" font-size="8.00" fill="cornflowerblue">servlet&#45;api</text>
<text text-anchor="middle" x="167" y="-342.8" font-family="SanSerif" font-size="8.00" fill="cornflowerblue">2.5&#45;20081211</text>
</g>
<!-- org.mortbay.jetty:jetty:6.1.16&#45;&gt;org.mortbay.jetty:servlet&#45;api:2.5&#45;20081211 -->
<g id="edge6" class="edge"><title>org.mortbay.jetty:jetty:6.1.16&#45;&gt;org.mortbay.jetty:servlet&#45;api:2.5&#45;20081211</title>
<path fill="none" stroke="cornflowerblue" d="M128.289,-455.986C135.748,-436.528 147.43,-406.053 156.011,-383.668"/>
<polygon fill="cornflowerblue" stroke="cornflowerblue" points="159.282,-384.913 159.593,-374.323 152.745,-382.407 159.282,-384.913"/>
<text text-anchor="middle" x="154.5" y="-412.8" font-family="SanSerif" font-size="8.00" fill="cornflowerblue">test</text>
</g>
<!-- org.springframework:spring&#45;asm:3.0.5.RELEASE -->
<g id="node8" class="node"><title>org.springframework:spring&#45;asm:3.0.5.RELEASE</title>
<polygon fill="white" stroke="cornflowerblue" points="277,-494 171,-494 171,-456 277,-456 277,-494"/>
<text text-anchor="middle" x="224" y="-482.8" font-family="SanSerif" font-size="8.00" fill="cornflowerblue">org.springframework</text>
<text text-anchor="middle" x="224" y="-472.8" font-family="SanSerif" font-size="8.00" fill="cornflowerblue">spring&#45;asm</text>
<text text-anchor="middle" x="224" y="-462.8" font-family="SanSerif" font-size="8.00" fill="cornflowerblue">3.0.5.RELEASE</text>
</g>
<!-- org.springframework:spring&#45;core:3.0.5.RELEASE&#45;&gt;org.springframework:spring&#45;asm:3.0.5.RELEASE -->
<g id="edge12" class="edge"><title>org.springframework:spring&#45;core:3.0.5.RELEASE&#45;&gt;org.springframework:spring&#45;asm:3.0.5.RELEASE</title>
<path fill="none" stroke="cornflowerblue" d="M224.842,-575.986C224.682,-556.789 224.432,-526.871 224.246,-504.575"/>
<polygon fill="cornflowerblue" stroke="cornflowerblue" points="227.744,-504.293 224.161,-494.323 220.745,-504.352 227.744,-504.293"/>
<text text-anchor="middle" x="233.5" y="-532.8" font-family="SanSerif" font-size="8.00" fill="cornflowerblue">test</text>
</g>
<!-- commons&#45;logging:commons&#45;logging:1.1.1 -->
<g id="node9" class="node"><title>commons&#45;logging:commons&#45;logging:1.1.1</title>
<polygon fill="white" stroke="cornflowerblue" points="373,-494 281,-494 281,-456 373,-456 373,-494"/>
<text text-anchor="middle" x="327" y="-482.8" font-family="SanSerif" font-size="8.00" fill="cornflowerblue">commons&#45;logging</text>
<text text-anchor="middle" x="327" y="-472.8" font-family="SanSerif" font-size="8.00" fill="cornflowerblue">commons&#45;logging</text>
<text text-anchor="middle" x="327" y="-462.8" font-family="SanSerif" font-size="8.00" fill="cornflowerblue">1.1.1</text>
</g>
<!-- org.springframework:spring&#45;core:3.0.5.RELEASE&#45;&gt;commons&#45;logging:commons&#45;logging:1.1.1 -->
<g id="edge14" class="edge"><title>org.springframework:spring&#45;core:3.0.5.RELEASE&#45;&gt;commons&#45;logging:commons&#45;logging:1.1.1</title>
<path fill="none" stroke="cornflowerblue" d="M241.162,-575.986C258.072,-556.091 284.771,-524.681 303.902,-502.174"/>
<polygon fill="cornflowerblue" stroke="cornflowerblue" points="306.766,-504.209 310.576,-494.323 301.432,-499.675 306.766,-504.209"/>
<text text-anchor="middle" x="288.5" y="-532.8" font-family="SanSerif" font-size="8.00" fill="cornflowerblue">test</text>
</g>
<!-- javax.free:freejava&#45;collection:3.0.0 -->
<g id="node12" class="node"><title>javax.free:freejava&#45;collection:3.0.0</title>
<polygon fill="white" stroke="black" points="431,-374 337,-374 337,-336 431,-336 431,-374"/>
<text text-anchor="middle" x="384" y="-362.8" font-family="SanSerif" font-size="8.00">javax.free</text>
<text text-anchor="middle" x="384" y="-352.8" font-family="SanSerif" font-size="8.00">freejava&#45;collection</text>
<text text-anchor="middle" x="384" y="-342.8" font-family="SanSerif" font-size="8.00">3.0.0</text>
</g>
<!-- com.bee32.plover:plover&#45;inject:0.0.1&#45;SNAPSHOT&#45;&gt;javax.free:freejava&#45;collection:3.0.0 -->
<g id="edge36" class="edge"><title>com.bee32.plover:plover&#45;inject:0.0.1&#45;SNAPSHOT&#45;&gt;javax.free:freejava&#45;collection:3.0.0</title>
<path fill="none" stroke="black" d="M426.568,-575.668C415.519,-555.898 399.401,-523.927 392,-494 382.841,-456.964 381.935,-412.759 382.587,-384.303"/>
<polygon fill="black" stroke="black" points="386.088,-384.32 382.899,-374.216 379.091,-384.103 386.088,-384.32"/>
</g>
<!-- com.bee32.plover:plover&#45;arch:0.0.4&#45;SNAPSHOT -->
<g id="node20" class="node"><title>com.bee32.plover:plover&#45;arch:0.0.4&#45;SNAPSHOT</title>
<polygon fill="white" stroke="black" points="484,-494 392,-494 392,-456 484,-456 484,-494"/>
<text text-anchor="middle" x="438" y="-482.8" font-family="SanSerif" font-size="8.00">com.bee32.plover</text>
<text text-anchor="middle" x="438" y="-472.8" font-family="SanSerif" font-size="8.00">plover&#45;arch</text>
<text text-anchor="middle" x="438" y="-462.8" font-family="SanSerif" font-size="8.00">0.0.4&#45;SNAPSHOT</text>
</g>
<!-- com.bee32.plover:plover&#45;inject:0.0.1&#45;SNAPSHOT&#45;&gt;com.bee32.plover:plover&#45;arch:0.0.4&#45;SNAPSHOT -->
<g id="edge68" class="edge"><title>com.bee32.plover:plover&#45;inject:0.0.1&#45;SNAPSHOT&#45;&gt;com.bee32.plover:plover&#45;arch:0.0.4&#45;SNAPSHOT</title>
<path fill="none" stroke="black" d="M438,-575.986C438,-556.789 438,-526.871 438,-504.575"/>
<polygon fill="black" stroke="black" points="441.5,-504.323 438,-494.323 434.5,-504.323 441.5,-504.323"/>
</g>
<!-- net.sourceforge.collections:collections&#45;generic:4.01 -->
<g id="node13" class="node"><title>net.sourceforge.collections:collections&#45;generic:4.01</title>
<polygon fill="white" stroke="black" points="301,-262 169,-262 169,-224 301,-224 301,-262"/>
<text text-anchor="middle" x="235" y="-250.8" font-family="SanSerif" font-size="8.00">net.sourceforge.collections</text>
<text text-anchor="middle" x="235" y="-240.8" font-family="SanSerif" font-size="8.00">collections&#45;generic</text>
<text text-anchor="middle" x="235" y="-230.8" font-family="SanSerif" font-size="8.00">4.01</text>
</g>
<!-- javax.free:freejava&#45;collection:3.0.0&#45;&gt;net.sourceforge.collections:collections&#45;generic:4.01 -->
<g id="edge20" class="edge"><title>javax.free:freejava&#45;collection:3.0.0&#45;&gt;net.sourceforge.collections:collections&#45;generic:4.01</title>
<path fill="none" stroke="black" d="M354.682,-335.748C339.353,-325.456 320.415,-312.385 304,-300 290.999,-290.191 277.078,-278.86 265.169,-268.896"/>
<polygon fill="black" stroke="black" points="267.185,-266.018 257.282,-262.253 262.675,-271.372 267.185,-266.018"/>
</g>
<!-- javax.free:freejava&#45;c1:3.0.0 -->
<g id="node14" class="node"><title>javax.free:freejava&#45;c1:3.0.0</title>
<polygon fill="white" stroke="black" points="424,-38 360,-38 360,-7.10543e-15 424,-3.55271e-15 424,-38"/>
<text text-anchor="middle" x="392" y="-26.8" font-family="SanSerif" font-size="8.00">javax.free</text>
<text text-anchor="middle" x="392" y="-16.8" font-family="SanSerif" font-size="8.00">freejava&#45;c1</text>
<text text-anchor="middle" x="392" y="-6.8" font-family="SanSerif" font-size="8.00">3.0.0</text>
</g>
<!-- javax.free:freejava&#45;collection:3.0.0&#45;&gt;javax.free:freejava&#45;c1:3.0.0 -->
<g id="edge22" class="edge"><title>javax.free:freejava&#45;collection:3.0.0&#45;&gt;javax.free:freejava&#45;c1:3.0.0</title>
<path fill="none" stroke="black" d="M363.837,-335.791C347.116,-318.361 324.588,-291.016 315,-262 294.082,-198.7 292.405,-174.721 315,-112 324.303,-86.1763 344.235,-62.4382 361.488,-45.4086"/>
<polygon fill="black" stroke="black" points="364.359,-47.5075 369.179,-38.0728 359.528,-42.4422 364.359,-47.5075"/>
</g>
<!-- javax.free:freejava&#45;lang:3.0.0 -->
<g id="node15" class="node"><title>javax.free:freejava&#45;lang:3.0.0</title>
<polygon fill="white" stroke="black" points="387,-262 315,-262 315,-224 387,-224 387,-262"/>
<text text-anchor="middle" x="351" y="-250.8" font-family="SanSerif" font-size="8.00">javax.free</text>
<text text-anchor="middle" x="351" y="-240.8" font-family="SanSerif" font-size="8.00">freejava&#45;lang</text>
<text text-anchor="middle" x="351" y="-230.8" font-family="SanSerif" font-size="8.00">3.0.0</text>
</g>
<!-- javax.free:freejava&#45;collection:3.0.0&#45;&gt;javax.free:freejava&#45;lang:3.0.0 -->
<g id="edge26" class="edge"><title>javax.free:freejava&#45;collection:3.0.0&#45;&gt;javax.free:freejava&#45;lang:3.0.0</title>
<path fill="none" stroke="black" d="M378.327,-335.747C373.149,-318.171 365.422,-291.949 359.505,-271.866"/>
<polygon fill="black" stroke="black" points="362.783,-270.605 356.599,-262.002 356.068,-272.584 362.783,-270.605"/>
</g>
<!-- javax.free:freejava&#45;closure:3.0.0 -->
<g id="node17" class="node"><title>javax.free:freejava&#45;closure:3.0.0</title>
<polygon fill="white" stroke="black" points="477,-262 391,-262 391,-224 477,-224 477,-262"/>
<text text-anchor="middle" x="434" y="-250.8" font-family="SanSerif" font-size="8.00">javax.free</text>
<text text-anchor="middle" x="434" y="-240.8" font-family="SanSerif" font-size="8.00">freejava&#45;closure</text>
<text text-anchor="middle" x="434" y="-230.8" font-family="SanSerif" font-size="8.00">3.0.0</text>
</g>
<!-- javax.free:freejava&#45;collection:3.0.0&#45;&gt;javax.free:freejava&#45;closure:3.0.0 -->
<g id="edge34" class="edge"><title>javax.free:freejava&#45;collection:3.0.0&#45;&gt;javax.free:freejava&#45;closure:3.0.0</title>
<path fill="none" stroke="black" d="M392.595,-335.747C400.514,-318.009 412.363,-291.467 421.359,-271.315"/>
<polygon fill="black" stroke="black" points="424.636,-272.56 425.517,-262.002 418.244,-269.707 424.636,-272.56"/>
</g>
<!-- javax.free:freejava&#45;jdk6compat:3.0.0 -->
<g id="node16" class="node"><title>javax.free:freejava&#45;jdk6compat:3.0.0</title>
<polygon fill="white" stroke="black" points="418,-150 316,-150 316,-112 418,-112 418,-150"/>
<text text-anchor="middle" x="367" y="-138.8" font-family="SanSerif" font-size="8.00">javax.free</text>
<text text-anchor="middle" x="367" y="-128.8" font-family="SanSerif" font-size="8.00">freejava&#45;jdk6compat</text>
<text text-anchor="middle" x="367" y="-118.8" font-family="SanSerif" font-size="8.00">3.0.0</text>
</g>
<!-- javax.free:freejava&#45;lang:3.0.0&#45;&gt;javax.free:freejava&#45;jdk6compat:3.0.0 -->
<g id="edge24" class="edge"><title>javax.free:freejava&#45;lang:3.0.0&#45;&gt;javax.free:freejava&#45;jdk6compat:3.0.0</title>
<path fill="none" stroke="black" d="M353.75,-223.747C356.25,-206.251 359.973,-180.189 362.837,-160.143"/>
<polygon fill="black" stroke="black" points="366.336,-160.397 364.285,-150.002 359.406,-159.407 366.336,-160.397"/>
</g>
<!-- javax.free:freejava&#45;meta:3.0.0 -->
<g id="node18" class="node"><title>javax.free:freejava&#45;meta:3.0.0</title>
<polygon fill="white" stroke="black" points="498,-150 422,-150 422,-112 498,-112 498,-150"/>
<text text-anchor="middle" x="460" y="-138.8" font-family="SanSerif" font-size="8.00">javax.free</text>
<text text-anchor="middle" x="460" y="-128.8" font-family="SanSerif" font-size="8.00">freejava&#45;meta</text>
<text text-anchor="middle" x="460" y="-118.8" font-family="SanSerif" font-size="8.00">3.0.0</text>
</g>
<!-- javax.free:freejava&#45;closure:3.0.0&#45;&gt;javax.free:freejava&#45;meta:3.0.0 -->
<g id="edge32" class="edge"><title>javax.free:freejava&#45;closure:3.0.0&#45;&gt;javax.free:freejava&#45;meta:3.0.0</title>
<path fill="none" stroke="black" d="M438.47,-223.747C442.55,-206.171 448.637,-179.949 453.299,-159.866"/>
<polygon fill="black" stroke="black" points="456.737,-160.535 455.589,-150.002 449.918,-158.952 456.737,-160.535"/>
</g>
<!-- javax.free:freejava&#45;meta:3.0.0&#45;&gt;javax.free:freejava&#45;c1:3.0.0 -->
<g id="edge30" class="edge"><title>javax.free:freejava&#45;meta:3.0.0&#45;&gt;javax.free:freejava&#45;c1:3.0.0</title>
<path fill="none" stroke="black" d="M448.31,-111.747C437.444,-93.8482 421.133,-66.9835 408.859,-46.767"/>
<polygon fill="black" stroke="black" points="411.719,-44.7337 403.537,-38.0022 405.735,-48.3666 411.719,-44.7337"/>
</g>
<!-- javax.free:freejava&#45;annotation:3.0.0 -->
<g id="node19" class="node"><title>javax.free:freejava&#45;annotation:3.0.0</title>
<polygon fill="white" stroke="black" points="526,-38 428,-38 428,-7.10543e-15 526,-3.55271e-15 526,-38"/>
<text text-anchor="middle" x="477" y="-26.8" font-family="SanSerif" font-size="8.00">javax.free</text>
<text text-anchor="middle" x="477" y="-16.8" font-family="SanSerif" font-size="8.00">freejava&#45;annotation</text>
<text text-anchor="middle" x="477" y="-6.8" font-family="SanSerif" font-size="8.00">3.0.0</text>
</g>
<!-- javax.free:freejava&#45;meta:3.0.0&#45;&gt;javax.free:freejava&#45;annotation:3.0.0 -->
<g id="edge28" class="edge"><title>javax.free:freejava&#45;meta:3.0.0&#45;&gt;javax.free:freejava&#45;annotation:3.0.0</title>
<path fill="none" stroke="black" d="M462.922,-111.747C465.578,-94.2513 469.534,-68.1891 472.577,-48.1429"/>
<polygon fill="black" stroke="black" points="476.075,-48.4143 474.116,-38.0022 469.155,-47.3637 476.075,-48.4143"/>
</g>
<!-- com.bee32.plover:plover&#45;arch:0.0.4&#45;SNAPSHOT&#45;&gt;javax.free:freejava&#45;collection:3.0.0 -->
<g id="edge60" class="edge"><title>com.bee32.plover:plover&#45;arch:0.0.4&#45;SNAPSHOT&#45;&gt;javax.free:freejava&#45;collection:3.0.0</title>
<path fill="none" stroke="black" d="M429.444,-455.986C420.687,-436.528 406.974,-406.053 396.9,-383.668"/>
<polygon fill="black" stroke="black" points="399.991,-382.006 392.695,-374.323 393.607,-384.878 399.991,-382.006"/>
</g>
<!-- com.bee32.plover:plover&#45;arch:0.0.4&#45;SNAPSHOT&#45;&gt;javax.free:freejava&#45;closure:3.0.0 -->
<g id="edge38" class="edge"><title>com.bee32.plover:plover&#45;arch:0.0.4&#45;SNAPSHOT&#45;&gt;javax.free:freejava&#45;closure:3.0.0</title>
<path fill="none" stroke="black" d="M437.666,-455.619C436.964,-414.918 435.334,-320.347 434.504,-272.238"/>
<polygon fill="black" stroke="black" points="438.002,-272.101 434.33,-262.163 431.003,-272.222 438.002,-272.101"/>
</g>
<!-- javax.free:freejava&#45;traits:3.0.0 -->
<g id="node21" class="node"><title>javax.free:freejava&#45;traits:3.0.0</title>
<polygon fill="white" stroke="black" points="521,-374 445,-374 445,-336 521,-336 521,-374"/>
<text text-anchor="middle" x="483" y="-362.8" font-family="SanSerif" font-size="8.00">javax.free</text>
<text text-anchor="middle" x="483" y="-352.8" font-family="SanSerif" font-size="8.00">freejava&#45;traits</text>
<text text-anchor="middle" x="483" y="-342.8" font-family="SanSerif" font-size="8.00">3.0.0</text>
</g>
<!-- com.bee32.plover:plover&#45;arch:0.0.4&#45;SNAPSHOT&#45;&gt;javax.free:freejava&#45;traits:3.0.0 -->
<g id="edge46" class="edge"><title>com.bee32.plover:plover&#45;arch:0.0.4&#45;SNAPSHOT&#45;&gt;javax.free:freejava&#45;traits:3.0.0</title>
<path fill="none" stroke="black" d="M445.13,-455.986C452.394,-436.615 463.753,-406.326 472.137,-383.969"/>
<polygon fill="black" stroke="black" points="475.52,-384.915 475.754,-374.323 468.966,-382.457 475.52,-384.915"/>
</g>
<!-- javax.free:freejava&#45;string:3.0.0 -->
<g id="node22" class="node"><title>javax.free:freejava&#45;string:3.0.0</title>
<polygon fill="white" stroke="black" points="603,-374 525,-374 525,-336 603,-336 603,-374"/>
<text text-anchor="middle" x="564" y="-362.8" font-family="SanSerif" font-size="8.00">javax.free</text>
<text text-anchor="middle" x="564" y="-352.8" font-family="SanSerif" font-size="8.00">freejava&#45;string</text>
<text text-anchor="middle" x="564" y="-342.8" font-family="SanSerif" font-size="8.00">3.0.0</text>
</g>
<!-- com.bee32.plover:plover&#45;arch:0.0.4&#45;SNAPSHOT&#45;&gt;javax.free:freejava&#45;string:3.0.0 -->
<g id="edge58" class="edge"><title>com.bee32.plover:plover&#45;arch:0.0.4&#45;SNAPSHOT&#45;&gt;javax.free:freejava&#45;string:3.0.0</title>
<path fill="none" stroke="black" d="M457.965,-455.986C479.129,-435.83 512.705,-403.853 536.395,-381.29"/>
<polygon fill="black" stroke="black" points="538.884,-383.754 543.711,-374.323 534.056,-378.685 538.884,-383.754"/>
</g>
<!-- org.slf4j:slf4j&#45;log4j12:1.4.2 -->
<g id="node27" class="node"><title>org.slf4j:slf4j&#45;log4j12:1.4.2</title>
<polygon fill="white" stroke="black" points="675,-374 607,-374 607,-336 675,-336 675,-374"/>
<text text-anchor="middle" x="641" y="-362.8" font-family="SanSerif" font-size="8.00">org.slf4j</text>
<text text-anchor="middle" x="641" y="-352.8" font-family="SanSerif" font-size="8.00">slf4j&#45;log4j12</text>
<text text-anchor="middle" x="641" y="-342.8" font-family="SanSerif" font-size="8.00">1.4.2</text>
</g>
<!-- com.bee32.plover:plover&#45;arch:0.0.4&#45;SNAPSHOT&#45;&gt;org.slf4j:slf4j&#45;log4j12:1.4.2 -->
<g id="edge66" class="edge"><title>com.bee32.plover:plover&#45;arch:0.0.4&#45;SNAPSHOT&#45;&gt;org.slf4j:slf4j&#45;log4j12:1.4.2</title>
<path fill="none" stroke="black" d="M470.166,-455.986C505.253,-435.245 561.513,-401.988 599.806,-379.351"/>
<polygon fill="black" stroke="black" points="601.822,-382.225 608.649,-374.124 598.26,-376.2 601.822,-382.225"/>
</g>
<!-- javax.free:freejava&#45;traits:3.0.0&#45;&gt;javax.free:freejava&#45;lang:3.0.0 -->
<g id="edge42" class="edge"><title>javax.free:freejava&#45;traits:3.0.0&#45;&gt;javax.free:freejava&#45;lang:3.0.0</title>
<path fill="none" stroke="black" d="M460.308,-335.747C438.454,-317.203 405.256,-289.036 381.181,-268.608"/>
<polygon fill="black" stroke="black" points="383.285,-265.803 373.396,-262.002 378.756,-271.141 383.285,-265.803"/>
</g>
<!-- javax.free:freejava&#45;traits:3.0.0&#45;&gt;javax.free:freejava&#45;jdk6compat:3.0.0 -->
<g id="edge44" class="edge"><title>javax.free:freejava&#45;traits:3.0.0&#45;&gt;javax.free:freejava&#45;jdk6compat:3.0.0</title>
<path fill="none" stroke="black" d="M486.722,-335.603C490.851,-308.938 494.795,-260.156 477,-224 462.788,-195.124 435.066,-171.777 411.009,-155.699"/>
<polygon fill="black" stroke="black" points="412.643,-152.588 402.343,-150.107 408.848,-158.47 412.643,-152.588"/>
</g>
<!-- javax.free:freejava&#45;traits:3.0.0&#45;&gt;javax.free:freejava&#45;meta:3.0.0 -->
<g id="edge40" class="edge"><title>javax.free:freejava&#45;traits:3.0.0&#45;&gt;javax.free:freejava&#45;meta:3.0.0</title>
<path fill="none" stroke="black" d="M486.503,-335.93C491.641,-304.293 499.348,-239.173 487,-186 484.867,-176.816 480.974,-167.397 476.796,-159.009"/>
<polygon fill="black" stroke="black" points="479.816,-157.233 472.036,-150.042 473.633,-160.516 479.816,-157.233"/>
</g>
<!-- javax.free:freejava&#45;string:3.0.0&#45;&gt;javax.free:freejava&#45;c1:3.0.0 -->
<g id="edge56" class="edge"><title>javax.free:freejava&#45;string:3.0.0&#45;&gt;javax.free:freejava&#45;c1:3.0.0</title>
<path fill="none" stroke="black" d="M550.08,-335.78C537.78,-317.697 520.513,-289.38 512,-262 492.12,-198.063 528.434,-171.64 498,-112 483.382,-83.3534 455.854,-59.6176 432.515,-43.2961"/>
<polygon fill="black" stroke="black" points="434.38,-40.3322 424.137,-37.623 430.455,-46.1283 434.38,-40.3322"/>
</g>
<!-- commons&#45;lang:commons&#45;lang:2.6 -->
<g id="node23" class="node"><title>commons&#45;lang:commons&#45;lang:2.6</title>
<polygon fill="white" stroke="black" points="592,-262 512,-262 512,-224 592,-224 592,-262"/>
<text text-anchor="middle" x="552" y="-250.8" font-family="SanSerif" font-size="8.00">commons&#45;lang</text>
<text text-anchor="middle" x="552" y="-240.8" font-family="SanSerif" font-size="8.00">commons&#45;lang</text>
<text text-anchor="middle" x="552" y="-230.8" font-family="SanSerif" font-size="8.00">2.6</text>
</g>
<!-- javax.free:freejava&#45;string:3.0.0&#45;&gt;commons&#45;lang:commons&#45;lang:2.6 -->
<g id="edge48" class="edge"><title>javax.free:freejava&#45;string:3.0.0&#45;&gt;commons&#45;lang:commons&#45;lang:2.6</title>
<path fill="none" stroke="black" d="M561.937,-335.747C560.063,-318.251 557.27,-292.189 555.122,-272.143"/>
<polygon fill="black" stroke="black" points="558.581,-271.572 554.036,-262.002 551.621,-272.318 558.581,-271.572"/>
</g>
<!-- javax.free:freejava&#45;sio:3.0.0 -->
<g id="node24" class="node"><title>javax.free:freejava&#45;sio:3.0.0</title>
<polygon fill="white" stroke="black" points="662,-262 596,-262 596,-224 662,-224 662,-262"/>
<text text-anchor="middle" x="629" y="-250.8" font-family="SanSerif" font-size="8.00">javax.free</text>
<text text-anchor="middle" x="629" y="-240.8" font-family="SanSerif" font-size="8.00">freejava&#45;sio</text>
<text text-anchor="middle" x="629" y="-230.8" font-family="SanSerif" font-size="8.00">3.0.0</text>
</g>
<!-- javax.free:freejava&#45;string:3.0.0&#45;&gt;javax.free:freejava&#45;sio:3.0.0 -->
<g id="edge54" class="edge"><title>javax.free:freejava&#45;string:3.0.0&#45;&gt;javax.free:freejava&#45;sio:3.0.0</title>
<path fill="none" stroke="black" d="M575.174,-335.747C585.561,-317.848 601.152,-290.983 612.885,-270.767"/>
<polygon fill="black" stroke="black" points="615.98,-272.408 617.972,-262.002 609.925,-268.894 615.98,-272.408"/>
</g>
<!-- javax.free:freejava&#45;bits:3.0.0 -->
<g id="node25" class="node"><title>javax.free:freejava&#45;bits:3.0.0</title>
<polygon fill="white" stroke="black" points="623,-150 553,-150 553,-112 623,-112 623,-150"/>
<text text-anchor="middle" x="588" y="-138.8" font-family="SanSerif" font-size="8.00">javax.free</text>
<text text-anchor="middle" x="588" y="-128.8" font-family="SanSerif" font-size="8.00">freejava&#45;bits</text>
<text text-anchor="middle" x="588" y="-118.8" font-family="SanSerif" font-size="8.00">3.0.0</text>
</g>
<!-- javax.free:freejava&#45;sio:3.0.0&#45;&gt;javax.free:freejava&#45;bits:3.0.0 -->
<g id="edge50" class="edge"><title>javax.free:freejava&#45;sio:3.0.0&#45;&gt;javax.free:freejava&#45;bits:3.0.0</title>
<path fill="none" stroke="black" d="M621.952,-223.747C615.488,-206.09 605.831,-179.708 598.466,-159.59"/>
<polygon fill="black" stroke="black" points="601.681,-158.19 594.956,-150.002 595.107,-160.596 601.681,-158.19"/>
</g>
<!-- javax.free:freejava&#45;proxy&#45;api:3.0.0 -->
<g id="node26" class="node"><title>javax.free:freejava&#45;proxy&#45;api:3.0.0</title>
<polygon fill="white" stroke="black" points="719,-150 627,-150 627,-112 719,-112 719,-150"/>
<text text-anchor="middle" x="673" y="-138.8" font-family="SanSerif" font-size="8.00">javax.free</text>
<text text-anchor="middle" x="673" y="-128.8" font-family="SanSerif" font-size="8.00">freejava&#45;proxy&#45;api</text>
<text text-anchor="middle" x="673" y="-118.8" font-family="SanSerif" font-size="8.00">3.0.0</text>
</g>
<!-- javax.free:freejava&#45;sio:3.0.0&#45;&gt;javax.free:freejava&#45;proxy&#45;api:3.0.0 -->
<g id="edge52" class="edge"><title>javax.free:freejava&#45;sio:3.0.0&#45;&gt;javax.free:freejava&#45;proxy&#45;api:3.0.0</title>
<path fill="none" stroke="black" d="M636.564,-223.747C643.532,-206.009 653.959,-179.467 661.876,-159.315"/>
<polygon fill="black" stroke="black" points="665.136,-160.59 665.535,-150.002 658.621,-158.03 665.136,-160.59"/>
</g>
<!-- org.slf4j:slf4j&#45;api:1.4.2 -->
<g id="node28" class="node"><title>org.slf4j:slf4j&#45;api:1.4.2</title>
<polygon fill="white" stroke="black" points="720,-262 666,-262 666,-224 720,-224 720,-262"/>
<text text-anchor="middle" x="693" y="-250.8" font-family="SanSerif" font-size="8.00">org.slf4j</text>
<text text-anchor="middle" x="693" y="-240.8" font-family="SanSerif" font-size="8.00">slf4j&#45;api</text>
<text text-anchor="middle" x="693" y="-230.8" font-family="SanSerif" font-size="8.00">1.4.2</text>
</g>
<!-- org.slf4j:slf4j&#45;log4j12:1.4.2&#45;&gt;org.slf4j:slf4j&#45;api:1.4.2 -->
<g id="edge62" class="edge"><title>org.slf4j:slf4j&#45;log4j12:1.4.2&#45;&gt;org.slf4j:slf4j&#45;api:1.4.2</title>
<path fill="none" stroke="black" d="M649.939,-335.747C658.174,-318.009 670.498,-291.467 679.854,-271.315"/>
<polygon fill="black" stroke="black" points="683.141,-272.546 684.178,-262.002 676.792,-269.598 683.141,-272.546"/>
</g>
<!-- log4j:log4j:1.2.13 -->
<g id="node29" class="node"><title>log4j:log4j:1.2.13</title>
<polygon fill="white" stroke="black" points="778,-262 724,-262 724,-224 778,-224 778,-262"/>
<text text-anchor="middle" x="751" y="-250.8" font-family="SanSerif" font-size="8.00">log4j</text>
<text text-anchor="middle" x="751" y="-240.8" font-family="SanSerif" font-size="8.00">log4j</text>
<text text-anchor="middle" x="751" y="-230.8" font-family="SanSerif" font-size="8.00">1.2.13</text>
</g>
<!-- org.slf4j:slf4j&#45;log4j12:1.4.2&#45;&gt;log4j:log4j:1.2.13 -->
<g id="edge64" class="edge"><title>org.slf4j:slf4j&#45;log4j12:1.4.2&#45;&gt;log4j:log4j:1.2.13</title>
<path fill="none" stroke="black" d="M659.91,-335.747C677.963,-317.364 705.306,-289.525 725.324,-269.143"/>
<polygon fill="black" stroke="black" points="727.827,-271.589 732.337,-262.002 722.833,-266.684 727.827,-271.589"/>
</g>
</g>
</svg>
