<?xml version="1.0" encoding="UTF-8" standalone="no"?>
<!DOCTYPE svg PUBLIC "-//W3C//DTD SVG 1.1//EN"
 "http://www.w3.org/Graphics/SVG/1.1/DTD/svg11.dtd">
<!-- Generated by graphviz version 2.26.3 (20100126.1600)
 -->
<!-- Title: dependencies Pages: 1 -->
<svg width="582pt" height="928pt"
 viewBox="0.00 0.00 582.00 928.00" xmlns="http://www.w3.org/2000/svg" xmlns:xlink="http://www.w3.org/1999/xlink">
<g id="graph1" class="graph" transform="scale(1 1) rotate(0) translate(4 924)">
<title>dependencies</title>
<polygon fill="white" stroke="white" points="-4,5 -4,-924 579,-924 579,5 -4,5"/>
<text text-anchor="middle" x="235" y="-899.8" font-family="Serif" font-size="18.00">Dependency Graph for Plover :: Lifecycle :: Cache</text>
<!-- com.bee32.plover:plover&#45;cache:0.0.1&#45;SNAPSHOT -->
<g id="node1" class="node"><title>com.bee32.plover:plover&#45;cache:0.0.1&#45;SNAPSHOT</title>
<polygon fill="#dddddd" stroke="black" points="413,-890 275,-890 275,-828 413,-828 413,-890"/>
<text text-anchor="middle" x="344" y="-873.4" font-family="SanSerif" font-size="14.00">com.bee32.plover</text>
<text text-anchor="middle" x="344" y="-855.4" font-family="SanSerif" font-size="14.00">plover&#45;cache</text>
<text text-anchor="middle" x="344" y="-837.4" font-family="SanSerif" font-size="14.00">0.0.1&#45;SNAPSHOT</text>
</g>
<!-- net.sf.ehcache:ehcache&#45;core:2.2.0 -->
<g id="node2" class="node"><title>net.sf.ehcache:ehcache&#45;core:2.2.0</title>
<polygon fill="white" stroke="black" points="308,-746 230,-746 230,-708 308,-708 308,-746"/>
<text text-anchor="middle" x="269" y="-734.8" font-family="SanSerif" font-size="8.00">net.sf.ehcache</text>
<text text-anchor="middle" x="269" y="-724.8" font-family="SanSerif" font-size="8.00">ehcache&#45;core</text>
<text text-anchor="middle" x="269" y="-714.8" font-family="SanSerif" font-size="8.00">2.2.0</text>
</g>
<!-- com.bee32.plover:plover&#45;cache:0.0.1&#45;SNAPSHOT&#45;&gt;net.sf.ehcache:ehcache&#45;core:2.2.0 -->
<g id="edge4" class="edge"><title>com.bee32.plover:plover&#45;cache:0.0.1&#45;SNAPSHOT&#45;&gt;net.sf.ehcache:ehcache&#45;core:2.2.0</title>
<path fill="none" stroke="black" d="M326.226,-827.718C313.699,-805.669 297.065,-776.394 284.961,-755.092"/>
<polygon fill="black" stroke="black" points="287.896,-753.173 279.913,-746.207 281.81,-756.631 287.896,-753.173"/>
</g>
<!-- javax.free:freejava&#45;c2:3.0.0 -->
<g id="node4" class="node"><title>javax.free:freejava&#45;c2:3.0.0</title>
<polygon fill="white" stroke="black" points="376,-746 312,-746 312,-708 376,-708 376,-746"/>
<text text-anchor="middle" x="344" y="-734.8" font-family="SanSerif" font-size="8.00">javax.free</text>
<text text-anchor="middle" x="344" y="-724.8" font-family="SanSerif" font-size="8.00">freejava&#45;c2</text>
<text text-anchor="middle" x="344" y="-714.8" font-family="SanSerif" font-size="8.00">3.0.0</text>
</g>
<!-- com.bee32.plover:plover&#45;cache:0.0.1&#45;SNAPSHOT&#45;&gt;javax.free:freejava&#45;c2:3.0.0 -->
<g id="edge56" class="edge"><title>com.bee32.plover:plover&#45;cache:0.0.1&#45;SNAPSHOT&#45;&gt;javax.free:freejava&#45;c2:3.0.0</title>
<path fill="none" stroke="black" d="M344,-827.718C344,-806.065 344,-777.442 344,-756.246"/>
<polygon fill="black" stroke="black" points="347.5,-756.207 344,-746.207 340.5,-756.207 347.5,-756.207"/>
</g>
<!-- junit:junit:4.8.2 -->
<g id="node21" class="node"><title>junit:junit:4.8.2</title>
<polygon fill="white" stroke="cornflowerblue" points="434,-746 380,-746 380,-708 434,-708 434,-746"/>
<text text-anchor="middle" x="407" y="-734.8" font-family="SanSerif" font-size="8.00" fill="cornflowerblue">junit</text>
<text text-anchor="middle" x="407" y="-724.8" font-family="SanSerif" font-size="8.00" fill="cornflowerblue">junit</text>
<text text-anchor="middle" x="407" y="-714.8" font-family="SanSerif" font-size="8.00" fill="cornflowerblue">4.8.2</text>
</g>
<!-- com.bee32.plover:plover&#45;cache:0.0.1&#45;SNAPSHOT&#45;&gt;junit:junit:4.8.2 -->
<g id="edge58" class="edge"><title>com.bee32.plover:plover&#45;cache:0.0.1&#45;SNAPSHOT&#45;&gt;junit:junit:4.8.2</title>
<path fill="none" stroke="cornflowerblue" d="M358.93,-827.718C369.406,-805.768 383.3,-776.657 393.456,-755.379"/>
<polygon fill="cornflowerblue" stroke="cornflowerblue" points="396.684,-756.74 397.833,-746.207 390.367,-753.724 396.684,-756.74"/>
<text text-anchor="middle" x="388.5" y="-784.8" font-family="SanSerif" font-size="8.00" fill="cornflowerblue">test</text>
</g>
<!-- org.slf4j:slf4j&#45;api:1.5.11 -->
<g id="node3" class="node"><title>org.slf4j:slf4j&#45;api:1.5.11</title>
<polygon fill="white" stroke="black" points="54,-634 1.42109e-14,-634 3.55271e-15,-596 54,-596 54,-634"/>
<text text-anchor="middle" x="27" y="-622.8" font-family="SanSerif" font-size="8.00">org.slf4j</text>
<text text-anchor="middle" x="27" y="-612.8" font-family="SanSerif" font-size="8.00">slf4j&#45;api</text>
<text text-anchor="middle" x="27" y="-602.8" font-family="SanSerif" font-size="8.00">1.5.11</text>
</g>
<!-- net.sf.ehcache:ehcache&#45;core:2.2.0&#45;&gt;org.slf4j:slf4j&#45;api:1.5.11 -->
<g id="edge2" class="edge"><title>net.sf.ehcache:ehcache&#45;core:2.2.0&#45;&gt;org.slf4j:slf4j&#45;api:1.5.11</title>
<path fill="none" stroke="black" d="M229.789,-720.725C176.175,-711.501 83.5985,-693.076 57,-672 47.834,-664.737 41.1504,-653.896 36.4506,-643.612"/>
<polygon fill="black" stroke="black" points="39.5663,-641.985 32.5363,-634.058 33.0889,-644.639 39.5663,-641.985"/>
</g>
<!-- javax.free:freejava&#45;meta:3.0.0 -->
<g id="node5" class="node"><title>javax.free:freejava&#45;meta:3.0.0</title>
<polygon fill="white" stroke="black" points="416,-150 340,-150 340,-112 416,-112 416,-150"/>
<text text-anchor="middle" x="378" y="-138.8" font-family="SanSerif" font-size="8.00">javax.free</text>
<text text-anchor="middle" x="378" y="-128.8" font-family="SanSerif" font-size="8.00">freejava&#45;meta</text>
<text text-anchor="middle" x="378" y="-118.8" font-family="SanSerif" font-size="8.00">3.0.0</text>
</g>
<!-- javax.free:freejava&#45;c2:3.0.0&#45;&gt;javax.free:freejava&#45;meta:3.0.0 -->
<g id="edge10" class="edge"><title>javax.free:freejava&#45;c2:3.0.0&#45;&gt;javax.free:freejava&#45;meta:3.0.0</title>
<path fill="none" stroke="black" d="M376.156,-709.95C377.453,-709.288 378.737,-708.635 380,-708 465.408,-665.01 574,-710.618 574,-615 574,-615 574,-615 574,-243 574,-175.157 484.38,-147.853 426.342,-137.284"/>
<polygon fill="black" stroke="black" points="426.703,-133.795 416.256,-135.557 425.521,-140.695 426.703,-133.795"/>
</g>
<!-- javax.free:freejava&#45;collection:3.0.0 -->
<g id="node8" class="node"><title>javax.free:freejava&#45;collection:3.0.0</title>
<polygon fill="white" stroke="black" points="445,-410 351,-410 351,-372 445,-372 445,-410"/>
<text text-anchor="middle" x="398" y="-398.8" font-family="SanSerif" font-size="8.00">javax.free</text>
<text text-anchor="middle" x="398" y="-388.8" font-family="SanSerif" font-size="8.00">freejava&#45;collection</text>
<text text-anchor="middle" x="398" y="-378.8" font-family="SanSerif" font-size="8.00">3.0.0</text>
</g>
<!-- javax.free:freejava&#45;c2:3.0.0&#45;&gt;javax.free:freejava&#45;collection:3.0.0 -->
<g id="edge24" class="edge"><title>javax.free:freejava&#45;c2:3.0.0&#45;&gt;javax.free:freejava&#45;collection:3.0.0</title>
<path fill="none" stroke="black" d="M355.549,-707.856C365.897,-689.597 380.426,-660.96 387,-634 405.338,-558.793 403.054,-466.7 400.279,-420.462"/>
<polygon fill="black" stroke="black" points="403.757,-420.009 399.612,-410.258 396.772,-420.465 403.757,-420.009"/>
</g>
<!-- javax.free:freejava&#45;jdk6compat:3.0.0 -->
<g id="node11" class="node"><title>javax.free:freejava&#45;jdk6compat:3.0.0</title>
<polygon fill="white" stroke="black" points="292,-150 190,-150 190,-112 292,-112 292,-150"/>
<text text-anchor="middle" x="241" y="-138.8" font-family="SanSerif" font-size="8.00">javax.free</text>
<text text-anchor="middle" x="241" y="-128.8" font-family="SanSerif" font-size="8.00">freejava&#45;jdk6compat</text>
<text text-anchor="middle" x="241" y="-118.8" font-family="SanSerif" font-size="8.00">3.0.0</text>
</g>
<!-- javax.free:freejava&#45;c2:3.0.0&#45;&gt;javax.free:freejava&#45;jdk6compat:3.0.0 -->
<g id="edge30" class="edge"><title>javax.free:freejava&#45;c2:3.0.0&#45;&gt;javax.free:freejava&#45;jdk6compat:3.0.0</title>
<path fill="none" stroke="black" d="M311.929,-709.769C310.609,-709.156 309.296,-708.564 308,-708 200.455,-661.164 61,-732.301 61,-615 61,-615 61,-615 61,-243 61,-185.602 127.797,-156.572 180.009,-142.648"/>
<polygon fill="black" stroke="black" points="181.067,-145.991 189.901,-140.141 179.347,-139.206 181.067,-145.991"/>
</g>
<!-- javax.free:freejava&#45;proxy&#45;java&#45;util:3.0.0 -->
<g id="node13" class="node"><title>javax.free:freejava&#45;proxy&#45;java&#45;util:3.0.0</title>
<polygon fill="white" stroke="black" points="210,-634 98,-634 98,-596 210,-596 210,-634"/>
<text text-anchor="middle" x="154" y="-622.8" font-family="SanSerif" font-size="8.00">javax.free</text>
<text text-anchor="middle" x="154" y="-612.8" font-family="SanSerif" font-size="8.00">freejava&#45;proxy&#45;java&#45;util</text>
<text text-anchor="middle" x="154" y="-602.8" font-family="SanSerif" font-size="8.00">3.0.0</text>
</g>
<!-- javax.free:freejava&#45;c2:3.0.0&#45;&gt;javax.free:freejava&#45;proxy&#45;java&#45;util:3.0.0 -->
<g id="edge28" class="edge"><title>javax.free:freejava&#45;c2:3.0.0&#45;&gt;javax.free:freejava&#45;proxy&#45;java&#45;util:3.0.0</title>
<path fill="none" stroke="black" d="M311.909,-709.812C310.595,-709.188 309.288,-708.581 308,-708 266.845,-689.427 251.13,-696.183 213,-672 199.934,-663.714 187.333,-652.196 177.155,-641.681"/>
<polygon fill="black" stroke="black" points="179.593,-639.164 170.2,-634.263 174.486,-643.952 179.593,-639.164"/>
</g>
<!-- javax.free:freejava&#45;sio:3.0.0 -->
<g id="node15" class="node"><title>javax.free:freejava&#45;sio:3.0.0</title>
<polygon fill="white" stroke="black" points="232,-410 166,-410 166,-372 232,-372 232,-410"/>
<text text-anchor="middle" x="199" y="-398.8" font-family="SanSerif" font-size="8.00">javax.free</text>
<text text-anchor="middle" x="199" y="-388.8" font-family="SanSerif" font-size="8.00">freejava&#45;sio</text>
<text text-anchor="middle" x="199" y="-378.8" font-family="SanSerif" font-size="8.00">3.0.0</text>
</g>
<!-- javax.free:freejava&#45;c2:3.0.0&#45;&gt;javax.free:freejava&#45;sio:3.0.0 -->
<g id="edge36" class="edge"><title>javax.free:freejava&#45;c2:3.0.0&#45;&gt;javax.free:freejava&#45;sio:3.0.0</title>
<path fill="none" stroke="black" d="M334.905,-707.854C326.06,-689.115 312.338,-659.717 301,-634 267.023,-556.936 229.171,-465.058 210.583,-419.515"/>
<polygon fill="black" stroke="black" points="213.722,-417.943 206.707,-410.003 207.24,-420.585 213.722,-417.943"/>
</g>
<!-- javax.free:freejava&#45;variant:3.0.0 -->
<g id="node17" class="node"><title>javax.free:freejava&#45;variant:3.0.0</title>
<polygon fill="white" stroke="black" points="385,-634 303,-634 303,-596 385,-596 385,-634"/>
<text text-anchor="middle" x="344" y="-622.8" font-family="SanSerif" font-size="8.00">javax.free</text>
<text text-anchor="middle" x="344" y="-612.8" font-family="SanSerif" font-size="8.00">freejava&#45;variant</text>
<text text-anchor="middle" x="344" y="-602.8" font-family="SanSerif" font-size="8.00">3.0.0</text>
</g>
<!-- javax.free:freejava&#45;c2:3.0.0&#45;&gt;javax.free:freejava&#45;variant:3.0.0 -->
<g id="edge54" class="edge"><title>javax.free:freejava&#45;c2:3.0.0&#45;&gt;javax.free:freejava&#45;variant:3.0.0</title>
<path fill="none" stroke="black" d="M344,-707.747C344,-690.251 344,-664.189 344,-644.143"/>
<polygon fill="black" stroke="black" points="347.5,-644.002 344,-634.002 340.5,-644.002 347.5,-644.002"/>
</g>
<!-- javax.free:freejava&#45;annotation:3.0.0 -->
<g id="node6" class="node"><title>javax.free:freejava&#45;annotation:3.0.0</title>
<polygon fill="white" stroke="black" points="427,-38 329,-38 329,-7.10543e-15 427,-3.55271e-15 427,-38"/>
<text text-anchor="middle" x="378" y="-26.8" font-family="SanSerif" font-size="8.00">javax.free</text>
<text text-anchor="middle" x="378" y="-16.8" font-family="SanSerif" font-size="8.00">freejava&#45;annotation</text>
<text text-anchor="middle" x="378" y="-6.8" font-family="SanSerif" font-size="8.00">3.0.0</text>
</g>
<!-- javax.free:freejava&#45;meta:3.0.0&#45;&gt;javax.free:freejava&#45;annotation:3.0.0 -->
<g id="edge6" class="edge"><title>javax.free:freejava&#45;meta:3.0.0&#45;&gt;javax.free:freejava&#45;annotation:3.0.0</title>
<path fill="none" stroke="black" d="M378,-111.747C378,-94.2513 378,-68.1891 378,-48.1429"/>
<polygon fill="black" stroke="black" points="381.5,-48.0022 378,-38.0022 374.5,-48.0023 381.5,-48.0022"/>
</g>
<!-- javax.free:freejava&#45;c1:3.0.0 -->
<g id="node7" class="node"><title>javax.free:freejava&#45;c1:3.0.0</title>
<polygon fill="white" stroke="black" points="545,-38 481,-38 481,-7.10543e-15 545,-3.55271e-15 545,-38"/>
<text text-anchor="middle" x="513" y="-26.8" font-family="SanSerif" font-size="8.00">javax.free</text>
<text text-anchor="middle" x="513" y="-16.8" font-family="SanSerif" font-size="8.00">freejava&#45;c1</text>
<text text-anchor="middle" x="513" y="-6.8" font-family="SanSerif" font-size="8.00">3.0.0</text>
</g>
<!-- javax.free:freejava&#45;meta:3.0.0&#45;&gt;javax.free:freejava&#45;c1:3.0.0 -->
<g id="edge8" class="edge"><title>javax.free:freejava&#45;meta:3.0.0&#45;&gt;javax.free:freejava&#45;c1:3.0.0</title>
<path fill="none" stroke="black" d="M401.207,-111.747C423.559,-93.2032 457.511,-65.0356 482.133,-44.6081"/>
<polygon fill="black" stroke="black" points="484.634,-47.081 490.096,-38.0022 480.165,-41.6936 484.634,-47.081"/>
</g>
<!-- javax.free:freejava&#45;collection:3.0.0&#45;&gt;javax.free:freejava&#45;c1:3.0.0 -->
<g id="edge14" class="edge"><title>javax.free:freejava&#45;collection:3.0.0&#45;&gt;javax.free:freejava&#45;c1:3.0.0</title>
<path fill="none" stroke="black" d="M437.989,-371.845C476.545,-350.9 532.539,-313.346 557,-262 591.416,-189.759 552.261,-93.691 528.518,-46.9379"/>
<polygon fill="black" stroke="black" points="531.586,-45.2506 523.859,-38.001 525.378,-48.4864 531.586,-45.2506"/>
</g>
<!-- net.sourceforge.collections:collections&#45;generic:4.01 -->
<g id="node9" class="node"><title>net.sourceforge.collections:collections&#45;generic:4.01</title>
<polygon fill="white" stroke="black" points="557,-262 425,-262 425,-224 557,-224 557,-262"/>
<text text-anchor="middle" x="491" y="-250.8" font-family="SanSerif" font-size="8.00">net.sourceforge.collections</text>
<text text-anchor="middle" x="491" y="-240.8" font-family="SanSerif" font-size="8.00">collections&#45;generic</text>
<text text-anchor="middle" x="491" y="-230.8" font-family="SanSerif" font-size="8.00">4.01</text>
</g>
<!-- javax.free:freejava&#45;collection:3.0.0&#45;&gt;net.sourceforge.collections:collections&#45;generic:4.01 -->
<g id="edge12" class="edge"><title>javax.free:freejava&#45;collection:3.0.0&#45;&gt;net.sourceforge.collections:collections&#45;generic:4.01</title>
<path fill="none" stroke="black" d="M409.968,-371.955C426.062,-346.342 454.8,-300.609 473.371,-271.055"/>
<polygon fill="black" stroke="black" points="476.426,-272.772 478.783,-262.442 470.499,-269.047 476.426,-272.772"/>
</g>
<!-- javax.free:freejava&#45;lang:3.0.0 -->
<g id="node10" class="node"><title>javax.free:freejava&#45;lang:3.0.0</title>
<polygon fill="white" stroke="black" points="331,-262 259,-262 259,-224 331,-224 331,-262"/>
<text text-anchor="middle" x="295" y="-250.8" font-family="SanSerif" font-size="8.00">javax.free</text>
<text text-anchor="middle" x="295" y="-240.8" font-family="SanSerif" font-size="8.00">freejava&#45;lang</text>
<text text-anchor="middle" x="295" y="-230.8" font-family="SanSerif" font-size="8.00">3.0.0</text>
</g>
<!-- javax.free:freejava&#45;collection:3.0.0&#45;&gt;javax.free:freejava&#45;lang:3.0.0 -->
<g id="edge18" class="edge"><title>javax.free:freejava&#45;collection:3.0.0&#45;&gt;javax.free:freejava&#45;lang:3.0.0</title>
<path fill="none" stroke="black" d="M386.312,-371.785C374.565,-352.742 355.708,-322.896 338,-298 331.398,-288.719 323.85,-278.841 316.938,-270.054"/>
<polygon fill="black" stroke="black" points="319.519,-267.675 310.559,-262.02 314.036,-272.028 319.519,-267.675"/>
</g>
<!-- javax.free:freejava&#45;closure:3.0.0 -->
<g id="node12" class="node"><title>javax.free:freejava&#45;closure:3.0.0</title>
<polygon fill="white" stroke="black" points="421,-262 335,-262 335,-224 421,-224 421,-262"/>
<text text-anchor="middle" x="378" y="-250.8" font-family="SanSerif" font-size="8.00">javax.free</text>
<text text-anchor="middle" x="378" y="-240.8" font-family="SanSerif" font-size="8.00">freejava&#45;closure</text>
<text text-anchor="middle" x="378" y="-230.8" font-family="SanSerif" font-size="8.00">3.0.0</text>
</g>
<!-- javax.free:freejava&#45;collection:3.0.0&#45;&gt;javax.free:freejava&#45;closure:3.0.0 -->
<g id="edge22" class="edge"><title>javax.free:freejava&#45;collection:3.0.0&#45;&gt;javax.free:freejava&#45;closure:3.0.0</title>
<path fill="none" stroke="black" d="M395.426,-371.955C392.025,-346.784 385.997,-302.18 382,-272.598"/>
<polygon fill="black" stroke="black" points="385.435,-271.883 380.627,-262.442 378.498,-272.821 385.435,-271.883"/>
</g>
<!-- javax.free:freejava&#45;lang:3.0.0&#45;&gt;javax.free:freejava&#45;jdk6compat:3.0.0 -->
<g id="edge16" class="edge"><title>javax.free:freejava&#45;lang:3.0.0&#45;&gt;javax.free:freejava&#45;jdk6compat:3.0.0</title>
<path fill="none" stroke="black" d="M285.717,-223.747C277.126,-205.929 264.251,-179.225 254.52,-159.041"/>
<polygon fill="black" stroke="black" points="257.658,-157.49 250.162,-150.002 251.352,-160.53 257.658,-157.49"/>
</g>
<!-- javax.free:freejava&#45;closure:3.0.0&#45;&gt;javax.free:freejava&#45;meta:3.0.0 -->
<g id="edge20" class="edge"><title>javax.free:freejava&#45;closure:3.0.0&#45;&gt;javax.free:freejava&#45;meta:3.0.0</title>
<path fill="none" stroke="black" d="M378,-223.747C378,-206.251 378,-180.189 378,-160.143"/>
<polygon fill="black" stroke="black" points="381.5,-160.002 378,-150.002 374.5,-160.002 381.5,-160.002"/>
</g>
<!-- javax.free:freejava&#45;proxy&#45;api:3.0.0 -->
<g id="node14" class="node"><title>javax.free:freejava&#45;proxy&#45;api:3.0.0</title>
<polygon fill="white" stroke="black" points="160,-262 68,-262 68,-224 160,-224 160,-262"/>
<text text-anchor="middle" x="114" y="-250.8" font-family="SanSerif" font-size="8.00">javax.free</text>
<text text-anchor="middle" x="114" y="-240.8" font-family="SanSerif" font-size="8.00">freejava&#45;proxy&#45;api</text>
<text text-anchor="middle" x="114" y="-230.8" font-family="SanSerif" font-size="8.00">3.0.0</text>
</g>
<!-- javax.free:freejava&#45;proxy&#45;java&#45;util:3.0.0&#45;&gt;javax.free:freejava&#45;proxy&#45;api:3.0.0 -->
<g id="edge26" class="edge"><title>javax.free:freejava&#45;proxy&#45;java&#45;util:3.0.0&#45;&gt;javax.free:freejava&#45;proxy&#45;api:3.0.0</title>
<path fill="none" stroke="black" d="M151.934,-595.783C145.39,-534.932 125.094,-346.176 117.193,-272.697"/>
<polygon fill="black" stroke="black" points="120.627,-271.894 116.078,-262.325 113.667,-272.642 120.627,-271.894"/>
</g>
<!-- javax.free:freejava&#45;sio:3.0.0&#45;&gt;javax.free:freejava&#45;proxy&#45;api:3.0.0 -->
<g id="edge34" class="edge"><title>javax.free:freejava&#45;sio:3.0.0&#45;&gt;javax.free:freejava&#45;proxy&#45;api:3.0.0</title>
<path fill="none" stroke="black" d="M188.062,-371.955C173.415,-346.453 147.312,-301.003 130.332,-271.438"/>
<polygon fill="black" stroke="black" points="133.182,-269.371 125.166,-262.442 127.111,-272.857 133.182,-269.371"/>
</g>
<!-- javax.free:freejava&#45;bits:3.0.0 -->
<g id="node16" class="node"><title>javax.free:freejava&#45;bits:3.0.0</title>
<polygon fill="white" stroke="black" points="234,-262 164,-262 164,-224 234,-224 234,-262"/>
<text text-anchor="middle" x="199" y="-250.8" font-family="SanSerif" font-size="8.00">javax.free</text>
<text text-anchor="middle" x="199" y="-240.8" font-family="SanSerif" font-size="8.00">freejava&#45;bits</text>
<text text-anchor="middle" x="199" y="-230.8" font-family="SanSerif" font-size="8.00">3.0.0</text>
</g>
<!-- javax.free:freejava&#45;sio:3.0.0&#45;&gt;javax.free:freejava&#45;bits:3.0.0 -->
<g id="edge32" class="edge"><title>javax.free:freejava&#45;sio:3.0.0&#45;&gt;javax.free:freejava&#45;bits:3.0.0</title>
<path fill="none" stroke="black" d="M199,-371.955C199,-346.784 199,-302.18 199,-272.598"/>
<polygon fill="black" stroke="black" points="202.5,-272.442 199,-262.442 195.5,-272.442 202.5,-272.442"/>
</g>
<!-- javax.free:freejava&#45;valtype:3.0.0 -->
<g id="node18" class="node"><title>javax.free:freejava&#45;valtype:3.0.0</title>
<polygon fill="white" stroke="black" points="386,-522 302,-522 302,-484 386,-484 386,-522"/>
<text text-anchor="middle" x="344" y="-510.8" font-family="SanSerif" font-size="8.00">javax.free</text>
<text text-anchor="middle" x="344" y="-500.8" font-family="SanSerif" font-size="8.00">freejava&#45;valtype</text>
<text text-anchor="middle" x="344" y="-490.8" font-family="SanSerif" font-size="8.00">3.0.0</text>
</g>
<!-- javax.free:freejava&#45;variant:3.0.0&#45;&gt;javax.free:freejava&#45;valtype:3.0.0 -->
<g id="edge52" class="edge"><title>javax.free:freejava&#45;variant:3.0.0&#45;&gt;javax.free:freejava&#45;valtype:3.0.0</title>
<path fill="none" stroke="black" d="M344,-595.747C344,-578.251 344,-552.189 344,-532.143"/>
<polygon fill="black" stroke="black" points="347.5,-532.002 344,-522.002 340.5,-532.002 347.5,-532.002"/>
</g>
<!-- javax.free:freejava&#45;valtype:3.0.0&#45;&gt;javax.free:freejava&#45;collection:3.0.0 -->
<g id="edge50" class="edge"><title>javax.free:freejava&#45;valtype:3.0.0&#45;&gt;javax.free:freejava&#45;collection:3.0.0</title>
<path fill="none" stroke="black" d="M353.283,-483.747C361.874,-465.929 374.749,-439.225 384.48,-419.041"/>
<polygon fill="black" stroke="black" points="387.648,-420.53 388.838,-410.002 381.342,-417.49 387.648,-420.53"/>
</g>
<!-- javax.free:freejava&#45;valtype:3.0.0&#45;&gt;javax.free:freejava&#45;jdk6compat:3.0.0 -->
<g id="edge40" class="edge"><title>javax.free:freejava&#45;valtype:3.0.0&#45;&gt;javax.free:freejava&#45;jdk6compat:3.0.0</title>
<path fill="none" stroke="black" d="M314.643,-483.741C292.474,-467.225 263.907,-441.19 252,-410 234.876,-365.142 237.667,-222.633 239.806,-160.471"/>
<polygon fill="black" stroke="black" points="243.314,-160.302 240.18,-150.181 236.319,-160.048 243.314,-160.302"/>
</g>
<!-- javax.free:freejava&#45;valtype:3.0.0&#45;&gt;javax.free:freejava&#45;closure:3.0.0 -->
<g id="edge48" class="edge"><title>javax.free:freejava&#45;valtype:3.0.0&#45;&gt;javax.free:freejava&#45;closure:3.0.0</title>
<path fill="none" stroke="black" d="M344.109,-483.825C344.463,-458.226 345.839,-411.522 351,-372 355.531,-337.303 364.284,-298.025 370.598,-272.021"/>
<polygon fill="black" stroke="black" points="374.054,-272.623 373.051,-262.076 367.258,-270.947 374.054,-272.623"/>
</g>
<!-- javax.free:freejava&#45;valtype:3.0.0&#45;&gt;javax.free:freejava&#45;sio:3.0.0 -->
<g id="edge38" class="edge"><title>javax.free:freejava&#45;valtype:3.0.0&#45;&gt;javax.free:freejava&#45;sio:3.0.0</title>
<path fill="none" stroke="black" d="M301.935,-488.084C280.215,-478.911 254.299,-465.529 235,-448 226.045,-439.866 218.453,-429.009 212.583,-418.953"/>
<polygon fill="black" stroke="black" points="215.57,-417.122 207.686,-410.044 209.436,-420.494 215.57,-417.122"/>
</g>
<!-- commons&#45;lang:commons&#45;lang:2.6 -->
<g id="node19" class="node"><title>commons&#45;lang:commons&#45;lang:2.6</title>
<polygon fill="white" stroke="black" points="337,-410 257,-410 257,-372 337,-372 337,-410"/>
<text text-anchor="middle" x="297" y="-398.8" font-family="SanSerif" font-size="8.00">commons&#45;lang</text>
<text text-anchor="middle" x="297" y="-388.8" font-family="SanSerif" font-size="8.00">commons&#45;lang</text>
<text text-anchor="middle" x="297" y="-378.8" font-family="SanSerif" font-size="8.00">2.6</text>
</g>
<!-- javax.free:freejava&#45;valtype:3.0.0&#45;&gt;commons&#45;lang:commons&#45;lang:2.6 -->
<g id="edge42" class="edge"><title>javax.free:freejava&#45;valtype:3.0.0&#45;&gt;commons&#45;lang:commons&#45;lang:2.6</title>
<path fill="none" stroke="black" d="M335.92,-483.747C328.477,-466.009 317.339,-439.467 308.882,-419.315"/>
<polygon fill="black" stroke="black" points="312.071,-417.869 304.974,-410.002 305.616,-420.578 312.071,-417.869"/>
</g>
<!-- javax.free:freejava&#45;primitive:3.0.0 -->
<g id="node20" class="node"><title>javax.free:freejava&#45;primitive:3.0.0</title>
<polygon fill="white" stroke="black" points="336,-336 246,-336 246,-298 336,-298 336,-336"/>
<text text-anchor="middle" x="291" y="-324.8" font-family="SanSerif" font-size="8.00">javax.free</text>
<text text-anchor="middle" x="291" y="-314.8" font-family="SanSerif" font-size="8.00">freejava&#45;primitive</text>
<text text-anchor="middle" x="291" y="-304.8" font-family="SanSerif" font-size="8.00">3.0.0</text>
</g>
<!-- javax.free:freejava&#45;valtype:3.0.0&#45;&gt;javax.free:freejava&#45;primitive:3.0.0 -->
<g id="edge46" class="edge"><title>javax.free:freejava&#45;valtype:3.0.0&#45;&gt;javax.free:freejava&#45;primitive:3.0.0</title>
<path fill="none" stroke="black" d="M317.449,-483.9C296.585,-467.119 269.098,-440.641 257,-410 250.798,-394.291 252.384,-388.246 257,-372 259.704,-362.484 264.575,-353.002 269.801,-344.658"/>
<polygon fill="black" stroke="black" points="272.873,-346.361 275.526,-336.103 267.056,-342.468 272.873,-346.361"/>
</g>
<!-- javax.free:freejava&#45;primitive:3.0.0&#45;&gt;javax.free:freejava&#45;meta:3.0.0 -->
<g id="edge44" class="edge"><title>javax.free:freejava&#45;primitive:3.0.0&#45;&gt;javax.free:freejava&#45;meta:3.0.0</title>
<path fill="none" stroke="black" d="M275.823,-297.934C262.519,-278.745 247.026,-248.556 259,-224 274.023,-193.192 304.733,-169.598 331.191,-153.883"/>
<polygon fill="black" stroke="black" points="333.032,-156.862 339.973,-148.857 329.555,-150.787 333.032,-156.862"/>
</g>
</g>
</svg>
