<?xml version="1.0" encoding="UTF-8" standalone="no"?>
<!DOCTYPE svg PUBLIC "-//W3C//DTD SVG 1.1//EN"
 "http://www.w3.org/Graphics/SVG/1.1/DTD/svg11.dtd">
<!-- Generated by graphviz version 2.26.3 (20100126.1600)
 -->
<!-- Title: dependencies Pages: 1 -->
<svg width="437pt" height="220pt"
 viewBox="0.00 0.00 437.00 220.00" xmlns="http://www.w3.org/2000/svg" xmlns:xlink="http://www.w3.org/1999/xlink">
<g id="graph1" class="graph" transform="scale(1 1) rotate(0) translate(4 216)">
<title>dependencies</title>
<polygon fill="white" stroke="white" points="-4,5 -4,-216 434,-216 434,5 -4,5"/>
<text text-anchor="middle" x="214.5" y="-191.8" font-family="Serif" font-size="18.00">Dependency Graph for Plover :: Repr :: X2csv</text>
<!-- com.bee32.plover:plover&#45;x2csv:0.0.1&#45;SNAPSHOT -->
<g id="node1" class="node"><title>com.bee32.plover:plover&#45;x2csv:0.0.1&#45;SNAPSHOT</title>
<polygon fill="#dddddd" stroke="black" points="283.5,-182 145.5,-182 145.5,-120 283.5,-120 283.5,-182"/>
<text text-anchor="middle" x="214.5" y="-165.4" font-family="SanSerif" font-size="14.00">com.bee32.plover</text>
<text text-anchor="middle" x="214.5" y="-147.4" font-family="SanSerif" font-size="14.00">plover&#45;x2csv</text>
<text text-anchor="middle" x="214.5" y="-129.4" font-family="SanSerif" font-size="14.00">0.0.1&#45;SNAPSHOT</text>
</g>
<!-- junit:junit:4.8.2 -->
<g id="node2" class="node"><title>junit:junit:4.8.2</title>
<polygon fill="white" stroke="cornflowerblue" points="241.5,-38 187.5,-38 187.5,-7.10543e-15 241.5,-3.55271e-15 241.5,-38"/>
<text text-anchor="middle" x="214.5" y="-26.8" font-family="SanSerif" font-size="8.00" fill="cornflowerblue">junit</text>
<text text-anchor="middle" x="214.5" y="-16.8" font-family="SanSerif" font-size="8.00" fill="cornflowerblue">junit</text>
<text text-anchor="middle" x="214.5" y="-6.8" font-family="SanSerif" font-size="8.00" fill="cornflowerblue">4.8.2</text>
</g>
<!-- com.bee32.plover:plover&#45;x2csv:0.0.1&#45;SNAPSHOT&#45;&gt;junit:junit:4.8.2 -->
<g id="edge2" class="edge"><title>com.bee32.plover:plover&#45;x2csv:0.0.1&#45;SNAPSHOT&#45;&gt;junit:junit:4.8.2</title>
<path fill="none" stroke="cornflowerblue" d="M214.5,-119.718C214.5,-98.0649 214.5,-69.4424 214.5,-48.2455"/>
<polygon fill="cornflowerblue" stroke="cornflowerblue" points="218,-48.2071 214.5,-38.2072 211,-48.2072 218,-48.2071"/>
<text text-anchor="middle" x="223" y="-76.8" font-family="SanSerif" font-size="8.00" fill="cornflowerblue">test</text>
</g>
</g>
</svg>
