<?xml version="1.0" encoding="UTF-8" standalone="no"?>
<!DOCTYPE svg PUBLIC "-//W3C//DTD SVG 1.1//EN"
 "http://www.w3.org/Graphics/SVG/1.1/DTD/svg11.dtd">
<!-- Generated by graphviz version 2.26.3 (20100126.1600)
 -->
<!-- Title: dependencies Pages: 1 -->
<svg width="427pt" height="444pt"
 viewBox="0.00 0.00 427.00 444.00" xmlns="http://www.w3.org/2000/svg" xmlns:xlink="http://www.w3.org/1999/xlink">
<g id="graph1" class="graph" transform="scale(1 1) rotate(0) translate(4 440)">
<title>dependencies</title>
<polygon fill="white" stroke="white" points="-4,5 -4,-440 424,-440 424,5 -4,5"/>
<text text-anchor="middle" x="209.5" y="-415.8" font-family="Serif" font-size="18.00">Dependency Graph for Plover :: Core :: Expr</text>
<!-- com.bee32.plover:plover&#45;expr:0.0.1&#45;SNAPSHOT -->
<g id="node1" class="node"><title>com.bee32.plover:plover&#45;expr:0.0.1&#45;SNAPSHOT</title>
<polygon fill="#dddddd" stroke="black" points="277.5,-406 139.5,-406 139.5,-344 277.5,-344 277.5,-406"/>
<text text-anchor="middle" x="208.5" y="-389.4" font-family="SanSerif" font-size="14.00">com.bee32.plover</text>
<text text-anchor="middle" x="208.5" y="-371.4" font-family="SanSerif" font-size="14.00">plover&#45;expr</text>
<text text-anchor="middle" x="208.5" y="-353.4" font-family="SanSerif" font-size="14.00">0.0.1&#45;SNAPSHOT</text>
</g>
<!-- javax.free:freejava&#45;closure:3.0.0 -->
<g id="node2" class="node"><title>javax.free:freejava&#45;closure:3.0.0</title>
<polygon fill="white" stroke="black" points="164.5,-262 78.5,-262 78.5,-224 164.5,-224 164.5,-262"/>
<text text-anchor="middle" x="121.5" y="-250.8" font-family="SanSerif" font-size="8.00">javax.free</text>
<text text-anchor="middle" x="121.5" y="-240.8" font-family="SanSerif" font-size="8.00">freejava&#45;closure</text>
<text text-anchor="middle" x="121.5" y="-230.8" font-family="SanSerif" font-size="8.00">3.0.0</text>
</g>
<!-- com.bee32.plover:plover&#45;expr:0.0.1&#45;SNAPSHOT&#45;&gt;javax.free:freejava&#45;closure:3.0.0 -->
<g id="edge8" class="edge"><title>com.bee32.plover:plover&#45;expr:0.0.1&#45;SNAPSHOT&#45;&gt;javax.free:freejava&#45;closure:3.0.0</title>
<path fill="none" stroke="black" d="M187.882,-343.718C173.285,-321.571 153.882,-292.132 139.826,-270.805"/>
<polygon fill="black" stroke="black" points="142.585,-268.631 134.159,-262.207 136.74,-272.483 142.585,-268.631"/>
</g>
<!-- javax.free:freejava&#45;string:3.0.0 -->
<g id="node6" class="node"><title>javax.free:freejava&#45;string:3.0.0</title>
<polygon fill="white" stroke="black" points="247.5,-262 169.5,-262 169.5,-224 247.5,-224 247.5,-262"/>
<text text-anchor="middle" x="208.5" y="-250.8" font-family="SanSerif" font-size="8.00">javax.free</text>
<text text-anchor="middle" x="208.5" y="-240.8" font-family="SanSerif" font-size="8.00">freejava&#45;string</text>
<text text-anchor="middle" x="208.5" y="-230.8" font-family="SanSerif" font-size="8.00">3.0.0</text>
</g>
<!-- com.bee32.plover:plover&#45;expr:0.0.1&#45;SNAPSHOT&#45;&gt;javax.free:freejava&#45;string:3.0.0 -->
<g id="edge20" class="edge"><title>com.bee32.plover:plover&#45;expr:0.0.1&#45;SNAPSHOT&#45;&gt;javax.free:freejava&#45;string:3.0.0</title>
<path fill="none" stroke="black" d="M208.5,-343.718C208.5,-322.065 208.5,-293.442 208.5,-272.246"/>
<polygon fill="black" stroke="black" points="212,-272.207 208.5,-262.207 205,-272.207 212,-272.207"/>
</g>
<!-- junit:junit:4.8.2 -->
<g id="node11" class="node"><title>junit:junit:4.8.2</title>
<polygon fill="white" stroke="cornflowerblue" points="305.5,-262 251.5,-262 251.5,-224 305.5,-224 305.5,-262"/>
<text text-anchor="middle" x="278.5" y="-250.8" font-family="SanSerif" font-size="8.00" fill="cornflowerblue">junit</text>
<text text-anchor="middle" x="278.5" y="-240.8" font-family="SanSerif" font-size="8.00" fill="cornflowerblue">junit</text>
<text text-anchor="middle" x="278.5" y="-230.8" font-family="SanSerif" font-size="8.00" fill="cornflowerblue">4.8.2</text>
</g>
<!-- com.bee32.plover:plover&#45;expr:0.0.1&#45;SNAPSHOT&#45;&gt;junit:junit:4.8.2 -->
<g id="edge22" class="edge"><title>com.bee32.plover:plover&#45;expr:0.0.1&#45;SNAPSHOT&#45;&gt;junit:junit:4.8.2</title>
<path fill="none" stroke="cornflowerblue" d="M225.089,-343.718C236.781,-321.669 252.306,-292.394 263.603,-271.092"/>
<polygon fill="cornflowerblue" stroke="cornflowerblue" points="266.721,-272.682 268.314,-262.207 260.537,-269.402 266.721,-272.682"/>
<text text-anchor="middle" x="257" y="-300.8" font-family="SanSerif" font-size="8.00" fill="cornflowerblue">test</text>
</g>
<!-- javax.free:freejava&#45;meta:3.0.0 -->
<g id="node3" class="node"><title>javax.free:freejava&#45;meta:3.0.0</title>
<polygon fill="white" stroke="black" points="155.5,-150 79.5,-150 79.5,-112 155.5,-112 155.5,-150"/>
<text text-anchor="middle" x="117.5" y="-138.8" font-family="SanSerif" font-size="8.00">javax.free</text>
<text text-anchor="middle" x="117.5" y="-128.8" font-family="SanSerif" font-size="8.00">freejava&#45;meta</text>
<text text-anchor="middle" x="117.5" y="-118.8" font-family="SanSerif" font-size="8.00">3.0.0</text>
</g>
<!-- javax.free:freejava&#45;closure:3.0.0&#45;&gt;javax.free:freejava&#45;meta:3.0.0 -->
<g id="edge6" class="edge"><title>javax.free:freejava&#45;closure:3.0.0&#45;&gt;javax.free:freejava&#45;meta:3.0.0</title>
<path fill="none" stroke="black" d="M120.812,-223.747C120.188,-206.251 119.257,-180.189 118.541,-160.143"/>
<polygon fill="black" stroke="black" points="122.033,-159.871 118.179,-150.002 115.038,-160.121 122.033,-159.871"/>
</g>
<!-- javax.free:freejava&#45;annotation:3.0.0 -->
<g id="node4" class="node"><title>javax.free:freejava&#45;annotation:3.0.0</title>
<polygon fill="white" stroke="black" points="126.5,-38 28.5,-38 28.5,-7.10543e-15 126.5,-3.55271e-15 126.5,-38"/>
<text text-anchor="middle" x="77.5" y="-26.8" font-family="SanSerif" font-size="8.00">javax.free</text>
<text text-anchor="middle" x="77.5" y="-16.8" font-family="SanSerif" font-size="8.00">freejava&#45;annotation</text>
<text text-anchor="middle" x="77.5" y="-6.8" font-family="SanSerif" font-size="8.00">3.0.0</text>
</g>
<!-- javax.free:freejava&#45;meta:3.0.0&#45;&gt;javax.free:freejava&#45;annotation:3.0.0 -->
<g id="edge2" class="edge"><title>javax.free:freejava&#45;meta:3.0.0&#45;&gt;javax.free:freejava&#45;annotation:3.0.0</title>
<path fill="none" stroke="black" d="M110.624,-111.747C104.318,-94.0901 94.8957,-67.7079 87.7108,-47.5902"/>
<polygon fill="black" stroke="black" points="90.946,-46.2425 84.2865,-38.0022 84.3538,-48.5969 90.946,-46.2425"/>
</g>
<!-- javax.free:freejava&#45;c1:3.0.0 -->
<g id="node5" class="node"><title>javax.free:freejava&#45;c1:3.0.0</title>
<polygon fill="white" stroke="black" points="194.5,-38 130.5,-38 130.5,-7.10543e-15 194.5,-3.55271e-15 194.5,-38"/>
<text text-anchor="middle" x="162.5" y="-26.8" font-family="SanSerif" font-size="8.00">javax.free</text>
<text text-anchor="middle" x="162.5" y="-16.8" font-family="SanSerif" font-size="8.00">freejava&#45;c1</text>
<text text-anchor="middle" x="162.5" y="-6.8" font-family="SanSerif" font-size="8.00">3.0.0</text>
</g>
<!-- javax.free:freejava&#45;meta:3.0.0&#45;&gt;javax.free:freejava&#45;c1:3.0.0 -->
<g id="edge4" class="edge"><title>javax.free:freejava&#45;meta:3.0.0&#45;&gt;javax.free:freejava&#45;c1:3.0.0</title>
<path fill="none" stroke="black" d="M125.236,-111.747C132.362,-94.0095 143.027,-67.4668 151.123,-47.315"/>
<polygon fill="black" stroke="black" points="154.385,-48.5862 154.865,-38.0022 147.889,-45.9764 154.385,-48.5862"/>
</g>
<!-- javax.free:freejava&#45;string:3.0.0&#45;&gt;javax.free:freejava&#45;c1:3.0.0 -->
<g id="edge18" class="edge"><title>javax.free:freejava&#45;string:3.0.0&#45;&gt;javax.free:freejava&#45;c1:3.0.0</title>
<path fill="none" stroke="black" d="M198.089,-223.701C188.748,-205.333 175.6,-176.623 169.5,-150 161.677,-115.854 160.727,-75.4508 161.216,-48.635"/>
<polygon fill="black" stroke="black" points="164.721,-48.4654 161.485,-38.3769 157.724,-48.2814 164.721,-48.4654"/>
</g>
<!-- commons&#45;lang:commons&#45;lang:2.6 -->
<g id="node7" class="node"><title>commons&#45;lang:commons&#45;lang:2.6</title>
<polygon fill="white" stroke="black" points="249.5,-150 169.5,-150 169.5,-112 249.5,-112 249.5,-150"/>
<text text-anchor="middle" x="209.5" y="-138.8" font-family="SanSerif" font-size="8.00">commons&#45;lang</text>
<text text-anchor="middle" x="209.5" y="-128.8" font-family="SanSerif" font-size="8.00">commons&#45;lang</text>
<text text-anchor="middle" x="209.5" y="-118.8" font-family="SanSerif" font-size="8.00">2.6</text>
</g>
<!-- javax.free:freejava&#45;string:3.0.0&#45;&gt;commons&#45;lang:commons&#45;lang:2.6 -->
<g id="edge10" class="edge"><title>javax.free:freejava&#45;string:3.0.0&#45;&gt;commons&#45;lang:commons&#45;lang:2.6</title>
<path fill="none" stroke="black" d="M208.672,-223.747C208.828,-206.251 209.061,-180.189 209.24,-160.143"/>
<polygon fill="black" stroke="black" points="212.741,-160.033 209.33,-150.002 205.741,-159.971 212.741,-160.033"/>
</g>
<!-- javax.free:freejava&#45;sio:3.0.0 -->
<g id="node8" class="node"><title>javax.free:freejava&#45;sio:3.0.0</title>
<polygon fill="white" stroke="black" points="319.5,-150 253.5,-150 253.5,-112 319.5,-112 319.5,-150"/>
<text text-anchor="middle" x="286.5" y="-138.8" font-family="SanSerif" font-size="8.00">javax.free</text>
<text text-anchor="middle" x="286.5" y="-128.8" font-family="SanSerif" font-size="8.00">freejava&#45;sio</text>
<text text-anchor="middle" x="286.5" y="-118.8" font-family="SanSerif" font-size="8.00">3.0.0</text>
</g>
<!-- javax.free:freejava&#45;string:3.0.0&#45;&gt;javax.free:freejava&#45;sio:3.0.0 -->
<g id="edge16" class="edge"><title>javax.free:freejava&#45;string:3.0.0&#45;&gt;javax.free:freejava&#45;sio:3.0.0</title>
<path fill="none" stroke="black" d="M221.909,-223.747C234.486,-205.687 253.421,-178.499 267.542,-158.222"/>
<polygon fill="black" stroke="black" points="270.423,-160.209 273.266,-150.002 264.679,-156.208 270.423,-160.209"/>
</g>
<!-- javax.free:freejava&#45;bits:3.0.0 -->
<g id="node9" class="node"><title>javax.free:freejava&#45;bits:3.0.0</title>
<polygon fill="white" stroke="black" points="294.5,-38 224.5,-38 224.5,-7.10543e-15 294.5,-3.55271e-15 294.5,-38"/>
<text text-anchor="middle" x="259.5" y="-26.8" font-family="SanSerif" font-size="8.00">javax.free</text>
<text text-anchor="middle" x="259.5" y="-16.8" font-family="SanSerif" font-size="8.00">freejava&#45;bits</text>
<text text-anchor="middle" x="259.5" y="-6.8" font-family="SanSerif" font-size="8.00">3.0.0</text>
</g>
<!-- javax.free:freejava&#45;sio:3.0.0&#45;&gt;javax.free:freejava&#45;bits:3.0.0 -->
<g id="edge12" class="edge"><title>javax.free:freejava&#45;sio:3.0.0&#45;&gt;javax.free:freejava&#45;bits:3.0.0</title>
<path fill="none" stroke="black" d="M281.859,-111.747C277.622,-94.1707 271.3,-67.9487 266.459,-47.8662"/>
<polygon fill="black" stroke="black" points="269.827,-46.9035 264.081,-38.0022 263.022,-48.544 269.827,-46.9035"/>
</g>
<!-- javax.free:freejava&#45;proxy&#45;api:3.0.0 -->
<g id="node10" class="node"><title>javax.free:freejava&#45;proxy&#45;api:3.0.0</title>
<polygon fill="white" stroke="black" points="390.5,-38 298.5,-38 298.5,-7.10543e-15 390.5,-3.55271e-15 390.5,-38"/>
<text text-anchor="middle" x="344.5" y="-26.8" font-family="SanSerif" font-size="8.00">javax.free</text>
<text text-anchor="middle" x="344.5" y="-16.8" font-family="SanSerif" font-size="8.00">freejava&#45;proxy&#45;api</text>
<text text-anchor="middle" x="344.5" y="-6.8" font-family="SanSerif" font-size="8.00">3.0.0</text>
</g>
<!-- javax.free:freejava&#45;sio:3.0.0&#45;&gt;javax.free:freejava&#45;proxy&#45;api:3.0.0 -->
<g id="edge14" class="edge"><title>javax.free:freejava&#45;sio:3.0.0&#45;&gt;javax.free:freejava&#45;proxy&#45;api:3.0.0</title>
<path fill="none" stroke="black" d="M296.471,-111.747C305.698,-93.9288 319.526,-67.2253 329.979,-47.0406"/>
<polygon fill="black" stroke="black" points="333.169,-48.4917 334.66,-38.0022 326.953,-45.2727 333.169,-48.4917"/>
</g>
</g>
</svg>
